<svg width="56" height="56" viewBox="0 0 56 56" fill="none" xmlns="http://www.w3.org/2000/svg">
<rect width="56" height="56" rx="28" fill="#074ED6"/>
<path d="M31.3337 38H23.8337C21.5362 38 19.667 36.1308 19.667 33.8333V23.8333C19.667 23.6123 19.7548 23.4004 19.9111 23.2441C20.0674 23.0878 20.2793 23 20.5003 23C20.7213 23 20.9333 23.0878 21.0896 23.2441C21.2459 23.4004 21.3337 23.6123 21.3337 23.8333V33.8333C21.3337 35.2117 22.4553 36.3333 23.8337 36.3333H31.3337C31.5547 36.3333 31.7666 36.4211 31.9229 36.5774C32.0792 36.7337 32.167 36.9457 32.167 37.1667C32.167 37.3877 32.0792 37.5996 31.9229 37.7559C31.7666 37.9122 31.5547 38 31.3337 38ZM36.3337 22.1667V30.5C36.3337 32.7975 34.4645 34.6667 32.167 34.6667H27.167C24.8695 34.6667 23.0003 32.7975 23.0003 30.5V22.1667C23.0003 19.8692 24.8695 18 27.167 18H32.167C34.4645 18 36.3337 19.8692 36.3337 22.1667ZM28.0003 29.6667C28.0003 29.4457 27.9125 29.2337 27.7562 29.0774C27.6 28.9211 27.388 28.8333 27.167 28.8333C26.946 28.8333 26.734 28.9211 26.5777 29.0774C26.4215 29.2337 26.3337 29.4457 26.3337 29.6667V30.5C26.3337 30.721 26.4215 30.933 26.5777 31.0893C26.734 31.2455 26.946 31.3333 27.167 31.3333C27.388 31.3333 27.6 31.2455 27.7562 31.0893C27.9125 30.933 28.0003 30.721 28.0003 30.5V29.6667ZM30.5003 28C30.5003 27.779 30.4125 27.567 30.2562 27.4107C30.1 27.2545 29.888 27.1667 29.667 27.1667C29.446 27.1667 29.234 27.2545 29.0777 27.4107C28.9215 27.567 28.8337 27.779 28.8337 28V30.5C28.8337 30.721 28.9215 30.933 29.0777 31.0893C29.234 31.2455 29.446 31.3333 29.667 31.3333C29.888 31.3333 30.1 31.2455 30.2562 31.0893C30.4125 30.933 30.5003 30.721 30.5003 30.5V28ZM33.0003 28.8333C33.0003 28.6123 32.9125 28.4004 32.7562 28.2441C32.6 28.0878 32.388 28 32.167 28C31.946 28 31.734 28.0878 31.5777 28.2441C31.4215 28.4004 31.3337 28.6123 31.3337 28.8333V30.5C31.3337 30.721 31.4215 30.933 31.5777 31.0893C31.734 31.2455 31.946 31.3333 32.167 31.3333C32.388 31.3333 32.6 31.2455 32.7562 31.0893C32.9125 30.933 33.0003 30.721 33.0003 30.5V28.8333ZM33.0003 22.1667C33.0003 21.9457 32.9125 21.7337 32.7562 21.5774C32.6 21.4211 32.388 21.3333 32.167 21.3333H30.2478C29.7312 21.3333 29.472 21.9583 29.8378 22.3233L30.3345 22.82L29.6662 23.4883L29.0053 22.8275C28.928 22.75 28.8362 22.6886 28.7351 22.6467C28.634 22.6047 28.5256 22.5832 28.4162 22.5832C28.3067 22.5832 28.1983 22.6047 28.0972 22.6467C27.9962 22.6886 27.9043 22.75 27.827 22.8275L26.577 24.0775C26.4996 24.1549 26.4382 24.2467 26.3964 24.3478C26.3545 24.4489 26.333 24.5572 26.333 24.6667C26.333 24.7761 26.3545 24.8844 26.3964 24.9855C26.4382 25.0866 26.4996 25.1785 26.577 25.2558C26.6544 25.3332 26.7462 25.3946 26.8473 25.4365C26.9484 25.4783 27.0567 25.4999 27.1662 25.4999C27.2756 25.4999 27.3839 25.4783 27.485 25.4365C27.5861 25.3946 27.678 25.3332 27.7553 25.2558L28.4162 24.595L29.077 25.2558C29.1542 25.3335 29.246 25.3951 29.3471 25.4372C29.4482 25.4792 29.5567 25.5009 29.6662 25.5009C29.7757 25.5009 29.8841 25.4792 29.9852 25.4372C30.0863 25.3951 30.1781 25.3335 30.2553 25.2558L31.5128 23.9983L32.0095 24.495C32.0906 24.5761 32.1939 24.6313 32.3064 24.6536C32.4189 24.676 32.5355 24.6645 32.6414 24.6206C32.7474 24.5767 32.8379 24.5024 32.9017 24.4071C32.9654 24.3118 32.9994 24.1997 32.9995 24.085V22.1658L33.0003 22.1667Z" fill="white"/>
</svg>
