<svg width="56" height="56" viewBox="0 0 56 56" fill="none" xmlns="http://www.w3.org/2000/svg">
<rect width="56" height="56" rx="28" fill="#074ED6"/>
<g clip-path="url(#clip0_446_13750)">
<path d="M33.4167 38.0001C33.2133 38.0001 33.0392 37.9151 32.8767 37.8285C31.9283 37.3551 28.8325 35.5776 28.8325 32.6018V29.946C28.8325 28.8668 29.5208 27.9135 30.545 27.5726L32.6283 26.8818C33.14 26.7143 33.6917 26.7143 34.2033 26.8818L36.2867 27.5726C36.7856 27.7378 37.2197 28.056 37.5273 28.4821C37.8349 28.9082 38.0003 29.4205 38 29.946V32.6018C38 35.9593 34.8642 37.4826 33.9025 37.8701C33.7542 37.9318 33.62 38.0001 33.4167 38.0001ZM27.19 33.0001H22.1667C21.9457 33.0001 21.7337 32.9123 21.5774 32.7561C21.4211 32.5998 21.3333 32.3878 21.3333 32.1668C21.3333 31.9458 21.4211 31.7338 21.5774 31.5776C21.7337 31.4213 21.9457 31.3335 22.1667 31.3335H27.1658V29.946C27.1658 29.851 27.1817 29.7601 27.1883 29.6668H22.1667C21.9457 29.6668 21.7337 29.579 21.5774 29.4227C21.4211 29.2665 21.3333 29.0545 21.3333 28.8335C21.3333 28.6125 21.4211 28.4005 21.5774 28.2442C21.7337 28.0879 21.9457 28.0001 22.1667 28.0001H27.6517C28.152 27.0497 29.0007 26.3297 30.02 25.991L32.1042 25.3001C32.3954 25.2086 32.6958 25.1493 33 25.1235V23.8343C33.0042 21.4835 31.3333 19.6676 28.6908 19.6676C28.5179 19.1806 28.1984 18.7589 27.7764 18.4605C27.3543 18.1621 26.8502 18.0016 26.3333 18.001H24.6667C24.1498 18.0016 23.6457 18.1621 23.2237 18.4605C22.8016 18.7589 22.4822 19.1806 22.3092 19.6676C19.6667 19.6668 17.9958 21.4826 18 23.8335V33.8335C18 36.131 19.8692 38.0001 22.1667 38.0001H30.0775C28.7558 36.936 27.3425 35.2735 27.19 33.0001ZM22.1667 24.6668H28.8333C29.0544 24.6668 29.2663 24.7546 29.4226 24.9109C29.5789 25.0672 29.6667 25.2791 29.6667 25.5001C29.6667 25.7212 29.5789 25.9331 29.4226 26.0894C29.2663 26.2457 29.0544 26.3335 28.8333 26.3335H22.1667C21.9457 26.3335 21.7337 26.2457 21.5774 26.0894C21.4211 25.9331 21.3333 25.7212 21.3333 25.5001C21.3333 25.2791 21.4211 25.0672 21.5774 24.9109C21.7337 24.7546 21.9457 24.6668 22.1667 24.6668Z" fill="white"/>
</g>
<defs>
<clipPath id="clip0_446_13750">
<rect width="20" height="20" fill="white" transform="translate(18 18)"/>
</clipPath>
</defs>
</svg>
