<svg width="56" height="56" viewBox="0 0 56 56" fill="none" xmlns="http://www.w3.org/2000/svg">
<rect width="56" height="56" rx="28" fill="#074ED6"/>
<path d="M31.3333 18H24.6667C22.3692 18 20.5 19.8692 20.5 22.1667V33.8333C20.5 36.1308 22.3692 38 24.6667 38H31.3333C33.6308 38 35.5 36.1308 35.5 33.8333V22.1667C35.5 19.8692 33.6308 18 31.3333 18ZM28 32.1667H24.6667C24.4457 32.1667 24.2337 32.0789 24.0774 31.9226C23.9211 31.7663 23.8333 31.5543 23.8333 31.3333C23.8333 31.1123 23.9211 30.9004 24.0774 30.7441C24.2337 30.5878 24.4457 30.5 24.6667 30.5H28C28.221 30.5 28.433 30.5878 28.5893 30.7441C28.7455 30.9004 28.8333 31.1123 28.8333 31.3333C28.8333 31.5543 28.7455 31.7663 28.5893 31.9226C28.433 32.0789 28.221 32.1667 28 32.1667ZM31.3333 28H24.6667C24.4457 28 24.2337 27.9122 24.0774 27.7559C23.9211 27.5996 23.8333 27.3877 23.8333 27.1667C23.8333 26.9457 23.9211 26.7337 24.0774 26.5774C24.2337 26.4211 24.4457 26.3333 24.6667 26.3333H31.3333C31.5543 26.3333 31.7663 26.4211 31.9226 26.5774C32.0789 26.7337 32.1667 26.9457 32.1667 27.1667C32.1667 27.3877 32.0789 27.5996 31.9226 27.7559C31.7663 27.9122 31.5543 28 31.3333 28ZM31.3333 23.8333H24.6667C24.4457 23.8333 24.2337 23.7455 24.0774 23.5893C23.9211 23.433 23.8333 23.221 23.8333 23C23.8333 22.779 23.9211 22.567 24.0774 22.4107C24.2337 22.2545 24.4457 22.1667 24.6667 22.1667H31.3333C31.5543 22.1667 31.7663 22.2545 31.9226 22.4107C32.0789 22.567 32.1667 22.779 32.1667 23C32.1667 23.221 32.0789 23.433 31.9226 23.5893C31.7663 23.7455 31.5543 23.8333 31.3333 23.8333Z" fill="white"/>
</svg>
