<svg width="56" height="56" viewBox="0 0 56 56" fill="none" xmlns="http://www.w3.org/2000/svg">
<rect width="56" height="56" rx="28" fill="#074ED6"/>
<g clip-path="url(#clip0_446_13480)">
<path d="M31.3333 19.81V18.8333C31.3333 18.6123 31.2455 18.4004 31.0893 18.2441C30.933 18.0878 30.721 18 30.5 18C30.279 18 30.067 18.0878 29.9107 18.2441C29.7545 18.4004 29.6667 18.6123 29.6667 18.8333V19.6667H28V18.8333C28 18.6123 27.9122 18.4004 27.7559 18.2441C27.5996 18.0878 27.3877 18 27.1667 18C26.9457 18 26.7337 18.0878 26.5774 18.2441C26.4211 18.4004 26.3333 18.6123 26.3333 18.8333V19.6667H24.6667V18.8333C24.6667 18.6123 24.5789 18.4004 24.4226 18.2441C24.2663 18.0878 24.0543 18 23.8333 18C23.6123 18 23.4004 18.0878 23.2441 18.2441C23.0878 18.4004 23 18.6123 23 18.8333V19.6667H21.3333V18.8333C21.3333 18.6123 21.2455 18.4004 21.0893 18.2441C20.933 18.0878 20.721 18 20.5 18C20.279 18 20.067 18.0878 19.9107 18.2441C19.7545 18.4004 19.6667 18.6123 19.6667 18.8333V19.81C19.1796 19.9827 18.7579 20.302 18.4595 20.7239C18.1611 21.1459 18.0006 21.6499 18 22.1667V33.8333C18 36.1308 19.8692 38 22.1667 38H28.8333C31.1308 38 33 36.1308 33 33.8333V22.1667C32.9994 21.6499 32.8389 21.1459 32.5405 20.7239C32.2421 20.302 31.8204 19.9827 31.3333 19.81ZM26.3333 32.1667H22.1667C21.9457 32.1667 21.7337 32.0789 21.5774 31.9226C21.4211 31.7663 21.3333 31.5543 21.3333 31.3333C21.3333 31.1123 21.4211 30.9004 21.5774 30.7441C21.7337 30.5878 21.9457 30.5 22.1667 30.5H26.3333C26.5543 30.5 26.7663 30.5878 26.9226 30.7441C27.0789 30.9004 27.1667 31.1123 27.1667 31.3333C27.1667 31.5543 27.0789 31.7663 26.9226 31.9226C26.7663 32.0789 26.5543 32.1667 26.3333 32.1667ZM28.8333 28.8333H22.1667C21.9457 28.8333 21.7337 28.7455 21.5774 28.5893C21.4211 28.433 21.3333 28.221 21.3333 28C21.3333 27.779 21.4211 27.567 21.5774 27.4107C21.7337 27.2545 21.9457 27.1667 22.1667 27.1667H28.8333C29.0543 27.1667 29.2663 27.2545 29.4226 27.4107C29.5789 27.567 29.6667 27.779 29.6667 28C29.6667 28.221 29.5789 28.433 29.4226 28.5893C29.2663 28.7455 29.0543 28.8333 28.8333 28.8333ZM28.8333 25.5H22.1667C21.9457 25.5 21.7337 25.4122 21.5774 25.2559C21.4211 25.0996 21.3333 24.8877 21.3333 24.6667C21.3333 24.4457 21.4211 24.2337 21.5774 24.0774C21.7337 23.9211 21.9457 23.8333 22.1667 23.8333H28.8333C29.0543 23.8333 29.2663 23.9211 29.4226 24.0774C29.5789 24.2337 29.6667 24.4457 29.6667 24.6667C29.6667 24.8877 29.5789 25.0996 29.4226 25.2559C29.2663 25.4122 29.0543 25.5 28.8333 25.5ZM36.3333 38L35.3992 37.0658C34.9303 36.5971 34.6668 35.9613 34.6667 35.2983V19.6667C34.6667 19.2246 34.8423 18.8007 35.1548 18.4882C35.4674 18.1756 35.8913 18 36.3333 18C36.7754 18 37.1993 18.1756 37.5118 18.4882C37.8244 18.8007 38 19.2246 38 19.6667V35.2975C38 35.9608 37.7367 36.5967 37.2675 37.065L36.3333 38Z" fill="white"/>
</g>
<defs>
<clipPath id="clip0_446_13480">
<rect width="20" height="20" fill="white" transform="translate(18 18)"/>
</clipPath>
</defs>
</svg>
