<svg width="56" height="56" viewBox="0 0 56 56" fill="none" xmlns="http://www.w3.org/2000/svg">
<rect width="56" height="56" rx="28" fill="#074ED6"/>
<g clip-path="url(#clip0_446_13742)">
<path d="M29.0583 24.2336C28.7228 24.569 28.4567 24.9671 28.2751 25.4054C28.0935 25.8436 28 26.3134 28 26.7878V27.5836C28 27.6941 28.0439 27.8001 28.122 27.8782C28.2002 27.9564 28.3062 28.0003 28.4167 28.0003H29.2125C30.1701 28.0001 31.0885 27.6197 31.7658 26.9428L37.3617 21.3469C38.07 20.6386 38.2058 19.4836 37.5717 18.7078C37.4026 18.4996 37.1917 18.3293 36.9527 18.2078C36.7136 18.0863 36.4517 18.0164 36.1839 18.0025C35.9161 17.9887 35.6483 18.0313 35.398 18.1275C35.1477 18.2237 34.9204 18.3714 34.7308 18.5611L29.0583 24.2336ZM32.945 28.1203C32.456 28.612 31.8744 29.0019 31.2337 29.2672C30.593 29.5326 29.906 29.6681 29.2125 29.6661H28C27.558 29.6661 27.1341 29.4905 26.8215 29.1779C26.5089 28.8654 26.3333 28.4414 26.3333 27.9994V26.7869C26.3333 25.3769 26.8825 24.0519 27.8792 23.0544L32.4358 18.4994C31.8415 18.1763 31.1765 18.0048 30.5 18.0003H22.1667C19.8692 18.0003 18 19.8694 18 22.1669V33.8336C18 36.1311 19.8692 38.0003 22.1667 38.0003H30.5C32.7975 38.0003 34.6667 36.1311 34.6667 33.8336V26.3994L32.945 28.1211V28.1203ZM24.8058 31.8886L23.4 33.2944C23.0656 33.6309 22.6137 33.8246 22.1394 33.8348C21.6651 33.8451 21.2053 33.6711 20.8567 33.3494L20.2992 32.8669C20.1416 32.7196 20.0472 32.5169 20.0359 32.3014C20.0246 32.0859 20.0972 31.8745 20.2384 31.7114C20.3797 31.5483 20.5787 31.4463 20.7936 31.4269C21.0085 31.4074 21.2225 31.4719 21.3908 31.6069L21.965 32.1053C22.0508 32.1828 22.155 32.1819 22.2208 32.1161L23.6267 30.7103C23.7829 30.554 23.9949 30.4662 24.2158 30.4662C24.4368 30.4662 24.6487 30.554 24.805 30.7103C24.9613 30.8665 25.049 31.0784 25.049 31.2994C25.049 31.5204 24.9621 31.7323 24.8058 31.8886ZM24.8058 27.7219L23.4 29.1278C23.0656 29.4642 22.6137 29.6579 22.1394 29.6682C21.6651 29.6784 21.2053 29.5044 20.8567 29.1828L20.2992 28.7003C20.1416 28.5529 20.0472 28.3502 20.0359 28.1347C20.0246 27.9193 20.0972 27.7078 20.2384 27.5447C20.3797 27.3817 20.5787 27.2797 20.7936 27.2602C21.0085 27.2407 21.2225 27.3053 21.3908 27.4403L21.965 27.9386C22.0508 28.0161 22.155 28.0153 22.2208 27.9494L23.6267 26.5436C23.704 26.4662 23.7959 26.4048 23.897 26.363C23.9981 26.3211 24.1064 26.2995 24.2158 26.2995C24.3253 26.2995 24.4336 26.3211 24.5347 26.363C24.6358 26.4048 24.7276 26.4662 24.805 26.5436C24.8824 26.621 24.9437 26.7128 24.9856 26.8139C25.0275 26.915 25.049 27.0233 25.049 27.1328C25.049 27.2422 25.0275 27.3505 24.9856 27.4516C24.9437 27.5527 24.8832 27.6445 24.8058 27.7219ZM24.8058 23.5886L23.4 24.9944C23.0656 25.3309 22.6137 25.5246 22.1394 25.5348C21.6651 25.5451 21.2053 25.3711 20.8567 25.0494L20.2992 24.5669C20.1416 24.4196 20.0472 24.2169 20.0359 24.0014C20.0246 23.7859 20.0972 23.5745 20.2384 23.4114C20.3797 23.2483 20.5787 23.1463 20.7936 23.1269C21.0085 23.1074 21.2225 23.1719 21.3908 23.3069L21.965 23.8053C22.0508 23.8836 22.155 23.8819 22.2208 23.8161L23.6267 22.4103C23.7829 22.254 23.9949 22.1662 24.2158 22.1662C24.4368 22.1662 24.6487 22.254 24.805 22.4103C24.9613 22.5665 25.049 22.7784 25.049 22.9994C25.049 23.2204 24.9621 23.4323 24.8058 23.5886ZM31.3333 32.9994H28C27.779 32.9994 27.567 32.9116 27.4107 32.7553C27.2545 32.5991 27.1667 32.3871 27.1667 32.1661C27.1667 31.9451 27.2545 31.7331 27.4107 31.5768C27.567 31.4205 27.779 31.3328 28 31.3328H31.3333C31.5543 31.3328 31.7663 31.4205 31.9226 31.5768C32.0789 31.7331 32.1667 31.9451 32.1667 32.1661C32.1667 32.3871 32.0789 32.5991 31.9226 32.7553C31.7663 32.9116 31.5543 32.9994 31.3333 32.9994Z" fill="white"/>
</g>
<defs>
<clipPath id="clip0_446_13742">
<rect width="20" height="20" fill="white" transform="translate(18 18)"/>
</clipPath>
</defs>
</svg>
