<svg width="56" height="56" viewBox="0 0 56 56" fill="none" xmlns="http://www.w3.org/2000/svg">
<rect width="56" height="56" rx="28" fill="#074ED6"/>
<path d="M32.167 18H23.8337C21.5362 18 19.667 19.8692 19.667 22.1667V33.8333C19.667 36.1308 21.5362 38 23.8337 38H32.167C34.4645 38 36.3337 36.1308 36.3337 33.8333V22.1667C36.3337 19.8692 34.4645 18 32.167 18ZM24.2503 21.75C24.4145 21.7501 24.5771 21.7825 24.7288 21.8453C24.8805 21.9082 25.0183 22.0004 25.1344 22.1165C25.2505 22.2327 25.3425 22.3706 25.4053 22.5223C25.4681 22.674 25.5004 22.8366 25.5003 23.0008C25.5003 23.165 25.4679 23.3276 25.405 23.4793C25.3421 23.631 25.2499 23.7688 25.1338 23.8849C25.0176 24.001 24.8798 24.093 24.728 24.1558C24.5763 24.2186 24.4137 24.2509 24.2495 24.2508C23.9179 24.2507 23.5999 24.1189 23.3654 23.8843C23.131 23.6497 22.9994 23.3316 22.9995 23C22.9996 22.6684 23.1314 22.3504 23.366 22.1159C23.6006 21.8815 23.9187 21.7499 24.2503 21.75ZM24.2503 34.25C24.0861 34.2499 23.9235 34.2175 23.7718 34.1547C23.6202 34.0918 23.4823 33.9996 23.3663 33.8835C23.2502 33.7673 23.1581 33.6294 23.0953 33.4777C23.0326 33.326 23.0003 33.1634 23.0003 32.9992C23.0004 32.835 23.0328 32.6724 23.0957 32.5207C23.1586 32.369 23.2507 32.2312 23.3669 32.1151C23.483 31.999 23.6209 31.907 23.7726 31.8442C23.9243 31.7814 24.087 31.7491 24.2512 31.7492C24.5828 31.7493 24.9008 31.8811 25.1352 32.1157C25.3696 32.3503 25.5013 32.6684 25.5012 33C25.501 33.3316 25.3692 33.6496 25.1346 33.8841C24.9 34.1185 24.582 34.2501 24.2503 34.25ZM25.3878 29.2675C25.2603 29.3947 25.1088 29.4954 24.9422 29.5639C24.7756 29.6324 24.5971 29.6674 24.417 29.6667C24.0612 29.6667 23.7045 29.5317 23.432 29.2608L22.8645 28.715C22.7051 28.5618 22.6132 28.3516 22.6088 28.1307C22.6066 28.0212 22.626 27.9125 22.6659 27.8106C22.7058 27.7086 22.7653 27.6156 22.8412 27.5367C22.917 27.4578 23.0076 27.3946 23.1079 27.3507C23.2082 27.3068 23.3161 27.2831 23.4255 27.281C23.6465 27.2766 23.8601 27.3602 24.0195 27.5133L24.4128 27.8917L25.9678 26.3792C26.1263 26.2251 26.3395 26.1403 26.5604 26.1435C26.7814 26.1466 26.9921 26.2374 27.1462 26.3958C27.3002 26.5543 27.385 26.7675 27.3819 26.9885C27.3787 27.2094 27.288 27.4201 27.1295 27.5742L25.387 29.2692L25.3878 29.2675ZM32.167 33.8333H28.0003C27.7793 33.8333 27.5674 33.7455 27.4111 33.5893C27.2548 33.433 27.167 33.221 27.167 33C27.167 32.779 27.2548 32.567 27.4111 32.4107C27.5674 32.2545 27.7793 32.1667 28.0003 32.1667H32.167C32.388 32.1667 32.6 32.2545 32.7562 32.4107C32.9125 32.567 33.0003 32.779 33.0003 33C33.0003 33.221 32.9125 33.433 32.7562 33.5893C32.6 33.7455 32.388 33.8333 32.167 33.8333ZM32.167 28.8333H29.667C29.446 28.8333 29.234 28.7455 29.0777 28.5893C28.9215 28.433 28.8337 28.221 28.8337 28C28.8337 27.779 28.9215 27.567 29.0777 27.4107C29.234 27.2545 29.446 27.1667 29.667 27.1667H32.167C32.388 27.1667 32.6 27.2545 32.7562 27.4107C32.9125 27.567 33.0003 27.779 33.0003 28C33.0003 28.221 32.9125 28.433 32.7562 28.5893C32.6 28.7455 32.388 28.8333 32.167 28.8333ZM32.167 23.8333H28.0003C27.7793 23.8333 27.5674 23.7455 27.4111 23.5893C27.2548 23.433 27.167 23.221 27.167 23C27.167 22.779 27.2548 22.567 27.4111 22.4107C27.5674 22.2545 27.7793 22.1667 28.0003 22.1667H32.167C32.388 22.1667 32.6 22.2545 32.7562 22.4107C32.9125 22.567 33.0003 22.779 33.0003 23C33.0003 23.221 32.9125 23.433 32.7562 23.5893C32.6 23.7455 32.388 23.8333 32.167 23.8333Z" fill="white"/>
</svg>
