<svg width="56" height="56" viewBox="0 0 56 56" fill="none" xmlns="http://www.w3.org/2000/svg">
<rect width="56" height="56" rx="28" fill="#074ED6"/>
<g clip-path="url(#clip0_446_13458)">
<path d="M28 23.8333V18.3833C28.7709 18.6744 29.4711 19.1261 30.0542 19.7083L32.9575 22.6133C33.5404 23.1957 33.9924 23.8957 34.2833 24.6667H28.8333C28.3733 24.6667 28 24.2925 28 23.8333ZM29.0583 34.2333C28.7228 34.5687 28.4567 34.9669 28.2751 35.4051C28.0935 35.8434 28 36.3131 28 36.7875V38H29.2125C30.1708 38 31.0892 37.6192 31.7667 36.9417L37.4392 31.2692C37.7819 30.9067 37.9697 30.4249 37.9627 29.9261C37.9557 29.4274 37.7544 28.951 37.4017 28.5983C37.049 28.2456 36.5726 28.0443 36.0739 28.0373C35.5751 28.0303 35.0933 28.2181 34.7308 28.5608L29.0583 34.2333ZM26.3333 36.7875C26.3333 35.3775 26.8825 34.0517 27.8792 33.055L33.5517 27.3825C33.871 27.0648 34.2473 26.8101 34.6608 26.6317C34.6575 26.5317 34.6533 26.4325 34.6467 26.3325H28.8333C27.455 26.3325 26.3333 25.2108 26.3333 23.8325V18.02C26.1992 18.0108 26.065 18 25.9292 18H22.1667C19.8692 18 18 19.8692 18 22.1667V33.8333C18 36.1308 19.8692 38 22.1667 38H26.3333V36.7875Z" fill="white"/>
</g>
<defs>
<clipPath id="clip0_446_13458">
<rect width="20" height="20" fill="white" transform="translate(18 18)"/>
</clipPath>
</defs>
</svg>
