<svg width="56" height="56" viewBox="0 0 56 56" fill="none" xmlns="http://www.w3.org/2000/svg">
<rect width="56" height="56" rx="28" fill="#074ED6"/>
<g clip-path="url(#clip0_446_13589)">
<path d="M22.1667 33.833H27.1667V35.4997H23.8333C23.6123 35.4997 23.4004 35.5875 23.2441 35.7438C23.0878 35.9 23 36.112 23 36.333C23 36.554 23.0878 36.766 23.2441 36.9223C23.4004 37.0785 23.6123 37.1663 23.8333 37.1663H32.1667C32.3877 37.1663 32.5996 37.0785 32.7559 36.9223C32.9122 36.766 33 36.554 33 36.333C33 36.112 32.9122 35.9 32.7559 35.7438C32.5996 35.5875 32.3877 35.4997 32.1667 35.4997H28.8333V33.833H33.8333C34.7935 33.8318 35.7239 33.4996 36.4677 32.8924C37.2115 32.2852 37.7233 31.4402 37.9167 30.4997H18.0833C18.2767 31.4402 18.7885 32.2852 19.5323 32.8924C20.2761 33.4996 21.2065 33.8318 22.1667 33.833ZM33.8333 18.833H22.1667C21.062 18.8343 20.003 19.2737 19.2218 20.0549C18.4407 20.836 18.0013 21.895 18 22.9997V28.833H38V22.9997C37.9987 21.895 37.5593 20.836 36.7782 20.0549C35.997 19.2737 34.938 18.8343 33.8333 18.833Z" fill="white"/>
</g>
<defs>
<clipPath id="clip0_446_13589">
<rect width="20" height="20" fill="white" transform="translate(18 18)"/>
</clipPath>
</defs>
</svg>
