<svg width="24" height="24" viewBox="0 0 24 24" fill="none" xmlns="http://www.w3.org/2000/svg">
<g clip-path="url(#clip0_567_1803)">
<path d="M10.9426 8.98316H14.1193V24.5263H10.9426V8.98316ZM4.76505 8.189C2.13761 8.189 0 10.3266 0 12.954V24.5263H3.17671V19.6478H6.35343V24.5264H9.53014V12.9541C9.53009 10.3266 7.39252 8.189 4.76505 8.189ZM6.35343 16.4711H3.17671V12.954C3.17671 12.0782 3.88924 11.3657 4.76505 11.3657C5.64086 11.3657 6.35338 12.0782 6.35338 12.954V16.4711H6.35343ZM20.2258 4.30057L18.1616 0.526367L16.0974 4.30057L12.3232 6.36478L16.0974 8.42898L18.1616 12.2032L20.2258 8.42898L24 6.36478L20.2258 4.30057Z" fill="#1A1A1C"/>
</g>
<defs>
<clipPath id="clip0_567_1803">
<rect width="24" height="24" fill="white"/>
</clipPath>
</defs>
</svg>
