<svg width="24" height="24" viewBox="0 0 24 24" fill="none" xmlns="http://www.w3.org/2000/svg">
<path d="M18.3333 21.5264H12.5C12.279 21.5264 12.067 21.4386 11.9107 21.2823C11.7545 21.126 11.6667 20.914 11.6667 20.693V13.193C11.6667 12.972 11.7545 12.7601 11.9107 12.6038C12.067 12.4475 12.279 12.3597 12.5 12.3597H21.6667C21.8877 12.3597 22.0996 12.4475 22.2559 12.6038C22.4122 12.7601 22.5 12.972 22.5 13.193V17.3597C22.5 19.6572 20.6308 21.5264 18.3333 21.5264ZM9.16667 21.5264H6.66667C4.36917 21.5264 2.5 19.6572 2.5 17.3597V13.193C2.5 12.972 2.5878 12.7601 2.74408 12.6038C2.90036 12.4475 3.11232 12.3597 3.33333 12.3597H9.16667C9.38768 12.3597 9.59964 12.4475 9.75592 12.6038C9.9122 12.7601 10 12.972 10 13.193V20.693C10 20.914 9.9122 21.126 9.75592 21.2823C9.59964 21.4386 9.38768 21.5264 9.16667 21.5264ZM21.6667 10.693H3.33333C3.11232 10.693 2.90036 10.6052 2.74408 10.449C2.5878 10.2927 2.5 10.0807 2.5 9.8597V5.69303C2.5 3.39553 4.36917 1.52637 6.66667 1.52637H18.3333C20.6308 1.52637 22.5 3.39553 22.5 5.69303V9.8597C22.5 10.0807 22.4122 10.2927 22.2559 10.449C22.0996 10.6052 21.8877 10.693 21.6667 10.693Z" fill="#1A1A1C"/>
</svg>
