<svg width="24" height="24" viewBox="0 0 24 24" fill="none" xmlns="http://www.w3.org/2000/svg">
<path d="M21.5769 6.29216C21.5525 6.13788 21.305 4.75196 20.3008 3.73998C19.2923 2.75327 17.9012 2.50921 17.746 2.4848C17.5399 2.45131 17.3287 2.49374 17.1516 2.60422C17.0897 2.64257 16.1805 3.21176 14.3858 4.7293C15.3089 5.05529 16.5022 5.62099 17.4697 6.56761C18.4407 7.5177 19.0212 8.68658 19.3542 9.5931C20.8535 7.84108 21.4174 6.95375 21.4549 6.89273C21.5665 6.71404 21.61 6.50049 21.5769 6.29216ZM12.8282 6.09256C11.7135 7.10189 10.623 8.1377 9.55775 9.19911C4.27295 14.4464 2.88702 16.5445 2.83037 16.6308C2.75105 16.7528 2.70311 16.8932 2.69177 17.0379L2.41372 20.5863C2.40447 20.7062 2.4201 20.8267 2.45962 20.9403C2.49914 21.0538 2.56171 21.158 2.64339 21.2462C2.72507 21.3344 2.82411 21.4048 2.93428 21.453C3.04445 21.5011 3.16339 21.526 3.28362 21.526C3.30542 21.526 3.32808 21.526 3.35074 21.5234L6.92537 21.2479C7.0692 21.2366 7.20779 21.1904 7.32895 21.1128C7.41611 21.057 9.52812 19.6807 14.8121 14.4342C15.9007 13.357 16.963 12.2535 17.9979 11.1246C17.8663 10.5589 17.407 8.94459 16.2503 7.81406C15.077 6.6661 13.3895 6.21633 12.8282 6.09256Z" fill="#1A1A1C"/>
</svg>
