<svg width="24" height="24" viewBox="0 0 24 24" fill="none" xmlns="http://www.w3.org/2000/svg">
<path d="M18.6115 13.7485C17.9811 13.7487 17.3602 13.9022 16.8024 14.1959C16.2445 14.4896 15.7665 14.9146 15.4096 15.4342L9.99382 12.9886C10.3736 12.0558 10.3766 11.012 10.0022 10.0771L15.4129 7.61971C15.9405 8.38528 16.725 8.93635 17.6241 9.17295C18.5232 9.40955 19.4774 9.316 20.3134 8.90927C21.1494 8.50254 21.812 7.80958 22.1809 6.9561C22.5498 6.10262 22.6006 5.14517 22.3241 4.25744C22.0476 3.36971 21.462 2.61052 20.6737 2.11759C19.8854 1.62466 18.9466 1.43065 18.0275 1.57076C17.1084 1.71087 16.27 2.17582 15.6643 2.88125C15.0586 3.58668 14.7259 4.48587 14.7263 5.41568C14.7263 5.63684 14.745 5.85761 14.7822 6.07564L9.04065 8.68214C8.48715 8.16587 7.79504 7.82236 7.04918 7.69375C6.30332 7.56514 5.53615 7.65702 4.84174 7.95811C4.14733 8.25921 3.55588 8.75643 3.13992 9.38881C2.72395 10.0212 2.50156 10.7612 2.50001 11.5182C2.49846 12.2751 2.71782 13.0161 3.13119 13.6501C3.54457 14.2842 4.13398 14.7839 4.82715 15.0878C5.52032 15.3917 6.28711 15.4868 7.03349 15.3612C7.77986 15.2356 8.47338 14.895 9.02899 14.381L14.778 16.9783C14.6429 17.7641 14.7525 18.5725 15.0921 19.2939C15.4317 20.0153 15.9849 20.6149 16.6766 21.0114C17.3683 21.4079 18.1651 21.5822 18.9592 21.5107C19.7533 21.4391 20.5061 21.1252 21.1158 20.6114C21.7255 20.0976 22.1626 19.4088 22.3678 18.6383C22.5729 17.8678 22.5363 17.0528 22.2629 16.3038C21.9895 15.5548 21.4925 14.9079 20.8392 14.4508C20.1859 13.9938 19.4088 13.7486 18.6115 13.7485Z" fill="#1A1A1C"/>
</svg>
