<svg width="24" height="24" viewBox="0 0 24 24" fill="none" xmlns="http://www.w3.org/2000/svg">
<path d="M15.5556 1.52637H8.44444C5.99378 1.52637 4 3.39553 4 5.69303V17.3597C4 19.6572 5.99378 21.5264 8.44444 21.5264H15.5556C18.0062 21.5264 20 19.6572 20 17.3597V5.69303C20 3.39553 18.0062 1.52637 15.5556 1.52637ZM12 15.693H8.44444C8.2087 15.693 7.9826 15.6052 7.81591 15.449C7.64921 15.2927 7.55556 15.0807 7.55556 14.8597C7.55556 14.6387 7.64921 14.4267 7.81591 14.2704C7.9826 14.1142 8.2087 14.0264 8.44444 14.0264H12C12.2357 14.0264 12.4618 14.1142 12.6285 14.2704C12.7952 14.4267 12.8889 14.6387 12.8889 14.8597C12.8889 15.0807 12.7952 15.2927 12.6285 15.449C12.4618 15.6052 12.2357 15.693 12 15.693ZM15.5556 11.5264H8.44444C8.2087 11.5264 7.9826 11.4386 7.81591 11.2823C7.64921 11.126 7.55556 10.914 7.55556 10.693C7.55556 10.472 7.64921 10.2601 7.81591 10.1038C7.9826 9.9475 8.2087 9.8597 8.44444 9.8597H15.5556C15.7913 9.8597 16.0174 9.9475 16.1841 10.1038C16.3508 10.2601 16.4444 10.472 16.4444 10.693C16.4444 10.914 16.3508 11.126 16.1841 11.2823C16.0174 11.4386 15.7913 11.5264 15.5556 11.5264ZM15.5556 7.3597H8.44444C8.2087 7.3597 7.9826 7.2719 7.81591 7.11562C7.64921 6.95934 7.55556 6.74738 7.55556 6.52637C7.55556 6.30535 7.64921 6.09339 7.81591 5.93711C7.9826 5.78083 8.2087 5.69303 8.44444 5.69303H15.5556C15.7913 5.69303 16.0174 5.78083 16.1841 5.93711C16.3508 6.09339 16.4444 6.30535 16.4444 6.52637C16.4444 6.74738 16.3508 6.95934 16.1841 7.11562C16.0174 7.2719 15.7913 7.3597 15.5556 7.3597Z" fill="#1A1A1C"/>
</svg>
