<svg width="24" height="24" viewBox="0 0 24 24" fill="none" xmlns="http://www.w3.org/2000/svg">
<path d="M14.5082 10.1388C13.7924 9.08719 12.4866 7.83308 10.3333 7.83308C8.17995 7.83308 6.87579 9.08636 6.1583 10.1388C6.11888 10.1959 6.09776 10.2636 6.09776 10.333C6.09776 10.4023 6.11888 10.4701 6.1583 10.5271C6.87579 11.5796 8.18245 12.8337 10.3333 12.8337C12.4841 12.8337 13.7907 11.5796 14.5082 10.528C14.5477 10.4711 14.5688 10.4035 14.5688 10.3342C14.5688 10.265 14.5477 10.1974 14.5082 10.1405V10.1388ZM10.3333 11.5821C10.1665 11.5864 10.0005 11.5574 9.84507 11.4966C9.68967 11.4358 9.54803 11.3445 9.42848 11.228C9.30894 11.1116 9.21391 10.9725 9.14901 10.8187C9.08411 10.665 9.05064 10.4998 9.05059 10.333C9.05053 10.1661 9.08389 10.0009 9.14869 9.84717C9.21349 9.69341 9.30842 9.55417 9.42789 9.43768C9.54735 9.32118 9.68894 9.22978 9.84429 9.16888C9.99964 9.10797 10.1656 9.07878 10.3324 9.08303C10.6639 9.08292 10.9819 9.2145 11.2164 9.44883C11.4509 9.68317 11.5827 10.0011 11.5828 10.3326C11.5829 10.6641 11.4514 10.982 11.217 11.2165C10.9827 11.451 10.6648 11.5828 10.3333 11.5829V11.5821ZM21.7557 20.5759L16.7815 15.6019C18.0014 14.1167 18.6677 12.2541 18.6665 10.3321C18.6665 5.73817 14.9282 2 10.3333 2C5.7383 2 2 5.73817 2 10.333C2 14.9278 5.7383 18.6659 10.3333 18.6659C12.3307 18.6659 14.1657 17.9576 15.6032 16.781L20.5773 21.755C20.6546 21.8326 20.7464 21.8943 20.8475 21.9363C20.9486 21.9784 21.057 22 21.1665 22C21.276 22 21.3844 21.9784 21.4855 21.9363C21.5867 21.8943 21.6785 21.8326 21.7557 21.755C21.8331 21.6777 21.8946 21.5858 21.9365 21.4847C21.9784 21.3836 22 21.2753 22 21.1658C22 21.0564 21.9784 20.948 21.9365 20.8469C21.8946 20.7459 21.8331 20.6532 21.7557 20.5759ZM15.8849 11.4654C15.1124 12.5979 13.3641 14.4986 10.3333 14.4986C7.30246 14.4986 5.55497 12.5979 4.78164 11.4654C4.55209 11.1321 4.42918 10.7369 4.42918 10.3321C4.42918 9.9274 4.55209 9.53221 4.78164 9.19886C5.55414 8.0664 7.30162 6.16565 10.3333 6.16565C13.3649 6.16565 15.1141 8.06641 15.8849 9.19969C16.1142 9.53313 16.237 9.92829 16.237 10.333C16.237 10.7377 16.1142 11.132 15.8849 11.4654Z" fill="black"/>
</svg>
