<svg width="24" height="24" viewBox="0 0 24 24" fill="none" xmlns="http://www.w3.org/2000/svg">
<path d="M12 1.52637C6.48583 1.52637 2 6.0122 2 11.5264V17.3597C2 19.6572 3.86917 21.5264 6.16667 21.5264H12C17.5142 21.5264 22 17.0405 22 11.5264C22 6.0122 17.5142 1.52637 12 1.52637ZM17 9.44303C17 10.1322 16.4392 10.693 15.75 10.693H13.6667C13.4457 10.693 13.2337 10.6052 13.0774 10.449C12.9211 10.2927 12.8333 10.0807 12.8333 9.8597C12.8333 9.63869 12.9211 9.42673 13.0774 9.27044C13.2337 9.11416 13.4457 9.02637 13.6667 9.02637H14.2033C13.5958 8.48794 12.8118 8.19138 12 8.19303C10.1617 8.19303 8.66667 9.68803 8.66667 11.5264C8.66667 13.3647 10.1617 14.8597 12 14.8597C12.6487 14.8599 13.2834 14.6707 13.8262 14.3154C14.369 13.9602 14.7963 13.4543 15.0558 12.8597C15.1443 12.6571 15.3097 12.498 15.5155 12.4174C15.7213 12.3368 15.9508 12.3412 16.1533 12.4297C16.3559 12.5182 16.515 12.6836 16.5956 12.8894C16.6763 13.0952 16.6718 13.3246 16.5833 13.5272C16.194 14.4189 15.553 15.1776 14.7389 15.7104C13.9248 16.2433 12.973 16.5271 12 16.5272C9.2425 16.5272 7 14.2847 7 11.5272C7 8.7697 9.2425 6.5272 12 6.5272C13.2467 6.5272 14.4283 7.00887 15.3333 7.8172V7.36053C15.3333 7.13952 15.4211 6.92756 15.5774 6.77128C15.7337 6.615 15.9457 6.5272 16.1667 6.5272C16.3877 6.5272 16.5996 6.615 16.7559 6.77128C16.9122 6.92756 17 7.13952 17 7.36053V9.44387V9.44303Z" fill="#1A1A1C"/>
</svg>
