<svg width="24" height="24" viewBox="0 0 24 24" fill="none" xmlns="http://www.w3.org/2000/svg">
<path d="M21.7892 16.6014L20.4465 17.943C20.2797 18.1097 20.0713 18.1847 19.8544 18.1847C19.6376 18.1847 19.4291 18.1014 19.2623 17.943C19.185 17.8659 19.1237 17.7744 19.0818 17.6736C19.04 17.5727 19.0185 17.4647 19.0185 17.3555C19.0185 17.2464 19.04 17.1383 19.0818 17.0375C19.1237 16.9367 19.185 16.8451 19.2623 16.768L20.3381 15.693H14.1669C13.7082 15.693 13.333 15.318 13.333 14.8597C13.333 14.4014 13.7082 14.0264 14.1669 14.0264H20.3381L19.2623 12.9514C19.1851 12.8742 19.1239 12.7826 19.0821 12.6818C19.0403 12.581 19.0188 12.473 19.0188 12.3639C19.0188 12.2548 19.0403 12.1467 19.0821 12.0459C19.1239 11.9451 19.1851 11.8535 19.2623 11.7764C19.3395 11.6992 19.4312 11.638 19.5321 11.5963C19.633 11.5545 19.7411 11.533 19.8503 11.533C19.9595 11.533 20.0676 11.5545 20.1685 11.5963C20.2693 11.638 20.361 11.6992 20.4382 11.7764L21.7809 13.118C22.2415 13.5825 22.5 14.2099 22.5 14.8639C22.5 15.5178 22.2415 16.1453 21.7809 16.6097L21.7892 16.6014ZM13.3413 8.19303H18.7953C18.5034 7.4347 18.0615 6.7347 17.4693 6.14303L14.5672 3.2347C13.984 2.65413 13.285 2.20269 12.5157 1.9097V7.3597C12.5157 7.81803 12.891 8.19303 13.3497 8.19303H13.3413ZM17.3526 17.3597H14.1753C12.7992 17.3597 11.6734 16.2347 11.6734 14.8597C11.6734 13.4847 12.7992 12.3597 14.1753 12.3597H17.3526C17.3526 11.718 17.5944 11.0764 18.0865 10.593C18.395 10.2847 18.7703 10.068 19.1623 9.9597V9.8597H13.3413C11.9653 9.8597 10.8395 8.7347 10.8395 7.3597V1.54303C10.706 1.5347 10.5726 1.52637 10.4308 1.52637H6.66973C4.36804 1.52637 2.5 3.39303 2.5 5.69303V17.3597C2.5 19.6597 4.36804 21.5264 6.66973 21.5264H15.0092C16.5186 21.5264 17.8446 20.718 18.5785 19.5097C18.205 19.2884 17.8956 18.9739 17.6807 18.5969C17.4657 18.2199 17.3527 17.7936 17.3526 17.3597Z" fill="#1A1A1C"/>
</svg>
