<svg width="290" height="215" viewBox="0 0 290 215" fill="none" xmlns="http://www.w3.org/2000/svg">
<path d="M221.837 200.356C213.047 193.193 224.957 192.352 232.011 192.827V197.507L248.901 201.78C243.542 204.29 230.628 207.518 221.837 200.356Z" fill="black"/>
<path d="M268.027 196.084C262.329 196.735 260.634 194.185 260.498 192.828H272.707C273.521 193.642 273.724 195.433 268.027 196.084Z" fill="black"/>
<path d="M255.209 176.345C248.901 176.345 245.442 175.938 240.354 175.531" stroke="black" stroke-width="2" stroke-linecap="round"/>
<path d="M260.092 178.786V198.32" stroke="black" stroke-width="2" stroke-linecap="round"/>
<path d="M245.442 179.804L232.012 178.786" stroke="black" stroke-width="2" stroke-linecap="round"/>
<path d="M251.749 181.839V201.577" stroke="black" stroke-width="2" stroke-linecap="round"/>
<path d="M251.547 201.984L260.093 198.524" stroke="black" stroke-width="2" stroke-linecap="round"/>
<path d="M240.151 175.531L232.012 178.787" stroke="black" stroke-width="2" stroke-linecap="round"/>
<path d="M231.809 178.989V197.71" stroke="black" stroke-width="2" stroke-linecap="round"/>
<path d="M231.603 197.507L251.544 201.983" stroke="black" stroke-width="2" stroke-linecap="round"/>
<path d="M255.207 176.751V171.054" stroke="black" stroke-width="2" stroke-linecap="round"/>
<path d="M272.912 192.625V172.888" stroke="black" stroke-width="2" stroke-linecap="round"/>
<path d="M282.476 166.375V188.351" stroke="black" stroke-width="2" stroke-linecap="round"/>
<path d="M272.912 193.031L282.476 188.351" stroke="black" stroke-width="2" stroke-linecap="round"/>
<path d="M282.474 166.171L260.905 165.357" stroke="black" stroke-width="2" stroke-linecap="round"/>
<path d="M255.207 171.055L260.905 165.357" stroke="black" stroke-width="2" stroke-linecap="round"/>
<path d="M272.912 172.681L282.272 166.576" stroke="black" stroke-width="2" stroke-linecap="round"/>
<path d="M272.911 192.622H260.905" stroke="black" stroke-width="2" stroke-linecap="round"/>
<path d="M255.412 171.054L267.011 171.461" stroke="black" stroke-width="2" stroke-linecap="round"/>
<path d="M92.8144 208.922C93.0179 203.225 115.808 205.056 117.232 205.259V208.922L124.151 213.806C113.637 214.077 92.6516 213.48 92.8144 208.922Z" fill="black"/>
<path d="M149.383 208.312V187.557" stroke="black" stroke-width="2" stroke-linecap="round"/>
<path d="M131.68 213.601V190.811" stroke="black" stroke-width="2" stroke-linecap="round"/>
<path d="M117.03 208.311V185.521" stroke="black" stroke-width="2" stroke-linecap="round"/>
<path d="M117.03 185.52L133.105 181.45" stroke="black" stroke-width="2" stroke-linecap="round"/>
<path d="M149.383 187.351L131.68 190.606" stroke="black" stroke-width="2" stroke-linecap="round"/>
<path d="M131.68 213.803L149.383 208.513" stroke="black" stroke-width="2" stroke-linecap="round"/>
<path d="M149.383 187.351L133.104 181.45" stroke="black" stroke-width="2" stroke-linecap="round"/>
<path d="M117.03 185.725L131.884 190.608" stroke="black" stroke-width="2" stroke-linecap="round"/>
<path d="M169.22 207.902C165.476 201.391 177.427 200.441 183.871 200.78V205.46L204.829 207.902C194.519 210.615 172.964 214.413 169.22 207.902Z" fill="black"/>
<path d="M215.208 199.154L207.272 207.294" stroke="black" stroke-width="2" stroke-linecap="round"/>
<path d="M205.441 182.468L184.89 181.044" stroke="black" stroke-width="2" stroke-linecap="round"/>
<path d="M193.232 175.754L215.208 176.771" stroke="black" stroke-width="2" stroke-linecap="round"/>
<path d="M184.482 181.044L183.465 204.648" stroke="black" stroke-width="2" stroke-linecap="round"/>
<path d="M215.208 177.177V198.746" stroke="black" stroke-width="2" stroke-linecap="round"/>
<path d="M207.272 189.997V207.293" stroke="black" stroke-width="2" stroke-linecap="round"/>
<path d="M184.48 181.044L193.23 175.754" stroke="black" stroke-width="2" stroke-linecap="round"/>
<path d="M207.273 207.294L183.262 204.853" stroke="black" stroke-width="2" stroke-linecap="round"/>
<path d="M164.978 52.9747C165.859 52.7033 168.193 52.4457 170.472 53.5852" stroke="black" stroke-width="2" stroke-linecap="round"/>
<path d="M156.837 63.5483C158.41 63.5483 159.686 62.1827 159.686 60.4983C159.686 58.8138 158.41 57.4482 156.837 57.4482C155.264 57.4482 153.988 58.8138 153.988 60.4983C153.988 62.1827 155.264 63.5483 156.837 63.5483Z" fill="black"/>
<path d="M180.035 67.6137C181.609 67.6137 182.884 66.2482 182.884 64.5637C182.884 62.8792 181.609 61.5137 180.035 61.5137C178.462 61.5137 177.187 62.8792 177.187 64.5637C177.187 66.2482 178.462 67.6137 180.035 67.6137Z" fill="black"/>
<path d="M149.92 55.6194C150.123 54.3315 151.385 51.878 154.803 52.366" stroke="black" stroke-width="2" stroke-linecap="round"/>
<path d="M175.966 55.2114C177.594 53.788 181.663 51.7953 184.919 55.2114" stroke="black" stroke-width="2" stroke-linecap="round"/>
<path d="M167.216 58.668C169.115 61.7859 171.774 68.4687 167.216 70.2581L164.978 71.0714" stroke="black" stroke-width="2" stroke-linecap="round"/>
<path d="M159.483 77.375C159.958 78.6629 161.762 80.791 165.181 79.0017" stroke="black" stroke-width="2" stroke-linecap="round"/>
<path d="M93.9623 47.4844C87.2881 69.4445 105.832 85.3725 115.938 90.5913C125.054 85.0606 138.05 82.2546 143.612 81.4413C136.694 75.7479 134.591 65.3099 134.048 60.4978C130.386 61.7178 120.618 57.0411 125.095 47.4844C128.676 39.839 132.556 43.7564 134.048 46.671L144.019 51.1444C144.019 41.8723 150.394 38.741 153.583 38.3343C155.536 37.0329 157.652 32.7763 158.466 30.8109C159.443 38.4563 169.454 44.0277 174.338 45.8577C180.686 40.815 185.8 43.7564 187.564 45.8577L192.041 45.2477C200.79 42.2656 216.499 32.0716 209.337 15.1541C202.174 -1.76333 187.361 1.32736 180.849 4.98739C158.548 -9.81539 136.151 11.8329 127.74 24.5075C119.262 23.0163 100.637 25.5242 93.9623 47.4844Z" fill="black"/>
<path d="M143.815 51.347L134.048 46.2637" stroke="black" stroke-width="2" stroke-linecap="round"/>
<path d="M164.775 50.9425C164.775 57.9555 159.978 63.3459 154.397 63.3459C148.816 63.3459 144.02 57.9555 144.02 50.9425C144.02 43.9291 148.816 38.5391 154.397 38.5391C159.978 38.5391 164.775 43.9291 164.775 50.9425Z" stroke="black" stroke-width="2"/>
<path d="M191.635 55.4132C191.635 62.4262 186.839 67.8166 181.257 67.8166C175.676 67.8166 170.88 62.4262 170.88 55.4132C170.88 48.3998 175.676 43.0098 181.257 43.0098C186.839 43.0098 191.635 48.3998 191.635 55.4132Z" stroke="black" stroke-width="2"/>
<path d="M192.041 94.6098C207.669 82.0844 198.756 65.1942 192.245 58.2129C188.664 75.1303 180.375 82.4097 176.78 84.0364L182.478 87.0864L192.041 94.6098Z" fill="black"/>
<path d="M135.269 50.9397C134.93 47.2118 130.589 38.333 125.909 46.6697C123.874 50.4652 122.409 58.5851 132.827 60.6998" stroke="black" stroke-width="2" stroke-linecap="round"/>
<path d="M131.811 49.5176C130.861 50.3309 129.45 52.4456 131.404 54.3976" stroke="black" stroke-width="2" stroke-linecap="round"/>
<path d="M190.821 60.0918C189.681 66.5985 187.158 72.4924 184.512 76.1552C182.858 78.4456 180.179 81.3366 176.762 83.8567" stroke="black" stroke-width="2" stroke-linecap="round"/>
<path d="M133.845 60.7021C133.709 68.971 136.938 81.239 151.752 87.7457C154.03 88.7465 156.271 89.3207 158.448 89.5521" stroke="black" stroke-width="2" stroke-linecap="round"/>
<path d="M175.356 97.7089C172.1 96.8955 168.98 99.5389 167.827 100.962C167.216 102.25 166.932 104.785 170.676 104.622C175.356 104.419 176.78 97.7089 182.274 108.486C186.669 117.107 186.954 134.038 186.547 141.426" stroke="black" stroke-width="2" stroke-linecap="round" stroke-linejoin="round"/>
<path d="M164.704 95.4727C163.642 97.7773 162.78 102.101 167.826 100.963" stroke="black" stroke-width="2" stroke-linecap="round" stroke-linejoin="round"/>
<path d="M166.668 87.541C163.819 88.761 159.688 93.1531 161.315 96.0811C161.519 96.4198 162.129 97.0571 162.943 96.8944C163.3 96.8232 163.881 96.2031 164.704 95.4711C166.231 94.1132 168.591 92.3706 171.896 93.0311" stroke="black" stroke-width="2" stroke-linecap="round" stroke-linejoin="round"/>
<path d="M223.611 157.363C225.645 147.399 223.663 124.02 198.757 101.572L182.275 87.135L171.897 81.645L169.863 81.2383L162.13 83.0683L161.316 83.8816L158.671 88.7617C158.264 89.7783 160.014 90.9577 162.944 89.9817" stroke="black" stroke-width="2" stroke-linecap="round" stroke-linejoin="round"/>
<path d="M143.001 82.2549C129.775 84.017 95.4394 91.5932 74.6314 122.312C55.0206 151.263 77.2001 163.463 93.6822 164.073" stroke="black" stroke-width="2" stroke-linecap="round" stroke-linejoin="round"/>
<path d="M1 168.139L92.7703 163.666" stroke="black" stroke-width="2" stroke-linecap="round" stroke-linejoin="round"/>
<path d="M117.799 162.65L288.785 155.206" stroke="black" stroke-width="2" stroke-linecap="round"/>
<path d="M102.556 164.386C102.808 165.165 102.623 165.726 101.643 165.81C98.7423 166.058 95.2977 161.565 93.9385 159.288" stroke="black" stroke-width="2" stroke-linecap="round"/>
<path d="M102.548 155.561C103.996 157.872 106.52 161.433 108.733 163.453C108.531 165.006 107.013 167.366 102.555 164.385C101.877 162.281 98.0161 158.582 98.0161 158.356" stroke="black" stroke-width="2" stroke-linecap="round"/>
<path d="M106.475 153.387C109.245 156.44 114.27 162.983 112.216 164.722C111.852 165.03 111.388 165.06 110.856 164.879C110.224 164.664 109.497 164.15 108.733 163.453C106.52 161.433 103.995 157.871 102.548 155.56" stroke="black" stroke-width="2" stroke-linecap="round"/>
<path d="M83.7119 161.346C88.3444 155.549 103.153 142.984 111.613 150.592C114.986 153.957 119.191 160.038 116.774 162.522C115.565 163.454 112.949 162.211 111.262 159.727" stroke="black" stroke-width="2" stroke-linecap="round"/>
<path d="M100.214 128.285C97.2973 130.59 92.7259 136.581 97.7722 142.112" stroke="black" stroke-width="2" stroke-linecap="round"/>
</svg>
