<svg width="304" height="230" viewBox="0 0 304 230" fill="none" xmlns="http://www.w3.org/2000/svg">
<g clip-path="url(#clip0_387_34)">
<path d="M4.87398 195.475C3.26207 196.069 1.71662 196.656 0.280046 197.223C-0.173126 197.401 -0.0458705 198.08 0.443357 198.08C0.641311 198.08 0.909255 197.878 5.35543 196.243C8.26181 200.433 14.0534 200.694 19.1224 201.055C25.9532 201.542 32.6575 201.608 39.3596 201.257L22.969 215.914C22.6665 216.184 22.8573 216.689 23.2653 216.689H91.217C91.6554 216.689 90.4033 218.034 110.281 190.115C110.489 189.823 110.28 189.415 109.919 189.415H95.2079C95.7191 188.702 96.0096 187.709 96.0125 187.618C96.0195 187.382 96.0139 187.146 95.9997 186.911C97.2051 185.561 98.0853 183.752 98.0896 183.68C98.0917 183.64 98.0889 183.6 98.091 183.56C99.061 181.136 99.0511 178.766 98.2331 176.472C99.3247 176.01 100.656 175.207 101.369 174.254C105.517 173.723 116.075 172.648 125.732 171.995C174.093 168.728 224.462 172.496 274.672 184.659C277.797 186.525 281.419 187.559 285.037 187.29C298.157 190.764 303.217 192.546 303.558 192.546C304.068 192.546 304.172 191.826 303.688 191.678C298.274 190.018 292.764 188.447 287.226 186.957C296.025 184.894 298.02 175.042 298.069 174.938C300.721 164.162 295.897 141.633 292.58 130.748C290.839 125.057 288.668 119.215 284.959 114.485C287.106 112.1 289.715 107.831 289.699 104.88C289.691 103.558 289.193 102.385 288.333 101.66C287.265 100.758 285.633 100.576 284.376 101.374C284.954 97.1049 280.958 95.429 278.895 97.806C277.72 94.272 273.41 94.1419 271.777 97.2399C270.6 95.4559 268.262 95.3944 266.392 96.4645C265.321 97.071 264.477 97.9488 263.634 98.874C263.087 99.4819 262.496 100.295 262.784 101.185C263.106 102.173 264.168 102.393 265.16 102.616C265.485 102.692 265.766 102.848 265.982 103.062C263.979 102.406 261.69 101.66 259.397 100.936C260.775 97.6308 260.949 95.7195 263.751 81.1811C267.784 85.6722 279.318 82.2986 281.473 72.7403C281.567 72.6767 281.506 72.7078 282.886 71.2807C284.053 70.0749 285.259 68.8288 286.203 67.4131C294.876 54.4197 286.17 40.3046 277.698 41.2991C282.266 38.1057 288.414 37.2505 293.665 39.1469C293.897 39.2281 294.15 39.1108 294.233 38.8804C294.317 38.65 294.197 38.3955 293.967 38.3121C288.831 36.456 282.881 37.1063 278.211 39.9088C280.286 37.3183 281.411 33.9553 281.293 30.6397C281.272 30.0424 280.386 30.0898 280.406 30.6708C280.512 33.6514 279.54 36.6681 277.745 39.0522C278.103 36.8646 278.14 34.3752 278.062 33.8394C277.702 31.314 275.701 28.6747 272.975 28.6281C270.735 28.6295 268.914 30.171 267.032 29.9618C264.573 29.6975 263.312 26.7677 261.951 24.566C258.028 18.187 249.606 15.1067 242.363 17.4025C231.553 20.8362 225.545 34.9378 234.089 45.887C232.445 48.833 231.167 52.0024 229.9 55.2608C227.977 60.1965 227.009 66.0857 227.022 72.765C227.036 83.2167 232.024 87.5989 241.127 87.8527C240.581 90.6976 240.11 93.2365 239.689 95.598C231.577 93.9391 224.301 93.3277 217.47 93.7348C214.054 93.9384 217.854 93.1467 175.24 102.889C164.339 61.3811 165.176 63.7786 164.821 63.6097C164.406 63.4132 164.27 63.9179 159.679 65.3463C159.714 64.3031 159.99 63.7369 160.412 62.7707C161.706 59.8721 162.28 56.3967 162.116 52.4378C162.12 52.4314 162.119 52.4222 162.123 52.4152C162.158 52.3572 162.185 52.2936 162.19 52.2208C162.519 47.4929 161.583 42.7417 159.718 38.6648L167.581 19.2699C167.673 19.043 167.564 18.7857 167.338 18.6924L121.733 0.0332137C121.497 -0.0622061 121.241 0.0565386 121.153 0.279892C93.2567 70.5647 94.2535 67.5862 94.3999 67.9156C94.4486 68.0252 94.5398 68.11 94.6522 68.1517C142.595 85.7817 140.479 85.0417 140.634 85.0417C140.81 85.0417 140.976 84.9364 141.045 84.7639L142.075 82.2229L145.597 122.689C146.628 134.514 150.669 140.575 167.348 138.461C176.005 137.376 184.727 135.324 193.21 132.356C181.994 176.073 184.371 166.963 183.092 170.567C164.166 169.646 144.973 169.82 126.031 171.087C121.071 153.71 105.97 112.513 92.4161 101.506C84.8536 95.3668 77.7513 91.6695 70.7041 90.2043C69.1297 89.6487 67.8889 89.3589 67.1989 89.2218C67.2131 88.8224 67.2194 88.1057 67.2951 86.8257C77.127 89.501 83.4149 86.7373 86.3368 76.092C89.0827 66.0786 88.515 60.3329 87.7401 54.2953C86.9766 48.4598 86.1516 46.0941 84.9412 42.8534C87.6044 41.9352 89.9021 40.0396 90.8706 37.9297C94.9584 29.0889 86.0752 13.4033 74.2758 17.7792C71.9887 18.6288 70.352 20.2014 69.5143 22.3452C66.0564 20.6382 61.8846 19.0705 56.9485 19.7201C49.4241 20.7096 45.8588 25.8446 46.5404 30.4467C45.4983 30.4467 43.5138 30.8178 42.7559 31.0114C32.6384 33.674 26.4339 47.6053 33.7285 58.7037C32.1972 61.4426 32.9643 65.4304 34.3613 68.2125C36.7834 73.0471 41.8955 75.7796 45.5767 75.4121C46.3954 75.3089 47.1689 75.0714 47.8829 74.6522C45.0437 93.9532 45.9656 86.3896 45.5859 89.5512C45.3936 89.5646 45.5131 89.5639 43.6637 90.4C40.2157 91.4914 36.5303 93.233 33.2782 95.3541C15.3888 106.927 8.77649 125.013 5.40492 145.524C3.24652 158.655 1.98881 169.333 2.17899 183.14C2.23059 187.361 2.75588 191.824 4.87398 195.475ZM256.664 126.509C256.567 126.49 256.837 126.547 256.09 126.397C256.339 139.353 258.493 152.167 262.489 164.508C263.572 167.841 265.112 172.155 267.486 175.997C267.674 176.296 267.446 176.672 267.107 176.672C266.959 176.672 266.811 176.595 266.728 176.458C264.307 172.54 262.744 168.16 261.649 164.78C257.564 152.179 255.391 139.08 255.19 125.846C255.19 125.71 255.249 125.58 255.355 125.497C255.518 125.36 255.683 125.396 255.83 125.43C255.887 125.659 255.895 125.705 256.025 126.144C256.025 126.144 256.025 126.144 256.025 126.145C256.057 126.204 256.01 126.16 256.115 126.29C256.129 126.308 256.135 126.332 256.152 126.347C256.275 126.457 256.428 126.466 256.664 126.509ZM193.882 131.224L198.006 115.678C198.071 115.441 198.313 115.299 198.55 115.364C198.787 115.429 198.929 115.671 198.864 115.909L194.631 131.86C194.58 132.054 194.399 132.204 194.171 132.187C194.208 132.041 194.262 131.811 194.271 131.781C194.338 131.545 194.177 131.257 193.882 131.224ZM231.16 163.324C231.012 163.324 230.863 163.247 230.781 163.105C223.309 150.522 218.472 136.192 216.785 121.655C216.756 121.413 216.933 121.194 217.176 121.164C217.419 121.14 217.638 121.312 217.668 121.555C219.337 135.967 224.139 150.178 231.545 162.656C231.716 162.942 231.51 163.324 231.16 163.324ZM219.899 157.47C220.006 157.689 219.917 157.956 219.697 158.068C219.478 158.167 219.208 158.085 219.099 157.867C215.595 150.782 212.883 143.294 211.042 135.612C210.982 135.37 211.131 135.133 211.368 135.074C211.605 135.02 211.847 135.163 211.906 135.405C213.73 143.023 216.424 150.445 219.899 157.47ZM275.644 124.003C275.997 123.833 275.824 123.617 276.015 122.85C280.151 120.885 280.427 120.059 280.93 120.241C281.06 120.288 281.167 120.395 281.209 120.532C285.376 133.813 289.538 147.095 293.7 160.377C293.771 160.608 293.641 160.856 293.404 160.933C293.161 161.002 292.918 160.864 292.848 160.637C288.745 147.545 284.642 134.452 280.533 121.354C278.973 122.359 277.329 123.251 275.644 124.003ZM275.466 124.083C275.464 124.083 275.463 124.083 275.462 124.083C275.484 124.073 275.508 124.063 275.53 124.054L275.466 124.083ZM265.188 101.711C264.531 101.563 263.786 101.396 263.627 100.91C263.479 100.452 263.905 99.8989 264.291 99.4692C265.082 98.6019 265.871 97.7785 266.829 97.2356C269.128 95.9174 271.216 96.9875 271.365 98.6238C271.37 98.6846 271.389 98.7412 271.417 98.792C271.418 98.8027 271.413 98.8118 271.414 98.8224C271.664 100.977 271.16 103.17 269.995 104.999C269.806 105.295 270.022 105.681 270.369 105.681C270.516 105.681 270.66 105.609 270.744 105.476C272.018 103.476 272.569 101.077 272.297 98.7214C272.292 98.6768 272.275 98.638 272.258 98.5991C272.768 94.8551 278.319 95.1308 278.207 99.1045C278.207 99.1412 278.216 99.1744 278.223 99.2084C278.169 99.2769 278.13 99.3568 278.128 99.4536C278.056 101.608 277.064 103.762 275.474 105.218C275.175 105.491 275.371 105.99 275.773 105.99C275.881 105.99 275.988 105.951 276.073 105.874C277.863 104.237 278.936 101.908 279.016 99.4833C279.017 99.4501 279.006 99.4211 279 99.39C279.153 99.1971 279.222 98.5673 279.932 98.0499C281.374 96.9939 283.433 97.9114 283.542 100.356C283.578 101.204 283.362 102.041 283.147 102.747C283.124 102.821 283.129 102.895 283.144 102.966C283.041 103.227 282.743 105.822 280.368 107.952C280.186 108.116 280.17 108.397 280.334 108.579C280.497 108.762 280.778 108.777 280.961 108.613C282.533 107.202 283.607 105.281 283.986 103.203C283.995 103.152 283.991 103.102 283.983 103.054C285.247 100.789 288.792 101.509 288.811 104.883C288.817 105.955 288.442 107.02 288.116 107.827C286.386 112.075 283.286 115.582 279.538 117.805C278.159 118.624 276.4 119.941 275.665 121.357H275.664C275.34 121.941 275.101 122.626 275.03 123.303C269.249 125.82 262.928 126.785 256.801 125.633C256.739 125.415 256.592 124.789 256.562 124.649C255.98 121.925 255.851 119.394 256.734 116.504C258.727 109.951 264.397 107.496 264.464 107.441C265.42 106.961 266.612 106.362 267.094 105.242C267.752 103.736 266.955 102.118 265.36 101.749L265.188 101.711ZM277.706 40.2339C277.628 40.2848 277.549 40.3343 277.471 40.3866C277.488 40.3174 277.505 40.2453 277.522 40.1739C277.58 40.2078 277.642 40.229 277.706 40.2339ZM242.63 18.2506C249.385 16.1104 257.538 19.0896 261.193 25.0332C262.654 27.401 264.018 30.5322 266.935 30.8468C269.162 31.08 271.117 29.436 272.96 29.5172C275.211 29.5554 276.874 31.8087 277.182 33.9666C277.396 35.4425 276.769 41.4101 275.932 41.7069C275.701 41.7896 275.581 42.0434 275.664 42.2738C275.746 42.5042 275.999 42.6265 276.231 42.5424C276.232 42.5424 276.233 42.5424 276.234 42.5417C284.554 39.5646 294.168 53.8804 285.463 66.9204C284.437 68.4598 283.044 69.8325 281.747 71.1818C281.579 69.2939 279.815 67.3353 277.825 66.8236C277.471 66.7324 277.125 66.6822 276.784 66.6561C269.643 66.1012 268.926 74.4275 264.383 62.7057C264.334 62.5014 261.292 55.8347 262.877 47.7679C262.959 47.3487 262.458 47.0688 262.142 47.3537C256.788 52.2137 248.775 53.6889 242.2 51.0235C235.729 48.4012 230.869 41.6137 230.909 34.3851C230.945 27.1826 235.874 20.3965 242.63 18.2506ZM242.028 87.8682C247.253 87.91 252.677 87.0816 257.615 85.2877C257.845 85.2036 257.964 84.9491 257.88 84.7187C257.797 84.4883 257.542 84.3709 257.311 84.4529C254.03 85.6453 250.576 86.4115 247.045 86.7303C242.415 87.1551 236.894 87.3494 232.96 84.8714C229.569 82.6569 227.917 78.6973 227.91 72.765C227.896 66.1973 228.844 60.417 230.727 55.5845C231.908 52.5459 233.137 49.4819 234.693 46.6334C241.836 54.9258 253.902 55.1011 261.799 48.8118C261.134 53.3673 261.688 58.216 263.39 62.5989C264.182 64.6438 265.403 67.975 267.147 69.2904C269.443 71.0312 271.394 68.6252 273.59 67.9403C274.395 67.6922 277.158 66.984 278.901 68.2867C279.804 68.9596 280.62 69.8671 280.825 70.9874C280.832 71.104 280.83 71.2235 280.815 71.3564C280.55 73.7546 279.427 76.2143 277.734 78.105C274.387 81.8405 267.008 84.4027 263.893 79.8784L263.895 79.877C263.784 79.6798 263.7 79.4946 263.637 79.3109C263.558 79.0776 263.306 78.9539 263.074 79.0338C262.842 79.1137 262.718 79.3653 262.797 79.5971C262.862 79.7865 262.947 79.9731 263.043 80.1576C261.908 86.0659 262.245 84.1857 261.082 90.3774C259.955 95.8581 259.533 101.275 255.32 105.626C249.62 111.542 237.872 111.988 239.649 101.047C240.352 96.7776 241.211 92.1176 242.028 87.8682ZM161.309 52.0073C161.247 52.0893 161.213 52.1911 161.218 52.2957C161.575 59.8918 159.332 62.2682 158.895 64.3624C158.809 64.7837 158.78 65.2029 158.784 65.6177C155.903 66.4617 152.07 67.3332 148.016 67.5572L151.922 57.9128C152.363 58.7447 152.899 59.5158 153.524 60.2127C153.686 60.3937 153.965 60.4121 154.151 60.2467C154.333 60.0827 154.349 59.8021 154.185 59.6197C152.976 58.2725 152.558 57.1395 152.297 56.6412C151.514 54.8028 151.247 52.8181 151.523 50.9005C151.659 49.9505 151.906 49.2868 152.302 48.8118C152.683 48.3496 153.294 48.0266 153.889 48.134C154.067 48.1665 154.127 48.2096 154.267 48.1842C154.499 48.1418 154.655 47.9255 154.626 47.6944C154.216 44.3632 154.393 41.0114 155.15 37.7354C155.654 35.6029 156.774 35.0488 157.843 36.9239C160.352 41.3323 161.647 46.7055 161.309 52.0073ZM140.383 84.0324L95.3861 67.4753L121.811 1.02487L166.59 19.349L159.202 37.5735C159.088 37.3445 158.842 36.8822 158.615 36.4829C157.318 34.2091 155.07 34.2168 154.286 37.5311C153.548 40.7209 153.345 43.9779 153.68 47.2215C153.619 47.2364 152.511 47.1635 151.619 48.2436C150.956 49.0394 150.745 50.0693 150.645 50.7733C150.354 52.7919 150.618 54.877 151.409 56.8165C151.383 56.8766 139.635 85.8786 140.383 84.0324ZM67.8797 201.383H78.524C78.7665 201.383 78.968 201.584 78.968 201.826C78.968 202.069 78.7665 202.27 78.524 202.27H67.8797C67.6373 202.27 67.4358 202.069 67.4358 201.826C67.4358 201.584 67.6373 201.383 67.8797 201.383ZM79.7145 207.077C79.9634 207.077 80.1585 207.278 80.1585 207.521C80.1585 207.769 79.9634 207.964 79.7145 207.964H45.9281C45.6793 207.964 45.4841 207.769 45.4841 207.521C45.4841 207.278 45.6793 207.077 45.9281 207.077H79.7145ZM95.8371 185.712C95.2214 182.839 93.116 180.587 90.3814 179.741C90.1474 179.67 89.8985 179.8 89.8264 180.035C89.7536 180.269 89.8851 180.517 90.1191 180.59C92.8176 181.425 94.7746 183.772 95.0828 186.631C94.8134 187.053 95.6519 187.776 93.9467 189.546C93.8583 189.611 91.2192 192.605 86.5567 193.49C82.3395 194.305 81.5223 191.481 82.5934 190.471L88.2463 188.867C88.4825 188.8 88.6189 188.555 88.5525 188.318C88.4853 188.082 88.2393 187.942 88.0038 188.012C81.0493 189.988 74.3217 192.064 67.0335 192.255C64.5379 186.166 63.4194 180.179 65.1232 172.715C76.9333 174.078 83.1731 170.988 88.1035 170.55C93.3557 170.048 98.7739 175.122 97.8414 181.178C96.9867 177.758 94.2613 175.459 91.1534 174.904C90.9138 174.864 90.6819 175.021 90.638 175.263C90.5949 175.505 90.7554 175.735 90.9972 175.778C94.6013 176.421 97.2864 179.596 97.2051 183.378C96.8799 184.154 96.4699 184.893 95.8371 185.712ZM94.5773 139.202C94.6763 139.256 99.1218 140.272 99.1819 140.286L100.671 145.103C96.4473 143.699 93.1308 143.599 91.5946 143.658L94.5773 139.202ZM101.87 173.299C102.037 172.739 101.991 172.144 101.805 171.7C101.129 170.086 98.9895 170.252 97.2688 170.563L99.6053 157.807C100.531 160.735 103.464 170.224 103.924 173.063C103.203 173.142 101.931 173.291 101.87 173.299ZM91.4843 170.078C89.603 169.493 88.1792 169.576 86.4485 169.873L91.0955 144.579C92.163 144.5 95.9389 144.386 100.847 146.103C100.836 146.162 95.6618 174.401 95.9594 172.778C94.7449 171.529 93.1245 170.586 91.4843 170.078ZM97.9128 175.65C97.5402 174.83 97.1281 174.182 96.7046 173.64L97.0949 171.511C98.3837 171.244 100.621 170.884 101.023 172.135C101.512 173.654 99.3536 175.035 97.9128 175.65ZM42.9821 31.8695C43.535 31.7211 46.1975 31.2362 46.7928 31.3352C46.8069 31.3493 46.8281 31.3528 46.8444 31.3649C47.1625 31.9381 47.6234 32.4343 48.1841 32.7721C48.2555 32.8152 48.3347 32.8357 48.4131 32.8357C48.8621 32.8357 49.0261 32.2427 48.6429 32.0116C48.1056 31.6879 47.774 31.2716 47.4941 30.7111C46.5665 26.4673 49.8759 21.5458 57.063 20.6001C63.4703 19.7604 68.7034 23.0711 69.6239 23.3779C69.6797 25.1428 70.1859 26.9155 71.0802 28.4309C71.2485 28.7171 71.6932 28.7284 71.8579 28.4075C72.4072 27.3367 73.4578 26.5479 74.63 26.2921C73.6819 31.3656 73.5737 31.6151 73.713 32.3077C73.9605 33.5326 75.1856 34.038 75.9746 33.3192C76.2412 33.0768 76.3698 32.7474 76.3274 32.4166C76.2532 31.837 75.3716 31.9444 75.4465 32.529C75.4536 32.5855 75.3999 32.6414 75.3765 32.6633C75.0577 32.9545 74.6703 32.5636 74.5833 32.1317C74.485 31.6448 74.5458 31.5748 75.6155 25.8489C75.6678 25.5676 75.4458 25.3096 75.1503 25.3244C73.7151 25.4163 72.3507 26.1783 71.4917 27.324C70.8073 25.9203 70.4602 24.3313 70.5062 22.7771C70.509 22.6717 70.4701 22.5777 70.4114 22.5C71.3644 20.2318 73.175 19.1349 74.5833 18.6118C85.5655 14.5314 93.835 29.402 90.0626 37.5594C90.0626 37.5594 90.0626 37.5601 90.0619 37.5608C89.1407 39.5667 86.8536 41.3684 84.2342 42.1501C82.097 42.7905 79.9973 42.5572 77.957 41.6758C75.6784 40.7118 75.9506 40.6446 75.0669 39.5646C74.7537 39.185 74.1443 39.525 74.3033 39.9901C75.8841 44.6169 69.6026 50.1859 65.0115 45.9994C64.9366 45.6785 63.3077 44.0302 62.9875 40.8291C62.9627 40.5852 62.7436 40.4057 62.5018 40.4312C62.2579 40.4552 62.0797 40.6729 62.1045 40.9167C62.2861 42.7389 62.9288 44.4798 63.9596 45.986C63.9567 46.0235 63.9546 46.0616 63.9617 46.0998C65.2491 53.1206 55.9919 57.1006 51.7868 51.2935C51.509 50.9075 50.8953 51.1754 50.9922 51.644C51.837 55.728 51.2912 60.1626 49.4976 63.9461C46.4598 58.6111 39.542 54.0691 34.7211 57.4222L34.7218 57.4237C34.5352 57.5523 34.3818 57.6668 34.2114 57.8181C27.7949 47.401 33.3885 34.3936 42.9821 31.8695ZM48.954 73.7956C49.2537 73.3503 48.6917 72.8195 48.2314 73.2803L48.2307 73.281C44.6952 76.813 35.8035 72.7177 34.0262 64.6409C33.5299 62.382 33.6112 59.7371 35.262 58.1284C39.87 54.9887 46.5807 59.9823 49.1123 65.1088C49.2693 65.4269 49.7302 65.4467 49.902 65.1202C51.8547 61.4468 52.6338 57.0915 52.1113 52.9587C57.2956 57.5346 65.0419 53.7744 64.9479 47.0936C69.4492 50.3449 75.3504 46.8207 75.3935 41.3253C75.841 41.7204 77.1461 42.295 77.6077 42.4908C79.7039 43.3969 81.9238 43.6655 84.0879 43.1114C85.1194 45.868 85.9232 47.97 86.6677 53.0471C83.2523 51.9868 79.7046 53.2598 77.694 55.9457C77.5469 56.1415 77.5872 56.42 77.7838 56.567C77.981 56.714 78.2589 56.673 78.4052 56.4772C79.3222 55.253 80.6265 54.3398 82.0872 53.8882C79.6142 56.1556 81.2678 61.198 84.3269 60.6771C87.1526 60.1901 87.7649 55.2884 85.125 53.6153C85.6984 53.6853 86.264 53.8239 86.8069 54.0281C87.0282 55.6722 87.3485 58.4358 87.4418 60.0933C87.697 64.8742 87.0367 70.1774 85.4799 75.8559C84.0716 80.9867 81.4982 85.54 76.2737 86.6603C69.9286 88.0216 59.6088 83.6189 54.1757 79.9555C53.9721 79.8183 53.6964 79.8721 53.5592 80.0756C53.4221 80.2785 53.4758 80.5548 53.6787 80.692C57.6463 83.3665 61.7877 85.1873 66.4248 86.5719C66.0388 92.7891 66.5895 94.9746 66.5867 103.111C66.586 104.095 66.586 105.101 66.5966 106.105C60.5187 96.5691 60.8482 97.0172 60.6856 96.9324C60.6248 96.9006 48.6471 90.9415 46.452 89.9053C46.4492 89.8784 48.925 73.9059 48.954 73.7956ZM5.9705 147.594C9.6086 124.536 17.041 104.129 38.116 93.6217L54.5066 112.723C54.725 112.978 55.1407 112.909 55.2595 112.589L60.5845 98.3149L66.6531 107.849L75.479 145.98C75.5356 146.224 75.7816 146.368 76.0114 146.312C76.2504 146.257 76.3995 146.019 76.3437 145.78L67.5121 107.624C67.4259 104.317 67.5319 101.155 67.4075 97.7552L72.128 105.7C72.3252 106.032 72.8222 105.97 72.9346 105.604L76.6526 93.4344C76.712 93.2407 76.6321 93.0315 76.4589 92.9255C76.3281 92.8456 76.191 92.7735 76.0588 92.6958C81.1751 94.6211 86.3884 97.758 91.8547 102.195C105.169 113.01 120.195 153.922 125.125 171.146C119.168 171.556 111.631 172.214 104.799 172.97C104.286 169.66 100.792 158.602 99.9468 155.944C101.759 146.004 101.826 145.828 101.777 145.673C101.46 144.638 103.031 149.759 98.1122 133.729C98.0238 133.372 97.5063 133.232 97.2787 133.572L94.4635 137.776L88.0682 115.742C87.9996 115.506 87.7536 115.373 87.5182 115.439C87.2827 115.507 87.147 115.754 87.2156 115.99L93.8187 138.739L90.3517 143.917C90.2358 144.09 90.3404 143.936 85.5139 170.048C81.8807 170.774 76.6873 172.54 68.0621 172.07C66.9593 170.102 66.1279 169.172 66.1816 169.23C66.0812 169.119 65.9504 169.079 65.8359 169.085C65.6909 169.094 45.9536 171.04 46.0144 171.035C42.7623 171.265 39.4876 171.453 36.2086 171.619C36.4737 171.388 36.1033 173.917 39.39 132.882C39.4091 132.637 39.2267 132.424 38.9821 132.405C38.741 132.389 38.524 132.568 38.5049 132.812C35.3857 173.644 35.2556 171.361 35.672 171.647C30.7536 171.889 25.8238 172.068 20.9273 172.162C20.682 172.167 20.4876 172.37 20.4918 172.615C20.4968 172.857 20.6947 173.05 20.9358 173.05C23.8096 173.05 36.116 172.638 46.0914 171.921L65.066 170.051C59.6788 181.43 67.8861 196.123 66.6652 193.621C67.2972 194.917 67.826 195.558 68.48 196.18C66.2304 197.419 62.5506 197.82 59.9765 198.115C54.3525 198.762 39.7498 201.719 18.5512 200.124C13.8151 199.761 8.44704 199.485 5.90405 195.467C3.89765 192.324 3.26419 188.291 3.10795 184.563C2.60883 172.167 4.15569 159.098 5.9705 147.594Z" fill="black"/>
<path d="M37.0159 59.8924C36.7727 59.9242 36.6009 60.1468 36.6327 60.3893C36.6638 60.6331 36.8865 60.7999 37.1297 60.7731C38.5437 60.5907 40.0417 60.9187 41.2549 61.6693C41.2153 61.6736 41.1757 61.675 41.1369 61.6898C39.3892 62.3754 38.0601 64.8351 40.0177 67.2708C40.473 67.837 41.023 68.3098 41.5936 68.7848C41.6763 68.8534 41.7774 68.8873 41.8771 68.8873C42.2906 68.8873 42.4801 68.3678 42.1613 68.102C41.1913 67.2963 40.1004 66.3477 39.9442 65.055C39.819 64.0145 40.485 62.8999 41.4606 62.5168C41.6734 62.4334 41.7788 62.2037 41.7201 61.9881C42.7544 62.7712 43.5533 63.8894 43.9435 65.1221C44.0036 65.3115 44.1783 65.4324 44.367 65.4324C44.6654 65.4324 44.881 65.1419 44.7905 64.8549C43.7442 61.5477 40.4631 59.4513 37.0159 59.8924Z" fill="black"/>
<path d="M80.5462 66.835C80.5243 67.8182 80.0683 69.6778 77.2644 71.0802C76.8487 71.2887 76.9943 71.9213 77.4631 71.9213C77.5295 71.9213 77.5981 71.9064 77.661 71.8746C80.882 70.2638 81.4073 68.038 81.4342 66.8548C81.4646 65.5105 77.9565 59.4086 77.2531 58.1985C77.1301 57.9864 76.8572 57.9143 76.6458 58.038C76.4337 58.161 76.3616 58.4331 76.4853 58.6452C78.1821 61.5629 80.5639 66.0321 80.5462 66.835Z" fill="black"/>
<path d="M60.6064 60.3431C60.7357 60.3431 60.8644 60.2873 60.9521 60.1784C62.9931 57.6565 65.5771 57.1179 65.6372 57.0896C64.6658 57.8325 64.0939 59.2751 64.2798 60.8061C64.5357 62.9187 65.9702 64.0807 67.2816 64.0807C69.1594 64.0807 70.3888 61.9596 70.1322 59.8427C69.9738 58.5358 69.2675 57.2366 68.0183 56.7511C69.1071 56.7355 70.1993 56.9016 71.2259 57.2607C71.4578 57.3413 71.7109 57.2197 71.7922 56.9886C71.8727 56.7567 71.7512 56.5037 71.52 56.4224C67.4768 55.0067 62.9599 56.2867 60.2621 59.6193C60.0245 59.9126 60.2387 60.3431 60.6064 60.3431Z" fill="black"/>
<path d="M70.6048 71.3608C70.5299 71.1275 70.2796 70.9996 70.0463 71.0738C69.813 71.1487 69.6843 71.3989 69.76 71.6322C70.3156 73.3582 72.1644 74.5994 73.9997 74.4354C74.2443 74.4128 74.4239 74.1972 74.402 73.9527C74.3794 73.7088 74.1588 73.5321 73.9198 73.5512C72.496 73.6862 71.0424 72.7186 70.6048 71.3608Z" fill="black"/>
<path d="M269.723 73.4956C269.869 73.4956 270.012 73.4242 270.097 73.2913C270.781 72.2283 271.82 71.3766 272.995 70.8987C272.894 71.0896 272.936 71.3278 273.115 71.4607C273.94 72.0735 274.284 73.2991 273.897 74.2519C273.418 75.4322 272.136 76.0564 271.011 76.5688C270.482 76.8098 270.839 77.6234 271.379 77.3767C272.711 76.7688 274.13 76.0387 274.719 74.5862C275.259 73.2546 274.797 71.6049 273.643 70.7475C273.616 70.727 273.584 70.7185 273.554 70.7058C274.892 70.3128 276.388 70.3884 277.676 70.9228C277.902 71.0161 278.162 70.9086 278.256 70.6832C278.35 70.4563 278.243 70.1962 278.017 70.1029C274.864 68.7917 271.196 69.9382 269.349 72.8114C269.158 73.1097 269.377 73.4956 269.723 73.4956Z" fill="black"/>
<path d="M236.17 58.4104C237.691 57.5247 238.373 55.253 237.642 53.4924C239.002 54.6692 238.805 55.3371 239.345 55.3371C239.676 55.3371 239.897 54.9795 239.734 54.6812C238.446 52.3155 235.673 50.8439 232.994 51.1076C232.75 51.1316 232.571 51.3479 232.595 51.5917C232.619 51.8363 232.832 52.0201 233.08 51.9904C233.521 51.948 233.965 51.9593 234.403 52.0187C233.377 52.4745 232.744 53.4747 232.495 54.5243C231.825 57.3501 234.017 59.6628 236.17 58.4104Z" fill="black"/>
<path d="M233.311 63.8814C232.985 65.001 232.819 67.2472 235.366 69.7133C235.544 69.8844 235.824 69.8787 235.994 69.7027C236.165 69.5267 236.16 69.2454 235.984 69.0751C233.771 66.9327 233.894 65.0568 234.164 64.1295C234.384 63.3732 237.94 59.8865 240.395 57.6515C240.576 57.4861 240.589 57.2062 240.425 57.0246C240.26 56.8444 239.979 56.8302 239.798 56.9949C238.779 57.9215 233.681 62.6091 233.311 63.8814Z" fill="black"/>
<path d="M275.147 44.7641C278.616 45.5776 281.605 48.7088 282.585 52.556C283.46 55.9897 282.89 59.9415 280.98 63.6819C280.827 63.9802 281.049 64.3272 281.375 64.3272C281.537 64.3272 281.693 64.2389 281.771 64.0848C283.778 60.1514 284.374 55.9791 283.446 52.3369C282.387 48.1773 279.134 44.786 275.351 43.8989C275.112 43.8417 274.873 43.9915 274.817 44.2304C274.76 44.4693 274.908 44.7075 275.147 44.7641Z" fill="black"/>
<path d="M272.734 48.4616C276.487 50.3742 278.352 54.7374 277.122 58.7789C277.036 59.0631 277.248 59.3522 277.547 59.3522C277.737 59.3522 277.913 59.2292 277.972 59.0376C279.324 54.5911 277.279 49.7805 273.137 47.6706C272.919 47.559 272.651 47.6466 272.539 47.8643C272.428 48.0827 272.515 48.3506 272.734 48.4616Z" fill="black"/>
<path d="M238.787 28.6443C243.404 23.1368 251.865 23.2011 256.436 28.6033C256.594 28.7906 256.875 28.8139 257.061 28.6556C257.249 28.4972 257.272 28.2173 257.114 28.03C252.101 22.1062 243.012 22.2214 238.107 28.0746C237.949 28.2626 237.974 28.5425 238.162 28.7001C238.35 28.857 238.63 28.8323 238.787 28.6443Z" fill="black"/>
<path d="M254.559 33.9137C251.124 31.7021 246.436 31.5841 242.893 33.6176C242.68 33.7398 242.607 34.0112 242.729 34.224C242.851 34.4368 243.123 34.5088 243.335 34.3873C246.597 32.5128 250.913 32.6231 254.077 34.6601C254.282 34.7923 254.558 34.7343 254.691 34.5272C254.824 34.3208 254.765 34.0466 254.559 33.9137Z" fill="black"/>
<path d="M247.102 56.7515C246.885 56.866 246.802 57.1339 246.917 57.3509C247.031 57.5679 247.3 57.652 247.517 57.5361C248.012 57.2753 248.552 57.095 249.107 56.9897C247.113 58.7327 247.475 62.5142 249.754 63.1772C252.31 63.9264 254.394 60.0806 252.826 57.534C253.516 57.8966 254.139 58.3928 254.624 58.9914C254.778 59.1801 255.058 59.212 255.249 59.0565C255.439 58.9024 255.468 58.6225 255.314 58.4323C253.34 56.0009 249.904 55.275 247.102 56.7515Z" fill="black"/>
<path d="M242.405 70.4547C241.811 70.7042 234.85 72.4974 232.432 71.9291C232.06 71.8443 231.509 71.7538 231.303 72.0747C231.238 72.1743 231.216 72.2959 231.242 72.4118C231.973 75.7006 234.38 78.9704 237.95 78.5293C241.593 78.0875 242.838 74.4927 243.145 70.818C243.164 70.5741 242.7 70.1875 242.405 70.4547Z" fill="black"/>
<path d="M35.1117 50.4575C35.3563 50.4448 35.5451 50.2363 35.5323 49.9917C35.2262 44.0382 38.8601 38.5647 44.4685 36.5368C44.699 36.4534 44.8185 36.199 44.735 35.9685C44.6516 35.7381 44.3964 35.6194 44.1666 35.7021C38.192 37.8621 34.3192 43.6926 34.6451 50.037C34.6585 50.2914 34.8819 50.4745 35.1117 50.4575Z" fill="black"/>
<path d="M44.0958 41.158C42.047 42.4268 40.5673 44.5995 40.1382 46.9709C40.0887 47.2416 40.2958 47.4939 40.5758 47.4939C40.7865 47.4939 40.9731 47.3434 41.012 47.1292C41.3973 45.001 42.725 43.0509 44.5639 41.9129C44.7724 41.7843 44.8368 41.51 44.7074 41.3022C44.5773 41.0937 44.3044 41.0294 44.0958 41.158Z" fill="black"/>
<path d="M121.753 19.1981C155.612 32.2345 154.195 31.732 154.359 31.732C154.849 31.732 154.974 31.0499 154.518 30.8739L122.072 18.3697C121.845 18.2813 121.586 18.3958 121.498 18.6248C121.409 18.8539 121.524 19.1097 121.753 19.1981Z" fill="black"/>
<path d="M118.989 28.0592C134.981 33.6607 134.04 33.3645 134.185 33.3645C134.368 33.3645 134.54 33.25 134.604 33.0677C134.685 32.8365 134.564 32.5835 134.332 32.5015L119.283 27.2209C119.051 27.141 118.798 27.2619 118.717 27.493C118.635 27.7248 118.757 27.9779 118.989 28.0592Z" fill="black"/>
<path d="M114.394 34.7482C148.514 49.1941 146.507 48.3933 146.68 48.3933C147.163 48.3933 147.296 47.7282 146.853 47.5409L114.74 33.9319C114.515 33.8357 114.254 33.9425 114.158 34.1672C114.063 34.3927 114.168 34.6528 114.394 34.7482Z" fill="black"/>
<path d="M124 49.2368L112.333 44.6206C112.106 44.5294 111.847 44.6418 111.757 44.8694C111.667 45.0977 111.778 45.3557 112.007 45.4454C124.44 50.3528 123.675 50.0927 123.836 50.0927C124.326 50.0934 124.451 49.4149 124 49.2368Z" fill="black"/>
<path d="M151.645 196.056L176.93 229.822C177.014 229.935 177.146 230 177.286 230C177.287 230 177.288 230 177.289 230L275.51 229.367C275.698 229.366 275.864 229.248 275.926 229.071C275.988 228.895 275.934 228.698 275.789 228.58L263.075 218.183C263.087 218.162 263.103 218.143 263.113 218.12C263.183 217.951 263.143 217.756 263.011 217.63L232.214 187.941C232.132 187.861 232.021 187.816 231.906 187.816C231.905 187.816 231.905 187.816 231.904 187.816L177.284 188.118C176.937 188.121 176.729 188.501 176.908 188.793L180.912 195.345H152C151.635 195.346 151.426 195.763 151.645 196.056ZM231.727 188.706L261.582 217.487L194.895 216.526L178.074 189.002L231.727 188.706Z" fill="black"/>
<path d="M202.148 208.758C202.148 209.004 202.347 209.202 202.592 209.202H232.934C233.18 209.202 233.378 209.004 233.378 208.758C233.378 208.513 233.18 208.314 232.934 208.314H202.592C202.347 208.314 202.148 208.513 202.148 208.758Z" fill="black"/>
<path d="M225.478 203.878C225.723 203.878 225.922 203.679 225.922 203.434C225.922 203.189 225.723 202.99 225.478 202.99H212.245C211.999 202.99 211.801 203.189 211.801 203.434C211.801 203.679 211.999 203.878 212.245 203.878H225.478Z" fill="black"/>
<path d="M195.825 196.779H227.002C227.248 196.779 227.446 196.581 227.446 196.335C227.446 196.09 227.248 195.892 227.002 195.892H195.825C195.58 195.892 195.381 196.09 195.381 196.335C195.381 196.581 195.58 196.779 195.825 196.779Z" fill="black"/>
</g>
<defs>
<clipPath id="clip0_387_34">
<rect width="304" height="230" fill="white"/>
</clipPath>
</defs>
</svg>
