<svg width="300" height="168" viewBox="0 0 300 168" fill="none" xmlns="http://www.w3.org/2000/svg">
<rect width="300" height="168" rx="6.87" fill="white"/>
<rect x="13.6504" y="16.4209" width="20.3028" height="20.3028" rx="4.62991" fill="#094CC9"/>
<path d="M26.1774 27.0307C26.3706 26.9616 26.5003 26.7771 26.5003 26.572C26.5003 26.3669 26.3706 26.1824 26.1782 26.1134L25.2934 25.7944C24.863 25.64 24.472 25.3922 24.1487 25.0688C23.8253 24.7454 23.5775 24.3545 23.4231 23.9241L23.1041 23.0393C23.07 22.9452 23.0078 22.8638 22.9259 22.8062C22.844 22.7486 22.7464 22.7175 22.6463 22.7172C22.4415 22.7172 22.257 22.8465 22.1872 23.0393L21.8686 23.9241C21.7142 24.3546 21.4664 24.7456 21.143 25.069C20.8195 25.3923 20.4285 25.6401 19.9979 25.7944L19.114 26.1134C18.9208 26.1828 18.791 26.3669 18.791 26.572C18.791 26.7771 18.9208 26.9612 19.1132 27.0307L19.9979 27.3496C20.4284 27.504 20.8194 27.7518 21.1427 28.0751C21.4661 28.3985 21.7139 28.7895 21.8682 29.2199L22.1872 30.1051C22.2567 30.2975 22.4411 30.4269 22.6459 30.4269C22.8506 30.4269 23.0351 30.2971 23.1041 30.1047L23.4231 29.2199C23.5775 28.7895 23.8253 28.3986 24.1487 28.0752C24.472 27.7518 24.863 27.5041 25.2934 27.3496L26.1774 27.0307ZM25.0244 26.603C24.484 26.7967 23.9932 27.1078 23.5872 27.5138C23.1813 27.9197 22.8702 28.4105 22.6764 28.9509L22.6455 29.0366L22.6145 28.9509C22.4206 28.4106 22.1095 27.9198 21.7036 27.5139C21.2976 27.108 20.8069 26.7969 20.2665 26.603L20.1812 26.572L20.2669 26.5411C20.8074 26.3473 21.2982 26.0362 21.7041 25.6303C22.1101 25.2243 22.4211 24.7335 22.6149 24.1931L22.6459 24.1074L22.6768 24.1931C22.8706 24.7334 23.1816 25.2242 23.5875 25.6302C23.9934 26.0361 24.4841 26.3472 25.0244 26.5411L25.1101 26.572L25.0244 26.603ZM24.8157 23.1849L25.2636 23.3464C25.4545 23.4149 25.6278 23.5247 25.7712 23.6681C25.9145 23.8115 26.0244 23.9848 26.0929 24.1756L26.2539 24.6232C26.317 24.7985 26.4844 24.9164 26.6705 24.9164C26.8566 24.9164 27.0244 24.7985 27.0871 24.6236L27.2486 24.1756C27.317 23.9847 27.4268 23.8114 27.5702 23.668C27.7136 23.5246 27.8869 23.4148 28.0778 23.3464L28.5261 23.1849C28.7003 23.1218 28.8181 22.9548 28.8185 22.7695C28.8189 22.5842 28.7023 22.4164 28.5261 22.3521L28.0778 22.1907C27.887 22.1221 27.7137 22.0123 27.5704 21.8689C27.427 21.7256 27.3171 21.5523 27.2486 21.3615L27.0871 20.9135C27.056 20.8281 26.9993 20.7543 26.9249 20.7022C26.8504 20.65 26.7616 20.6221 26.6707 20.6221C26.5798 20.6221 26.4911 20.65 26.4166 20.7022C26.3421 20.7543 26.2855 20.8281 26.2543 20.9135L26.0929 21.3615C26.0244 21.5523 25.9145 21.7256 25.7712 21.869C25.6278 22.0123 25.4545 22.1222 25.2636 22.1907L24.8145 22.3525C24.6399 22.416 24.5225 22.5838 24.5229 22.7695C24.5233 22.9552 24.6411 23.1222 24.8157 23.1849ZM26.6709 21.9915C26.8585 22.3132 27.1261 22.5808 27.4478 22.7683C27.1261 22.9559 26.8585 23.2235 26.6709 23.5452C26.4833 23.2236 26.2157 22.956 25.8941 22.7683C26.2156 22.5806 26.4831 22.313 26.6709 21.9915ZM28.5257 29.9591L28.0778 29.7976C27.887 29.7291 27.7137 29.6192 27.5704 29.4759C27.427 29.3325 27.3171 29.1592 27.2486 28.9684L27.0871 28.5205C27.0559 28.4351 26.9992 28.3613 26.9247 28.3093C26.8502 28.2572 26.7614 28.2292 26.6705 28.2292C26.5796 28.2292 26.4909 28.2572 26.4164 28.3093C26.3419 28.3613 26.2852 28.4351 26.2539 28.5205L26.0925 28.9684C26.0241 29.1593 25.9142 29.3326 25.7709 29.476C25.6275 29.6194 25.4541 29.7292 25.2632 29.7976L24.8157 29.9587C24.6407 30.0214 24.5229 30.1888 24.5225 30.3745C24.5221 30.5602 24.6392 30.728 24.8153 30.7919L25.2632 30.9534C25.4541 31.0217 25.6275 31.1315 25.7709 31.2749C25.9143 31.4183 26.0241 31.5917 26.0925 31.7826L26.2535 32.2301C26.2846 32.3158 26.3412 32.3898 26.4158 32.4421C26.4904 32.4945 26.5793 32.5226 26.6704 32.5226C26.7615 32.5227 26.8504 32.4946 26.925 32.4424C26.9997 32.3901 27.0564 32.3161 27.0875 32.2305L27.249 31.7826C27.3175 31.5918 27.4274 31.4185 27.5707 31.2751C27.7141 31.1317 27.8874 31.0219 28.0782 30.9534L28.5281 30.7915C28.7023 30.7276 28.8193 30.5602 28.8189 30.3745C28.8185 30.1888 28.7003 30.0222 28.5257 29.9591ZM26.6709 31.1525C26.4834 30.8309 26.2157 30.5632 25.8941 30.3757C26.2157 30.188 26.4833 29.9204 26.6709 29.5988C26.8586 29.9204 27.1262 30.188 27.4478 30.3757C27.1262 30.5633 26.8586 30.8309 26.6709 31.1525Z" fill="white"/>
<path d="M41.9623 32.0723L45.7045 21.6935H47.4002L51.1424 32.0723H49.7683L48.7304 29.1194H44.3743L43.3364 32.0723H41.9623ZM44.7982 27.8915H48.3065L46.5523 22.7898L44.7982 27.8915ZM52.4936 32.0723V21.6935H53.7508V32.0723H52.4936ZM59.0357 32.0723L62.7779 21.6935H64.4736L68.2158 32.0723H66.8417L65.8038 29.1194H61.4476L60.4098 32.0723H59.0357ZM61.8716 27.8915H65.3799L63.6257 22.7898L61.8716 27.8915ZM72.2414 32.2477C71.5495 32.2477 70.9599 32.1356 70.4727 31.9115C69.9951 31.6873 69.6199 31.3803 69.3471 30.9905C69.0839 30.591 68.9329 30.1378 68.8939 29.6311L70.1803 29.5434C70.2583 30.0111 70.458 30.3863 70.7796 30.6689C71.1012 30.9418 71.5885 31.0782 72.2414 31.0782C72.7677 31.0782 73.1867 30.9954 73.4986 30.8297C73.8202 30.6543 73.981 30.3766 73.981 29.9965C73.981 29.7919 73.9322 29.6213 73.8348 29.4849C73.7373 29.3484 73.5473 29.2315 73.2647 29.134C72.9821 29.0268 72.563 28.9245 72.0075 28.8271C71.2669 28.6906 70.6822 28.525 70.2534 28.3301C69.8343 28.1254 69.5322 27.8769 69.3471 27.5845C69.1716 27.2824 69.0839 26.9267 69.0839 26.5174C69.0839 25.8255 69.3373 25.2603 69.8441 24.8217C70.3508 24.3734 71.072 24.1493 72.0075 24.1493C72.641 24.1493 73.1721 24.2662 73.6009 24.5001C74.0394 24.7243 74.3805 25.0264 74.6242 25.4065C74.8775 25.7768 75.0432 26.1861 75.1212 26.6344L73.8348 26.7221C73.7763 26.4492 73.6691 26.2104 73.5132 26.0058C73.3573 25.7914 73.1526 25.6257 72.8992 25.5088C72.6459 25.3821 72.3438 25.3187 71.9929 25.3187C71.4374 25.3187 71.0281 25.4259 70.765 25.6403C70.5019 25.8547 70.3703 26.1276 70.3703 26.459C70.3703 26.7123 70.4288 26.9219 70.5457 27.0875C70.6724 27.2434 70.8722 27.375 71.1451 27.4822C71.418 27.5797 71.7834 27.6674 72.2414 27.7453C73.0308 27.8818 73.6448 28.0474 74.0833 28.2423C74.5218 28.4373 74.8288 28.676 75.0042 28.9586C75.1797 29.2412 75.2674 29.5872 75.2674 29.9965C75.2674 30.474 75.1309 30.8833 74.8581 31.2244C74.5949 31.5558 74.2344 31.8091 73.7763 31.9846C73.328 32.16 72.8164 32.2477 72.2414 32.2477ZM79.7646 32.2477C79.0726 32.2477 78.4831 32.1356 77.9958 31.9115C77.5183 31.6873 77.1431 31.3803 76.8702 30.9905C76.6071 30.591 76.456 30.1378 76.417 29.6311L77.7034 29.5434C77.7814 30.0111 77.9812 30.3863 78.3028 30.6689C78.6244 30.9418 79.1116 31.0782 79.7646 31.0782C80.2908 31.0782 80.7099 30.9954 81.0217 30.8297C81.3433 30.6543 81.5041 30.3766 81.5041 29.9965C81.5041 29.7919 81.4554 29.6213 81.3579 29.4849C81.2605 29.3484 81.0704 29.2315 80.7878 29.134C80.5052 29.0268 80.0862 28.9245 79.5307 28.8271C78.79 28.6906 78.2053 28.525 77.7765 28.3301C77.3575 28.1254 77.0554 27.8769 76.8702 27.5845C76.6948 27.2824 76.6071 26.9267 76.6071 26.5174C76.6071 25.8255 76.8605 25.2603 77.3672 24.8217C77.874 24.3734 78.5951 24.1493 79.5307 24.1493C80.1641 24.1493 80.6952 24.2662 81.124 24.5001C81.5626 24.7243 81.9037 25.0264 82.1473 25.4065C82.4007 25.7768 82.5664 26.1861 82.6443 26.6344L81.3579 26.7221C81.2995 26.4492 81.1923 26.2104 81.0363 26.0058C80.8804 25.7914 80.6758 25.6257 80.4224 25.5088C80.169 25.3821 79.8669 25.3187 79.5161 25.3187C78.9606 25.3187 78.5513 25.4259 78.2881 25.6403C78.025 25.8547 77.8935 26.1276 77.8935 26.459C77.8935 26.7123 77.9519 26.9219 78.0689 27.0875C78.1956 27.2434 78.3953 27.375 78.6682 27.4822C78.9411 27.5797 79.3065 27.6674 79.7646 27.7453C80.5539 27.8818 81.1679 28.0474 81.6064 28.2423C82.045 28.4373 82.352 28.676 82.5274 28.9586C82.7028 29.2412 82.7905 29.5872 82.7905 29.9965C82.7905 30.474 82.6541 30.8833 82.3812 31.2244C82.1181 31.5558 81.7575 31.8091 81.2995 31.9846C80.8512 32.16 80.3395 32.2477 79.7646 32.2477ZM84.4664 32.0723V24.3247H85.6943V32.0723H84.4664ZM84.4372 23.1114V21.6789H85.7236V23.1114H84.4372ZM90.7138 32.2477C90.0219 32.2477 89.4323 32.1356 88.945 31.9115C88.4675 31.6873 88.0923 31.3803 87.8194 30.9905C87.5563 30.591 87.4053 30.1378 87.3663 29.6311L88.6527 29.5434C88.7306 30.0111 88.9304 30.3863 89.252 30.6689C89.5736 30.9418 90.0609 31.0782 90.7138 31.0782C91.24 31.0782 91.6591 30.9954 91.9709 30.8297C92.2925 30.6543 92.4533 30.3766 92.4533 29.9965C92.4533 29.7919 92.4046 29.6213 92.3072 29.4849C92.2097 29.3484 92.0197 29.2315 91.7371 29.134C91.4544 29.0268 91.0354 28.9245 90.4799 28.8271C89.7393 28.6906 89.1545 28.525 88.7257 28.3301C88.3067 28.1254 88.0046 27.8769 87.8194 27.5845C87.644 27.2824 87.5563 26.9267 87.5563 26.5174C87.5563 25.8255 87.8097 25.2603 88.3164 24.8217C88.8232 24.3734 89.5444 24.1493 90.4799 24.1493C91.1134 24.1493 91.6445 24.2662 92.0733 24.5001C92.5118 24.7243 92.8529 25.0264 93.0965 25.4065C93.3499 25.7768 93.5156 26.1861 93.5935 26.6344L92.3072 26.7221C92.2487 26.4492 92.1415 26.2104 91.9856 26.0058C91.8296 25.7914 91.625 25.6257 91.3716 25.5088C91.1182 25.3821 90.8161 25.3187 90.4653 25.3187C89.9098 25.3187 89.5005 25.4259 89.2374 25.6403C88.9743 25.8547 88.8427 26.1276 88.8427 26.459C88.8427 26.7123 88.9012 26.9219 89.0181 27.0875C89.1448 27.2434 89.3446 27.375 89.6174 27.4822C89.8903 27.5797 90.2558 27.6674 90.7138 27.7453C91.5032 27.8818 92.1171 28.0474 92.5557 28.2423C92.9942 28.4373 93.3012 28.676 93.4766 28.9586C93.652 29.2412 93.7397 29.5872 93.7397 29.9965C93.7397 30.474 93.6033 30.8833 93.3304 31.2244C93.0673 31.5558 92.7067 31.8091 92.2487 31.9846C91.8004 32.16 91.2888 32.2477 90.7138 32.2477ZM97.9518 32.0723C97.2501 32.0723 96.7287 31.9115 96.3876 31.5899C96.0563 31.2683 95.8906 30.7664 95.8906 30.0842V22.5121H97.1185V30.055C97.1185 30.4058 97.1965 30.6494 97.3524 30.7859C97.5084 30.9223 97.7471 30.9905 98.0687 30.9905H99.1797V32.0723H97.9518ZM94.7504 25.4065V24.3247H99.1797V25.4065H94.7504ZM102.788 32.2477C101.989 32.2477 101.35 32.0625 100.873 31.6922C100.405 31.3219 100.171 30.8054 100.171 30.1427C100.171 29.48 100.366 28.9586 100.756 28.5786C101.146 28.1985 101.765 27.9305 102.613 27.7746L105.361 27.2629C105.361 26.61 105.205 26.1227 104.893 25.8011C104.591 25.4795 104.133 25.3187 103.519 25.3187C102.983 25.3187 102.559 25.4406 102.247 25.6842C101.935 25.9181 101.721 26.2592 101.604 26.7075L100.303 26.6051C100.449 25.8742 100.8 25.2846 101.355 24.8364C101.921 24.3783 102.642 24.1493 103.519 24.1493C104.513 24.1493 105.273 24.4319 105.799 24.9971C106.325 25.5526 106.589 26.3225 106.589 27.3068V30.5081C106.589 30.6836 106.618 30.8102 106.676 30.8882C106.745 30.9564 106.852 30.9905 106.998 30.9905H107.305V32.0723C107.266 32.082 107.203 32.0869 107.115 32.0869C107.027 32.0966 106.935 32.1015 106.837 32.1015C106.486 32.1015 106.199 32.0479 105.975 31.9407C105.76 31.8238 105.604 31.6483 105.507 31.4145C105.409 31.1708 105.361 30.8541 105.361 30.4643L105.507 30.4935C105.439 30.8249 105.273 31.127 105.01 31.3998C104.747 31.663 104.42 31.8725 104.03 32.0284C103.641 32.1746 103.226 32.2477 102.788 32.2477ZM102.905 31.1659C103.421 31.1659 103.86 31.0685 104.22 30.8736C104.591 30.6689 104.873 30.3961 105.068 30.055C105.263 29.7041 105.361 29.3143 105.361 28.8855V28.3301L102.846 28.7978C102.32 28.8953 101.955 29.0463 101.75 29.251C101.555 29.4459 101.458 29.7041 101.458 30.0257C101.458 30.3863 101.584 30.6689 101.838 30.8736C102.101 31.0685 102.457 31.1659 102.905 31.1659ZM108.692 32.0723V24.3247H109.817L109.861 26.2982L109.715 26.1666C109.812 25.7086 109.983 25.3334 110.227 25.041C110.47 24.7389 110.763 24.5148 111.104 24.3686C111.455 24.2224 111.83 24.1493 112.229 24.1493C112.824 24.1493 113.311 24.2809 113.691 24.544C114.081 24.8071 114.368 25.1628 114.554 25.6111C114.749 26.0496 114.846 26.5418 114.846 27.0875V32.0723H113.618V27.4384C113.618 26.9608 113.56 26.5613 113.443 26.2397C113.335 25.9083 113.16 25.6598 112.916 25.4942C112.673 25.3187 112.356 25.231 111.966 25.231C111.372 25.231 110.88 25.4211 110.49 25.8011C110.11 26.1715 109.92 26.7172 109.92 27.4384V32.0723H108.692ZM119.436 32.0723C118.735 32.0723 118.213 31.9115 117.872 31.5899C117.541 31.2683 117.375 30.7664 117.375 30.0842V22.5121H118.603V30.055C118.603 30.4058 118.681 30.6494 118.837 30.7859C118.993 30.9223 119.232 30.9905 119.553 30.9905H120.664V32.0723H119.436ZM116.235 25.4065V24.3247H120.664V25.4065H116.235Z" fill="#0D111A"/>
<path d="M278.349 26.5725L282.556 22.3658C282.83 22.0922 282.83 21.6498 282.556 21.3761C282.282 21.1025 281.84 21.1025 281.566 21.3761L277.36 25.5829L273.153 21.3761C272.879 21.1025 272.437 21.1025 272.163 21.3761C271.89 21.6498 271.89 22.0922 272.163 22.3658L276.37 26.5725L272.163 30.7793C271.89 31.0529 271.89 31.4953 272.163 31.769C272.3 31.9054 272.479 31.974 272.658 31.974C272.837 31.974 273.016 31.9054 273.153 31.769L277.36 27.5622L281.566 31.769C281.703 31.9054 281.882 31.974 282.061 31.974C282.24 31.974 282.419 31.9054 282.556 31.769C282.83 31.4953 282.83 31.0529 282.556 30.7793L278.349 26.5725Z" fill="#0D111A"/>
<line x1="13.6504" y1="53.6826" x2="290.389" y2="53.6826" stroke="black" stroke-opacity="0.5" stroke-width="0.617321"/>
<rect x="14.1504" y="66.8848" width="275.739" height="85.407" rx="4.49258" fill="#F9F9F9"/>
<rect x="14.1504" y="66.8848" width="275.739" height="85.407" rx="4.49258" stroke="#EEEEF0"/>
<path d="M24.5816 83.9951H23.7162L26.2192 77.1784H27.0713L29.5743 83.9951H28.7089L26.6719 78.2569H26.6186L24.5816 83.9951ZM24.9011 81.3324H28.3894V82.0646H24.9011V81.3324ZM34.1509 80.0276L33.4453 80.2273C33.4009 80.1097 33.3354 79.9954 33.2489 79.8845C33.1646 79.7713 33.0492 79.6781 32.9027 79.6049C32.7563 79.5317 32.5688 79.4951 32.3402 79.4951C32.0274 79.4951 31.7666 79.5672 31.558 79.7114C31.3517 79.8534 31.2485 80.0343 31.2485 80.2539C31.2485 80.4492 31.3195 80.6034 31.4615 80.7166C31.6035 80.8298 31.8254 80.9241 32.1272 80.9995L32.8861 81.1859C33.3432 81.2969 33.6838 81.4666 33.9079 81.6952C34.132 81.9215 34.2441 82.2133 34.2441 82.5705C34.2441 82.8634 34.1598 83.1253 33.9911 83.3561C33.8247 83.5868 33.5917 83.7688 33.2922 83.9019C32.9926 84.0351 32.6442 84.1016 32.247 84.1016C31.7256 84.1016 31.294 83.9885 30.9523 83.7621C30.6105 83.5358 30.3942 83.2052 30.3032 82.7702L31.0488 82.5839C31.1198 82.859 31.254 83.0654 31.4515 83.2029C31.6512 83.3405 31.912 83.4093 32.2337 83.4093C32.5998 83.4093 32.8905 83.3316 33.1058 83.1763C33.3232 83.0188 33.432 82.8302 33.432 82.6105C33.432 82.433 33.3698 82.2843 33.2456 82.1645C33.1213 82.0424 32.9305 81.9514 32.6731 81.8915L31.821 81.6918C31.3528 81.5809 31.0088 81.4089 30.7892 81.1759C30.5717 80.9407 30.463 80.6467 30.463 80.2939C30.463 80.0054 30.544 79.7502 30.706 79.5283C30.8702 79.3064 31.0932 79.1323 31.375 79.0058C31.659 78.8793 31.9808 78.816 32.3402 78.816C32.8462 78.816 33.2433 78.927 33.5318 79.1489C33.8225 79.3708 34.0289 79.6637 34.1509 80.0276ZM36.1588 82.1312L36.1455 81.1593H36.3052L38.542 78.8826H39.5139L37.1307 81.2924H37.0641L36.1588 82.1312ZM35.4265 83.9951V77.1784H36.212V83.9951H35.4265ZM38.6751 83.9951L36.678 81.4655L37.2372 80.9196L39.6736 83.9951H38.6751ZM44.6655 84.1149C44.3415 84.1149 44.0475 84.0539 43.7834 83.9319C43.5194 83.8076 43.3097 83.629 43.1544 83.396C42.999 83.1608 42.9214 82.8768 42.9214 82.5439C42.9214 82.251 42.9791 82.0136 43.0945 81.8316C43.2098 81.6474 43.3641 81.5032 43.5571 81.3989C43.7502 81.2946 43.9632 81.217 44.1962 81.1659C44.4314 81.1127 44.6677 81.0705 44.9051 81.0395C45.2158 80.9995 45.4676 80.9696 45.6607 80.9496C45.856 80.9274 45.998 80.8908 46.0867 80.8397C46.1777 80.7887 46.2232 80.7 46.2232 80.5735V80.5468C46.2232 80.2184 46.1333 79.9633 45.9536 79.7813C45.7761 79.5993 45.5065 79.5084 45.1448 79.5084C44.7698 79.5084 44.4758 79.5905 44.2627 79.7547C44.0497 79.9189 43.8999 80.0942 43.8134 80.2806L43.0678 80.0143C43.201 79.7036 43.3785 79.4618 43.6004 79.2887C43.8245 79.1134 44.0686 78.9913 44.3326 78.9226C44.5989 78.8516 44.8607 78.816 45.1181 78.816C45.2824 78.816 45.471 78.836 45.684 78.876C45.8992 78.9137 46.1067 78.9925 46.3064 79.1123C46.5083 79.2321 46.6759 79.413 46.809 79.6548C46.9421 79.8967 47.0087 80.2207 47.0087 80.6267V83.9951H46.2232V83.3028H46.1833C46.13 83.4137 46.0412 83.5325 45.917 83.6589C45.7927 83.7854 45.6274 83.893 45.421 83.9818C45.2147 84.0706 44.9628 84.1149 44.6655 84.1149ZM44.7853 83.4093C45.096 83.4093 45.3578 83.3483 45.5708 83.2262C45.7861 83.1042 45.948 82.9467 46.0568 82.7536C46.1677 82.5606 46.2232 82.3575 46.2232 82.1445V81.4256C46.1899 81.4655 46.1167 81.5021 46.0035 81.5354C45.8926 81.5665 45.7639 81.5942 45.6174 81.6186C45.4732 81.6408 45.3323 81.6608 45.1947 81.6785C45.0593 81.694 44.9495 81.7074 44.8652 81.7185C44.661 81.7451 44.4702 81.7884 44.2927 81.8483C44.1174 81.906 43.9754 81.9936 43.8667 82.1112C43.7601 82.2266 43.7069 82.3841 43.7069 82.5839C43.7069 82.8568 43.8078 83.0632 44.0098 83.2029C44.2139 83.3405 44.4724 83.4093 44.7853 83.4093ZM49.228 80.9196V83.9951H48.4424V78.8826H49.2013V79.6814H49.2679C49.3877 79.4218 49.5697 79.2132 49.8138 79.0557C50.0578 78.8959 50.3729 78.816 50.759 78.816C51.1052 78.816 51.4081 78.8871 51.6677 79.0291C51.9273 79.1689 52.1293 79.3819 52.2735 79.6681C52.4177 79.9522 52.4898 80.3116 52.4898 80.7465V83.9951H51.7043V80.7998C51.7043 80.3982 51.6 80.0853 51.3914 79.8612C51.1829 79.6348 50.8966 79.5217 50.5327 79.5217C50.282 79.5217 50.0578 79.576 49.8604 79.6848C49.6651 79.7935 49.5109 79.9522 49.3977 80.1607C49.2845 80.3693 49.228 80.6223 49.228 80.9196ZM54.2481 85.9123C54.115 85.9123 53.9962 85.9012 53.8919 85.879C53.7877 85.859 53.7155 85.8391 53.6756 85.8191L53.8753 85.1268C54.0661 85.1756 54.2348 85.1934 54.3812 85.18C54.5277 85.1667 54.6575 85.1013 54.7707 84.9837C54.886 84.8683 54.9914 84.6808 55.0869 84.4212L55.2333 84.0217L53.3428 78.8826H54.1948L55.6061 82.9566H55.6594L57.0706 78.8826H57.9227L55.7525 84.7407C55.6549 85.0047 55.534 85.2233 55.3897 85.3964C55.2455 85.5717 55.078 85.7015 54.8872 85.7858C54.6985 85.8701 54.4855 85.9123 54.2481 85.9123ZM61.1829 78.8826V79.5483H58.5335V78.8826H61.1829ZM59.3057 77.6577H60.0912V82.5306C60.0912 82.7525 60.1234 82.9189 60.1877 83.0299C60.2543 83.1386 60.3386 83.2118 60.4407 83.2495C60.545 83.285 60.6548 83.3028 60.7702 83.3028C60.8567 83.3028 60.9277 83.2984 60.9832 83.2895C61.0387 83.2784 61.0831 83.2695 61.1163 83.2629L61.2761 83.9685C61.2229 83.9885 61.1485 84.0084 61.0531 84.0284C60.9577 84.0506 60.8368 84.0617 60.6903 84.0617C60.4684 84.0617 60.251 84.014 60.0379 83.9186C59.8271 83.8231 59.6518 83.6778 59.512 83.4825C59.3745 83.2873 59.3057 83.041 59.3057 82.7436V77.6577ZM63.2599 80.9196V83.9951H62.4744V77.1784H63.2599V79.6814H63.3264C63.4463 79.4174 63.626 79.2077 63.8656 79.0524C64.1075 78.8948 64.4293 78.816 64.8309 78.816C65.1793 78.816 65.4844 78.8859 65.7462 79.0257C66.0081 79.1633 66.2111 79.3752 66.3553 79.6615C66.5018 79.9455 66.575 80.3072 66.575 80.7465V83.9951H65.7895V80.7998C65.7895 80.3937 65.6841 80.0797 65.4733 79.8579C65.2647 79.6337 64.9751 79.5217 64.6046 79.5217C64.3472 79.5217 64.1164 79.576 63.9122 79.6848C63.7103 79.7935 63.5506 79.9522 63.4329 80.1607C63.3176 80.3693 63.2599 80.6223 63.2599 80.9196ZM68.0121 83.9951V78.8826H68.7976V83.9951H68.0121ZM68.4115 78.0305C68.2584 78.0305 68.1263 77.9784 68.0154 77.8741C67.9067 77.7698 67.8523 77.6444 67.8523 77.498C67.8523 77.3515 67.9067 77.2262 68.0154 77.1219C68.1263 77.0176 68.2584 76.9654 68.4115 76.9654C68.5646 76.9654 68.6955 77.0176 68.8042 77.1219C68.9152 77.2262 68.9707 77.3515 68.9707 77.498C68.9707 77.6444 68.9152 77.7698 68.8042 77.8741C68.6955 77.9784 68.5646 78.0305 68.4115 78.0305ZM71.0218 80.9196V83.9951H70.2363V78.8826H70.9952V79.6814H71.0618C71.1816 79.4218 71.3635 79.2132 71.6076 79.0557C71.8517 78.8959 72.1668 78.816 72.5529 78.816C72.8991 78.816 73.202 78.8871 73.4616 79.0291C73.7212 79.1689 73.9231 79.3819 74.0673 79.6681C74.2116 79.9522 74.2837 80.3116 74.2837 80.7465V83.9951H73.4982V80.7998C73.4982 80.3982 73.3939 80.0853 73.1853 79.8612C72.9767 79.6348 72.6905 79.5217 72.3266 79.5217C72.0758 79.5217 71.8517 79.576 71.6542 79.6848C71.459 79.7935 71.3047 79.9522 71.1916 80.1607C71.0784 80.3693 71.0218 80.6223 71.0218 80.9196ZM77.7827 86.0188C77.4033 86.0188 77.0771 85.97 76.8042 85.8724C76.5312 85.7769 76.3038 85.6505 76.1218 85.4929C75.9421 85.3376 75.799 85.1712 75.6925 84.9937L76.3182 84.5543C76.3892 84.6475 76.4791 84.754 76.5878 84.8738C76.6965 84.9959 76.8452 85.1013 77.0338 85.19C77.2247 85.281 77.4743 85.3265 77.7827 85.3265C78.1955 85.3265 78.5361 85.2266 78.8046 85.0269C79.0731 84.8272 79.2073 84.5144 79.2073 84.0883V83.0498H79.1407C79.083 83.143 79.0009 83.2584 78.8944 83.396C78.7901 83.5314 78.6393 83.6523 78.4418 83.7588C78.2465 83.8631 77.9824 83.9152 77.6496 83.9152C77.2369 83.9152 76.8663 83.8176 76.5379 83.6223C76.2117 83.4271 75.9532 83.143 75.7624 82.7702C75.5738 82.3975 75.4794 81.9448 75.4794 81.4122C75.4794 80.8886 75.5715 80.4326 75.7557 80.0442C75.9399 79.6537 76.1962 79.3519 76.5246 79.1389C76.853 78.9237 77.2324 78.816 77.6629 78.816C77.9958 78.816 78.2598 78.8715 78.4551 78.9825C78.6526 79.0912 78.8035 79.2155 78.9078 79.3553C79.0143 79.4928 79.0964 79.606 79.1541 79.6948H79.2339V78.8826H79.9928V84.1416C79.9928 84.5809 79.893 84.9382 79.6933 85.2133C79.4958 85.4907 79.2295 85.6937 78.8944 85.8224C78.5616 85.9534 78.191 86.0188 77.7827 86.0188ZM77.7561 83.2096C78.0712 83.2096 78.3375 83.1375 78.5549 82.9933C78.7724 82.849 78.9377 82.6415 79.0509 82.3708C79.164 82.1001 79.2206 81.7761 79.2206 81.3989C79.2206 81.0306 79.1652 80.7055 79.0542 80.4237C78.9433 80.1419 78.779 79.9211 78.5616 79.7613C78.3441 79.6016 78.0756 79.5217 77.7561 79.5217C77.4233 79.5217 77.1459 79.606 76.924 79.7746C76.7043 79.9433 76.539 80.1696 76.4281 80.4536C76.3193 80.7377 76.265 81.0528 76.265 81.3989C76.265 81.754 76.3204 82.0679 76.4314 82.3409C76.5446 82.6116 76.711 82.8246 76.9307 82.9799C77.1525 83.133 77.4277 83.2096 77.7561 83.2096ZM82.0032 84.0484C81.839 84.0484 81.6981 83.9896 81.5805 83.872C81.4629 83.7544 81.4041 83.6135 81.4041 83.4493C81.4041 83.285 81.4629 83.1441 81.5805 83.0265C81.6981 82.9089 81.839 82.8501 82.0032 82.8501C82.1674 82.8501 82.3083 82.9089 82.4259 83.0265C82.5435 83.1441 82.6023 83.285 82.6023 83.4493C82.6023 83.558 82.5746 83.6578 82.5191 83.7488C82.4659 83.8398 82.3937 83.913 82.3028 83.9685C82.214 84.0217 82.1142 84.0484 82.0032 84.0484ZM84.5844 84.0484C84.4202 84.0484 84.2793 83.9896 84.1617 83.872C84.0441 83.7544 83.9853 83.6135 83.9853 83.4493C83.9853 83.285 84.0441 83.1441 84.1617 83.0265C84.2793 82.9089 84.4202 82.8501 84.5844 82.8501C84.7486 82.8501 84.8895 82.9089 85.0071 83.0265C85.1247 83.1441 85.1835 83.285 85.1835 83.4493C85.1835 83.558 85.1558 83.6578 85.1003 83.7488C85.0471 83.8398 84.975 83.913 84.884 83.9685C84.7952 84.0217 84.6954 84.0484 84.5844 84.0484Z" fill="#686868"/>
<rect x="23.4766" y="124.618" width="17" height="17" rx="3.34747" stroke="#E7E7E7" stroke-width="0.401697"/>
<path d="M29.7294 137.368C29.2436 137.368 28.7688 137.224 28.3648 136.954C27.9609 136.684 27.6461 136.301 27.4603 135.852C27.2744 135.403 27.2258 134.909 27.3207 134.433C27.4156 133.956 27.6497 133.519 27.9933 133.176L31.617 129.551C31.6771 129.491 31.7586 129.458 31.8436 129.458C31.9286 129.458 32.0101 129.491 32.0702 129.551C32.1302 129.612 32.164 129.693 32.164 129.778C32.164 129.863 32.1302 129.944 32.0702 130.005L28.446 133.628C28.2706 133.795 28.1303 133.996 28.0335 134.218C27.9367 134.44 27.8853 134.679 27.8824 134.921C27.8794 135.163 27.925 135.404 28.0163 135.628C28.1077 135.852 28.2431 136.056 28.4144 136.227C28.5857 136.398 28.7896 136.533 29.014 136.625C29.2384 136.716 29.4787 136.761 29.7209 136.758C29.9631 136.755 30.2022 136.703 30.4241 136.606C30.6461 136.509 30.8463 136.369 31.0132 136.193L35.6939 131.513C35.9083 131.291 36.0272 130.994 36.0247 130.686C36.0222 130.377 35.8986 130.083 35.6806 129.864C35.4626 129.646 35.1676 129.523 34.8593 129.52C34.551 129.518 34.254 129.637 34.0326 129.851L30.2581 133.628C30.2085 133.678 30.1692 133.737 30.1424 133.801C30.1155 133.866 30.1017 133.936 30.1017 134.006C30.1017 134.076 30.1155 134.145 30.1424 134.21C30.1692 134.275 30.2085 134.334 30.2581 134.383C30.3077 134.433 30.3665 134.472 30.4313 134.499C30.4961 134.526 30.5655 134.54 30.6356 134.54C30.7057 134.54 30.7752 134.526 30.8399 134.499C30.9047 134.472 30.9636 134.433 31.0132 134.383L33.4282 131.968C33.4578 131.937 33.4931 131.913 33.5322 131.896C33.5713 131.879 33.6133 131.87 33.6558 131.87C33.6983 131.87 33.7405 131.878 33.7799 131.894C33.8193 131.91 33.855 131.934 33.8851 131.964C33.9152 131.994 33.939 132.029 33.9551 132.069C33.9713 132.108 33.9794 132.15 33.979 132.193C33.9787 132.235 33.9699 132.277 33.9531 132.317C33.9363 132.356 33.9119 132.391 33.8814 132.421L31.4659 134.836C31.3568 134.946 31.2273 135.032 31.0848 135.091C30.9423 135.15 30.7896 135.181 30.6354 135.181C30.4811 135.181 30.3284 135.15 30.1859 135.091C30.0433 135.032 29.9138 134.946 29.8048 134.837C29.6957 134.728 29.6091 134.598 29.5501 134.456C29.4911 134.313 29.4607 134.16 29.4606 134.006C29.4606 133.695 29.5843 133.396 29.8046 133.176L33.5799 129.403C33.9202 129.062 34.3819 128.871 34.8633 128.871C35.3447 128.871 35.8063 129.062 36.1468 129.403C36.4872 129.743 36.6785 130.205 36.6785 130.686C36.6785 131.167 36.4873 131.629 36.147 131.97L31.4663 136.649C31.2387 136.877 30.968 137.059 30.6699 137.182C30.3717 137.305 30.0521 137.369 29.7294 137.368Z" fill="#686868" stroke="#686868" stroke-width="0.0669494"/>
<rect x="45.832" y="124.618" width="17" height="17" rx="2.00848" stroke="#E7E7E7" stroke-width="0.401697"/>
<path d="M54.3302 137.249C56.6122 137.249 58.4622 135.399 58.4622 133.117C58.4622 130.835 56.6122 128.985 54.3302 128.985C52.0482 128.985 50.1982 130.835 50.1982 133.117C50.1982 135.399 52.0482 137.249 54.3302 137.249Z" stroke="#686868" stroke-width="0.535595" stroke-linecap="round" stroke-linejoin="round"/>
<path d="M52.6765 129.398H53.0897C52.2839 131.812 52.2839 134.423 53.0897 136.836H52.6765" stroke="#686868" stroke-width="0.535595" stroke-linecap="round" stroke-linejoin="round"/>
<path d="M55.5684 129.398C56.3741 131.812 56.3741 134.423 55.5684 136.836" stroke="#686868" stroke-width="0.535595" stroke-linecap="round" stroke-linejoin="round"/>
<path d="M50.6123 134.769V134.355C53.0254 135.161 55.6368 135.161 58.0498 134.355V134.769" stroke="#686868" stroke-width="0.535595" stroke-linecap="round" stroke-linejoin="round"/>
<path d="M50.6123 131.875C53.0254 131.069 55.6368 131.069 58.0498 131.875" stroke="#686868" stroke-width="0.535595" stroke-linecap="round" stroke-linejoin="round"/>
<path d="M214.764 131.955C214.699 131.753 214.613 131.572 214.504 131.412C214.397 131.25 214.27 131.113 214.121 131C213.972 130.884 213.803 130.797 213.612 130.737C213.423 130.677 213.216 130.647 212.989 130.647C212.606 130.647 212.259 130.746 211.951 130.943C211.643 131.141 211.398 131.43 211.219 131.812C211.041 132.191 210.952 132.656 210.952 133.207C210.952 133.759 211.042 134.226 211.222 134.608C211.402 134.989 211.648 135.279 211.961 135.477C212.274 135.674 212.63 135.773 213.029 135.773C213.4 135.773 213.723 135.697 213.998 135.546C214.275 135.396 214.489 135.182 214.64 134.907C214.793 134.63 214.87 134.304 214.87 133.929L215.136 133.979H213.186V133.13H215.865V133.905C215.865 134.478 215.743 134.975 215.499 135.397C215.257 135.816 214.922 136.14 214.494 136.369C214.068 136.597 213.58 136.711 213.029 136.711C212.413 136.711 211.871 136.569 211.405 136.285C210.941 136.001 210.58 135.599 210.32 135.077C210.06 134.553 209.931 133.932 209.931 133.213C209.931 132.67 210.006 132.181 210.157 131.749C210.308 131.316 210.52 130.949 210.793 130.647C211.068 130.343 211.391 130.111 211.761 129.951C212.134 129.789 212.541 129.708 212.983 129.708C213.351 129.708 213.694 129.763 214.011 129.871C214.331 129.98 214.615 130.134 214.863 130.334C215.114 130.534 215.322 130.771 215.486 131.046C215.65 131.319 215.761 131.622 215.819 131.955H214.764ZM217.091 138.535V131.506H218.063V132.334H218.146C218.204 132.228 218.287 132.105 218.396 131.965C218.504 131.825 218.655 131.703 218.848 131.599C219.041 131.492 219.297 131.439 219.614 131.439C220.027 131.439 220.395 131.543 220.719 131.752C221.043 131.961 221.297 132.261 221.481 132.654C221.668 133.047 221.761 133.519 221.761 134.072C221.761 134.624 221.669 135.098 221.484 135.493C221.3 135.886 221.047 136.189 220.726 136.402C220.404 136.613 220.037 136.718 219.624 136.718C219.313 136.718 219.059 136.666 218.862 136.562C218.666 136.457 218.513 136.335 218.402 136.195C218.291 136.056 218.206 135.931 218.146 135.823H218.086V138.535H217.091ZM218.066 134.062C218.066 134.421 218.118 134.736 218.223 135.007C218.327 135.278 218.478 135.49 218.675 135.643C218.873 135.794 219.115 135.869 219.401 135.869C219.698 135.869 219.947 135.79 220.146 135.633C220.346 135.473 220.497 135.257 220.599 134.984C220.703 134.711 220.756 134.404 220.756 134.062C220.756 133.725 220.705 133.422 220.602 133.153C220.503 132.885 220.352 132.673 220.15 132.518C219.95 132.362 219.7 132.285 219.401 132.285C219.112 132.285 218.868 132.359 218.669 132.508C218.471 132.656 218.321 132.864 218.219 133.13C218.117 133.396 218.066 133.707 218.066 134.062ZM225.262 131.506V132.304H222.47V131.506H225.262ZM223.219 130.281H224.214V135.117C224.214 135.31 224.243 135.455 224.3 135.553C224.358 135.648 224.432 135.714 224.523 135.749C224.617 135.783 224.718 135.799 224.826 135.799C224.906 135.799 224.976 135.794 225.036 135.783C225.096 135.772 225.142 135.763 225.176 135.756L225.355 136.578C225.298 136.6 225.216 136.623 225.109 136.645C225.003 136.669 224.87 136.683 224.71 136.685C224.448 136.689 224.204 136.643 223.977 136.545C223.751 136.447 223.568 136.296 223.428 136.092C223.288 135.888 223.219 135.632 223.219 135.323V130.281ZM231.08 136.711C230.663 136.711 230.288 136.631 229.955 136.472C229.625 136.31 229.361 136.088 229.163 135.806C228.966 135.524 228.86 135.202 228.847 134.841H229.846C229.87 135.134 230 135.374 230.235 135.563C230.47 135.752 230.752 135.846 231.08 135.846C231.342 135.846 231.574 135.786 231.776 135.666C231.98 135.544 232.14 135.377 232.255 135.164C232.373 134.951 232.432 134.708 232.432 134.435C232.432 134.157 232.372 133.91 232.252 133.692C232.132 133.475 231.967 133.304 231.756 133.18C231.547 133.056 231.308 132.992 231.037 132.99C230.831 132.99 230.623 133.026 230.415 133.097C230.206 133.168 230.037 133.261 229.909 133.376L228.967 133.236L229.35 129.801H233.097V130.684H230.205L229.989 132.591H230.029C230.162 132.462 230.338 132.354 230.558 132.268C230.78 132.181 231.017 132.138 231.27 132.138C231.685 132.138 232.055 132.237 232.378 132.434C232.705 132.632 232.961 132.901 233.147 133.243C233.336 133.583 233.429 133.973 233.427 134.415C233.429 134.856 233.329 135.25 233.127 135.596C232.928 135.942 232.65 136.215 232.295 136.415C231.942 136.613 231.538 136.711 231.08 136.711ZM235.065 136.681C234.883 136.681 234.726 136.617 234.595 136.488C234.464 136.357 234.399 136.2 234.399 136.016C234.399 135.834 234.464 135.678 234.595 135.55C234.726 135.419 234.883 135.353 235.065 135.353C235.247 135.353 235.403 135.419 235.534 135.55C235.665 135.678 235.73 135.834 235.73 136.016C235.73 136.138 235.699 136.25 235.637 136.352C235.577 136.452 235.497 136.532 235.397 136.592C235.298 136.651 235.187 136.681 235.065 136.681ZM237.05 136.618V135.873L239.357 133.483C239.603 133.223 239.806 132.996 239.966 132.8C240.128 132.603 240.249 132.415 240.328 132.238C240.408 132.06 240.448 131.872 240.448 131.672C240.448 131.446 240.395 131.25 240.289 131.086C240.182 130.92 240.037 130.792 239.853 130.704C239.668 130.613 239.461 130.567 239.23 130.567C238.986 130.567 238.773 130.617 238.591 130.717C238.409 130.817 238.269 130.958 238.172 131.14C238.074 131.321 238.025 131.535 238.025 131.779H237.043C237.043 131.364 237.139 131.001 237.33 130.69C237.52 130.38 237.782 130.139 238.115 129.968C238.448 129.795 238.826 129.708 239.25 129.708C239.678 129.708 240.056 129.794 240.382 129.965C240.71 130.133 240.966 130.364 241.151 130.657C241.335 130.948 241.427 131.276 241.427 131.642C241.427 131.895 241.379 132.143 241.284 132.384C241.191 132.626 241.027 132.896 240.794 133.193C240.561 133.488 240.238 133.847 239.823 134.268L238.468 135.686V135.736H241.537V136.618H237.05Z" fill="#686868"/>
<path d="M253.413 131.843L250.685 134.571C250.363 134.893 249.836 134.893 249.513 134.571L246.785 131.843" stroke="#686868" stroke-width="1.00424" stroke-miterlimit="10" stroke-linecap="round" stroke-linejoin="round"/>
<rect x="261.816" y="123.745" width="18.7458" height="18.7458" rx="4.01696" fill="url(#paint0_linear_873_2016)"/>
<path d="M271.189 137.531L271.189 129.089M267.329 132.336L270.734 128.899C270.985 128.646 271.392 128.646 271.643 128.899L275.048 132.336" stroke="white" stroke-width="1.33899" stroke-linecap="round"/>
<defs>
<linearGradient id="paint0_linear_873_2016" x1="273.148" y1="126.122" x2="273.148" y2="143.657" gradientUnits="userSpaceOnUse">
<stop stop-color="#0550E0"/>
<stop offset="1" stop-color="#0F45AA"/>
</linearGradient>
</defs>
</svg>
