<svg width="339" height="144" viewBox="0 0 339 144" fill="none" xmlns="http://www.w3.org/2000/svg">
<rect x="0.508301" y="0.507812" width="337" height="142.013" rx="6.09836" fill="#F7F7F7"/>
<rect x="0.508301" y="0.507812" width="337" height="142.013" rx="6.09836" stroke="#EEEEF0" stroke-width="1.01639"/>
<rect x="12.7051" y="19.7383" width="312.607" height="55.3256" rx="7" fill="#074ED6"/>
<path d="M44.3273 43.8682L41.4571 33.5194H43.0994L45.1156 41.5336H45.2116L47.3086 33.5194H48.9357L51.0328 41.5387H51.1288L53.1399 33.5194H54.7872L51.912 43.8682H50.3405L48.1626 36.1167H48.0817L45.9039 43.8682H44.3273ZM55.6033 43.8682V36.1066H57.0636V37.3396H57.1445C57.286 36.9218 57.5352 36.5934 57.8923 36.3542C58.2528 36.1117 58.6604 35.9904 59.1152 35.9904C59.2095 35.9904 59.3207 35.9938 59.4487 36.0005C59.5801 36.0072 59.6828 36.0157 59.7569 36.0258V37.4709C59.6963 37.4541 59.5885 37.4356 59.4335 37.4154C59.2786 37.3918 59.1236 37.38 58.9686 37.38C58.6115 37.38 58.2932 37.4558 58.0136 37.6074C57.7374 37.7556 57.5184 37.9628 57.3567 38.2289C57.195 38.4917 57.1141 38.7915 57.1141 39.1284V43.8682H55.6033ZM61.0644 43.8682V36.1066H62.5753V43.8682H61.0644ZM61.8274 34.909C61.5647 34.909 61.339 34.8214 61.1503 34.6463C60.965 34.4677 60.8724 34.2555 60.8724 34.0096C60.8724 33.7603 60.965 33.5481 61.1503 33.3729C61.339 33.1943 61.5647 33.1051 61.8274 33.1051C62.0902 33.1051 62.3142 33.1943 62.4995 33.3729C62.6881 33.5481 62.7825 33.7603 62.7825 34.0096C62.7825 34.2555 62.6881 34.4677 62.4995 34.6463C62.3142 34.8214 62.0902 34.909 61.8274 34.909ZM68.231 36.1066V37.3194H63.9914V36.1066H68.231ZM65.1284 34.2471H66.6392V41.5892C66.6392 41.8823 66.683 42.103 66.7706 42.2512C66.8582 42.396 66.971 42.4954 67.1092 42.5493C67.2507 42.5998 67.4039 42.6251 67.569 42.6251C67.6903 42.6251 67.7964 42.6167 67.8873 42.5998C67.9783 42.583 68.049 42.5695 68.0996 42.5594L68.3724 43.8075C68.2849 43.8412 68.1602 43.8749 67.9985 43.9086C67.8368 43.9456 67.6347 43.9659 67.3921 43.9692C66.9946 43.976 66.6241 43.9052 66.2805 43.757C65.9368 43.6088 65.6589 43.3797 65.4467 43.0698C65.2345 42.7599 65.1284 42.3708 65.1284 41.9025V34.2471ZM73.164 44.0248C72.3993 44.0248 71.7407 43.8614 71.1883 43.5347C70.6392 43.2045 70.2147 42.7413 69.9149 42.1451C69.6184 41.5454 69.4702 40.843 69.4702 40.0379C69.4702 39.2429 69.6184 38.5422 69.9149 37.9358C70.2147 37.3295 70.6324 36.8562 71.1681 36.5159C71.7071 36.1757 72.337 36.0056 73.0579 36.0056C73.4959 36.0056 73.9203 36.078 74.3313 36.2228C74.7423 36.3677 75.1112 36.5951 75.4379 36.905C75.7647 37.2149 76.0224 37.6175 76.211 38.1127C76.3997 38.6045 76.494 39.2025 76.494 39.9065V40.4422H70.3242V39.3103H75.0135C75.0135 38.9128 74.9326 38.5607 74.7709 38.2542C74.6092 37.9443 74.3818 37.7 74.0887 37.5215C73.799 37.3429 73.4588 37.2537 73.068 37.2537C72.6436 37.2537 72.273 37.3581 71.9563 37.567C71.6431 37.7725 71.4005 38.0419 71.2287 38.3755C71.0603 38.7056 70.976 39.0644 70.976 39.4518V40.3361C70.976 40.8548 71.067 41.2961 71.2489 41.66C71.4342 42.0238 71.6919 42.3017 72.022 42.4937C72.3522 42.6824 72.7379 42.7767 73.1792 42.7767C73.4655 42.7767 73.7266 42.7363 73.9624 42.6554C74.1982 42.5712 74.402 42.4466 74.5738 42.2815C74.7457 42.1164 74.877 41.9126 74.968 41.6701L76.398 41.9278C76.2835 42.3489 76.078 42.7177 75.7815 43.0344C75.4885 43.3477 75.1196 43.5919 74.6749 43.7671C74.2336 43.9389 73.73 44.0248 73.164 44.0248Z" fill="white"/>
<path d="M42.1504 53.7881H43.3277L46.0959 60.5495H46.1913L48.9595 53.7881H50.1368V61.9336H49.2141V55.745H49.1345L46.5891 61.9336H45.6982L43.1527 55.745H43.0732V61.9336H42.1504V53.7881ZM53.7849 62.0768C53.3978 62.0768 53.0465 62.0039 52.731 61.858C52.4154 61.7095 52.1649 61.4961 51.9793 61.2177C51.7937 60.9366 51.7009 60.5972 51.7009 60.1995C51.7009 59.8495 51.7698 59.5658 51.9077 59.3484C52.0455 59.1283 52.2298 58.9559 52.4605 58.8313C52.6912 58.7067 52.9457 58.6139 53.2241 58.5529C53.5052 58.4893 53.7876 58.4389 54.0713 58.4018C54.4425 58.354 54.7435 58.3183 54.9741 58.2944C55.2075 58.2679 55.3772 58.2241 55.4832 58.1631C55.592 58.1022 55.6463 57.9961 55.6463 57.845V57.8131C55.6463 57.4207 55.5389 57.1158 55.3241 56.8984C55.112 56.6809 54.7899 56.5722 54.3577 56.5722C53.9096 56.5722 53.5582 56.6703 53.3037 56.8665C53.0491 57.0628 52.8702 57.2722 52.7668 57.495L51.8759 57.1768C52.0349 56.8056 52.2471 56.5165 52.5122 56.3097C52.78 56.1003 53.0717 55.9544 53.3872 55.8722C53.7054 55.7874 54.0183 55.745 54.3259 55.745C54.5221 55.745 54.7474 55.7688 55.002 55.8165C55.2592 55.8616 55.5071 55.9558 55.7457 56.0989C55.987 56.2421 56.1872 56.4582 56.3463 56.7472C56.5054 57.0362 56.5849 57.4234 56.5849 57.9086V61.9336H55.6463V61.1063H55.5986C55.5349 61.2389 55.4289 61.3808 55.2804 61.5319C55.1319 61.683 54.9344 61.8116 54.6878 61.9177C54.4412 62.0237 54.1402 62.0768 53.7849 62.0768ZM53.9281 61.2336C54.2993 61.2336 54.6122 61.1607 54.8668 61.0148C55.124 60.869 55.3175 60.6808 55.4474 60.4501C55.58 60.2194 55.6463 59.9768 55.6463 59.7222V58.8631C55.6065 58.9109 55.519 58.9546 55.3838 58.9944C55.2512 59.0315 55.0974 59.0647 54.9224 59.0938C54.7501 59.1203 54.5817 59.1442 54.4173 59.1654C54.2556 59.184 54.1243 59.1999 54.0236 59.2131C53.7796 59.245 53.5516 59.2967 53.3395 59.3683C53.13 59.4372 52.9603 59.5419 52.8304 59.6825C52.7031 59.8203 52.6395 60.0086 52.6395 60.2472C52.6395 60.5734 52.7601 60.82 53.0014 60.987C53.2454 61.1514 53.5543 61.2336 53.9281 61.2336ZM59.1732 59.7063L59.1572 58.545H59.3482L62.0209 55.8245H63.1822L60.3345 58.704H60.255L59.1732 59.7063ZM58.2982 61.9336V53.7881H59.2368V61.9336H58.2982ZM62.18 61.9336L59.7936 58.9109L60.4618 58.2586L63.3732 61.9336H62.18ZM66.7001 62.0609C66.1115 62.0609 65.6037 61.9309 65.1768 61.6711C64.7526 61.4086 64.4251 61.0427 64.1945 60.5734C63.9664 60.1014 63.8524 59.5525 63.8524 58.9268C63.8524 58.301 63.9664 57.7495 64.1945 57.2722C64.4251 56.7923 64.746 56.4184 65.157 56.1506C65.5706 55.8802 66.0532 55.745 66.6047 55.745C66.9229 55.745 67.2371 55.798 67.5473 55.904C67.8575 56.0101 68.1399 56.1825 68.3945 56.4211C68.649 56.6571 68.8518 56.97 69.003 57.3597C69.1541 57.7495 69.2297 58.2294 69.2297 58.7995V59.1972H64.5206V58.3859H68.2751C68.2751 58.0412 68.2062 57.7336 68.0683 57.4631C67.9331 57.1927 67.7395 56.9792 67.4876 56.8228C67.2384 56.6664 66.9441 56.5881 66.6047 56.5881C66.2308 56.5881 65.9073 56.6809 65.6342 56.8665C65.3638 57.0495 65.1556 57.2881 65.0098 57.5825C64.864 57.8768 64.7911 58.1923 64.7911 58.529V59.07C64.7911 59.5313 64.8706 59.9224 65.0297 60.2433C65.1914 60.5614 65.4155 60.804 65.7018 60.9711C65.9882 61.1355 66.321 61.2177 66.7001 61.2177C66.9467 61.2177 67.1695 61.1832 67.3683 61.1143C67.5698 61.0427 67.7435 60.9366 67.8893 60.7961C68.0352 60.6529 68.1479 60.4753 68.2274 60.2631L69.1342 60.5177C69.0388 60.8253 68.8784 61.0957 68.653 61.329C68.4276 61.5597 68.1492 61.74 67.8178 61.87C67.4863 61.9972 67.1138 62.0609 66.7001 62.0609ZM73.8075 64.2245V55.8245H74.7143V56.795H74.8257C74.8946 56.6889 74.9901 56.5537 75.1121 56.3893C75.2367 56.2222 75.4143 56.0737 75.645 55.9438C75.8784 55.8112 76.1939 55.745 76.5916 55.745C77.106 55.745 77.5594 55.8736 77.9518 56.1308C78.3443 56.3879 78.6505 56.7525 78.8706 57.2245C79.0907 57.6965 79.2007 58.2533 79.2007 58.895C79.2007 59.5419 79.0907 60.1027 78.8706 60.5773C78.6505 61.0493 78.3456 61.4152 77.9558 61.6751C77.5661 61.9323 77.1166 62.0609 76.6075 62.0609C76.2151 62.0609 75.9009 61.9959 75.6649 61.866C75.4289 61.7334 75.2473 61.5836 75.12 61.4165C74.9928 61.2469 74.8946 61.1063 74.8257 60.995H74.7462V64.2245H73.8075ZM74.7303 58.879C74.7303 59.3404 74.7979 59.7474 74.9331 60.1001C75.0683 60.4501 75.2659 60.7245 75.5257 60.9234C75.7856 61.1196 76.1037 61.2177 76.4803 61.2177C76.8727 61.2177 77.2001 61.1143 77.4626 60.9075C77.7278 60.698 77.9267 60.4169 78.0592 60.0643C78.1945 59.709 78.2621 59.3139 78.2621 58.879C78.2621 58.4495 78.1958 58.0624 78.0632 57.7177C77.9333 57.3703 77.7357 57.0959 77.4706 56.8944C77.2081 56.6902 76.878 56.5881 76.4803 56.5881C76.0984 56.5881 75.7776 56.6849 75.5178 56.8785C75.2579 57.0694 75.0617 57.3372 74.9291 57.6819C74.7965 58.0239 74.7303 58.423 74.7303 58.879ZM80.6325 61.9336V55.8245H81.5393V56.7472H81.603C81.7143 56.445 81.9159 56.1997 82.2075 56.0114C82.4992 55.8232 82.828 55.729 83.1939 55.729C83.2628 55.729 83.349 55.7304 83.4524 55.733C83.5558 55.7357 83.634 55.7397 83.6871 55.745V56.6995C83.6553 56.6915 83.5823 56.6796 83.4683 56.6637C83.357 56.6451 83.239 56.6359 83.1143 56.6359C82.8174 56.6359 82.5522 56.6982 82.3189 56.8228C82.0882 56.9448 81.9053 57.1145 81.77 57.3319C81.6375 57.5467 81.5712 57.7919 81.5712 58.0677V61.9336H80.6325ZM87.1751 62.0609C86.5865 62.0609 86.0787 61.9309 85.6518 61.6711C85.2276 61.4086 84.9001 61.0427 84.6695 60.5734C84.4414 60.1014 84.3274 59.5525 84.3274 58.9268C84.3274 58.301 84.4414 57.7495 84.6695 57.2722C84.9001 56.7923 85.221 56.4184 85.632 56.1506C86.0456 55.8802 86.5282 55.745 87.0797 55.745C87.3979 55.745 87.7121 55.798 88.0223 55.904C88.3325 56.0101 88.6149 56.1825 88.8695 56.4211C89.124 56.6571 89.3268 56.97 89.478 57.3597C89.6291 57.7495 89.7047 58.2294 89.7047 58.7995V59.1972H84.9956V58.3859H88.7501C88.7501 58.0412 88.6812 57.7336 88.5433 57.4631C88.4081 57.1927 88.2145 56.9792 87.9626 56.8228C87.7134 56.6664 87.4191 56.5881 87.0797 56.5881C86.7058 56.5881 86.3823 56.6809 86.1092 56.8665C85.8388 57.0495 85.6306 57.2881 85.4848 57.5825C85.339 57.8768 85.2661 58.1923 85.2661 58.529V59.07C85.2661 59.5313 85.3456 59.9224 85.5047 60.2433C85.6664 60.5614 85.8905 60.804 86.1768 60.9711C86.4632 61.1355 86.796 61.2177 87.1751 61.2177C87.4217 61.2177 87.6445 61.1832 87.8433 61.1143C88.0448 61.0427 88.2185 60.9366 88.3643 60.7961C88.5102 60.6529 88.6229 60.4753 88.7024 60.2631L89.6092 60.5177C89.5138 60.8253 89.3534 61.0957 89.128 61.329C88.9026 61.5597 88.6242 61.74 88.2928 61.87C87.9613 61.9972 87.5888 62.0609 87.1751 62.0609ZM93.6143 62.0609C93.0416 62.0609 92.5484 61.9256 92.1348 61.6552C91.7212 61.3847 91.403 61.0122 91.1803 60.5376C90.9575 60.0629 90.8462 59.5207 90.8462 58.9109C90.8462 58.2904 90.9602 57.7429 91.1882 57.2683C91.4189 56.791 91.7397 56.4184 92.1507 56.1506C92.5643 55.8802 93.0469 55.745 93.5984 55.745C94.028 55.745 94.4151 55.8245 94.7598 55.9836C95.1045 56.1427 95.3869 56.3654 95.607 56.6518C95.827 56.9381 95.9636 57.2722 96.0166 57.654H95.078C95.0064 57.3756 94.8473 57.129 94.6007 56.9143C94.3568 56.6969 94.028 56.5881 93.6143 56.5881C93.2484 56.5881 92.9276 56.6836 92.6518 56.8745C92.3787 57.0628 92.1653 57.3292 92.0115 57.6739C91.8604 58.016 91.7848 58.4177 91.7848 58.879C91.7848 59.351 91.859 59.762 92.0075 60.112C92.1587 60.462 92.3708 60.7338 92.6439 60.9273C92.9196 61.1209 93.2431 61.2177 93.6143 61.2177C93.8583 61.2177 94.0797 61.1753 94.2786 61.0904C94.4774 61.0056 94.6458 60.8836 94.7837 60.7245C94.9215 60.5654 95.0196 60.3745 95.078 60.1518H96.0166C95.9636 60.5124 95.8323 60.8372 95.6229 61.1262C95.4161 61.4126 95.1416 61.6406 94.7996 61.8103C94.4602 61.9773 94.0651 62.0609 93.6143 62.0609ZM97.3888 61.9336V55.8245H98.3274V61.9336H97.3888ZM97.866 54.8063C97.6831 54.8063 97.5253 54.744 97.3928 54.6194C97.2628 54.4948 97.1979 54.345 97.1979 54.17C97.1979 53.995 97.2628 53.8451 97.3928 53.7205C97.5253 53.5959 97.6831 53.5336 97.866 53.5336C98.049 53.5336 98.2054 53.5959 98.3354 53.7205C98.4679 53.8451 98.5342 53.995 98.5342 54.17C98.5342 54.345 98.4679 54.4948 98.3354 54.6194C98.2054 54.744 98.049 54.8063 97.866 54.8063ZM104.374 57.1927L103.531 57.4313C103.478 57.2908 103.399 57.1542 103.296 57.0217C103.195 56.8864 103.057 56.7751 102.882 56.6876C102.707 56.6001 102.483 56.5563 102.21 56.5563C101.836 56.5563 101.525 56.6425 101.276 56.8148C101.029 56.9845 100.906 57.2006 100.906 57.4631C100.906 57.6965 100.991 57.8808 101.16 58.016C101.33 58.1512 101.595 58.2639 101.956 58.354L102.862 58.5768C103.409 58.7094 103.816 58.9122 104.084 59.1853C104.351 59.4558 104.485 59.8044 104.485 60.2313C104.485 60.5813 104.384 60.8942 104.183 61.17C103.984 61.4457 103.706 61.6631 103.348 61.8222C102.99 61.9813 102.573 62.0609 102.099 62.0609C101.476 62.0609 100.96 61.9256 100.552 61.6552C100.143 61.3847 99.8848 60.9897 99.7761 60.47L100.667 60.2472C100.752 60.576 100.912 60.8226 101.148 60.987C101.387 61.1514 101.698 61.2336 102.083 61.2336C102.52 61.2336 102.868 61.1408 103.125 60.9552C103.385 60.7669 103.515 60.5415 103.515 60.279C103.515 60.0669 103.441 59.8893 103.292 59.7461C103.144 59.6003 102.916 59.4915 102.608 59.42L101.59 59.1813C101.03 59.0487 100.619 58.8433 100.357 58.5648C100.097 58.2838 99.967 57.9325 99.967 57.5109C99.967 57.1662 100.064 56.8612 100.257 56.5961C100.454 56.3309 100.72 56.1228 101.057 55.9717C101.396 55.8205 101.781 55.745 102.21 55.745C102.815 55.745 103.289 55.8775 103.634 56.1427C103.981 56.4078 104.228 56.7578 104.374 57.1927ZM108.46 62.0609C107.871 62.0609 107.363 61.9309 106.936 61.6711C106.512 61.4086 106.185 61.0427 105.954 60.5734C105.726 60.1014 105.612 59.5525 105.612 58.9268C105.612 58.301 105.726 57.7495 105.954 57.2722C106.185 56.7923 106.505 56.4184 106.916 56.1506C107.33 55.8802 107.813 55.745 108.364 55.745C108.682 55.745 108.996 55.798 109.307 55.904C109.617 56.0101 109.899 56.1825 110.154 56.4211C110.408 56.6571 110.611 56.97 110.762 57.3597C110.913 57.7495 110.989 58.2294 110.989 58.7995V59.1972H106.28V58.3859H110.035C110.035 58.0412 109.966 57.7336 109.828 57.4631C109.692 57.1927 109.499 56.9792 109.247 56.8228C108.998 56.6664 108.703 56.5881 108.364 56.5881C107.99 56.5881 107.667 56.6809 107.394 56.8665C107.123 57.0495 106.915 57.2881 106.769 57.5825C106.623 57.8768 106.55 58.1923 106.55 58.529V59.07C106.55 59.5313 106.63 59.9224 106.789 60.2433C106.951 60.5614 107.175 60.804 107.461 60.9711C107.748 61.1355 108.08 61.2177 108.46 61.2177C108.706 61.2177 108.929 61.1832 109.128 61.1143C109.329 61.0427 109.503 60.9366 109.649 60.7961C109.795 60.6529 109.907 60.4753 109.987 60.2631L110.894 60.5177C110.798 60.8253 110.638 61.0957 110.412 61.329C110.187 61.5597 109.909 61.74 109.577 61.87C109.246 61.9972 108.873 62.0609 108.46 62.0609ZM118.128 62.0609C117.54 62.0609 117.032 61.9309 116.605 61.6711C116.181 61.4086 115.853 61.0427 115.623 60.5734C115.395 60.1014 115.281 59.5525 115.281 58.9268C115.281 58.301 115.395 57.7495 115.623 57.2722C115.853 56.7923 116.174 56.4184 116.585 56.1506C116.999 55.8802 117.481 55.745 118.033 55.745C118.351 55.745 118.665 55.798 118.975 55.904C119.286 56.0101 119.568 56.1825 119.823 56.4211C120.077 56.6571 120.28 56.97 120.431 57.3597C120.582 57.7495 120.658 58.2294 120.658 58.7995V59.1972H115.949V58.3859H119.703C119.703 58.0412 119.634 57.7336 119.496 57.4631C119.361 57.1927 119.168 56.9792 118.916 56.8228C118.667 56.6664 118.372 56.5881 118.033 56.5881C117.659 56.5881 117.335 56.6809 117.062 56.8665C116.792 57.0495 116.584 57.2881 116.438 57.5825C116.292 57.8768 116.219 58.1923 116.219 58.529V59.07C116.219 59.5313 116.299 59.9224 116.458 60.2433C116.62 60.5614 116.844 60.804 117.13 60.9711C117.416 61.1355 117.749 61.2177 118.128 61.2177C118.375 61.2177 118.598 61.1832 118.796 61.1143C118.998 61.0427 119.172 60.9366 119.317 60.7961C119.463 60.6529 119.576 60.4753 119.656 60.2631L120.562 60.5177C120.467 60.8253 120.306 61.0957 120.081 61.329C119.856 61.5597 119.577 61.74 119.246 61.87C118.914 61.9972 118.542 62.0609 118.128 62.0609ZM124.392 62.0609C123.883 62.0609 123.434 61.9323 123.044 61.6751C122.654 61.4152 122.349 61.0493 122.129 60.5773C121.909 60.1027 121.799 59.5419 121.799 58.895C121.799 58.2533 121.909 57.6965 122.129 57.2245C122.349 56.7525 122.656 56.3879 123.048 56.1308C123.441 55.8736 123.894 55.745 124.408 55.745C124.806 55.745 125.12 55.8112 125.351 55.9438C125.584 56.0737 125.762 56.2222 125.884 56.3893C126.009 56.5537 126.105 56.6889 126.174 56.795H126.254V53.7881H127.192V61.9336H126.286V60.995H126.174C126.105 61.1063 126.007 61.2469 125.88 61.4165C125.753 61.5836 125.571 61.7334 125.335 61.866C125.099 61.9959 124.785 62.0609 124.392 62.0609ZM124.52 61.2177C124.896 61.2177 125.214 61.1196 125.474 60.9234C125.734 60.7245 125.932 60.4501 126.067 60.1001C126.202 59.7474 126.27 59.3404 126.27 58.879C126.27 58.423 126.203 58.0239 126.071 57.6819C125.938 57.3372 125.742 57.0694 125.482 56.8785C125.222 56.6849 124.902 56.5881 124.52 56.5881C124.122 56.5881 123.791 56.6902 123.525 56.8944C123.263 57.0959 123.065 57.3703 122.933 57.7177C122.803 58.0624 122.738 58.4495 122.738 58.879C122.738 59.3139 122.804 59.709 122.937 60.0643C123.072 60.4169 123.271 60.698 123.533 60.9075C123.799 61.1143 124.127 61.2177 124.52 61.2177ZM129.042 61.9336V55.8245H129.981V61.9336H129.042ZM129.519 54.8063C129.336 54.8063 129.178 54.744 129.046 54.6194C128.916 54.4948 128.851 54.345 128.851 54.17C128.851 53.995 128.916 53.8451 129.046 53.7205C129.178 53.5959 129.336 53.5336 129.519 53.5336C129.702 53.5336 129.859 53.5959 129.988 53.7205C130.121 53.8451 130.187 53.995 130.187 54.17C130.187 54.345 130.121 54.4948 129.988 54.6194C129.859 54.744 129.702 54.8063 129.519 54.8063ZM134.357 55.8245V56.62H131.191V55.8245H134.357ZM132.113 54.3609H133.052V60.1836C133.052 60.4487 133.09 60.6476 133.167 60.7802C133.247 60.9101 133.348 60.9976 133.47 61.0427C133.594 61.0851 133.725 61.1063 133.863 61.1063C133.967 61.1063 134.052 61.101 134.118 61.0904C134.184 61.0772 134.237 61.0665 134.277 61.0586L134.468 61.9018C134.404 61.9256 134.315 61.9495 134.201 61.9734C134.087 61.9999 133.943 62.0131 133.768 62.0131C133.503 62.0131 133.243 61.9561 132.988 61.8421C132.736 61.7281 132.527 61.5544 132.36 61.3211C132.196 61.0878 132.113 60.7934 132.113 60.4381V54.3609ZM139.986 57.1927L139.143 57.4313C139.09 57.2908 139.012 57.1542 138.909 57.0217C138.808 56.8864 138.67 56.7751 138.495 56.6876C138.32 56.6001 138.096 56.5563 137.823 56.5563C137.449 56.5563 137.137 56.6425 136.888 56.8148C136.641 56.9845 136.518 57.2006 136.518 57.4631C136.518 57.6965 136.603 57.8808 136.773 58.016C136.942 58.1512 137.208 58.2639 137.568 58.354L138.475 58.5768C139.021 58.7094 139.428 58.9122 139.696 59.1853C139.964 59.4558 140.098 59.8044 140.098 60.2313C140.098 60.5813 139.997 60.8942 139.795 61.17C139.597 61.4457 139.318 61.6631 138.96 61.8222C138.602 61.9813 138.186 62.0609 137.711 62.0609C137.088 62.0609 136.573 61.9256 136.164 61.6552C135.756 61.3847 135.497 60.9897 135.389 60.47L136.28 60.2472C136.364 60.576 136.525 60.8226 136.761 60.987C136.999 61.1514 137.311 61.2336 137.695 61.2336C138.133 61.2336 138.48 61.1408 138.737 60.9552C138.997 60.7669 139.127 60.5415 139.127 60.279C139.127 60.0669 139.053 59.8893 138.905 59.7461C138.756 59.6003 138.528 59.4915 138.22 59.42L137.202 59.1813C136.643 59.0487 136.232 58.8433 135.969 58.5648C135.709 58.2838 135.58 57.9325 135.58 57.5109C135.58 57.1662 135.676 56.8612 135.87 56.5961C136.066 56.3309 136.333 56.1228 136.669 55.9717C137.009 55.8205 137.393 55.745 137.823 55.745C138.427 55.745 138.902 55.8775 139.247 56.1427C139.594 56.4078 139.841 56.7578 139.986 57.1927ZM146.458 62.0768C146.071 62.0768 145.72 62.0039 145.404 61.858C145.089 61.7095 144.838 61.4961 144.653 61.2177C144.467 60.9366 144.374 60.5972 144.374 60.1995C144.374 59.8495 144.443 59.5658 144.581 59.3484C144.719 59.1283 144.903 58.9559 145.134 58.8313C145.365 58.7067 145.619 58.6139 145.898 58.5529C146.179 58.4893 146.461 58.4389 146.745 58.4018C147.116 58.354 147.417 58.3183 147.648 58.2944C147.881 58.2679 148.051 58.2241 148.157 58.1631C148.265 58.1022 148.32 57.9961 148.32 57.845V57.8131C148.32 57.4207 148.212 57.1158 147.998 56.8984C147.785 56.6809 147.463 56.5722 147.031 56.5722C146.583 56.5722 146.232 56.6703 145.977 56.8665C145.723 57.0628 145.544 57.2722 145.44 57.495L144.549 57.1768C144.708 56.8056 144.92 56.5165 145.186 56.3097C145.453 56.1003 145.745 55.9544 146.061 55.8722C146.379 55.7874 146.692 55.745 146.999 55.745C147.195 55.745 147.421 55.7688 147.675 55.8165C147.933 55.8616 148.181 55.9558 148.419 56.0989C148.66 56.2421 148.861 56.4582 149.02 56.7472C149.179 57.0362 149.258 57.4234 149.258 57.9086V61.9336H148.32V61.1063H148.272C148.208 61.2389 148.102 61.3808 147.954 61.5319C147.805 61.683 147.608 61.8116 147.361 61.9177C147.115 62.0237 146.814 62.0768 146.458 62.0768ZM146.602 61.2336C146.973 61.2336 147.286 61.1607 147.54 61.0148C147.797 60.869 147.991 60.6808 148.121 60.4501C148.253 60.2194 148.32 59.9768 148.32 59.7222V58.8631C148.28 58.9109 148.192 58.9546 148.057 58.9944C147.925 59.0315 147.771 59.0647 147.596 59.0938C147.424 59.1203 147.255 59.1442 147.091 59.1654C146.929 59.184 146.798 59.1999 146.697 59.2131C146.453 59.245 146.225 59.2967 146.013 59.3683C145.803 59.4372 145.634 59.5419 145.504 59.6825C145.377 59.8203 145.313 60.0086 145.313 60.2472C145.313 60.5734 145.434 60.82 145.675 60.987C145.919 61.1514 146.228 61.2336 146.602 61.2336ZM151.91 58.2586V61.9336H150.972V55.8245H151.878V56.779H151.958C152.101 56.4688 152.319 56.2196 152.61 56.0313C152.902 55.8404 153.278 55.745 153.74 55.745C154.153 55.745 154.515 55.8298 154.826 55.9995C155.136 56.1665 155.377 56.4211 155.549 56.7631C155.722 57.1025 155.808 57.5321 155.808 58.0518V61.9336H154.869V58.1154C154.869 57.6355 154.745 57.2616 154.495 56.9938C154.246 56.7234 153.904 56.5881 153.469 56.5881C153.17 56.5881 152.902 56.6531 152.666 56.783C152.433 56.9129 152.248 57.1025 152.113 57.3518C151.978 57.601 151.91 57.9033 151.91 58.2586ZM159.83 62.0609C159.321 62.0609 158.871 61.9323 158.482 61.6751C158.092 61.4152 157.787 61.0493 157.567 60.5773C157.347 60.1027 157.237 59.5419 157.237 58.895C157.237 58.2533 157.347 57.6965 157.567 57.2245C157.787 56.7525 158.093 56.3879 158.486 56.1308C158.878 55.8736 159.331 55.745 159.846 55.745C160.244 55.745 160.558 55.8112 160.788 55.9438C161.022 56.0737 161.199 56.2222 161.321 56.3893C161.446 56.5537 161.543 56.6889 161.612 56.795H161.691V53.7881H162.63V61.9336H161.723V60.995H161.612C161.543 61.1063 161.445 61.2469 161.317 61.4165C161.19 61.5836 161.009 61.7334 160.773 61.866C160.537 61.9959 160.222 62.0609 159.83 62.0609ZM159.957 61.2177C160.334 61.2177 160.652 61.1196 160.912 60.9234C161.172 60.7245 161.369 60.4501 161.504 60.1001C161.64 59.7474 161.707 59.3404 161.707 58.879C161.707 58.423 161.641 58.0239 161.508 57.6819C161.376 57.3372 161.18 57.0694 160.92 56.8785C160.66 56.6849 160.339 56.5881 159.957 56.5881C159.56 56.5881 159.228 56.6902 158.963 56.8944C158.7 57.0959 158.503 57.3703 158.37 57.7177C158.24 58.0624 158.175 58.4495 158.175 58.879C158.175 59.3139 158.242 59.709 158.374 60.0643C158.51 60.4169 158.708 60.698 158.971 60.9075C159.236 61.1143 159.565 61.2177 159.957 61.2177ZM167.629 61.9336V55.8245H168.568V61.9336H167.629ZM168.107 54.8063C167.924 54.8063 167.766 54.744 167.633 54.6194C167.503 54.4948 167.438 54.345 167.438 54.17C167.438 53.995 167.503 53.8451 167.633 53.7205C167.766 53.5959 167.924 53.5336 168.107 53.5336C168.29 53.5336 168.446 53.5959 168.576 53.7205C168.709 53.8451 168.775 53.995 168.775 54.17C168.775 54.345 168.709 54.4948 168.576 54.6194C168.446 54.744 168.29 54.8063 168.107 54.8063ZM170.287 61.9336V55.8245H171.194V56.779H171.274C171.401 56.4529 171.606 56.1997 171.89 56.0194C172.174 55.8364 172.514 55.745 172.912 55.745C173.315 55.745 173.651 55.8364 173.918 56.0194C174.189 56.1997 174.4 56.4529 174.551 56.779H174.614C174.771 56.4635 175.006 56.2129 175.318 56.0273C175.631 55.8391 176.007 55.745 176.444 55.745C176.99 55.745 177.437 55.916 177.784 56.258C178.132 56.5974 178.305 57.1264 178.305 57.845V61.9336H177.367V57.845C177.367 57.3942 177.243 57.072 176.997 56.8785C176.75 56.6849 176.46 56.5881 176.126 56.5881C175.696 56.5881 175.364 56.7181 175.128 56.9779C174.892 57.2351 174.774 57.5612 174.774 57.9563V61.9336H173.819V57.7495C173.819 57.4022 173.706 57.1224 173.481 56.9103C173.256 56.6955 172.965 56.5881 172.61 56.5881C172.366 56.5881 172.138 56.6531 171.926 56.783C171.716 56.9129 171.547 57.0933 171.417 57.3239C171.289 57.552 171.226 57.8158 171.226 58.1154V61.9336H170.287ZM180.022 64.2245V55.8245H180.928V56.795H181.04C181.109 56.6889 181.204 56.5537 181.326 56.3893C181.451 56.2222 181.628 56.0737 181.859 55.9438C182.092 55.8112 182.408 55.745 182.806 55.745C183.32 55.745 183.773 55.8736 184.166 56.1308C184.558 56.3879 184.865 56.7525 185.085 57.2245C185.305 57.6965 185.415 58.2533 185.415 58.895C185.415 59.5419 185.305 60.1027 185.085 60.5773C184.865 61.0493 184.56 61.4152 184.17 61.6751C183.78 61.9323 183.331 62.0609 182.822 62.0609C182.429 62.0609 182.115 61.9959 181.879 61.866C181.643 61.7334 181.461 61.5836 181.334 61.4165C181.207 61.2469 181.109 61.1063 181.04 60.995H180.96V64.2245H180.022ZM180.944 58.879C180.944 59.3404 181.012 59.7474 181.147 60.1001C181.282 60.4501 181.48 60.7245 181.74 60.9234C182 61.1196 182.318 61.2177 182.694 61.2177C183.087 61.2177 183.414 61.1143 183.677 60.9075C183.942 60.698 184.141 60.4169 184.273 60.0643C184.409 59.709 184.476 59.3139 184.476 58.879C184.476 58.4495 184.41 58.0624 184.277 57.7177C184.147 57.3703 183.95 57.0959 183.685 56.8944C183.422 56.6902 183.092 56.5881 182.694 56.5881C182.312 56.5881 181.992 56.6849 181.732 56.8785C181.472 57.0694 181.276 57.3372 181.143 57.6819C181.011 58.0239 180.944 58.423 180.944 58.879ZM186.847 61.9336V55.8245H187.753V56.7472H187.817C187.928 56.445 188.13 56.1997 188.422 56.0114C188.713 55.8232 189.042 55.729 189.408 55.729C189.477 55.729 189.563 55.7304 189.666 55.733C189.77 55.7357 189.848 55.7397 189.901 55.745V56.6995C189.869 56.6915 189.796 56.6796 189.682 56.6637C189.571 56.6451 189.453 56.6359 189.328 56.6359C189.031 56.6359 188.766 56.6982 188.533 56.8228C188.302 56.9448 188.119 57.1145 187.984 57.3319C187.852 57.5467 187.785 57.7919 187.785 58.0677V61.9336H186.847ZM193.31 62.0609C192.758 62.0609 192.274 61.9296 191.858 61.6671C191.444 61.4046 191.121 61.0374 190.887 60.5654C190.657 60.0934 190.541 59.5419 190.541 58.9109C190.541 58.2745 190.657 57.719 190.887 57.2444C191.121 56.7698 191.444 56.4012 191.858 56.1387C192.274 55.8762 192.758 55.745 193.31 55.745C193.861 55.745 194.344 55.8762 194.757 56.1387C195.174 56.4012 195.497 56.7698 195.728 57.2444C195.961 57.719 196.078 58.2745 196.078 58.9109C196.078 59.5419 195.961 60.0934 195.728 60.5654C195.497 61.0374 195.174 61.4046 194.757 61.6671C194.344 61.9296 193.861 62.0609 193.31 62.0609ZM193.31 61.2177C193.729 61.2177 194.073 61.1103 194.344 60.8955C194.614 60.6808 194.814 60.3984 194.944 60.0484C195.074 59.6984 195.139 59.3192 195.139 58.9109C195.139 58.5025 195.074 58.122 194.944 57.7694C194.814 57.4167 194.614 57.1317 194.344 56.9143C194.073 56.6969 193.729 56.5881 193.31 56.5881C192.891 56.5881 192.546 56.6969 192.276 56.9143C192.005 57.1317 191.805 57.4167 191.675 57.7694C191.545 58.122 191.48 58.5025 191.48 58.9109C191.48 59.3192 191.545 59.6984 191.675 60.0484C191.805 60.3984 192.005 60.6808 192.276 60.8955C192.546 61.1103 192.891 61.2177 193.31 61.2177ZM202.287 55.8245L200.028 61.9336H199.074L196.815 55.8245H197.833L199.519 60.6927H199.583L201.269 55.8245H202.287ZM205.869 62.0609C205.28 62.0609 204.772 61.9309 204.346 61.6711C203.921 61.4086 203.594 61.0427 203.363 60.5734C203.135 60.1014 203.021 59.5525 203.021 58.9268C203.021 58.301 203.135 57.7495 203.363 57.2722C203.594 56.7923 203.915 56.4184 204.326 56.1506C204.739 55.8802 205.222 55.745 205.773 55.745C206.092 55.745 206.406 55.798 206.716 55.904C207.026 56.0101 207.309 56.1825 207.563 56.4211C207.818 56.6571 208.021 56.97 208.172 57.3597C208.323 57.7495 208.398 58.2294 208.398 58.7995V59.1972H203.689V58.3859H207.444C207.444 58.0412 207.375 57.7336 207.237 57.4631C207.102 57.1927 206.908 56.9792 206.656 56.8228C206.407 56.6664 206.113 56.5881 205.773 56.5881C205.4 56.5881 205.076 56.6809 204.803 56.8665C204.533 57.0495 204.324 57.2881 204.179 57.5825C204.033 57.8768 203.96 58.1923 203.96 58.529V59.07C203.96 59.5313 204.039 59.9224 204.198 60.2433C204.36 60.5614 204.584 60.804 204.871 60.9711C205.157 61.1355 205.49 61.2177 205.869 61.2177C206.115 61.2177 206.338 61.1832 206.537 61.1143C206.739 61.0427 206.912 60.9366 207.058 60.7961C207.204 60.6529 207.317 60.4753 207.396 60.2631L208.303 60.5177C208.208 60.8253 208.047 61.0957 207.822 61.329C207.596 61.5597 207.318 61.74 206.987 61.87C206.655 61.9972 206.283 62.0609 205.869 62.0609ZM209.826 61.9336V55.8245H210.733V56.779H210.813C210.94 56.4529 211.145 56.1997 211.429 56.0194C211.713 55.8364 212.054 55.745 212.451 55.745C212.854 55.745 213.19 55.8364 213.458 56.0194C213.728 56.1997 213.939 56.4529 214.09 56.779H214.154C214.31 56.4635 214.545 56.2129 214.858 56.0273C215.17 55.8391 215.546 55.745 215.983 55.745C216.529 55.745 216.976 55.916 217.323 56.258C217.671 56.5974 217.844 57.1264 217.844 57.845V61.9336H216.906V57.845C216.906 57.3942 216.783 57.072 216.536 56.8785C216.289 56.6849 215.999 56.5881 215.665 56.5881C215.235 56.5881 214.903 56.7181 214.667 56.9779C214.431 57.2351 214.313 57.5612 214.313 57.9563V61.9336H213.358V57.7495C213.358 57.4022 213.245 57.1224 213.02 56.9103C212.795 56.6955 212.504 56.5881 212.149 56.5881C211.905 56.5881 211.677 56.6531 211.465 56.783C211.255 56.9129 211.086 57.0933 210.956 57.3239C210.829 57.552 210.765 57.8158 210.765 58.1154V61.9336H209.826ZM222.122 62.0609C221.533 62.0609 221.026 61.9309 220.599 61.6711C220.174 61.4086 219.847 61.0427 219.616 60.5734C219.388 60.1014 219.274 59.5525 219.274 58.9268C219.274 58.301 219.388 57.7495 219.616 57.2722C219.847 56.7923 220.168 56.4184 220.579 56.1506C220.992 55.8802 221.475 55.745 222.027 55.745C222.345 55.745 222.659 55.798 222.969 55.904C223.279 56.0101 223.562 56.1825 223.816 56.4211C224.071 56.6571 224.274 56.97 224.425 57.3597C224.576 57.7495 224.652 58.2294 224.652 58.7995V59.1972H219.942V58.3859H223.697C223.697 58.0412 223.628 57.7336 223.49 57.4631C223.355 57.1927 223.161 56.9792 222.91 56.8228C222.66 56.6664 222.366 56.5881 222.027 56.5881C221.653 56.5881 221.329 56.6809 221.056 56.8665C220.786 57.0495 220.578 57.2881 220.432 57.5825C220.286 57.8768 220.213 58.1923 220.213 58.529V59.07C220.213 59.5313 220.292 59.9224 220.452 60.2433C220.613 60.5614 220.837 60.804 221.124 60.9711C221.41 61.1355 221.743 61.2177 222.122 61.2177C222.369 61.2177 222.591 61.1832 222.79 61.1143C222.992 61.0427 223.165 60.9366 223.311 60.7961C223.457 60.6529 223.57 60.4753 223.649 60.2631L224.556 60.5177C224.461 60.8253 224.3 61.0957 224.075 61.329C223.849 61.5597 223.571 61.74 223.24 61.87C222.908 61.9972 222.536 62.0609 222.122 62.0609ZM227.018 58.2586V61.9336H226.079V55.8245H226.986V56.779H227.066C227.209 56.4688 227.426 56.2196 227.718 56.0313C228.01 55.8404 228.386 55.745 228.848 55.745C229.261 55.745 229.623 55.8298 229.933 55.9995C230.244 56.1665 230.485 56.4211 230.657 56.7631C230.83 57.1025 230.916 57.5321 230.916 58.0518V61.9336H229.977V58.1154C229.977 57.6355 229.853 57.2616 229.603 56.9938C229.354 56.7234 229.012 56.5881 228.577 56.5881C228.278 56.5881 228.01 56.6531 227.774 56.783C227.54 56.9129 227.356 57.1025 227.221 57.3518C227.086 57.601 227.018 57.9033 227.018 58.2586ZM235.288 55.8245V56.62H232.122V55.8245H235.288ZM233.045 54.3609H233.983V60.1836C233.983 60.4487 234.022 60.6476 234.099 60.7802C234.178 60.9101 234.279 60.9976 234.401 61.0427C234.525 61.0851 234.657 61.1063 234.795 61.1063C234.898 61.1063 234.983 61.101 235.049 61.0904C235.115 61.0772 235.168 61.0665 235.208 61.0586L235.399 61.9018C235.336 61.9256 235.247 61.9495 235.133 61.9734C235.019 61.9999 234.874 62.0131 234.699 62.0131C234.434 62.0131 234.174 61.9561 233.92 61.8421C233.668 61.7281 233.458 61.5544 233.291 61.3211C233.127 61.0878 233.045 60.7934 233.045 60.4381V54.3609ZM240.918 57.1927L240.074 57.4313C240.021 57.2908 239.943 57.1542 239.84 57.0217C239.739 56.8864 239.601 56.7751 239.426 56.6876C239.251 56.6001 239.027 56.5563 238.754 56.5563C238.38 56.5563 238.069 56.6425 237.819 56.8148C237.573 56.9845 237.449 57.2006 237.449 57.4631C237.449 57.6965 237.534 57.8808 237.704 58.016C237.874 58.1512 238.139 58.2639 238.499 58.354L239.406 58.5768C239.952 58.7094 240.359 58.9122 240.627 59.1853C240.895 59.4558 241.029 59.8044 241.029 60.2313C241.029 60.5813 240.928 60.8942 240.727 61.17C240.528 61.4457 240.249 61.6631 239.891 61.8222C239.534 61.9813 239.117 62.0609 238.643 62.0609C238.02 62.0609 237.504 61.9256 237.095 61.6552C236.687 61.3847 236.429 60.9897 236.32 60.47L237.211 60.2472C237.296 60.576 237.456 60.8226 237.692 60.987C237.931 61.1514 238.242 61.2336 238.627 61.2336C239.064 61.2336 239.412 61.1408 239.669 60.9552C239.929 60.7669 240.059 60.5415 240.059 60.279C240.059 60.0669 239.984 59.8893 239.836 59.7461C239.687 59.6003 239.459 59.4915 239.152 59.42L238.134 59.1813C237.574 59.0487 237.163 58.8433 236.901 58.5648C236.641 58.2838 236.511 57.9325 236.511 57.5109C236.511 57.1662 236.608 56.8612 236.801 56.5961C236.997 56.3309 237.264 56.1228 237.601 55.9717C237.94 55.8205 238.324 55.745 238.754 55.745C239.359 55.745 239.833 55.8775 240.178 56.1427C240.525 56.4078 240.772 56.7578 240.918 57.1927ZM248.153 62.0609C247.565 62.0609 247.057 61.9309 246.63 61.6711C246.206 61.4086 245.878 61.0427 245.648 60.5734C245.42 60.1014 245.306 59.5525 245.306 58.9268C245.306 58.301 245.42 57.7495 245.648 57.2722C245.878 56.7923 246.199 56.4184 246.61 56.1506C247.024 55.8802 247.506 55.745 248.058 55.745C248.376 55.745 248.69 55.798 249 55.904C249.311 56.0101 249.593 56.1825 249.848 56.4211C250.102 56.6571 250.305 56.97 250.456 57.3597C250.607 57.7495 250.683 58.2294 250.683 58.7995V59.1972H245.974V58.3859H249.728C249.728 58.0412 249.659 57.7336 249.521 57.4631C249.386 57.1927 249.193 56.9792 248.941 56.8228C248.692 56.6664 248.397 56.5881 248.058 56.5881C247.684 56.5881 247.36 56.6809 247.087 56.8665C246.817 57.0495 246.609 57.2881 246.463 57.5825C246.317 57.8768 246.244 58.1923 246.244 58.529V59.07C246.244 59.5313 246.324 59.9224 246.483 60.2433C246.645 60.5614 246.869 60.804 247.155 60.9711C247.441 61.1355 247.774 61.2177 248.153 61.2177C248.4 61.2177 248.623 61.1832 248.821 61.1143C249.023 61.0427 249.197 60.9366 249.342 60.7961C249.488 60.6529 249.601 60.4753 249.681 60.2631L250.587 60.5177C250.492 60.8253 250.331 61.0957 250.106 61.329C249.881 61.5597 249.602 61.74 249.271 61.87C248.939 61.9972 248.567 62.0609 248.153 62.0609ZM253.908 62.0768C253.521 62.0768 253.17 62.0039 252.854 61.858C252.539 61.7095 252.288 61.4961 252.103 61.2177C251.917 60.9366 251.824 60.5972 251.824 60.1995C251.824 59.8495 251.893 59.5658 252.031 59.3484C252.169 59.1283 252.353 58.9559 252.584 58.8313C252.815 58.7067 253.069 58.6139 253.348 58.5529C253.629 58.4893 253.911 58.4389 254.195 58.4018C254.566 58.354 254.867 58.3183 255.098 58.2944C255.331 58.2679 255.501 58.2241 255.607 58.1631C255.715 58.1022 255.77 57.9961 255.77 57.845V57.8131C255.77 57.4207 255.662 57.1158 255.448 56.8984C255.235 56.6809 254.913 56.5722 254.481 56.5722C254.033 56.5722 253.682 56.6703 253.427 56.8665C253.173 57.0628 252.994 57.2722 252.89 57.495L251.999 57.1768C252.158 56.8056 252.37 56.5165 252.636 56.3097C252.903 56.1003 253.195 55.9544 253.511 55.8722C253.829 55.7874 254.142 55.745 254.449 55.745C254.645 55.745 254.871 55.7688 255.125 55.8165C255.383 55.8616 255.631 55.9558 255.869 56.0989C256.11 56.2421 256.311 56.4582 256.47 56.7472C256.629 57.0362 256.708 57.4234 256.708 57.9086V61.9336H255.77V61.1063H255.722C255.658 61.2389 255.552 61.3808 255.404 61.5319C255.255 61.683 255.058 61.8116 254.811 61.9177C254.565 62.0237 254.264 62.0768 253.908 62.0768ZM254.052 61.2336C254.423 61.2336 254.736 61.1607 254.99 61.0148C255.247 60.869 255.441 60.6808 255.571 60.4501C255.703 60.2194 255.77 59.9768 255.77 59.7222V58.8631C255.73 58.9109 255.642 58.9546 255.507 58.9944C255.375 59.0315 255.221 59.0647 255.046 59.0938C254.874 59.1203 254.705 59.1442 254.541 59.1654C254.379 59.184 254.248 59.1999 254.147 59.2131C253.903 59.245 253.675 59.2967 253.463 59.3683C253.253 59.4372 253.084 59.5419 252.954 59.6825C252.827 59.8203 252.763 60.0086 252.763 60.2472C252.763 60.5734 252.884 60.82 253.125 60.987C253.369 61.1514 253.678 61.2336 254.052 61.2336ZM262.749 57.1927L261.906 57.4313C261.853 57.2908 261.774 57.1542 261.671 57.0217C261.57 56.8864 261.432 56.7751 261.257 56.6876C261.082 56.6001 260.858 56.5563 260.585 56.5563C260.211 56.5563 259.9 56.6425 259.651 56.8148C259.404 56.9845 259.281 57.2006 259.281 57.4631C259.281 57.6965 259.366 57.8808 259.535 58.016C259.705 58.1512 259.97 58.2639 260.331 58.354L261.237 58.5768C261.784 58.7094 262.191 58.9122 262.459 59.1853C262.726 59.4558 262.86 59.8044 262.86 60.2313C262.86 60.5813 262.759 60.8942 262.558 61.17C262.359 61.4457 262.081 61.6631 261.723 61.8222C261.365 61.9813 260.948 62.0609 260.474 62.0609C259.851 62.0609 259.335 61.9256 258.927 61.6552C258.518 61.3847 258.26 60.9897 258.151 60.47L259.042 60.2472C259.127 60.576 259.287 60.8226 259.523 60.987C259.762 61.1514 260.073 61.2336 260.458 61.2336C260.895 61.2336 261.243 61.1408 261.5 60.9552C261.76 60.7669 261.89 60.5415 261.89 60.279C261.89 60.0669 261.816 59.8893 261.667 59.7461C261.519 59.6003 261.291 59.4915 260.983 59.42L259.965 59.1813C259.405 59.0487 258.994 58.8433 258.732 58.5648C258.472 58.2838 258.342 57.9325 258.342 57.5109C258.342 57.1662 258.439 56.8612 258.632 56.5961C258.829 56.3309 259.095 56.1228 259.432 55.9717C259.771 55.8205 260.156 55.745 260.585 55.745C261.19 55.745 261.664 55.8775 262.009 56.1427C262.356 56.4078 262.603 56.7578 262.749 57.1927ZM264.273 61.9336V55.8245H265.212V61.9336H264.273ZM264.75 54.8063C264.567 54.8063 264.41 54.744 264.277 54.6194C264.147 54.4948 264.082 54.345 264.082 54.17C264.082 53.995 264.147 53.8451 264.277 53.7205C264.41 53.5959 264.567 53.5336 264.75 53.5336C264.933 53.5336 265.09 53.5959 265.22 53.7205C265.352 53.8451 265.419 53.995 265.419 54.17C265.419 54.345 265.352 54.4948 265.22 54.6194C265.09 54.744 264.933 54.8063 264.75 54.8063ZM267.87 53.7881V61.9336H266.931V53.7881H267.87ZM270.193 64.2245C270.034 64.2245 269.892 64.2112 269.768 64.1847C269.643 64.1609 269.557 64.137 269.509 64.1131L269.748 63.2859C269.976 63.3442 270.177 63.3654 270.352 63.3495C270.527 63.3336 270.683 63.2554 270.818 63.1148C270.956 62.977 271.082 62.7529 271.196 62.4427L271.371 61.9654L269.111 55.8245H270.13L271.816 60.6927H271.88L273.566 55.8245H274.584L271.991 62.8245C271.874 63.14 271.73 63.4012 271.558 63.608C271.385 63.8175 271.185 63.9726 270.957 64.0734C270.732 64.1741 270.477 64.2245 270.193 64.2245ZM276.124 61.9972C275.928 61.9972 275.76 61.927 275.619 61.7864C275.479 61.6459 275.409 61.4775 275.409 61.2813C275.409 61.0851 275.479 60.9167 275.619 60.7762C275.76 60.6357 275.928 60.5654 276.124 60.5654C276.321 60.5654 276.489 60.6357 276.63 60.7762C276.77 60.9167 276.84 61.0851 276.84 61.2813C276.84 61.4112 276.807 61.5306 276.741 61.6393C276.677 61.748 276.591 61.8355 276.482 61.9018C276.376 61.9654 276.257 61.9972 276.124 61.9972Z" fill="white"/>
<path d="M25.3386 41.5937C25.2507 41.5937 25.1647 41.5676 25.0916 41.5187C25.0185 41.4699 24.9615 41.4004 24.9279 41.3192C24.8942 41.2379 24.8854 41.1485 24.9026 41.0623C24.9197 40.9761 24.9621 40.8968 25.0242 40.8346L31.9731 33.8858C32.0141 33.8433 32.0632 33.8094 32.1175 33.7861C32.1717 33.7628 32.2301 33.7505 32.2891 33.75C32.3482 33.7495 32.4067 33.7608 32.4614 33.7831C32.516 33.8055 32.5657 33.8385 32.6074 33.8802C32.6492 33.922 32.6822 33.9716 32.7045 34.0263C32.7269 34.0809 32.7381 34.1395 32.7376 34.1985C32.7371 34.2576 32.7249 34.3159 32.7015 34.3702C32.6782 34.4244 32.6444 34.4735 32.6019 34.5145L25.653 41.4634C25.5663 41.5501 25.4525 41.5937 25.3386 41.5937Z" fill="white" stroke="white" stroke-width="0.121967"/>
<path d="M24.6516 44.7971C24.5852 44.7971 24.5197 44.7824 24.4598 44.7538C24.3999 44.7252 24.3472 44.6836 24.3055 44.632C24.2637 44.5804 24.2341 44.5202 24.2187 44.4556C24.2033 44.3911 24.2025 44.3239 24.2165 44.259L24.9035 41.0567C24.9156 40.9995 24.9388 40.9452 24.972 40.897C25.0051 40.8487 25.0474 40.8075 25.0965 40.7756C25.1456 40.7438 25.2004 40.7219 25.258 40.7113C25.3155 40.7007 25.3746 40.7016 25.4318 40.7139C25.489 40.7261 25.5433 40.7496 25.5914 40.7828C25.6395 40.8161 25.6806 40.8586 25.7123 40.9077C25.744 40.9569 25.7657 41.0119 25.7761 41.0695C25.7865 41.127 25.7855 41.1861 25.773 41.2433L25.086 44.4456C25.0647 44.545 25.01 44.6341 24.9309 44.6981C24.8519 44.7621 24.7533 44.797 24.6516 44.7971ZM27.8534 44.1101C27.7655 44.1101 27.6795 44.084 27.6064 44.0351C27.5333 43.9862 27.4763 43.9168 27.4427 43.8356C27.409 43.7543 27.4002 43.6649 27.4174 43.5787C27.4345 43.4924 27.4769 43.4132 27.539 43.351L34.4879 36.4024C34.529 36.3599 34.578 36.326 34.6323 36.3027C34.6865 36.2794 34.7449 36.2671 34.8039 36.2666C34.863 36.2661 34.9215 36.2774 34.9762 36.2997C35.0308 36.3221 35.0805 36.3551 35.1222 36.3968C35.164 36.4386 35.197 36.4882 35.2193 36.5429C35.2417 36.5975 35.253 36.6561 35.2524 36.7151C35.2519 36.7742 35.2397 36.8325 35.2164 36.8868C35.1931 36.941 35.1592 36.9901 35.1167 37.0311L28.168 43.9798C28.1268 44.0212 28.0777 44.054 28.0237 44.0763C27.9698 44.0987 27.9119 44.1102 27.8534 44.1101Z" fill="white" stroke="white" stroke-width="0.121967"/>
<path d="M24.6505 44.7968C24.541 44.7963 24.4354 44.7554 24.3541 44.682C24.2728 44.6085 24.2215 44.5076 24.21 44.3986C24.1985 44.2897 24.2276 44.1803 24.2917 44.0914C24.3559 44.0026 24.4505 43.9406 24.5576 43.9172L27.7599 43.2302C27.875 43.2059 27.9951 43.2282 28.0939 43.2923C28.1926 43.3563 28.2619 43.4569 28.2866 43.572C28.3113 43.6871 28.2893 43.8072 28.2256 43.9062C28.1618 44.0051 28.0614 44.0747 27.9464 44.0997L24.7441 44.7868C24.7134 44.7935 24.682 44.7968 24.6505 44.7968ZM33.5444 38.4186C33.486 38.4187 33.4282 38.4073 33.3742 38.3849C33.3202 38.3625 33.2712 38.3297 33.23 38.2883L30.7147 35.773C30.6723 35.732 30.6384 35.683 30.6151 35.6287C30.5918 35.5744 30.5795 35.5161 30.579 35.4571C30.5785 35.398 30.5897 35.3395 30.6121 35.2848C30.6345 35.2302 30.6675 35.1805 30.7092 35.1388C30.751 35.097 30.8006 35.064 30.8553 35.0416C30.9099 35.0193 30.9685 35.008 31.0275 35.0085C31.0866 35.009 31.1449 35.0213 31.1992 35.0446C31.2534 35.0679 31.3025 35.1018 31.3435 35.1443L33.8588 37.6596C33.921 37.7217 33.9633 37.801 33.9804 37.8872C33.9976 37.9735 33.9888 38.0629 33.9551 38.1441C33.9215 38.2253 33.8645 38.2948 33.7914 38.3436C33.7183 38.3925 33.6323 38.4186 33.5444 38.4186ZM34.8022 37.1611C34.7142 37.1612 34.6281 37.1351 34.5549 37.0863C34.4817 37.0374 34.4247 36.9679 34.391 36.8866C34.3573 36.8053 34.3485 36.7159 34.3657 36.6296C34.3829 36.5433 34.4253 36.464 34.4876 36.4018C34.735 36.1543 34.8713 35.8193 34.8713 35.4587C34.8713 35.098 34.735 34.763 34.4876 34.5155C34.2399 34.2678 33.9048 34.1315 33.5442 34.1315C33.1836 34.1315 32.8485 34.2678 32.601 34.5155C32.5597 34.5568 32.5107 34.5896 32.4567 34.6119C32.4028 34.6343 32.345 34.6458 32.2865 34.6458C32.2281 34.6458 32.1703 34.6343 32.1163 34.6119C32.0624 34.5896 32.0134 34.5568 31.9721 34.5155C31.9308 34.4742 31.898 34.4252 31.8756 34.3712C31.8533 34.3173 31.8418 34.2594 31.8418 34.201C31.8418 34.1426 31.8533 34.0848 31.8756 34.0308C31.898 33.9768 31.9308 33.9278 31.9721 33.8865C32.3874 33.471 32.9457 33.2422 33.5442 33.2422C34.1425 33.2422 34.701 33.471 35.1163 33.8865C35.5319 34.3018 35.7607 34.8601 35.7607 35.4587C35.7607 36.0572 35.5319 36.6155 35.1163 37.0308C35.0751 37.0722 35.0262 37.105 34.9723 37.1273C34.9183 37.1497 34.8605 37.1612 34.8022 37.1611Z" fill="white" stroke="white" stroke-width="0.121967"/>
<path d="M305.978 31.8397C305.657 31.5456 305.175 31.5456 304.853 31.8397L298.826 37.3544L296.335 35.075C296.014 34.7809 295.532 34.7809 295.21 35.075C294.889 35.3691 294.889 35.8103 295.21 36.1044L298.264 38.8986C298.425 39.0456 298.585 39.1191 298.826 39.1191C299.067 39.1191 299.228 39.0456 299.389 38.8986L305.978 32.8691C306.3 32.575 306.3 32.1338 305.978 31.8397Z" fill="white"/>
<path d="M43.3171 104.224V93.8749H47.0059C47.8076 93.8749 48.473 94.013 49.0019 94.2893C49.5341 94.5655 49.9316 94.9478 50.1944 95.4363C50.4571 95.9214 50.5885 96.4823 50.5885 97.119C50.5885 97.7523 50.4555 98.3098 50.1893 98.7916C49.9266 99.2699 49.5291 99.6422 48.9968 99.9083C48.4679 100.174 47.8026 100.307 47.0008 100.307H44.2065V98.9634H46.8593C47.3646 98.9634 47.7756 98.8909 48.0923 98.7461C48.4123 98.6012 48.6464 98.3907 48.7947 98.1144C48.9429 97.8382 49.017 97.5064 49.017 97.119C49.017 96.7282 48.9412 96.3897 48.7896 96.1033C48.6414 95.817 48.4073 95.598 48.0872 95.4464C47.7706 95.2914 47.3545 95.214 46.8391 95.214H44.8785V104.224H43.3171ZM48.4258 99.5546L50.9827 104.224H49.204L46.6976 99.5546H48.4258ZM55.6151 104.38C54.8504 104.38 54.1918 104.217 53.6393 103.89C53.0902 103.56 52.6658 103.097 52.3659 102.501C52.0695 101.901 51.9213 101.199 51.9213 100.393C51.9213 99.5984 52.0695 98.8977 52.3659 98.2913C52.6658 97.6849 53.0835 97.2116 53.6191 96.8714C54.1581 96.5311 54.7881 96.361 55.509 96.361C55.9469 96.361 56.3714 96.4334 56.7824 96.5783C57.1933 96.7232 57.5622 96.9505 57.889 97.2605C58.2157 97.5704 58.4735 97.973 58.6621 98.4682C58.8507 98.96 58.9451 99.5579 58.9451 100.262V100.798H52.7752V99.6657H57.4645C57.4645 99.2682 57.3837 98.9162 57.222 98.6096C57.0603 98.2997 56.8329 98.0555 56.5398 97.8769C56.2501 97.6984 55.9098 97.6091 55.5191 97.6091C55.0946 97.6091 54.7241 97.7136 54.4074 97.9224C54.0941 98.1279 53.8516 98.3974 53.6798 98.7309C53.5113 99.0611 53.4271 99.4198 53.4271 99.8072V100.692C53.4271 101.21 53.5181 101.652 53.7 102.015C53.8852 102.379 54.143 102.657 54.4731 102.849C54.8032 103.038 55.1889 103.132 55.6302 103.132C55.9166 103.132 56.1777 103.092 56.4135 103.011C56.6493 102.927 56.8531 102.802 57.0249 102.637C57.1967 102.472 57.3281 102.268 57.419 102.026L58.8491 102.283C58.7345 102.704 58.529 103.073 58.2326 103.39C57.9395 103.703 57.5706 103.947 57.126 104.123C56.6847 104.294 56.181 104.38 55.6151 104.38ZM66.4375 98.357L65.0682 98.5995C65.0109 98.4244 64.9199 98.2576 64.7953 98.0993C64.674 97.941 64.509 97.8113 64.3001 97.7102C64.0912 97.6091 63.8302 97.5586 63.5169 97.5586C63.089 97.5586 62.7319 97.6546 62.4456 97.8466C62.1593 98.0353 62.0161 98.2795 62.0161 98.5793C62.0161 98.8387 62.1121 99.0476 62.3041 99.2059C62.4961 99.3642 62.8061 99.4939 63.2339 99.595L64.4668 99.878C65.181 100.043 65.7133 100.297 66.0636 100.641C66.414 100.985 66.5891 101.431 66.5891 101.98C66.5891 102.445 66.4544 102.859 66.1849 103.223C65.9188 103.584 65.5465 103.867 65.0682 104.072C64.5932 104.278 64.0424 104.38 63.4158 104.38C62.5467 104.38 61.8375 104.195 61.2884 103.824C60.7393 103.451 60.4025 102.92 60.2778 102.233L61.7382 102.01C61.8291 102.391 62.0161 102.679 62.2991 102.874C62.582 103.066 62.9509 103.162 63.4057 103.162C63.9009 103.162 64.2967 103.06 64.5932 102.854C64.8896 102.645 65.0378 102.391 65.0378 102.091C65.0378 101.849 64.9469 101.645 64.765 101.48C64.5864 101.315 64.3119 101.19 63.9413 101.106L62.6275 100.818C61.9032 100.653 61.3676 100.39 61.0206 100.03C60.677 99.6691 60.5052 99.2126 60.5052 98.6602C60.5052 98.202 60.6332 97.8012 60.8893 97.4575C61.1453 97.1139 61.499 96.8461 61.9504 96.6541C62.4018 96.4587 62.9189 96.361 63.5017 96.361C64.3405 96.361 65.0008 96.5429 65.4825 96.9068C65.9642 97.2672 66.2826 97.7506 66.4375 98.357ZM71.5955 104.38C70.8308 104.38 70.1722 104.217 69.6197 103.89C69.0706 103.56 68.6462 103.097 68.3464 102.501C68.0499 101.901 67.9017 101.199 67.9017 100.393C67.9017 99.5984 68.0499 98.8977 68.3464 98.2913C68.6462 97.6849 69.0639 97.2116 69.5995 96.8714C70.1385 96.5311 70.7685 96.361 71.4894 96.361C71.9273 96.361 72.3518 96.4334 72.7628 96.5783C73.1737 96.7232 73.5426 96.9505 73.8694 97.2605C74.1961 97.5704 74.4539 97.973 74.6425 98.4682C74.8312 98.96 74.9255 99.5579 74.9255 100.262V100.798H68.7557V99.6657H73.4449C73.4449 99.2682 73.3641 98.9162 73.2024 98.6096C73.0407 98.2997 72.8133 98.0555 72.5202 97.8769C72.2305 97.6984 71.8903 97.6091 71.4995 97.6091C71.075 97.6091 70.7045 97.7136 70.3878 97.9224C70.0745 98.1279 69.832 98.3974 69.6602 98.7309C69.4917 99.0611 69.4075 99.4198 69.4075 99.8072V100.692C69.4075 101.21 69.4985 101.652 69.6804 102.015C69.8656 102.379 70.1234 102.657 70.4535 102.849C70.7836 103.038 71.1693 103.132 71.6107 103.132C71.897 103.132 72.1581 103.092 72.3939 103.011C72.6297 102.927 72.8335 102.802 73.0053 102.637C73.1771 102.472 73.3085 102.268 73.3994 102.026L74.8295 102.283C74.7149 102.704 74.5094 103.073 74.213 103.39C73.9199 103.703 73.551 103.947 73.1064 104.123C72.6651 104.294 72.1614 104.38 71.5955 104.38ZM78.8606 104.395C78.3687 104.395 77.9241 104.304 77.5266 104.123C77.129 103.937 76.8141 103.669 76.5816 103.319C76.3526 102.969 76.238 102.539 76.238 102.031C76.238 101.593 76.3222 101.232 76.4907 100.949C76.6591 100.666 76.8865 100.442 77.1728 100.277C77.4592 100.112 77.7792 99.9875 78.1329 99.9032C78.4866 99.819 78.8471 99.755 79.2143 99.7112C79.6792 99.6573 80.0565 99.6135 80.3462 99.5798C80.6359 99.5428 80.8464 99.4838 80.9778 99.403C81.1092 99.3221 81.1749 99.1908 81.1749 99.0088V98.9735C81.1749 98.5322 81.0502 98.1902 80.801 97.9477C80.555 97.7051 80.1879 97.5839 79.6994 97.5839C79.1907 97.5839 78.7898 97.6967 78.4968 97.9224C78.207 98.1448 78.0066 98.3924 77.8954 98.6652L76.4755 98.3418C76.644 97.8702 76.8899 97.4895 77.2133 97.1998C77.54 96.9068 77.9156 96.6945 78.3401 96.5631C78.7646 96.4284 79.2109 96.361 79.6792 96.361C79.9891 96.361 80.3175 96.3981 80.6645 96.4722C81.0149 96.5429 81.3416 96.6743 81.6448 96.8663C81.9514 97.0583 82.2024 97.3329 82.3977 97.69C82.5931 98.0437 82.6908 98.5035 82.6908 99.0695V104.224H81.2153V103.162H81.1547C81.057 103.358 80.9104 103.55 80.7151 103.739C80.5197 103.927 80.2687 104.084 79.9621 104.208C79.6556 104.333 79.2884 104.395 78.8606 104.395ZM79.189 103.183C79.6067 103.183 79.9638 103.1 80.2603 102.935C80.5601 102.77 80.7875 102.554 80.9424 102.288C81.1008 102.019 81.1799 101.731 81.1799 101.424V100.424C81.126 100.478 81.0216 100.528 80.8667 100.575C80.7151 100.619 80.5416 100.658 80.3462 100.692C80.1508 100.722 79.9605 100.75 79.7752 100.777C79.5899 100.801 79.4349 100.821 79.3103 100.838C79.0172 100.875 78.7494 100.937 78.5069 101.025C78.2677 101.113 78.0757 101.239 77.9308 101.404C77.7893 101.566 77.7186 101.781 77.7186 102.051C77.7186 102.425 77.8567 102.708 78.1329 102.9C78.4092 103.088 78.7612 103.183 79.189 103.183ZM84.7032 104.224V96.4621H86.1636V97.695H86.2444C86.3859 97.2773 86.6352 96.9489 86.9923 96.7097C87.3527 96.4671 87.7603 96.3459 88.2151 96.3459C88.3094 96.3459 88.4206 96.3492 88.5486 96.356C88.68 96.3627 88.7827 96.3711 88.8569 96.3812V97.8264C88.7962 97.8096 88.6884 97.791 88.5335 97.7708C88.3785 97.7473 88.2235 97.7355 88.0686 97.7355C87.7115 97.7355 87.3931 97.8113 87.1135 97.9629C86.8373 98.1111 86.6183 98.3183 86.4566 98.5844C86.2949 98.8471 86.2141 99.147 86.2141 99.4838V104.224H84.7032ZM93.1558 104.38C92.4045 104.38 91.7578 104.21 91.2154 103.87C90.6764 103.526 90.262 103.053 89.9723 102.45C89.6826 101.847 89.5378 101.156 89.5378 100.378C89.5378 99.5899 89.686 98.8943 89.9824 98.2913C90.2789 97.6849 90.6966 97.2116 91.2356 96.8714C91.7746 96.5311 92.4096 96.361 93.1406 96.361C93.7301 96.361 94.2557 96.4705 94.7172 96.6895C95.1787 96.9051 95.5509 97.2083 95.8339 97.599C96.1203 97.9898 96.2904 98.4463 96.3443 98.9684H94.8738C94.793 98.6046 94.6077 98.2913 94.318 98.0285C94.0316 97.7658 93.6476 97.6344 93.1659 97.6344C92.7448 97.6344 92.3759 97.7456 92.0593 97.9679C91.746 98.1869 91.5017 98.5002 91.3266 98.9078C91.1514 99.312 91.0638 99.7904 91.0638 100.343C91.0638 100.909 91.1497 101.397 91.3215 101.808C91.4933 102.219 91.7359 102.538 92.0491 102.763C92.3658 102.989 92.7381 103.102 93.1659 103.102C93.4522 103.102 93.7116 103.05 93.9441 102.945C94.1799 102.837 94.3769 102.684 94.5353 102.485C94.697 102.287 94.8098 102.047 94.8738 101.768H96.3443C96.2904 102.27 96.127 102.718 95.8541 103.112C95.5813 103.506 95.2158 103.816 94.7576 104.042C94.3028 104.267 93.7689 104.38 93.1558 104.38ZM99.4709 99.6152V104.224H97.96V93.8749H99.4507V97.7254H99.5467C99.7286 97.3076 100.007 96.9758 100.38 96.7299C100.754 96.484 101.243 96.361 101.846 96.361C102.378 96.361 102.843 96.4705 103.24 96.6895C103.641 96.9084 103.951 97.2352 104.17 97.6698C104.393 98.101 104.504 98.64 104.504 99.2868V104.224H102.993V99.4687C102.993 98.8994 102.846 98.4581 102.553 98.1448C102.26 97.8281 101.853 97.6698 101.33 97.6698C100.973 97.6698 100.653 97.7456 100.37 97.8972C100.091 98.0488 99.8701 98.2711 99.7084 98.5642C99.55 98.8539 99.4709 99.2042 99.4709 99.6152Z" fill="#0D111A"/>
<path d="M43.5006 122.289H42.4665L45.4574 114.144H46.4756L49.4665 122.289H48.4324L45.9984 115.432H45.9347L43.5006 122.289ZM43.8824 119.107H48.0506V119.982H43.8824V119.107ZM53.0898 122.416C52.5171 122.416 52.0239 122.281 51.6103 122.011C51.1967 121.74 50.8785 121.368 50.6557 120.893C50.433 120.418 50.3217 119.876 50.3217 119.266C50.3217 118.646 50.4357 118.098 50.6637 117.624C50.8944 117.146 51.2152 116.774 51.6262 116.506C52.0398 116.236 52.5224 116.1 53.0739 116.1C53.5035 116.1 53.8906 116.18 54.2353 116.339C54.58 116.498 54.8624 116.721 55.0824 117.007C55.3025 117.294 55.4391 117.628 55.4921 118.01H54.5535C54.4819 117.731 54.3228 117.485 54.0762 117.27C53.8323 117.052 53.5035 116.944 53.0898 116.944C52.7239 116.944 52.4031 117.039 52.1273 117.23C51.8542 117.418 51.6408 117.685 51.487 118.029C51.3359 118.371 51.2603 118.773 51.2603 119.235C51.2603 119.706 51.3345 120.117 51.483 120.467C51.6342 120.817 51.8463 121.089 52.1194 121.283C52.3951 121.476 52.7186 121.573 53.0898 121.573C53.3338 121.573 53.5552 121.531 53.754 121.446C53.9529 121.361 54.1213 121.239 54.2592 121.08C54.397 120.921 54.4951 120.73 54.5535 120.507H55.4921C55.4391 120.868 55.3078 121.193 55.0984 121.482C54.8915 121.768 54.6171 121.996 54.2751 122.166C53.9357 122.333 53.5406 122.416 53.0898 122.416ZM59.3461 122.416C58.7734 122.416 58.2802 122.281 57.8665 122.011C57.4529 121.74 57.1347 121.368 56.912 120.893C56.6893 120.418 56.5779 119.876 56.5779 119.266C56.5779 118.646 56.6919 118.098 56.9199 117.624C57.1506 117.146 57.4715 116.774 57.8824 116.506C58.2961 116.236 58.7787 116.1 59.3302 116.1C59.7597 116.1 60.1468 116.18 60.4915 116.339C60.8362 116.498 61.1186 116.721 61.3387 117.007C61.5588 117.294 61.6953 117.628 61.7484 118.01H60.8097C60.7381 117.731 60.579 117.485 60.3324 117.27C60.0885 117.052 59.7597 116.944 59.3461 116.944C58.9802 116.944 58.6593 117.039 58.3836 117.23C58.1105 117.418 57.897 117.685 57.7432 118.029C57.5921 118.371 57.5165 118.773 57.5165 119.235C57.5165 119.706 57.5908 120.117 57.7393 120.467C57.8904 120.817 58.1025 121.089 58.3756 121.283C58.6514 121.476 58.9749 121.573 59.3461 121.573C59.59 121.573 59.8114 121.531 60.0103 121.446C60.2092 121.361 60.3775 121.239 60.5154 121.08C60.6533 120.921 60.7514 120.73 60.8097 120.507H61.7484C61.6953 120.868 61.5641 121.193 61.3546 121.482C61.1478 121.768 60.8734 121.996 60.5313 122.166C60.1919 122.333 59.7968 122.416 59.3461 122.416ZM65.6819 122.416C65.0932 122.416 64.5855 122.286 64.1586 122.027C63.7343 121.764 63.4069 121.398 63.1762 120.929C62.9482 120.457 62.8342 119.908 62.8342 119.282C62.8342 118.656 62.9482 118.105 63.1762 117.628C63.4069 117.148 63.7277 116.774 64.1387 116.506C64.5523 116.236 65.0349 116.1 65.5864 116.1C65.9046 116.1 66.2188 116.153 66.529 116.26C66.8393 116.366 67.1217 116.538 67.3762 116.777C67.6307 117.013 67.8336 117.325 67.9847 117.715C68.1359 118.105 68.2114 118.585 68.2114 119.155V119.553H63.5023V118.741H67.2569C67.2569 118.397 67.1879 118.089 67.0501 117.819C66.9148 117.548 66.7213 117.335 66.4694 117.178C66.2201 117.022 65.9258 116.944 65.5864 116.944C65.2126 116.944 64.8891 117.036 64.616 117.222C64.3455 117.405 64.1374 117.644 63.9915 117.938C63.8457 118.232 63.7728 118.548 63.7728 118.885V119.425C63.7728 119.887 63.8523 120.278 64.0114 120.599C64.1732 120.917 64.3972 121.16 64.6836 121.327C64.9699 121.491 65.3027 121.573 65.6819 121.573C65.9285 121.573 66.1512 121.539 66.3501 121.47C66.5516 121.398 66.7253 121.292 66.8711 121.152C67.0169 121.008 67.1296 120.831 67.2092 120.619L68.116 120.873C68.0205 121.181 67.8601 121.451 67.6347 121.685C67.4093 121.915 67.1309 122.096 66.7995 122.225C66.4681 122.353 66.0955 122.416 65.6819 122.416ZM73.9665 117.548L73.1234 117.787C73.0703 117.646 72.9921 117.51 72.8887 117.377C72.7879 117.242 72.6501 117.131 72.4751 117.043C72.3001 116.956 72.076 116.912 71.8029 116.912C71.429 116.912 71.1175 116.998 70.8682 117.17C70.6217 117.34 70.4984 117.556 70.4984 117.819C70.4984 118.052 70.5832 118.236 70.7529 118.371C70.9226 118.507 71.1878 118.619 71.5484 118.71L72.4552 118.932C73.0014 119.065 73.4084 119.268 73.6762 119.541C73.944 119.811 74.0779 120.16 74.0779 120.587C74.0779 120.937 73.9771 121.25 73.7756 121.525C73.5768 121.801 73.2984 122.019 72.9404 122.178C72.5824 122.337 72.1662 122.416 71.6915 122.416C71.0684 122.416 70.5527 122.281 70.1444 122.011C69.736 121.74 69.4775 121.345 69.3688 120.825L70.2597 120.603C70.3446 120.931 70.505 121.178 70.741 121.342C70.9796 121.507 71.2912 121.589 71.6756 121.589C72.1131 121.589 72.4605 121.496 72.7177 121.311C72.9775 121.122 73.1074 120.897 73.1074 120.635C73.1074 120.422 73.0332 120.245 72.8847 120.102C72.7362 119.956 72.5082 119.847 72.2006 119.775L71.1824 119.537C70.623 119.404 70.212 119.199 69.9495 118.92C69.6896 118.639 69.5597 118.288 69.5597 117.866C69.5597 117.522 69.6565 117.217 69.8501 116.952C70.0463 116.686 70.3128 116.478 70.6495 116.327C70.9889 116.176 71.3734 116.1 71.8029 116.1C72.4074 116.1 72.8821 116.233 73.2268 116.498C73.5741 116.763 73.8207 117.113 73.9665 117.548ZM79.8181 117.548L78.9749 117.787C78.9219 117.646 78.8437 117.51 78.7403 117.377C78.6395 117.242 78.5016 117.131 78.3266 117.043C78.1516 116.956 77.9276 116.912 77.6545 116.912C77.2806 116.912 76.969 116.998 76.7198 117.17C76.4732 117.34 76.3499 117.556 76.3499 117.819C76.3499 118.052 76.4348 118.236 76.6045 118.371C76.7742 118.507 77.0393 118.619 77.3999 118.71L78.3067 118.932C78.8529 119.065 79.26 119.268 79.5278 119.541C79.7956 119.811 79.9295 120.16 79.9295 120.587C79.9295 120.937 79.8287 121.25 79.6272 121.525C79.4283 121.801 79.1499 122.019 78.792 122.178C78.434 122.337 78.0177 122.416 77.5431 122.416C76.92 122.416 76.4043 122.281 75.9959 122.011C75.5876 121.74 75.3291 121.345 75.2204 120.825L76.1113 120.603C76.1961 120.931 76.3565 121.178 76.5925 121.342C76.8312 121.507 77.1427 121.589 77.5272 121.589C77.9647 121.589 78.312 121.496 78.5692 121.311C78.8291 121.122 78.959 120.897 78.959 120.635C78.959 120.422 78.8848 120.245 78.7363 120.102C78.5878 119.956 78.3598 119.847 78.0522 119.775L77.034 119.537C76.4745 119.404 76.0636 119.199 75.8011 118.92C75.5412 118.639 75.4113 118.288 75.4113 117.866C75.4113 117.522 75.5081 117.217 75.7016 116.952C75.8978 116.686 76.1643 116.478 76.5011 116.327C76.8404 116.176 77.2249 116.1 77.6545 116.1C78.259 116.1 78.7336 116.233 79.0783 116.498C79.4257 116.763 79.6723 117.113 79.8181 117.548ZM84.4924 122.289V116.18H85.3992V117.103H85.4628C85.5742 116.8 85.7757 116.555 86.0674 116.367C86.3591 116.179 86.6878 116.085 87.0538 116.085C87.1227 116.085 87.2089 116.086 87.3123 116.088C87.4157 116.091 87.4939 116.095 87.5469 116.1V117.055C87.5151 117.047 87.4422 117.035 87.3282 117.019C87.2168 117.001 87.0988 116.991 86.9742 116.991C86.6772 116.991 86.4121 117.054 86.1788 117.178C85.9481 117.3 85.7651 117.47 85.6299 117.687C85.4973 117.902 85.431 118.147 85.431 118.423V122.289H84.4924ZM91.035 122.416C90.4464 122.416 89.9386 122.286 89.5117 122.027C89.0875 121.764 88.76 121.398 88.5293 120.929C88.3013 120.457 88.1873 119.908 88.1873 119.282C88.1873 118.656 88.3013 118.105 88.5293 117.628C88.76 117.148 89.0808 116.774 89.4918 116.506C89.9055 116.236 90.388 116.1 90.9396 116.1C91.2577 116.1 91.5719 116.153 91.8822 116.26C92.1924 116.366 92.4748 116.538 92.7293 116.777C92.9839 117.013 93.1867 117.325 93.3378 117.715C93.489 118.105 93.5646 118.585 93.5646 119.155V119.553H88.8555V118.741H92.61C92.61 118.397 92.5411 118.089 92.4032 117.819C92.268 117.548 92.0744 117.335 91.8225 117.178C91.5733 117.022 91.2789 116.944 90.9396 116.944C90.5657 116.944 90.2422 117.036 89.9691 117.222C89.6986 117.405 89.4905 117.644 89.3447 117.938C89.1988 118.232 89.1259 118.548 89.1259 118.885V119.425C89.1259 119.887 89.2055 120.278 89.3646 120.599C89.5263 120.917 89.7503 121.16 90.0367 121.327C90.3231 121.491 90.6558 121.573 91.035 121.573C91.2816 121.573 91.5043 121.539 91.7032 121.47C91.9047 121.398 92.0784 121.292 92.2242 121.152C92.37 121.008 92.4827 120.831 92.5623 120.619L93.4691 120.873C93.3736 121.181 93.2132 121.451 92.9878 121.685C92.7625 121.915 92.4841 122.096 92.1526 122.225C91.8212 122.353 91.4486 122.416 91.035 122.416ZM95.931 114.144V122.289H94.9924V114.144H95.931ZM100.212 122.416C99.6229 122.416 99.1152 122.286 98.6883 122.027C98.264 121.764 97.9366 121.398 97.7059 120.929C97.4779 120.457 97.3638 119.908 97.3638 119.282C97.3638 118.656 97.4779 118.105 97.7059 117.628C97.9366 117.148 98.2574 116.774 98.6684 116.506C99.082 116.236 99.5646 116.1 100.116 116.1C100.434 116.1 100.748 116.153 101.059 116.26C101.369 116.366 101.651 116.538 101.906 116.777C102.16 117.013 102.363 117.325 102.514 117.715C102.666 118.105 102.741 118.585 102.741 119.155V119.553H98.032V118.741H101.787C101.787 118.397 101.718 118.089 101.58 117.819C101.445 117.548 101.251 117.335 100.999 117.178C100.75 117.022 100.456 116.944 100.116 116.944C99.7422 116.944 99.4188 117.036 99.1457 117.222C98.8752 117.405 98.6671 117.644 98.5212 117.938C98.3754 118.232 98.3025 118.548 98.3025 118.885V119.425C98.3025 119.887 98.382 120.278 98.5411 120.599C98.7029 120.917 98.9269 121.16 99.2133 121.327C99.4996 121.491 99.8324 121.573 100.212 121.573C100.458 121.573 100.681 121.539 100.88 121.47C101.081 121.398 101.255 121.292 101.401 121.152C101.547 121.008 101.659 120.831 101.739 120.619L102.646 120.873C102.55 121.181 102.39 121.451 102.164 121.685C101.939 121.915 101.661 122.096 101.329 122.225C100.998 122.353 100.625 122.416 100.212 122.416ZM108.978 116.18L106.719 122.289H105.765L103.506 116.18H104.524L106.21 121.048H106.274L107.96 116.18H108.978ZM111.829 122.432C111.442 122.432 111.091 122.359 110.775 122.213C110.46 122.065 110.209 121.852 110.023 121.573C109.838 121.292 109.745 120.953 109.745 120.555C109.745 120.205 109.814 119.921 109.952 119.704C110.09 119.484 110.274 119.311 110.505 119.187C110.735 119.062 110.99 118.969 111.268 118.908C111.549 118.845 111.832 118.794 112.116 118.757C112.487 118.71 112.788 118.674 113.018 118.65C113.252 118.623 113.421 118.58 113.527 118.519C113.636 118.458 113.691 118.352 113.691 118.2V118.169C113.691 117.776 113.583 117.471 113.368 117.254C113.156 117.036 112.834 116.928 112.402 116.928C111.954 116.928 111.602 117.026 111.348 117.222C111.093 117.418 110.914 117.628 110.811 117.85L109.92 117.532C110.079 117.161 110.291 116.872 110.556 116.665C110.824 116.456 111.116 116.31 111.431 116.228C111.75 116.143 112.063 116.1 112.37 116.1C112.566 116.1 112.792 116.124 113.046 116.172C113.303 116.217 113.551 116.311 113.79 116.454C114.031 116.598 114.231 116.814 114.391 117.103C114.55 117.392 114.629 117.779 114.629 118.264V122.289H113.691V121.462H113.643C113.579 121.594 113.473 121.736 113.325 121.887C113.176 122.038 112.979 122.167 112.732 122.273C112.485 122.379 112.184 122.432 111.829 122.432ZM111.972 121.589C112.344 121.589 112.656 121.516 112.911 121.37C113.168 121.224 113.362 121.036 113.492 120.806C113.624 120.575 113.691 120.332 113.691 120.078V119.219C113.651 119.266 113.563 119.31 113.428 119.35C113.295 119.387 113.142 119.42 112.967 119.449C112.794 119.476 112.626 119.5 112.462 119.521C112.3 119.539 112.169 119.555 112.068 119.569C111.824 119.6 111.596 119.652 111.384 119.724C111.174 119.793 111.005 119.897 110.875 120.038C110.747 120.176 110.684 120.364 110.684 120.603C110.684 120.929 110.804 121.175 111.046 121.342C111.29 121.507 111.598 121.589 111.972 121.589ZM117.281 118.614V122.289H116.342V116.18H117.249V117.135H117.329C117.472 116.824 117.689 116.575 117.981 116.387C118.273 116.196 118.649 116.1 119.111 116.1C119.524 116.1 119.886 116.185 120.196 116.355C120.507 116.522 120.748 116.777 120.92 117.119C121.093 117.458 121.179 117.888 121.179 118.407V122.289H120.24V118.471C120.24 117.991 120.115 117.617 119.866 117.349C119.617 117.079 119.275 116.944 118.84 116.944C118.54 116.944 118.273 117.009 118.037 117.138C117.803 117.268 117.619 117.458 117.484 117.707C117.349 117.956 117.281 118.259 117.281 118.614ZM125.551 116.18V116.975H122.385V116.18H125.551ZM123.308 114.716H124.246V120.539C124.246 120.804 124.285 121.003 124.362 121.136C124.441 121.266 124.542 121.353 124.664 121.398C124.788 121.441 124.92 121.462 125.058 121.462C125.161 121.462 125.246 121.456 125.312 121.446C125.378 121.433 125.431 121.422 125.471 121.414L125.662 122.257C125.598 122.281 125.51 122.305 125.396 122.329C125.282 122.355 125.137 122.369 124.962 122.369C124.697 122.369 124.437 122.312 124.183 122.198C123.931 122.084 123.721 121.91 123.554 121.677C123.39 121.443 123.308 121.149 123.308 120.794V114.716ZM130.113 122.289V116.18H131.051V122.289H130.113ZM130.59 115.162C130.407 115.162 130.249 115.099 130.117 114.975C129.987 114.85 129.922 114.7 129.922 114.525C129.922 114.35 129.987 114.201 130.117 114.076C130.249 113.951 130.407 113.889 130.59 113.889C130.773 113.889 130.929 113.951 131.059 114.076C131.192 114.201 131.258 114.35 131.258 114.525C131.258 114.7 131.192 114.85 131.059 114.975C130.929 115.099 130.773 115.162 130.59 115.162ZM133.709 118.614V122.289H132.771V116.18H133.677V117.135H133.757C133.9 116.824 134.117 116.575 134.409 116.387C134.701 116.196 135.077 116.1 135.539 116.1C135.952 116.1 136.314 116.185 136.624 116.355C136.935 116.522 137.176 116.777 137.348 117.119C137.521 117.458 137.607 117.888 137.607 118.407V122.289H136.668V118.471C136.668 117.991 136.544 117.617 136.294 117.349C136.045 117.079 135.703 116.944 135.268 116.944C134.969 116.944 134.701 117.009 134.465 117.138C134.231 117.268 134.047 117.458 133.912 117.707C133.777 117.956 133.709 118.259 133.709 118.614ZM143.649 117.548L142.806 117.787C142.753 117.646 142.675 117.51 142.572 117.377C142.471 117.242 142.333 117.131 142.158 117.043C141.983 116.956 141.759 116.912 141.486 116.912C141.112 116.912 140.8 116.998 140.551 117.17C140.304 117.34 140.181 117.556 140.181 117.819C140.181 118.052 140.266 118.236 140.436 118.371C140.605 118.507 140.871 118.619 141.231 118.71L142.138 118.932C142.684 119.065 143.091 119.268 143.359 119.541C143.627 119.811 143.761 120.16 143.761 120.587C143.761 120.937 143.66 121.25 143.458 121.525C143.26 121.801 142.981 122.019 142.623 122.178C142.265 122.337 141.849 122.416 141.374 122.416C140.751 122.416 140.236 122.281 139.827 122.011C139.419 121.74 139.16 121.345 139.052 120.825L139.943 120.603C140.027 120.931 140.188 121.178 140.424 121.342C140.662 121.507 140.974 121.589 141.358 121.589C141.796 121.589 142.143 121.496 142.4 121.311C142.66 121.122 142.79 120.897 142.79 120.635C142.79 120.422 142.716 120.245 142.568 120.102C142.419 119.956 142.191 119.847 141.883 119.775L140.865 119.537C140.306 119.404 139.895 119.199 139.632 118.92C139.372 118.639 139.243 118.288 139.243 117.866C139.243 117.522 139.339 117.217 139.533 116.952C139.729 116.686 139.996 116.478 140.332 116.327C140.672 116.176 141.056 116.1 141.486 116.1C142.09 116.1 142.565 116.233 142.91 116.498C143.257 116.763 143.504 117.113 143.649 117.548ZM145.174 122.289V116.18H146.112V122.289H145.174ZM145.651 115.162C145.468 115.162 145.31 115.099 145.178 114.975C145.048 114.85 144.983 114.7 144.983 114.525C144.983 114.35 145.048 114.201 145.178 114.076C145.31 113.951 145.468 113.889 145.651 113.889C145.834 113.889 145.99 113.951 146.12 114.076C146.253 114.201 146.319 114.35 146.319 114.525C146.319 114.7 146.253 114.85 146.12 114.975C145.99 115.099 145.834 115.162 145.651 115.162ZM150.297 124.707C149.844 124.707 149.454 124.649 149.128 124.532C148.802 124.418 148.53 124.267 148.313 124.079C148.098 123.893 147.927 123.694 147.8 123.482L148.547 122.957C148.632 123.069 148.74 123.196 148.87 123.339C148.999 123.485 149.177 123.611 149.402 123.717C149.631 123.826 149.929 123.88 150.297 123.88C150.791 123.88 151.198 123.761 151.518 123.522C151.839 123.283 152 122.91 152 122.4V121.16H151.92C151.851 121.271 151.753 121.409 151.626 121.573C151.501 121.735 151.321 121.879 151.085 122.007C150.852 122.131 150.536 122.194 150.138 122.194C149.645 122.194 149.202 122.077 148.81 121.844C148.42 121.61 148.111 121.271 147.883 120.825C147.658 120.38 147.545 119.839 147.545 119.203C147.545 118.577 147.655 118.032 147.875 117.568C148.095 117.101 148.402 116.741 148.794 116.486C149.186 116.229 149.64 116.1 150.154 116.1C150.552 116.1 150.867 116.167 151.101 116.299C151.337 116.429 151.517 116.578 151.642 116.745C151.769 116.909 151.867 117.044 151.936 117.15H152.031V116.18H152.938V122.464C152.938 122.989 152.819 123.416 152.58 123.745C152.344 124.076 152.026 124.319 151.626 124.473C151.228 124.629 150.785 124.707 150.297 124.707ZM150.266 121.35C150.642 121.35 150.96 121.264 151.22 121.092C151.48 120.92 151.677 120.672 151.813 120.348C151.948 120.025 152.016 119.638 152.016 119.187C152.016 118.747 151.949 118.358 151.817 118.021C151.684 117.685 151.488 117.421 151.228 117.23C150.968 117.039 150.647 116.944 150.266 116.944C149.868 116.944 149.536 117.044 149.271 117.246C149.009 117.447 148.811 117.718 148.679 118.057C148.549 118.397 148.484 118.773 148.484 119.187C148.484 119.611 148.55 119.986 148.683 120.312C148.818 120.636 149.017 120.89 149.279 121.076C149.544 121.259 149.873 121.35 150.266 121.35ZM155.595 118.614V122.289H154.656V114.144H155.595V117.135H155.675C155.818 116.819 156.033 116.568 156.319 116.383C156.608 116.195 156.992 116.1 157.472 116.1C157.889 116.1 158.253 116.184 158.566 116.351C158.879 116.515 159.122 116.769 159.294 117.111C159.469 117.45 159.556 117.882 159.556 118.407V122.289H158.618V118.471C158.618 117.986 158.492 117.61 158.24 117.345C157.991 117.078 157.645 116.944 157.202 116.944C156.894 116.944 156.619 117.009 156.375 117.138C156.133 117.268 155.942 117.458 155.802 117.707C155.664 117.956 155.595 118.259 155.595 118.614ZM163.93 116.18V116.975H160.765V116.18H163.93ZM161.687 114.716H162.626V120.539C162.626 120.804 162.664 121.003 162.741 121.136C162.821 121.266 162.922 121.353 163.044 121.398C163.168 121.441 163.299 121.462 163.437 121.462C163.541 121.462 163.626 121.456 163.692 121.446C163.758 121.433 163.811 121.422 163.851 121.414L164.042 122.257C163.978 122.281 163.889 122.305 163.775 122.329C163.661 122.355 163.517 122.369 163.342 122.369C163.077 122.369 162.817 122.312 162.562 122.198C162.31 122.084 162.101 121.91 161.934 121.677C161.769 121.443 161.687 121.149 161.687 120.794V114.716ZM169.56 117.548L168.717 117.787C168.664 117.646 168.586 117.51 168.482 117.377C168.382 117.242 168.244 117.131 168.069 117.043C167.894 116.956 167.67 116.912 167.397 116.912C167.023 116.912 166.711 116.998 166.462 117.17C166.215 117.34 166.092 117.556 166.092 117.819C166.092 118.052 166.177 118.236 166.347 118.371C166.516 118.507 166.782 118.619 167.142 118.71L168.049 118.932C168.595 119.065 169.002 119.268 169.27 119.541C169.538 119.811 169.672 120.16 169.672 120.587C169.672 120.937 169.571 121.25 169.369 121.525C169.171 121.801 168.892 122.019 168.534 122.178C168.176 122.337 167.76 122.416 167.285 122.416C166.662 122.416 166.146 122.281 165.738 122.011C165.33 121.74 165.071 121.345 164.963 120.825L165.853 120.603C165.938 120.931 166.099 121.178 166.335 121.342C166.573 121.507 166.885 121.589 167.269 121.589C167.707 121.589 168.054 121.496 168.311 121.311C168.571 121.122 168.701 120.897 168.701 120.635C168.701 120.422 168.627 120.245 168.478 120.102C168.33 119.956 168.102 119.847 167.794 119.775L166.776 119.537C166.217 119.404 165.806 119.199 165.543 118.92C165.283 118.639 165.153 118.288 165.153 117.866C165.153 117.522 165.25 117.217 165.444 116.952C165.64 116.686 165.907 116.478 166.243 116.327C166.583 116.176 166.967 116.1 167.397 116.1C168.001 116.1 168.476 116.233 168.821 116.498C169.168 116.763 169.414 117.113 169.56 117.548ZM176.032 122.432C175.645 122.432 175.294 122.359 174.978 122.213C174.663 122.065 174.412 121.852 174.227 121.573C174.041 121.292 173.948 120.953 173.948 120.555C173.948 120.205 174.017 119.921 174.155 119.704C174.293 119.484 174.477 119.311 174.708 119.187C174.939 119.062 175.193 118.969 175.472 118.908C175.753 118.845 176.035 118.794 176.319 118.757C176.69 118.71 176.991 118.674 177.222 118.65C177.455 118.623 177.625 118.58 177.731 118.519C177.839 118.458 177.894 118.352 177.894 118.2V118.169C177.894 117.776 177.786 117.471 177.572 117.254C177.359 117.036 177.037 116.928 176.605 116.928C176.157 116.928 175.806 117.026 175.551 117.222C175.297 117.418 175.118 117.628 175.014 117.85L174.123 117.532C174.282 117.161 174.494 116.872 174.76 116.665C175.027 116.456 175.319 116.31 175.635 116.228C175.953 116.143 176.266 116.1 176.573 116.1C176.769 116.1 176.995 116.124 177.249 116.172C177.507 116.217 177.754 116.311 177.993 116.454C178.234 116.598 178.435 116.814 178.594 117.103C178.753 117.392 178.832 117.779 178.832 118.264V122.289H177.894V121.462H177.846C177.782 121.594 177.676 121.736 177.528 121.887C177.379 122.038 177.182 122.167 176.935 122.273C176.689 122.379 176.388 122.432 176.032 122.432ZM176.175 121.589C176.547 121.589 176.86 121.516 177.114 121.37C177.371 121.224 177.565 121.036 177.695 120.806C177.827 120.575 177.894 120.332 177.894 120.078V119.219C177.854 119.266 177.766 119.31 177.631 119.35C177.499 119.387 177.345 119.42 177.17 119.449C176.997 119.476 176.829 119.5 176.665 119.521C176.503 119.539 176.372 119.555 176.271 119.569C176.027 119.6 175.799 119.652 175.587 119.724C175.377 119.793 175.208 119.897 175.078 120.038C174.95 120.176 174.887 120.364 174.887 120.603C174.887 120.929 175.007 121.175 175.249 121.342C175.493 121.507 175.802 121.589 176.175 121.589ZM181.484 118.614V122.289H180.546V116.18H181.452V117.135H181.532C181.675 116.824 181.892 116.575 182.184 116.387C182.476 116.196 182.852 116.1 183.314 116.1C183.727 116.1 184.089 116.185 184.399 116.355C184.71 116.522 184.951 116.777 185.123 117.119C185.296 117.458 185.382 117.888 185.382 118.407V122.289H184.443V118.471C184.443 117.991 184.319 117.617 184.069 117.349C183.82 117.079 183.478 116.944 183.043 116.944C182.744 116.944 182.476 117.009 182.24 117.138C182.006 117.268 181.822 117.458 181.687 117.707C181.552 117.956 181.484 118.259 181.484 118.614ZM189.404 122.416C188.895 122.416 188.445 122.288 188.056 122.031C187.666 121.771 187.361 121.405 187.141 120.933C186.921 120.458 186.811 119.897 186.811 119.25C186.811 118.609 186.921 118.052 187.141 117.58C187.361 117.108 187.667 116.743 188.06 116.486C188.452 116.229 188.905 116.1 189.42 116.1C189.818 116.1 190.132 116.167 190.362 116.299C190.596 116.429 190.773 116.578 190.895 116.745C191.02 116.909 191.117 117.044 191.186 117.15H191.265V114.144H192.204V122.289H191.297V121.35H191.186C191.117 121.462 191.019 121.602 190.891 121.772C190.764 121.939 190.582 122.089 190.347 122.221C190.111 122.351 189.796 122.416 189.404 122.416ZM189.531 121.573C189.908 121.573 190.226 121.475 190.486 121.279C190.746 121.08 190.943 120.806 191.078 120.456C191.214 120.103 191.281 119.696 191.281 119.235C191.281 118.778 191.215 118.379 191.082 118.037C190.95 117.693 190.754 117.425 190.494 117.234C190.234 117.04 189.913 116.944 189.531 116.944C189.133 116.944 188.802 117.046 188.537 117.25C188.274 117.451 188.077 117.726 187.944 118.073C187.814 118.418 187.749 118.805 187.749 119.235C187.749 119.669 187.816 120.064 187.948 120.42C188.083 120.772 188.282 121.053 188.545 121.263C188.81 121.47 189.139 121.573 189.531 121.573ZM197.203 122.289V116.18H198.142V122.289H197.203ZM197.681 115.162C197.498 115.162 197.34 115.099 197.207 114.975C197.077 114.85 197.012 114.7 197.012 114.525C197.012 114.35 197.077 114.201 197.207 114.076C197.34 113.951 197.498 113.889 197.681 113.889C197.864 113.889 198.02 113.951 198.15 114.076C198.282 114.201 198.349 114.35 198.349 114.525C198.349 114.7 198.282 114.85 198.15 114.975C198.02 115.099 197.864 115.162 197.681 115.162ZM200.8 118.614V122.289H199.861V116.18H200.768V117.135H200.847C200.991 116.824 201.208 116.575 201.5 116.387C201.791 116.196 202.168 116.1 202.629 116.1C203.043 116.1 203.405 116.185 203.715 116.355C204.025 116.522 204.267 116.777 204.439 117.119C204.611 117.458 204.697 117.888 204.697 118.407V122.289H203.759V118.471C203.759 117.991 203.634 117.617 203.385 117.349C203.136 117.079 202.794 116.944 202.359 116.944C202.059 116.944 201.791 117.009 201.555 117.138C201.322 117.268 201.138 117.458 201.003 117.707C200.867 117.956 200.8 118.259 200.8 118.614ZM209.133 116.18V116.975H205.84V116.18H209.133ZM206.826 122.289V115.337C206.826 114.987 206.909 114.695 207.073 114.462C207.237 114.228 207.451 114.053 207.713 113.937C207.976 113.82 208.253 113.762 208.545 113.762C208.775 113.762 208.963 113.78 209.109 113.817C209.255 113.855 209.364 113.889 209.435 113.921L209.165 114.732C209.117 114.716 209.051 114.696 208.966 114.673C208.884 114.649 208.775 114.637 208.64 114.637C208.33 114.637 208.106 114.715 207.968 114.871C207.833 115.028 207.765 115.257 207.765 115.56V122.289H206.826ZM212.679 122.416C212.127 122.416 211.643 122.285 211.227 122.023C210.814 121.76 210.49 121.393 210.257 120.921C210.026 120.449 209.911 119.897 209.911 119.266C209.911 118.63 210.026 118.074 210.257 117.6C210.49 117.125 210.814 116.757 211.227 116.494C211.643 116.232 212.127 116.1 212.679 116.1C213.23 116.1 213.713 116.232 214.127 116.494C214.543 116.757 214.866 117.125 215.097 117.6C215.33 118.074 215.447 118.63 215.447 119.266C215.447 119.897 215.33 120.449 215.097 120.921C214.866 121.393 214.543 121.76 214.127 122.023C213.713 122.285 213.23 122.416 212.679 122.416ZM212.679 121.573C213.098 121.573 213.443 121.466 213.713 121.251C213.983 121.036 214.184 120.754 214.314 120.404C214.443 120.054 214.508 119.675 214.508 119.266C214.508 118.858 214.443 118.478 214.314 118.125C214.184 117.772 213.983 117.487 213.713 117.27C213.443 117.052 213.098 116.944 212.679 116.944C212.26 116.944 211.915 117.052 211.645 117.27C211.374 117.487 211.174 117.772 211.044 118.125C210.914 118.478 210.849 118.858 210.849 119.266C210.849 119.675 210.914 120.054 211.044 120.404C211.174 120.754 211.374 121.036 211.645 121.251C211.915 121.466 212.26 121.573 212.679 121.573ZM216.88 122.289V116.18H217.787V117.103H217.85C217.962 116.8 218.163 116.555 218.455 116.367C218.747 116.179 219.075 116.085 219.441 116.085C219.51 116.085 219.596 116.086 219.7 116.088C219.803 116.091 219.881 116.095 219.934 116.1V117.055C219.903 117.047 219.83 117.035 219.716 117.019C219.604 117.001 219.486 116.991 219.362 116.991C219.065 116.991 218.8 117.054 218.566 117.178C218.336 117.3 218.153 117.47 218.017 117.687C217.885 117.902 217.819 118.147 217.819 118.423V122.289H216.88ZM221.047 122.289V116.18H221.954V117.135H222.033C222.161 116.808 222.366 116.555 222.65 116.375C222.934 116.192 223.274 116.1 223.672 116.1C224.075 116.1 224.411 116.192 224.678 116.375C224.949 116.555 225.16 116.808 225.311 117.135H225.374C225.531 116.819 225.765 116.568 226.078 116.383C226.391 116.195 226.766 116.1 227.204 116.1C227.75 116.1 228.197 116.271 228.544 116.613C228.892 116.953 229.065 117.482 229.065 118.2V122.289H228.127V118.2C228.127 117.75 228.003 117.428 227.757 117.234C227.51 117.04 227.22 116.944 226.886 116.944C226.456 116.944 226.123 117.074 225.887 117.333C225.651 117.591 225.533 117.917 225.533 118.312V122.289H224.579V118.105C224.579 117.758 224.466 117.478 224.241 117.266C224.015 117.051 223.725 116.944 223.37 116.944C223.126 116.944 222.898 117.009 222.686 117.138C222.476 117.268 222.307 117.449 222.177 117.679C222.049 117.907 221.986 118.171 221.986 118.471V122.289H221.047ZM232.579 122.432C232.192 122.432 231.841 122.359 231.525 122.213C231.21 122.065 230.959 121.852 230.773 121.573C230.588 121.292 230.495 120.953 230.495 120.555C230.495 120.205 230.564 119.921 230.702 119.704C230.84 119.484 231.024 119.311 231.255 119.187C231.485 119.062 231.74 118.969 232.018 118.908C232.299 118.845 232.582 118.794 232.866 118.757C233.237 118.71 233.538 118.674 233.768 118.65C234.002 118.623 234.171 118.58 234.277 118.519C234.386 118.458 234.441 118.352 234.441 118.2V118.169C234.441 117.776 234.333 117.471 234.118 117.254C233.906 117.036 233.584 116.928 233.152 116.928C232.704 116.928 232.352 117.026 232.098 117.222C231.843 117.418 231.664 117.628 231.561 117.85L230.67 117.532C230.829 117.161 231.041 116.872 231.306 116.665C231.574 116.456 231.866 116.31 232.181 116.228C232.5 116.143 232.813 116.1 233.12 116.1C233.316 116.1 233.542 116.124 233.796 116.172C234.053 116.217 234.301 116.311 234.54 116.454C234.781 116.598 234.981 116.814 235.141 117.103C235.3 117.392 235.379 117.779 235.379 118.264V122.289H234.441V121.462H234.393C234.329 121.594 234.223 121.736 234.075 121.887C233.926 122.038 233.729 122.167 233.482 122.273C233.235 122.379 232.934 122.432 232.579 122.432ZM232.722 121.589C233.094 121.589 233.406 121.516 233.661 121.37C233.918 121.224 234.112 121.036 234.242 120.806C234.374 120.575 234.441 120.332 234.441 120.078V119.219C234.401 119.266 234.313 119.31 234.178 119.35C234.045 119.387 233.892 119.42 233.717 119.449C233.544 119.476 233.376 119.5 233.212 119.521C233.05 119.539 232.919 119.555 232.818 119.569C232.574 119.6 232.346 119.652 232.134 119.724C231.924 119.793 231.755 119.897 231.625 120.038C231.497 120.176 231.434 120.364 231.434 120.603C231.434 120.929 231.554 121.175 231.796 121.342C232.04 121.507 232.348 121.589 232.722 121.589ZM239.749 116.18V116.975H236.583V116.18H239.749ZM237.506 114.716H238.445V120.539C238.445 120.804 238.483 121.003 238.56 121.136C238.64 121.266 238.74 121.353 238.862 121.398C238.987 121.441 239.118 121.462 239.256 121.462C239.359 121.462 239.444 121.456 239.511 121.446C239.577 121.433 239.63 121.422 239.67 121.414L239.861 122.257C239.797 122.281 239.708 122.305 239.594 122.329C239.48 122.355 239.336 122.369 239.161 122.369C238.895 122.369 238.636 122.312 238.381 122.198C238.129 122.084 237.92 121.91 237.753 121.677C237.588 121.443 237.506 121.149 237.506 120.794V114.716ZM241.161 122.289V116.18H242.1V122.289H241.161ZM241.638 115.162C241.455 115.162 241.298 115.099 241.165 114.975C241.035 114.85 240.97 114.7 240.97 114.525C240.97 114.35 241.035 114.201 241.165 114.076C241.298 113.951 241.455 113.889 241.638 113.889C241.821 113.889 241.978 113.951 242.108 114.076C242.24 114.201 242.307 114.35 242.307 114.525C242.307 114.7 242.24 114.85 242.108 114.975C241.978 115.099 241.821 115.162 241.638 115.162ZM246.301 122.416C245.749 122.416 245.265 122.285 244.849 122.023C244.435 121.76 244.112 121.393 243.879 120.921C243.648 120.449 243.533 119.897 243.533 119.266C243.533 118.63 243.648 118.074 243.879 117.6C244.112 117.125 244.435 116.757 244.849 116.494C245.265 116.232 245.749 116.1 246.301 116.1C246.852 116.1 247.335 116.232 247.748 116.494C248.165 116.757 248.488 117.125 248.719 117.6C248.952 118.074 249.069 118.63 249.069 119.266C249.069 119.897 248.952 120.449 248.719 120.921C248.488 121.393 248.165 121.76 247.748 122.023C247.335 122.285 246.852 122.416 246.301 122.416ZM246.301 121.573C246.72 121.573 247.064 121.466 247.335 121.251C247.605 121.036 247.805 120.754 247.935 120.404C248.065 120.054 248.13 119.675 248.13 119.266C248.13 118.858 248.065 118.478 247.935 118.125C247.805 117.772 247.605 117.487 247.335 117.27C247.064 117.052 246.72 116.944 246.301 116.944C245.882 116.944 245.537 117.052 245.267 117.27C244.996 117.487 244.796 117.772 244.666 118.125C244.536 118.478 244.471 118.858 244.471 119.266C244.471 119.675 244.536 120.054 244.666 120.404C244.796 120.754 244.996 121.036 245.267 121.251C245.537 121.466 245.882 121.573 246.301 121.573ZM251.44 118.614V122.289H250.502V116.18H251.409V117.135H251.488C251.631 116.824 251.849 116.575 252.14 116.387C252.432 116.196 252.809 116.1 253.27 116.1C253.684 116.1 254.046 116.185 254.356 116.355C254.666 116.522 254.907 116.777 255.08 117.119C255.252 117.458 255.338 117.888 255.338 118.407V122.289H254.399V118.471C254.399 117.991 254.275 117.617 254.026 117.349C253.776 117.079 253.434 116.944 252.999 116.944C252.7 116.944 252.432 117.009 252.196 117.138C251.963 117.268 251.778 117.458 251.643 117.707C251.508 117.956 251.44 118.259 251.44 118.614ZM260.203 122.289V116.18H261.142V122.289H260.203ZM260.681 115.162C260.498 115.162 260.34 115.099 260.207 114.975C260.077 114.85 260.012 114.7 260.012 114.525C260.012 114.35 260.077 114.201 260.207 114.076C260.34 113.951 260.498 113.889 260.681 113.889C260.864 113.889 261.02 113.951 261.15 114.076C261.282 114.201 261.349 114.35 261.349 114.525C261.349 114.7 261.282 114.85 261.15 114.975C261.02 115.099 260.864 115.162 260.681 115.162ZM263.8 118.614V122.289H262.861V116.18H263.768V117.135H263.847C263.991 116.824 264.208 116.575 264.5 116.387C264.791 116.196 265.168 116.1 265.629 116.1C266.043 116.1 266.405 116.185 266.715 116.355C267.025 116.522 267.267 116.777 267.439 117.119C267.611 117.458 267.697 117.888 267.697 118.407V122.289H266.759V118.471C266.759 117.991 266.634 117.617 266.385 117.349C266.136 117.079 265.794 116.944 265.359 116.944C265.059 116.944 264.791 117.009 264.555 117.138C264.322 117.268 264.138 117.458 264.003 117.707C263.867 117.956 263.8 118.259 263.8 118.614ZM273.74 117.548L272.897 117.787C272.844 117.646 272.766 117.51 272.662 117.377C272.561 117.242 272.423 117.131 272.248 117.043C272.073 116.956 271.849 116.912 271.576 116.912C271.202 116.912 270.891 116.998 270.642 117.17C270.395 117.34 270.272 117.556 270.272 117.819C270.272 118.052 270.357 118.236 270.526 118.371C270.696 118.507 270.961 118.619 271.322 118.71L272.229 118.932C272.775 119.065 273.182 119.268 273.45 119.541C273.717 119.811 273.851 120.16 273.851 120.587C273.851 120.937 273.751 121.25 273.549 121.525C273.35 121.801 273.072 122.019 272.714 122.178C272.356 122.337 271.94 122.416 271.465 122.416C270.842 122.416 270.326 122.281 269.918 122.011C269.509 121.74 269.251 121.345 269.142 120.825L270.033 120.603C270.118 120.931 270.278 121.178 270.514 121.342C270.753 121.507 271.065 121.589 271.449 121.589C271.887 121.589 272.234 121.496 272.491 121.311C272.751 121.122 272.881 120.897 272.881 120.635C272.881 120.422 272.807 120.245 272.658 120.102C272.51 119.956 272.282 119.847 271.974 119.775L270.956 119.537C270.396 119.404 269.985 119.199 269.723 118.92C269.463 118.639 269.333 118.288 269.333 117.866C269.333 117.522 269.43 117.217 269.623 116.952C269.82 116.686 270.086 116.478 270.423 116.327C270.762 116.176 271.147 116.1 271.576 116.1C272.181 116.1 272.655 116.233 273 116.498C273.348 116.763 273.594 117.113 273.74 117.548ZM277.921 116.18V116.975H274.755V116.18H277.921ZM275.678 114.716H276.617V120.539C276.617 120.804 276.655 121.003 276.732 121.136C276.811 121.266 276.912 121.353 277.034 121.398C277.159 121.441 277.29 121.462 277.428 121.462C277.531 121.462 277.616 121.456 277.682 121.446C277.749 121.433 277.802 121.422 277.842 121.414L278.032 122.257C277.969 122.281 277.88 122.305 277.766 122.329C277.652 122.355 277.507 122.369 277.332 122.369C277.067 122.369 276.807 122.312 276.553 122.198C276.301 122.084 276.092 121.91 275.924 121.677C275.76 121.443 275.678 121.149 275.678 120.794V114.716ZM281.131 122.432C280.744 122.432 280.392 122.359 280.077 122.213C279.761 122.065 279.511 121.852 279.325 121.573C279.139 121.292 279.047 120.953 279.047 120.555C279.047 120.205 279.116 119.921 279.253 119.704C279.391 119.484 279.576 119.311 279.806 119.187C280.037 119.062 280.292 118.969 280.57 118.908C280.851 118.845 281.133 118.794 281.417 118.757C281.788 118.71 282.089 118.674 282.32 118.65C282.553 118.623 282.723 118.58 282.829 118.519C282.938 118.458 282.992 118.352 282.992 118.2V118.169C282.992 117.776 282.885 117.471 282.67 117.254C282.458 117.036 282.136 116.928 281.703 116.928C281.255 116.928 280.904 117.026 280.649 117.222C280.395 117.418 280.216 117.628 280.113 117.85L279.222 117.532C279.381 117.161 279.593 116.872 279.858 116.665C280.126 116.456 280.417 116.31 280.733 116.228C281.051 116.143 281.364 116.1 281.672 116.1C281.868 116.1 282.093 116.124 282.348 116.172C282.605 116.217 282.853 116.311 283.092 116.454C283.333 116.598 283.533 116.814 283.692 117.103C283.851 117.392 283.931 117.779 283.931 118.264V122.289H282.992V121.462H282.944C282.881 121.594 282.775 121.736 282.626 121.887C282.478 122.038 282.28 122.167 282.034 122.273C281.787 122.379 281.486 122.432 281.131 122.432ZM281.274 121.589C281.645 121.589 281.958 121.516 282.213 121.37C282.47 121.224 282.663 121.036 282.793 120.806C282.926 120.575 282.992 120.332 282.992 120.078V119.219C282.952 119.266 282.865 119.31 282.73 119.35C282.597 119.387 282.443 119.42 282.268 119.449C282.096 119.476 281.928 119.5 281.763 119.521C281.601 119.539 281.47 119.555 281.369 119.569C281.125 119.6 280.897 119.652 280.685 119.724C280.476 119.793 280.306 119.897 280.176 120.038C280.049 120.176 279.985 120.364 279.985 120.603C279.985 120.929 280.106 121.175 280.347 121.342C280.591 121.507 280.9 121.589 281.274 121.589ZM286.583 118.614V122.289H285.644V116.18H286.551V117.135H286.63C286.773 116.824 286.991 116.575 287.283 116.387C287.574 116.196 287.951 116.1 288.412 116.1C288.826 116.1 289.188 116.185 289.498 116.355C289.808 116.522 290.049 116.777 290.222 117.119C290.394 117.458 290.48 117.888 290.48 118.407V122.289H289.542V118.471C289.542 117.991 289.417 117.617 289.168 117.349C288.919 117.079 288.577 116.944 288.142 116.944C287.842 116.944 287.574 117.009 287.338 117.138C287.105 117.268 286.921 117.458 286.785 117.707C286.65 117.956 286.583 118.259 286.583 118.614ZM294.852 116.18V116.975H291.686V116.18H294.852ZM292.609 114.716H293.548V120.539C293.548 120.804 293.586 121.003 293.663 121.136C293.743 121.266 293.843 121.353 293.965 121.398C294.09 121.441 294.221 121.462 294.359 121.462C294.463 121.462 294.547 121.456 294.614 121.446C294.68 121.433 294.733 121.422 294.773 121.414L294.964 122.257C294.9 122.281 294.811 122.305 294.697 122.329C294.583 122.355 294.439 122.369 294.264 122.369C293.999 122.369 293.739 122.312 293.484 122.198C293.232 122.084 293.023 121.91 292.856 121.677C292.691 121.443 292.609 121.149 292.609 120.794V114.716ZM297.334 114.144V122.289H296.396V114.144H297.334ZM299.658 124.58C299.499 124.58 299.357 124.567 299.232 124.54C299.108 124.516 299.022 124.492 298.974 124.469L299.212 123.641C299.44 123.7 299.642 123.721 299.817 123.705C299.992 123.689 300.147 123.611 300.282 123.47C300.42 123.332 300.546 123.108 300.66 122.798L300.835 122.321L298.576 116.18H299.594L301.281 121.048H301.344L303.031 116.18H304.049L301.456 123.18C301.339 123.496 301.194 123.757 301.022 123.963C300.85 124.173 300.65 124.328 300.422 124.429C300.196 124.53 299.942 124.58 299.658 124.58ZM305.589 122.353C305.393 122.353 305.224 122.282 305.084 122.142C304.943 122.001 304.873 121.833 304.873 121.637C304.873 121.441 304.943 121.272 305.084 121.132C305.224 120.991 305.393 120.921 305.589 120.921C305.785 120.921 305.954 120.991 306.094 121.132C306.235 121.272 306.305 121.441 306.305 121.637C306.305 121.767 306.272 121.886 306.205 121.995C306.142 122.103 306.056 122.191 305.947 122.257C305.841 122.321 305.722 122.353 305.589 122.353Z" fill="#0D111A"/>
<path fill-rule="evenodd" clip-rule="evenodd" d="M28.5015 93.7383C27.8315 93.7383 27.1715 93.9004 26.5778 94.211C25.9841 94.5215 25.4744 94.9711 25.0923 95.5215C24.7101 96.0718 24.4669 96.7065 24.3834 97.3713C24.2999 98.0361 24.3786 98.7112 24.6128 99.3389C24.8469 99.9667 25.2295 100.528 25.728 100.976C26.2264 101.424 26.8259 101.744 27.4751 101.91C28.1243 102.076 28.8039 102.082 29.456 101.928C30.108 101.773 30.713 101.464 31.2194 101.025L31.6978 101.504C31.6186 101.67 31.5928 101.856 31.6239 102.038C31.655 102.219 31.7415 102.386 31.8716 102.516L33.7214 104.366C33.8035 104.451 33.9016 104.519 34.0102 104.565C34.1187 104.612 34.2354 104.636 34.3535 104.637C34.4716 104.638 34.5887 104.616 34.6979 104.571C34.8072 104.526 34.9065 104.46 34.9899 104.376C35.0734 104.293 35.1394 104.193 35.1841 104.084C35.2287 103.975 35.2512 103.858 35.2501 103.74C35.249 103.622 35.2244 103.505 35.1778 103.396C35.1311 103.288 35.0633 103.19 34.9783 103.108L33.1291 101.258C32.9991 101.128 32.8319 101.041 32.6507 101.01C32.4694 100.979 32.283 101.005 32.117 101.084L31.6385 100.606C32.1596 100.005 32.4968 99.2666 32.61 98.4791C32.7232 97.6915 32.6077 96.888 32.2771 96.1643C31.9465 95.4405 31.4149 94.8271 30.7455 94.3969C30.0761 93.9668 29.2972 93.7382 28.5015 93.7383ZM24.9442 97.8886C24.9442 97.4214 25.0362 96.9588 25.2149 96.5272C25.3937 96.0956 25.6558 95.7034 25.9861 95.3731C26.3164 95.0428 26.7086 94.7807 27.1402 94.602C27.5718 94.4232 28.0344 94.3312 28.5015 94.3312C28.9687 94.3312 29.4313 94.4232 29.8629 94.602C30.2945 94.7807 30.6866 95.0428 31.017 95.3731C31.3473 95.7034 31.6093 96.0956 31.7881 96.5272C31.9669 96.9588 32.0589 97.4214 32.0589 97.8886C32.0589 98.832 31.6841 99.7369 31.017 100.404C30.3498 101.071 29.445 101.446 28.5015 101.446C27.5581 101.446 26.6532 101.071 25.9861 100.404C25.3189 99.7369 24.9442 98.832 24.9442 97.8886ZM34.5597 103.527L32.7099 101.677C32.6823 101.65 32.6496 101.628 32.6136 101.613C32.5776 101.598 32.5391 101.59 32.5001 101.59C32.4612 101.59 32.4226 101.598 32.3866 101.613C32.3506 101.628 32.318 101.65 32.2904 101.677C32.2629 101.705 32.2411 101.738 32.2262 101.774C32.2113 101.81 32.2037 101.848 32.2037 101.887C32.2037 101.926 32.2114 101.965 32.2264 102.001C32.2413 102.037 32.2632 102.069 32.2907 102.097L34.1406 103.947C34.1681 103.974 34.2008 103.996 34.2368 104.011C34.2728 104.026 34.3114 104.034 34.3504 104.033C34.3893 104.033 34.4279 104.026 34.4639 104.011C34.4998 103.996 34.5325 103.974 34.56 103.946C34.5876 103.919 34.6094 103.886 34.6243 103.85C34.6392 103.814 34.6468 103.776 34.6468 103.737C34.6467 103.698 34.639 103.659 34.6241 103.623C34.6092 103.587 34.5873 103.555 34.5597 103.527Z" fill="#0D111A" stroke="#0D111A" stroke-width="0.345574"/>
</svg>
