<svg width="317" height="267" viewBox="0 0 317 267" fill="none" xmlns="http://www.w3.org/2000/svg">
<rect x="20.918" y="0.5" width="274.594" height="259" rx="10.1123" fill="#F9F9F9"/>
<rect x="20.918" y="0.5" width="274.594" height="259" rx="10.1123" stroke="#EEEEF0"/>
<path d="M33.1328 46.79H31.3797L34.5716 37.7234H36.5992L39.7955 46.79H38.0424L35.6208 39.5828H35.55L33.1328 46.79ZM33.1903 43.2351H37.9716V44.5544H33.1903V43.2351ZM43.2353 46.9096C42.7011 46.9096 42.223 46.7723 41.801 46.4979C41.3789 46.2234 41.0454 45.8249 40.8004 45.3026C40.5555 44.7802 40.433 44.1456 40.433 43.3989C40.433 42.6434 40.557 42.0059 40.8049 41.4864C41.0557 40.964 41.3937 40.57 41.8187 40.3044C42.2437 40.0358 42.7174 39.9016 43.2397 39.9016C43.6382 39.9016 43.9658 39.9694 44.2226 40.1052C44.4793 40.238 44.683 40.3989 44.8335 40.5877C44.984 40.7737 45.1006 40.9493 45.1832 41.1146H45.2496V37.7234H46.8566V46.79H45.2806V45.7187H45.1832C45.1006 45.884 44.9811 46.0596 44.8246 46.2455C44.6682 46.4285 44.4616 46.5849 44.2048 46.7148C43.9481 46.8446 43.6249 46.9096 43.2353 46.9096ZM43.6825 45.5947C44.0219 45.5947 44.3111 45.5032 44.5502 45.3203C44.7892 45.1343 44.9707 44.8761 45.0947 44.5455C45.2186 44.215 45.2806 43.8298 45.2806 43.3901C45.2806 42.9503 45.2186 42.5681 45.0947 42.2435C44.9737 41.9188 44.7936 41.6665 44.5546 41.4864C44.3185 41.3064 44.0278 41.2164 43.6825 41.2164C43.3253 41.2164 43.0273 41.3094 42.7882 41.4953C42.5491 41.6812 42.3691 41.938 42.2481 42.2656C42.1271 42.5932 42.0666 42.968 42.0666 43.3901C42.0666 43.8151 42.1271 44.1943 42.2481 44.5278C42.372 44.8584 42.5536 45.1196 42.7926 45.3114C43.0346 45.5003 43.3312 45.5947 43.6825 45.5947ZM51.0878 46.9096C50.5536 46.9096 50.0755 46.7723 49.6534 46.4979C49.2314 46.2234 48.8979 45.8249 48.6529 45.3026C48.408 44.7802 48.2855 44.1456 48.2855 43.3989C48.2855 42.6434 48.4094 42.0059 48.6573 41.4864C48.9082 40.964 49.2461 40.57 49.6711 40.3044C50.0961 40.0358 50.5698 39.9016 51.0922 39.9016C51.4907 39.9016 51.8183 39.9694 52.075 40.1052C52.3318 40.238 52.5354 40.3989 52.686 40.5877C52.8365 40.7737 52.9531 40.9493 53.0357 41.1146H53.1021V37.7234H54.7091V46.79H53.1331V45.7187H53.0357C52.9531 45.884 52.8335 46.0596 52.6771 46.2455C52.5207 46.4285 52.3141 46.5849 52.0573 46.7148C51.8006 46.8446 51.4774 46.9096 51.0878 46.9096ZM51.5349 45.5947C51.8743 45.5947 52.1636 45.5032 52.4026 45.3203C52.6417 45.1343 52.8232 44.8761 52.9472 44.5455C53.0711 44.215 53.1331 43.8298 53.1331 43.3901C53.1331 42.9503 53.0711 42.5681 52.9472 42.2435C52.8262 41.9188 52.6461 41.6665 52.4071 41.4864C52.1709 41.3064 51.8802 41.2164 51.5349 41.2164C51.1778 41.2164 50.8797 41.3094 50.6407 41.4953C50.4016 41.6812 50.2216 41.938 50.1006 42.2656C49.9796 42.5932 49.9191 42.968 49.9191 43.3901C49.9191 43.8151 49.9796 44.1943 50.1006 44.5278C50.2245 44.8584 50.406 45.1196 50.6451 45.3114C50.8871 45.5003 51.1837 45.5947 51.5349 45.5947ZM59.1815 39.1003V37.7234H66.4153V39.1003H63.613V46.79H61.9839V39.1003H59.1815ZM67.739 46.79V39.9901H69.3416V46.79H67.739ZM68.5448 39.025C68.2909 39.025 68.0725 38.9409 67.8896 38.7727C67.7066 38.6015 67.6151 38.3964 67.6151 38.1573C67.6151 37.9153 67.7066 37.7102 67.8896 37.5419C68.0725 37.3708 68.2909 37.2852 68.5448 37.2852C68.8015 37.2852 69.0199 37.3708 69.2 37.5419C69.3829 37.7102 69.4744 37.9153 69.4744 38.1573C69.4744 38.3964 69.3829 38.6015 69.2 38.7727C69.0199 38.9409 68.8015 39.025 68.5448 39.025ZM74.3851 39.9901V41.2297H70.4761V39.9901H74.3851ZM71.4412 38.3609H73.0437V44.7447C73.0437 44.9602 73.0762 45.1255 73.1411 45.2406C73.209 45.3527 73.2976 45.4295 73.4068 45.4708C73.516 45.5121 73.637 45.5328 73.7698 45.5328C73.8701 45.5328 73.9616 45.5254 74.0443 45.5106C74.1298 45.4959 74.1948 45.4826 74.239 45.4708L74.5091 46.7236C74.4235 46.7531 74.301 46.7856 74.1417 46.821C73.9852 46.8564 73.7934 46.8771 73.5661 46.883C73.1648 46.8948 72.8032 46.8343 72.4815 46.7015C72.1598 46.5657 71.9045 46.3562 71.7156 46.0729C71.5297 45.7895 71.4382 45.4354 71.4412 45.0104V38.3609ZM77.4741 37.7234V46.79H75.8715V37.7234H77.4741ZM82.1325 46.9229C81.4507 46.9229 80.8619 46.7812 80.3661 46.4979C79.8732 46.2116 79.494 45.8072 79.2283 45.2848C78.9627 44.7595 78.8299 44.1412 78.8299 43.4299C78.8299 42.7304 78.9627 42.1166 79.2283 41.5883C79.4969 41.057 79.8717 40.6438 80.3528 40.3487C80.8339 40.0506 81.3991 39.9016 82.0484 39.9016C82.4675 39.9016 82.8629 39.9694 83.2348 40.1052C83.6096 40.238 83.9402 40.4446 84.2265 40.725C84.5157 41.0054 84.743 41.3625 84.9082 41.7963C85.0735 42.2272 85.1562 42.7408 85.1562 43.3369V43.8283H79.5825V42.7481H83.62C83.617 42.4412 83.5506 42.1682 83.4207 41.9291C83.2909 41.6871 83.1094 41.4968 82.8762 41.3581C82.646 41.2193 82.3774 41.15 82.0705 41.15C81.7429 41.15 81.4551 41.2297 81.2072 41.389C80.9593 41.5455 80.766 41.7521 80.6273 42.0088C80.4915 42.2626 80.4222 42.5415 80.4192 42.8455V43.7885C80.4192 44.184 80.4915 44.5234 80.6361 44.8067C80.7808 45.0871 80.9829 45.3026 81.2426 45.4531C81.5024 45.6006 81.8064 45.6744 82.1546 45.6744C82.3878 45.6744 82.5988 45.642 82.7877 45.577C82.9766 45.5091 83.1404 45.4103 83.2791 45.2804C83.4178 45.1506 83.5226 44.9897 83.5934 44.7979L85.0897 44.9661C84.9953 45.3616 84.8153 45.7069 84.5496 46.002C84.287 46.2942 83.9505 46.5215 83.5403 46.6838C83.13 46.8432 82.6608 46.9229 82.1325 46.9229Z" fill="#1A1A1C"/>
<g filter="url(#filter0_d_342_3651)">
<g clip-path="url(#clip0_342_3651)">
<rect x="31.0742" y="60.8555" width="254.281" height="172.893" rx="6.23328" fill="white"/>
<path d="M42.1794 84.2695V78.3523H44.1788C44.643 78.3523 45.0224 78.4361 45.3171 78.6037C45.6138 78.7694 45.8334 78.9938 45.9759 79.2769C46.1184 79.5601 46.1897 79.8759 46.1897 80.2246C46.1897 80.5732 46.1184 80.8901 45.9759 81.1751C45.8353 81.4602 45.6176 81.6875 45.3229 81.857C45.0282 82.0246 44.6507 82.1084 44.1903 82.1084H42.7573V81.4727H44.1672C44.485 81.4727 44.7403 81.4178 44.9329 81.3081C45.1255 81.1983 45.2651 81.0499 45.3518 80.8631C45.4404 80.6743 45.4847 80.4615 45.4847 80.2246C45.4847 79.9877 45.4404 79.7758 45.3518 79.5889C45.2651 79.4021 45.1245 79.2557 44.93 79.1498C44.7354 79.0419 44.4773 78.988 44.1557 78.988H42.896V84.2695H42.1794ZM47.2515 84.2695V79.8316H47.9103V80.5019H47.9565C48.0374 80.2824 48.1838 80.1042 48.3956 79.9674C48.6075 79.8307 48.8464 79.7623 49.1122 79.7623C49.1623 79.7623 49.2249 79.7633 49.3 79.7652C49.3751 79.7671 49.4319 79.77 49.4704 79.7739V80.4673C49.4473 80.4615 49.3944 80.4528 49.3115 80.4413C49.2306 80.4278 49.1449 80.4211 49.0544 80.4211C48.8387 80.4211 48.646 80.4663 48.4765 80.5568C48.309 80.6454 48.1761 80.7687 48.0778 80.9267C47.9815 81.0827 47.9334 81.2609 47.9334 81.4612V84.2695H47.2515ZM51.9465 84.362C51.5459 84.362 51.1944 84.2666 50.892 84.076C50.5915 83.8853 50.3565 83.6185 50.187 83.2756C50.0194 82.9328 49.9356 82.5321 49.9356 82.0737C49.9356 81.6114 50.0194 81.2079 50.187 80.8631C50.3565 80.5183 50.5915 80.2506 50.892 80.0599C51.1944 79.8692 51.5459 79.7739 51.9465 79.7739C52.3472 79.7739 52.6977 79.8692 52.9982 80.0599C53.3006 80.2506 53.5356 80.5183 53.7032 80.8631C53.8727 81.2079 53.9575 81.6114 53.9575 82.0737C53.9575 82.5321 53.8727 82.9328 53.7032 83.2756C53.5356 83.6185 53.3006 83.8853 52.9982 84.076C52.6977 84.2666 52.3472 84.362 51.9465 84.362ZM51.9465 83.7495C52.2509 83.7495 52.5013 83.6715 52.6977 83.5154C52.8942 83.3594 53.0396 83.1543 53.134 82.9C53.2284 82.6458 53.2756 82.3703 53.2756 82.0737C53.2756 81.7771 53.2284 81.5007 53.134 81.2445C53.0396 80.9883 52.8942 80.7812 52.6977 80.6233C52.5013 80.4654 52.2509 80.3864 51.9465 80.3864C51.6422 80.3864 51.3918 80.4654 51.1953 80.6233C50.9989 80.7812 50.8534 80.9883 50.7591 81.2445C50.6647 81.5007 50.6175 81.7771 50.6175 82.0737C50.6175 82.3703 50.6647 82.6458 50.7591 82.9C50.8534 83.1543 50.9989 83.3594 51.1953 83.5154C51.3918 83.6715 51.6422 83.7495 51.9465 83.7495ZM54.9983 84.2695V79.8316H55.6571V80.5251H55.7148C55.8073 80.2881 55.9566 80.1042 56.1627 79.9732C56.3688 79.8403 56.6163 79.7739 56.9052 79.7739C57.198 79.7739 57.4416 79.8403 57.6362 79.9732C57.8327 80.1042 57.9858 80.2881 58.0956 80.5251H58.1418C58.2554 80.2959 58.4259 80.1138 58.6532 79.979C58.8805 79.8422 59.153 79.7739 59.4709 79.7739C59.8677 79.7739 60.1922 79.8981 60.4445 80.1466C60.6969 80.3931 60.823 80.7774 60.823 81.2994V84.2695H60.1412V81.2994C60.1412 80.9719 60.0516 80.7379 59.8725 80.5973C59.6933 80.4567 59.4824 80.3864 59.2397 80.3864C58.9277 80.3864 58.6859 80.4808 58.5145 80.6695C58.3431 80.8564 58.2574 81.0933 58.2574 81.3803V84.2695H57.564V81.23C57.564 80.9777 57.4821 80.7745 57.3184 80.6204C57.1546 80.4644 56.9437 80.3864 56.6856 80.3864C56.5084 80.3864 56.3428 80.4336 56.1887 80.528C56.0365 80.6223 55.9132 80.7533 55.8188 80.9209C55.7264 81.0865 55.6802 81.2782 55.6802 81.4959V84.2695H54.9983ZM62.0697 85.9337V79.8316H62.7285V80.5366H62.8094C62.8595 80.4596 62.9288 80.3613 63.0174 80.2419C63.1079 80.1206 63.237 80.0127 63.4046 79.9183C63.5741 79.822 63.8033 79.7739 64.0922 79.7739C64.4659 79.7739 64.7953 79.8673 65.0803 80.0541C65.3654 80.241 65.5879 80.5058 65.7478 80.8487C65.9076 81.1915 65.9876 81.596 65.9876 82.0621C65.9876 82.5321 65.9076 82.9395 65.7478 83.2843C65.5879 83.6272 65.3664 83.893 65.0832 84.0817C64.8001 84.2686 64.4736 84.362 64.1038 84.362C63.8187 84.362 63.5904 84.3148 63.419 84.2204C63.2476 84.1241 63.1156 84.0153 63.0232 83.8939C62.9307 83.7707 62.8595 83.6686 62.8094 83.5877H62.7516V85.9337H62.0697ZM62.74 82.0506C62.74 82.3857 62.7892 82.6814 62.8874 82.9376C62.9856 83.1918 63.1291 83.3912 63.3179 83.5357C63.5067 83.6782 63.7378 83.7495 64.0113 83.7495C64.2964 83.7495 64.5343 83.6743 64.725 83.5241C64.9176 83.3719 65.062 83.1678 65.1583 82.9116C65.2566 82.6535 65.3057 82.3665 65.3057 82.0506C65.3057 81.7385 65.2575 81.4573 65.1612 81.2069C65.0669 80.9546 64.9234 80.7552 64.7307 80.6089C64.54 80.4605 64.3002 80.3864 64.0113 80.3864C63.7339 80.3864 63.5009 80.4567 63.3121 80.5973C63.1234 80.736 62.9808 80.9305 62.8845 81.1809C62.7882 81.4294 62.74 81.7193 62.74 82.0506ZM68.9577 79.8316V80.4095H66.6579V79.8316H68.9577ZM67.3282 78.7684H68.01V82.9983C68.01 83.1909 68.038 83.3353 68.0938 83.4316C68.1516 83.526 68.2248 83.5896 68.3134 83.6223C68.4039 83.6532 68.4993 83.6686 68.5994 83.6686C68.6746 83.6686 68.7362 83.6647 68.7844 83.657C68.8325 83.6474 68.871 83.6397 68.8999 83.6339L69.0386 84.2464C68.9924 84.2638 68.9279 84.2811 68.845 84.2984C68.7622 84.3177 68.6572 84.3273 68.5301 84.3273C68.3375 84.3273 68.1487 84.2859 67.9638 84.2031C67.7808 84.1203 67.6287 83.9941 67.5073 83.8246C67.3879 83.6551 67.3282 83.4413 67.3282 83.1832V78.7684ZM70.4803 84.3158C70.3378 84.3158 70.2155 84.2647 70.1134 84.1626C70.0113 84.0605 69.9603 83.9382 69.9603 83.7957C69.9603 83.6532 70.0113 83.5308 70.1134 83.4288C70.2155 83.3267 70.3378 83.2756 70.4803 83.2756C70.6229 83.2756 70.7452 83.3267 70.8473 83.4288C70.9494 83.5308 71.0004 83.6532 71.0004 83.7957C71.0004 83.8901 70.9763 83.9768 70.9282 84.0557C70.882 84.1347 70.8194 84.1983 70.7404 84.2464C70.6633 84.2926 70.5767 84.3158 70.4803 84.3158ZM70.4803 81.022C70.3378 81.022 70.2155 80.971 70.1134 80.8689C70.0113 80.7668 69.9603 80.6445 69.9603 80.5019C69.9603 80.3594 70.0113 80.2371 70.1134 80.135C70.2155 80.0329 70.3378 79.9819 70.4803 79.9819C70.6229 79.9819 70.7452 80.0329 70.8473 80.135C70.9494 80.2371 71.0004 80.3594 71.0004 80.5019C71.0004 80.5963 70.9763 80.683 70.9282 80.762C70.882 80.841 70.8194 80.9045 70.7404 80.9527C70.6633 80.9989 70.5767 81.022 70.4803 81.022ZM74.6047 78.3523H75.46L77.4709 83.2641H77.5402L79.5511 78.3523H80.4064V84.2695H79.7361V79.7739H79.6783L77.8292 84.2695H77.182L75.3328 79.7739H75.2751V84.2695H74.6047V78.3523ZM83.0565 84.3735C82.7753 84.3735 82.5201 84.3206 82.2909 84.2146C82.0617 84.1068 81.8796 83.9517 81.7448 83.7495C81.61 83.5453 81.5426 83.2987 81.5426 83.0098C81.5426 82.7556 81.5926 82.5495 81.6928 82.3915C81.793 82.2316 81.9268 82.1064 82.0944 82.0159C82.262 81.9254 82.4469 81.858 82.6491 81.8137C82.8533 81.7674 83.0585 81.7308 83.2646 81.7039C83.5342 81.6692 83.7528 81.6432 83.9204 81.6259C84.0899 81.6066 84.2132 81.5748 84.2902 81.5305C84.3692 81.4862 84.4087 81.4092 84.4087 81.2994V81.2763C84.4087 80.9912 84.3307 80.7697 84.1747 80.6117C84.0206 80.4538 83.7865 80.3748 83.4726 80.3748C83.1471 80.3748 82.8918 80.4461 82.7069 80.5886C82.522 80.7312 82.392 80.8833 82.3169 81.0451L81.6697 80.814C81.7853 80.5443 81.9393 80.3344 82.132 80.1841C82.3265 80.032 82.5384 79.926 82.7676 79.8663C82.9987 79.8047 83.226 79.7739 83.4495 79.7739C83.592 79.7739 83.7557 79.7912 83.9406 79.8259C84.1275 79.8586 84.3076 79.927 84.4809 80.031C84.6562 80.135 84.8016 80.292 84.9172 80.5019C85.0328 80.7119 85.0906 80.9931 85.0906 81.3456V84.2695H84.4087V83.6686H84.374C84.3278 83.7649 84.2507 83.8679 84.1429 83.9777C84.035 84.0875 83.8915 84.1809 83.7124 84.258C83.5333 84.335 83.3146 84.3735 83.0565 84.3735ZM83.1605 83.761C83.4302 83.761 83.6575 83.7081 83.8424 83.6021C84.0292 83.4962 84.1698 83.3594 84.2642 83.1918C84.3605 83.0243 84.4087 82.848 84.4087 82.6631V82.039C84.3798 82.0737 84.3162 82.1055 84.218 82.1344C84.1217 82.1613 84.01 82.1854 83.8829 82.2066C83.7577 82.2259 83.6353 82.2432 83.5159 82.2586C83.3984 82.2721 83.3031 82.2837 83.2299 82.2933C83.0527 82.3164 82.887 82.354 82.7329 82.406C82.5808 82.456 82.4575 82.5321 82.3631 82.6342C82.2706 82.7344 82.2244 82.8711 82.2244 83.0445C82.2244 83.2814 82.3121 83.4605 82.4873 83.5819C82.6646 83.7013 82.8889 83.761 83.1605 83.761ZM86.3351 84.2695V79.8316H86.9939V80.5019H87.0401C87.121 80.2824 87.2674 80.1042 87.4792 79.9674C87.6911 79.8307 87.93 79.7623 88.1958 79.7623C88.2459 79.7623 88.3085 79.7633 88.3836 79.7652C88.4587 79.7671 88.5155 79.77 88.554 79.7739V80.4673C88.5309 80.4615 88.478 80.4528 88.3951 80.4413C88.3142 80.4278 88.2285 80.4211 88.138 80.4211C87.9223 80.4211 87.7296 80.4663 87.5601 80.5568C87.3926 80.6454 87.2597 80.7687 87.1614 80.9267C87.0651 81.0827 87.017 81.2609 87.017 81.4612V84.2695H86.3351ZM89.9979 82.6516L89.9864 81.8079H90.1251L92.0667 79.8316H92.9103L90.8416 81.9235H90.7838L89.9979 82.6516ZM89.3623 84.2695V78.3523H90.0442V84.2695H89.3623ZM92.1822 84.2695L90.4487 82.0737L90.9341 81.5999L93.049 84.2695H92.1822ZM95.4659 84.362C95.0382 84.362 94.6694 84.2676 94.3593 84.0788C94.0511 83.8882 93.8132 83.6223 93.6456 83.2814C93.48 82.9386 93.3972 82.5398 93.3972 82.0853C93.3972 81.6307 93.48 81.23 93.6456 80.8833C93.8132 80.5347 94.0463 80.2631 94.3448 80.0686C94.6453 79.8721 94.9959 79.7739 95.3965 79.7739C95.6277 79.7739 95.8559 79.8124 96.0813 79.8894C96.3066 79.9665 96.5118 80.0917 96.6967 80.265C96.8816 80.4365 97.0289 80.6637 97.1387 80.9469C97.2485 81.23 97.3034 81.5787 97.3034 81.9928V82.2817H93.8825V81.6923H96.61C96.61 81.4419 96.5599 81.2185 96.4598 81.022C96.3615 80.8255 96.2209 80.6705 96.0379 80.5568C95.8569 80.4432 95.6431 80.3864 95.3965 80.3864C95.1249 80.3864 94.8899 80.4538 94.6915 80.5886C94.4951 80.7215 94.3439 80.8949 94.2379 81.1087C94.132 81.3225 94.079 81.5517 94.079 81.7963V82.1893C94.079 82.5244 94.1368 82.8085 94.2524 83.0416C94.3699 83.2727 94.5326 83.449 94.7407 83.5703C94.9487 83.6898 95.1904 83.7495 95.4659 83.7495C95.645 83.7495 95.8068 83.7244 95.9512 83.6743C96.0976 83.6223 96.2238 83.5453 96.3297 83.4432C96.4357 83.3392 96.5175 83.2101 96.5753 83.056L97.2341 83.241C97.1647 83.4644 97.0482 83.6609 96.8845 83.8304C96.7208 83.9979 96.5185 84.1289 96.2777 84.2233C96.037 84.3158 95.7663 84.362 95.4659 84.362ZM100.271 79.8316V80.4095H97.9708V79.8316H100.271ZM98.6411 78.7684H99.323V82.9983C99.323 83.1909 99.3509 83.3353 99.4068 83.4316C99.4646 83.526 99.5378 83.5896 99.6264 83.6223C99.7169 83.6532 99.8122 83.6686 99.9124 83.6686C99.9875 83.6686 100.049 83.6647 100.097 83.657C100.145 83.6474 100.184 83.6397 100.213 83.6339L100.352 84.2464C100.305 84.2638 100.241 84.2811 100.158 84.2984C100.075 84.3177 99.9702 84.3273 99.8431 84.3273C99.6505 84.3273 99.4617 84.2859 99.2768 84.2031C99.0938 84.1203 98.9416 83.9941 98.8203 83.8246C98.7009 83.6551 98.6411 83.4413 98.6411 83.1832V78.7684ZM101.296 84.2695V79.8316H101.978V84.2695H101.296ZM101.643 79.092C101.51 79.092 101.396 79.0467 101.299 78.9562C101.205 78.8657 101.158 78.7568 101.158 78.6297C101.158 78.5026 101.205 78.3938 101.299 78.3032C101.396 78.2127 101.51 78.1674 101.643 78.1674C101.776 78.1674 101.89 78.2127 101.984 78.3032C102.08 78.3938 102.128 78.5026 102.128 78.6297C102.128 78.7568 102.08 78.8657 101.984 78.9562C101.89 79.0467 101.776 79.092 101.643 79.092ZM103.909 81.5999V84.2695H103.227V79.8316H103.886V80.5251H103.944C104.048 80.2997 104.206 80.1186 104.417 79.9819C104.629 79.8432 104.903 79.7739 105.238 79.7739C105.538 79.7739 105.801 79.8355 106.027 79.9588C106.252 80.0801 106.427 80.265 106.553 80.5135C106.678 80.7601 106.74 81.0721 106.74 81.4496V84.2695H106.059V81.4959C106.059 81.1472 105.968 80.8756 105.787 80.6811C105.606 80.4846 105.357 80.3864 105.042 80.3864C104.824 80.3864 104.629 80.4336 104.458 80.528C104.288 80.6223 104.155 80.7601 104.056 80.9411C103.958 81.1222 103.909 81.3418 103.909 81.5999ZM109.778 86.0262C109.448 86.0262 109.165 85.9838 108.928 85.8991C108.691 85.8162 108.494 85.7065 108.336 85.5697C108.18 85.4349 108.056 85.2904 107.963 85.1363L108.506 84.7549C108.568 84.8358 108.646 84.9283 108.741 85.0323C108.835 85.1382 108.964 85.2297 109.128 85.3068C109.293 85.3857 109.51 85.4252 109.778 85.4252C110.136 85.4252 110.432 85.3386 110.665 85.1652C110.898 84.9918 111.014 84.7203 111.014 84.3504V83.449H110.957C110.906 83.5299 110.835 83.63 110.743 83.7495C110.652 83.867 110.521 83.9719 110.35 84.0644C110.18 84.1549 109.951 84.2002 109.662 84.2002C109.304 84.2002 108.982 84.1154 108.697 83.9459C108.414 83.7764 108.19 83.5299 108.024 83.2063C107.86 82.8827 107.778 82.4898 107.778 82.0275C107.778 81.5729 107.858 81.1771 108.018 80.84C108.178 80.501 108.401 80.239 108.686 80.0541C108.971 79.8673 109.3 79.7739 109.674 79.7739C109.963 79.7739 110.192 79.822 110.361 79.9183C110.533 80.0127 110.664 80.1206 110.754 80.2419C110.847 80.3613 110.918 80.4596 110.968 80.5366H111.037V79.8316H111.696V84.3967C111.696 84.778 111.61 85.0882 111.436 85.327C111.265 85.5678 111.034 85.744 110.743 85.8557C110.454 85.9694 110.132 86.0262 109.778 86.0262ZM109.755 83.5877C110.028 83.5877 110.259 83.5251 110.448 83.3999C110.637 83.2747 110.78 83.0946 110.879 82.8596C110.977 82.6246 111.026 82.3434 111.026 82.0159C111.026 81.6962 110.978 81.414 110.881 81.1694C110.785 80.9247 110.643 80.7331 110.454 80.5944C110.265 80.4557 110.032 80.3864 109.755 80.3864C109.466 80.3864 109.225 80.4596 109.032 80.606C108.842 80.7524 108.698 80.9488 108.602 81.1954C108.507 81.4419 108.46 81.7154 108.46 82.0159C108.46 82.3241 108.508 82.5967 108.605 82.8336C108.703 83.0686 108.847 83.2535 109.038 83.3883C109.231 83.5212 109.47 83.5877 109.755 83.5877ZM118.376 80.8255L117.764 80.9989C117.725 80.8968 117.668 80.7976 117.593 80.7013C117.52 80.6031 117.42 80.5222 117.293 80.4586C117.166 80.395 117.003 80.3633 116.804 80.3633C116.533 80.3633 116.306 80.4259 116.125 80.5511C115.946 80.6743 115.857 80.8313 115.857 81.022C115.857 81.1915 115.918 81.3254 116.042 81.4236C116.165 81.5219 116.358 81.6037 116.619 81.6692L117.278 81.831C117.675 81.9273 117.971 82.0747 118.165 82.2731C118.36 82.4695 118.457 82.7228 118.457 83.0329C118.457 83.2872 118.384 83.5145 118.237 83.7148C118.093 83.9151 117.891 84.0731 117.631 84.1886C117.371 84.3042 117.068 84.362 116.724 84.362C116.271 84.362 115.896 84.2638 115.6 84.0673C115.303 83.8708 115.115 83.5838 115.036 83.2063L115.683 83.0445C115.745 83.2833 115.862 83.4625 116.033 83.5819C116.206 83.7013 116.433 83.761 116.712 83.761C117.03 83.761 117.282 83.6936 117.469 83.5588C117.658 83.422 117.752 83.2583 117.752 83.0676C117.752 82.9135 117.698 82.7845 117.59 82.6804C117.482 82.5745 117.317 82.4955 117.093 82.4435L116.354 82.2702C115.947 82.1739 115.649 82.0246 115.458 81.8223C115.269 81.6182 115.175 81.3629 115.175 81.0567C115.175 80.8063 115.245 80.5848 115.386 80.3922C115.528 80.1995 115.722 80.0483 115.967 79.9385C116.213 79.8288 116.492 79.7739 116.804 79.7739C117.244 79.7739 117.588 79.8702 117.839 80.0628C118.091 80.2554 118.27 80.5097 118.376 80.8255ZM121.413 79.8316V80.4095H119.114V79.8316H121.413ZM119.784 78.7684H120.466V82.9983C120.466 83.1909 120.494 83.3353 120.55 83.4316C120.607 83.526 120.681 83.5896 120.769 83.6223C120.86 83.6532 120.955 83.6686 121.055 83.6686C121.13 83.6686 121.192 83.6647 121.24 83.657C121.288 83.6474 121.327 83.6397 121.356 83.6339L121.494 84.2464C121.448 84.2638 121.384 84.2811 121.301 84.2984C121.218 84.3177 121.113 84.3273 120.986 84.3273C120.793 84.3273 120.604 84.2859 120.42 84.2031C120.237 84.1203 120.084 83.9941 119.963 83.8246C119.844 83.6551 119.784 83.4413 119.784 83.1832V78.7684ZM122.439 84.2695V79.8316H123.098V80.5019H123.144C123.225 80.2824 123.371 80.1042 123.583 79.9674C123.795 79.8307 124.034 79.7623 124.3 79.7623C124.35 79.7623 124.413 79.7633 124.488 79.7652C124.563 79.7671 124.62 79.77 124.658 79.7739V80.4673C124.635 80.4615 124.582 80.4528 124.499 80.4413C124.418 80.4278 124.333 80.4211 124.242 80.4211C124.026 80.4211 123.834 80.4663 123.664 80.5568C123.497 80.6454 123.364 80.7687 123.265 80.9267C123.169 81.0827 123.121 81.2609 123.121 81.4612V84.2695H122.439ZM126.772 84.3735C126.491 84.3735 126.236 84.3206 126.007 84.2146C125.777 84.1068 125.595 83.9517 125.461 83.7495C125.326 83.5453 125.258 83.2987 125.258 83.0098C125.258 82.7556 125.308 82.5495 125.409 82.3915C125.509 82.2316 125.643 82.1064 125.81 82.0159C125.978 81.9254 126.163 81.858 126.365 81.8137C126.569 81.7674 126.774 81.7308 126.98 81.7039C127.25 81.6692 127.469 81.6432 127.636 81.6259C127.806 81.6066 127.929 81.5748 128.006 81.5305C128.085 81.4862 128.124 81.4092 128.124 81.2994V81.2763C128.124 80.9912 128.046 80.7697 127.89 80.6117C127.736 80.4538 127.502 80.3748 127.188 80.3748C126.863 80.3748 126.608 80.4461 126.423 80.5886C126.238 80.7312 126.108 80.8833 126.033 81.0451L125.385 80.814C125.501 80.5443 125.655 80.3344 125.848 80.1841C126.042 80.032 126.254 79.926 126.483 79.8663C126.715 79.8047 126.942 79.7739 127.165 79.7739C127.308 79.7739 127.472 79.7912 127.656 79.8259C127.843 79.8586 128.023 79.927 128.197 80.031C128.372 80.135 128.517 80.292 128.633 80.5019C128.749 80.7119 128.806 80.9931 128.806 81.3456V84.2695H128.124V83.6686H128.09C128.044 83.7649 127.967 83.8679 127.859 83.9777C127.751 84.0875 127.607 84.1809 127.428 84.258C127.249 84.335 127.03 84.3735 126.772 84.3735ZM126.876 83.761C127.146 83.761 127.373 83.7081 127.558 83.6021C127.745 83.4962 127.886 83.3594 127.98 83.1918C128.076 83.0243 128.124 82.848 128.124 82.6631V82.039C128.096 82.0737 128.032 82.1055 127.934 82.1344C127.837 82.1613 127.726 82.1854 127.599 82.2066C127.473 82.2259 127.351 82.2432 127.232 82.2586C127.114 82.2721 127.019 82.2837 126.946 82.2933C126.768 82.3164 126.603 82.354 126.449 82.406C126.297 82.456 126.173 82.5321 126.079 82.6342C125.986 82.7344 125.94 82.8711 125.94 83.0445C125.94 83.2814 126.028 83.4605 126.203 83.5819C126.38 83.7013 126.605 83.761 126.876 83.761ZM131.981 79.8316V80.4095H129.681V79.8316H131.981ZM130.351 78.7684H131.033V82.9983C131.033 83.1909 131.061 83.3353 131.117 83.4316C131.175 83.526 131.248 83.5896 131.337 83.6223C131.427 83.6532 131.522 83.6686 131.623 83.6686C131.698 83.6686 131.759 83.6647 131.808 83.657C131.856 83.6474 131.894 83.6397 131.923 83.6339L132.062 84.2464C132.016 84.2638 131.951 84.2811 131.868 84.2984C131.785 84.3177 131.68 84.3273 131.553 84.3273C131.361 84.3273 131.172 84.2859 130.987 84.2031C130.804 84.1203 130.652 83.9941 130.531 83.8246C130.411 83.6551 130.351 83.4413 130.351 83.1832V78.7684ZM134.82 84.362C134.392 84.362 134.023 84.2676 133.713 84.0788C133.405 83.8882 133.167 83.6223 132.999 83.2814C132.834 82.9386 132.751 82.5398 132.751 82.0853C132.751 81.6307 132.834 81.23 132.999 80.8833C133.167 80.5347 133.4 80.2631 133.699 80.0686C133.999 79.8721 134.35 79.7739 134.75 79.7739C134.981 79.7739 135.21 79.8124 135.435 79.8894C135.66 79.9665 135.866 80.0917 136.05 80.265C136.235 80.4365 136.383 80.6637 136.492 80.9469C136.602 81.23 136.657 81.5787 136.657 81.9928V82.2817H133.236V81.6923H135.964C135.964 81.4419 135.914 81.2185 135.813 81.022C135.715 80.8255 135.575 80.6705 135.392 80.5568C135.211 80.4432 134.997 80.3864 134.75 80.3864C134.479 80.3864 134.244 80.4538 134.045 80.5886C133.849 80.7215 133.698 80.8949 133.592 81.1087C133.486 81.3225 133.433 81.5517 133.433 81.7963V82.1893C133.433 82.5244 133.491 82.8085 133.606 83.0416C133.724 83.2727 133.886 83.449 134.094 83.5703C134.302 83.6898 134.544 83.7495 134.82 83.7495C134.999 83.7495 135.161 83.7244 135.305 83.6743C135.451 83.6223 135.578 83.5453 135.683 83.4432C135.789 83.3392 135.871 83.2101 135.929 83.056L136.588 83.241C136.518 83.4644 136.402 83.6609 136.238 83.8304C136.074 83.9979 135.872 84.1289 135.631 84.2233C135.391 84.3158 135.12 84.362 134.82 84.362ZM139.486 86.0262C139.156 86.0262 138.873 85.9838 138.636 85.8991C138.399 85.8162 138.202 85.7065 138.044 85.5697C137.888 85.4349 137.764 85.2904 137.671 85.1363L138.214 84.7549C138.276 84.8358 138.354 84.9283 138.448 85.0323C138.543 85.1382 138.672 85.2297 138.836 85.3068C139.001 85.3857 139.218 85.4252 139.486 85.4252C139.844 85.4252 140.14 85.3386 140.373 85.1652C140.606 84.9918 140.722 84.7203 140.722 84.3504V83.449H140.665C140.614 83.5299 140.543 83.63 140.451 83.7495C140.36 83.867 140.229 83.9719 140.058 84.0644C139.888 84.1549 139.659 84.2002 139.37 84.2002C139.012 84.2002 138.69 84.1154 138.405 83.9459C138.122 83.7764 137.898 83.5299 137.732 83.2063C137.568 82.8827 137.486 82.4898 137.486 82.0275C137.486 81.5729 137.566 81.1771 137.726 80.84C137.886 80.501 138.109 80.239 138.394 80.0541C138.679 79.8673 139.008 79.7739 139.382 79.7739C139.671 79.7739 139.9 79.822 140.069 79.9183C140.241 80.0127 140.372 80.1206 140.462 80.2419C140.555 80.3613 140.626 80.4596 140.676 80.5366H140.745V79.8316H141.404V84.3967C141.404 84.778 141.318 85.0882 141.144 85.327C140.973 85.5678 140.742 85.744 140.451 85.8557C140.162 85.9694 139.84 86.0262 139.486 86.0262ZM139.463 83.5877C139.736 83.5877 139.967 83.5251 140.156 83.3999C140.345 83.2747 140.488 83.0946 140.587 82.8596C140.685 82.6246 140.734 82.3434 140.734 82.0159C140.734 81.6962 140.686 81.414 140.589 81.1694C140.493 80.9247 140.351 80.7331 140.162 80.5944C139.973 80.4557 139.74 80.3864 139.463 80.3864C139.174 80.3864 138.933 80.4596 138.74 80.606C138.55 80.7524 138.406 80.9488 138.31 81.1954C138.215 81.4419 138.168 81.7154 138.168 82.0159C138.168 82.3241 138.216 82.5967 138.313 82.8336C138.411 83.0686 138.555 83.2535 138.746 83.3883C138.939 83.5212 139.178 83.5877 139.463 83.5877ZM143.092 85.9337C142.976 85.9337 142.873 85.9241 142.782 85.9048C142.692 85.8875 142.629 85.8702 142.595 85.8528L142.768 85.2519C142.934 85.2943 143.08 85.3097 143.207 85.2981C143.334 85.2865 143.447 85.2297 143.545 85.1276C143.645 85.0275 143.737 84.8647 143.82 84.6394L143.947 84.2926L142.306 79.8316H143.045L144.27 83.3681H144.317L145.542 79.8316H146.281L144.397 84.9167C144.313 85.1459 144.208 85.3357 144.083 85.4859C143.957 85.6381 143.812 85.7508 143.646 85.8239C143.483 85.8971 143.298 85.9337 143.092 85.9337ZM151.446 79.8316V80.4095H149.053V79.8316H151.446ZM149.77 84.2695V79.2191C149.77 78.9649 149.83 78.753 149.949 78.5835C150.069 78.414 150.224 78.2869 150.414 78.2021C150.605 78.1174 150.806 78.075 151.018 78.075C151.186 78.075 151.323 78.0885 151.428 78.1154C151.534 78.1424 151.613 78.1674 151.665 78.1906L151.469 78.78C151.434 78.7684 151.386 78.754 151.324 78.7366C151.265 78.7193 151.186 78.7106 151.088 78.7106C150.862 78.7106 150.699 78.7674 150.599 78.8811C150.501 78.9947 150.452 79.1613 150.452 79.3809V84.2695H149.77ZM154.022 84.362C153.621 84.362 153.269 84.2666 152.967 84.076C152.666 83.8853 152.432 83.6185 152.262 83.2756C152.094 82.9328 152.011 82.5321 152.011 82.0737C152.011 81.6114 152.094 81.2079 152.262 80.8631C152.432 80.5183 152.666 80.2506 152.967 80.0599C153.269 79.8692 153.621 79.7739 154.022 79.7739C154.422 79.7739 154.773 79.8692 155.073 80.0599C155.376 80.2506 155.611 80.5183 155.778 80.8631C155.948 81.2079 156.032 81.6114 156.032 82.0737C156.032 82.5321 155.948 82.9328 155.778 83.2756C155.611 83.6185 155.376 83.8853 155.073 84.076C154.773 84.2666 154.422 84.362 154.022 84.362ZM154.022 83.7495C154.326 83.7495 154.576 83.6715 154.773 83.5154C154.969 83.3594 155.115 83.1543 155.209 82.9C155.303 82.6458 155.351 82.3703 155.351 82.0737C155.351 81.7771 155.303 81.5007 155.209 81.2445C155.115 80.9883 154.969 80.7812 154.773 80.6233C154.576 80.4654 154.326 80.3864 154.022 80.3864C153.717 80.3864 153.467 80.4654 153.27 80.6233C153.074 80.7812 152.928 80.9883 152.834 81.2445C152.74 81.5007 152.692 81.7771 152.692 82.0737C152.692 82.3703 152.74 82.6458 152.834 82.9C152.928 83.1543 153.074 83.3594 153.27 83.5154C153.467 83.6715 153.717 83.7495 154.022 83.7495ZM157.073 84.2695V79.8316H157.732V80.5019H157.778C157.859 80.2824 158.006 80.1042 158.217 79.9674C158.429 79.8307 158.668 79.7623 158.934 79.7623C158.984 79.7623 159.047 79.7633 159.122 79.7652C159.197 79.7671 159.254 79.77 159.292 79.7739V80.4673C159.269 80.4615 159.216 80.4528 159.133 80.4413C159.052 80.4278 158.967 80.4211 158.876 80.4211C158.66 80.4211 158.468 80.4663 158.298 80.5568C158.131 80.6454 157.998 80.7687 157.9 80.9267C157.803 81.0827 157.755 81.2609 157.755 81.4612V84.2695H157.073ZM163.695 84.3735C163.414 84.3735 163.158 84.3206 162.929 84.2146C162.7 84.1068 162.518 83.9517 162.383 83.7495C162.248 83.5453 162.181 83.2987 162.181 83.0098C162.181 82.7556 162.231 82.5495 162.331 82.3915C162.431 82.2316 162.565 82.1064 162.733 82.0159C162.9 81.9254 163.085 81.858 163.287 81.8137C163.492 81.7674 163.697 81.7308 163.903 81.7039C164.172 81.6692 164.391 81.6432 164.559 81.6259C164.728 81.6066 164.851 81.5748 164.928 81.5305C165.007 81.4862 165.047 81.4092 165.047 81.2994V81.2763C165.047 80.9912 164.969 80.7697 164.813 80.6117C164.659 80.4538 164.425 80.3748 164.111 80.3748C163.785 80.3748 163.53 80.4461 163.345 80.5886C163.16 80.7312 163.03 80.8833 162.955 81.0451L162.308 80.814C162.423 80.5443 162.578 80.3344 162.77 80.1841C162.965 80.032 163.177 79.926 163.406 79.8663C163.637 79.8047 163.864 79.7739 164.088 79.7739C164.23 79.7739 164.394 79.7912 164.579 79.8259C164.766 79.8586 164.946 79.927 165.119 80.031C165.294 80.135 165.44 80.292 165.555 80.5019C165.671 80.7119 165.729 80.9931 165.729 81.3456V84.2695H165.047V83.6686H165.012C164.966 83.7649 164.889 83.8679 164.781 83.9777C164.673 84.0875 164.53 84.1809 164.351 84.258C164.171 84.335 163.953 84.3735 163.695 84.3735ZM163.799 83.761C164.068 83.761 164.296 83.7081 164.481 83.6021C164.667 83.4962 164.808 83.3594 164.902 83.1918C164.999 83.0243 165.047 82.848 165.047 82.6631V82.039C165.018 82.0737 164.954 82.1055 164.856 82.1344C164.76 82.1613 164.648 82.1854 164.521 82.2066C164.396 82.2259 164.274 82.2432 164.154 82.2586C164.037 82.2721 163.941 82.2837 163.868 82.2933C163.691 82.3164 163.525 82.354 163.371 82.406C163.219 82.456 163.096 82.5321 163.001 82.6342C162.909 82.7344 162.863 82.8711 162.863 83.0445C162.863 83.2814 162.95 83.4605 163.126 83.5819C163.303 83.7013 163.527 83.761 163.799 83.761ZM169.262 85.9337V79.8316H169.92V80.5366H170.001C170.051 80.4596 170.121 80.3613 170.209 80.2419C170.3 80.1206 170.429 80.0127 170.596 79.9183C170.766 79.822 170.995 79.7739 171.284 79.7739C171.658 79.7739 171.987 79.8673 172.272 80.0541C172.557 80.241 172.78 80.5058 172.94 80.8487C173.1 81.1915 173.179 81.596 173.179 82.0621C173.179 82.5321 173.1 82.9395 172.94 83.2843C172.78 83.6272 172.558 83.893 172.275 84.0817C171.992 84.2686 171.665 84.362 171.296 84.362C171.011 84.362 170.782 84.3148 170.611 84.2204C170.439 84.1241 170.308 84.0153 170.215 83.8939C170.123 83.7707 170.051 83.6686 170.001 83.5877H169.943V85.9337H169.262ZM169.932 82.0506C169.932 82.3857 169.981 82.6814 170.079 82.9376C170.178 83.1918 170.321 83.3912 170.51 83.5357C170.699 83.6782 170.93 83.7495 171.203 83.7495C171.488 83.7495 171.726 83.6743 171.917 83.5241C172.109 83.3719 172.254 83.1678 172.35 82.9116C172.448 82.6535 172.498 82.3665 172.498 82.0506C172.498 81.7385 172.449 81.4573 172.353 81.2069C172.259 80.9546 172.115 80.7552 171.923 80.6089C171.732 80.4605 171.492 80.3864 171.203 80.3864C170.926 80.3864 170.693 80.4567 170.504 80.5973C170.315 80.736 170.173 80.9305 170.076 81.1809C169.98 81.4294 169.932 81.7193 169.932 82.0506ZM174.22 84.2695V79.8316H174.878V80.5019H174.925C175.005 80.2824 175.152 80.1042 175.364 79.9674C175.576 79.8307 175.814 79.7623 176.08 79.7623C176.13 79.7623 176.193 79.7633 176.268 79.7652C176.343 79.7671 176.4 79.77 176.439 79.7739V80.4673C176.415 80.4615 176.362 80.4528 176.28 80.4413C176.199 80.4278 176.113 80.4211 176.022 80.4211C175.807 80.4211 175.614 80.4663 175.445 80.5568C175.277 80.6454 175.144 80.7687 175.046 80.9267C174.95 81.0827 174.901 81.2609 174.901 81.4612V84.2695H174.22ZM178.915 84.362C178.514 84.362 178.162 84.2666 177.86 84.076C177.56 83.8853 177.325 83.6185 177.155 83.2756C176.987 82.9328 176.904 82.5321 176.904 82.0737C176.904 81.6114 176.987 81.2079 177.155 80.8631C177.325 80.5183 177.56 80.2506 177.86 80.0599C178.162 79.8692 178.514 79.7739 178.915 79.7739C179.315 79.7739 179.666 79.8692 179.966 80.0599C180.269 80.2506 180.504 80.5183 180.671 80.8631C180.841 81.2079 180.926 81.6114 180.926 82.0737C180.926 82.5321 180.841 82.9328 180.671 83.2756C180.504 83.6185 180.269 83.8853 179.966 84.076C179.666 84.2666 179.315 84.362 178.915 84.362ZM178.915 83.7495C179.219 83.7495 179.469 83.6715 179.666 83.5154C179.862 83.3594 180.008 83.1543 180.102 82.9C180.196 82.6458 180.244 82.3703 180.244 82.0737C180.244 81.7771 180.196 81.5007 180.102 81.2445C180.008 80.9883 179.862 80.7812 179.666 80.6233C179.469 80.4654 179.219 80.3864 178.915 80.3864C178.61 80.3864 178.36 80.4654 178.163 80.6233C177.967 80.7812 177.821 80.9883 177.727 81.2445C177.633 81.5007 177.586 81.7771 177.586 82.0737C177.586 82.3703 177.633 82.6458 177.727 82.9C177.821 83.1543 177.967 83.3594 178.163 83.5154C178.36 83.6715 178.61 83.7495 178.915 83.7495ZM183.642 84.362C183.272 84.362 182.946 84.2686 182.663 84.0817C182.38 83.893 182.158 83.6272 181.998 83.2843C181.838 82.9395 181.758 82.5321 181.758 82.0621C181.758 81.596 181.838 81.1915 181.998 80.8487C182.158 80.5058 182.38 80.241 182.666 80.0541C182.951 79.8673 183.28 79.7739 183.654 79.7739C183.943 79.7739 184.171 79.822 184.338 79.9183C184.508 80.0127 184.637 80.1206 184.726 80.2419C184.816 80.3613 184.886 80.4596 184.937 80.5366H184.994V78.3523H185.676V84.2695H185.017V83.5877H184.937C184.886 83.6686 184.815 83.7707 184.723 83.8939C184.63 84.0153 184.498 84.1241 184.327 84.2204C184.155 84.3148 183.927 84.362 183.642 84.362ZM183.735 83.7495C184.008 83.7495 184.239 83.6782 184.428 83.5357C184.617 83.3912 184.76 83.1918 184.859 82.9376C184.957 82.6814 185.006 82.3857 185.006 82.0506C185.006 81.7193 184.958 81.4294 184.861 81.1809C184.765 80.9305 184.623 80.736 184.434 80.5973C184.245 80.4567 184.012 80.3864 183.735 80.3864C183.446 80.3864 183.205 80.4605 183.012 80.6089C182.822 80.7552 182.678 80.9546 182.582 81.2069C182.487 81.4573 182.44 81.7385 182.44 82.0506C182.44 82.3665 182.488 82.6535 182.585 82.9116C182.683 83.1678 182.827 83.3719 183.018 83.5241C183.211 83.6743 183.45 83.7495 183.735 83.7495ZM189.816 82.4551V79.8316H190.498V84.2695H189.816V83.5183H189.77C189.666 83.7437 189.504 83.9353 189.285 84.0933C189.065 84.2493 188.788 84.3273 188.453 84.3273C188.175 84.3273 187.929 84.2666 187.713 84.1453C187.497 84.022 187.328 83.8371 187.205 83.5906C187.081 83.3421 187.02 83.0291 187.02 82.6516V79.8316H187.702V82.6053C187.702 82.9289 187.792 83.187 187.973 83.3796C188.156 83.5723 188.389 83.6686 188.672 83.6686C188.842 83.6686 189.014 83.6252 189.189 83.5386C189.367 83.4519 189.515 83.319 189.634 83.1398C189.756 82.9607 189.816 82.7325 189.816 82.4551ZM193.55 84.362C193.134 84.362 192.776 84.2638 192.475 84.0673C192.175 83.8708 191.944 83.6002 191.782 83.2554C191.62 82.9106 191.539 82.5167 191.539 82.0737C191.539 81.623 191.622 81.2252 191.788 80.8804C191.955 80.5337 192.188 80.2631 192.487 80.0686C192.787 79.8721 193.138 79.7739 193.539 79.7739C193.851 79.7739 194.132 79.8316 194.382 79.9472C194.633 80.0628 194.838 80.2246 194.998 80.4326C195.157 80.6406 195.257 80.8833 195.295 81.1607H194.613C194.561 80.9585 194.446 80.7793 194.267 80.6233C194.089 80.4654 193.851 80.3864 193.55 80.3864C193.284 80.3864 193.051 80.4557 192.851 80.5944C192.652 80.7312 192.497 80.9247 192.386 81.1751C192.276 81.4236 192.221 81.7154 192.221 82.0506C192.221 82.3934 192.275 82.692 192.383 82.9463C192.493 83.2005 192.647 83.3979 192.845 83.5386C193.045 83.6792 193.28 83.7495 193.55 83.7495C193.727 83.7495 193.888 83.7186 194.033 83.657C194.177 83.5954 194.299 83.5068 194.4 83.3912C194.5 83.2756 194.571 83.1369 194.613 82.9751H195.295C195.257 83.2371 195.161 83.4731 195.009 83.683C194.859 83.891 194.66 84.0567 194.411 84.18C194.165 84.3013 193.878 84.362 193.55 84.362ZM198.222 79.8316V80.4095H195.922V79.8316H198.222ZM196.592 78.7684H197.274V82.9983C197.274 83.1909 197.302 83.3353 197.358 83.4316C197.416 83.526 197.489 83.5896 197.578 83.6223C197.668 83.6532 197.764 83.6686 197.864 83.6686C197.939 83.6686 198 83.6647 198.049 83.657C198.097 83.6474 198.135 83.6397 198.164 83.6339L198.303 84.2464C198.257 84.2638 198.192 84.2811 198.109 84.2984C198.026 84.3177 197.922 84.3273 197.794 84.3273C197.602 84.3273 197.413 84.2859 197.228 84.2031C197.045 84.1203 196.893 83.9941 196.772 83.8246C196.652 83.6551 196.592 83.4413 196.592 83.1832V78.7684ZM202.218 78.3523V84.2695H201.536V78.3523H202.218ZM204.773 84.3735C204.491 84.3735 204.236 84.3206 204.007 84.2146C203.778 84.1068 203.596 83.9517 203.461 83.7495C203.326 83.5453 203.259 83.2987 203.259 83.0098C203.259 82.7556 203.309 82.5495 203.409 82.3915C203.509 82.2316 203.643 82.1064 203.811 82.0159C203.978 81.9254 204.163 81.858 204.365 81.8137C204.569 81.7674 204.775 81.7308 204.981 81.7039C205.25 81.6692 205.469 81.6432 205.637 81.6259C205.806 81.6066 205.929 81.5748 206.006 81.5305C206.085 81.4862 206.125 81.4092 206.125 81.2994V81.2763C206.125 80.9912 206.047 80.7697 205.891 80.6117C205.737 80.4538 205.503 80.3748 205.189 80.3748C204.863 80.3748 204.608 80.4461 204.423 80.5886C204.238 80.7312 204.108 80.8833 204.033 81.0451L203.386 80.814C203.501 80.5443 203.655 80.3344 203.848 80.1841C204.043 80.032 204.255 79.926 204.484 79.8663C204.715 79.8047 204.942 79.7739 205.166 79.7739C205.308 79.7739 205.472 79.7912 205.657 79.8259C205.844 79.8586 206.024 79.927 206.197 80.031C206.372 80.135 206.518 80.292 206.633 80.5019C206.749 80.7119 206.807 80.9931 206.807 81.3456V84.2695H206.125V83.6686H206.09C206.044 83.7649 205.967 83.8679 205.859 83.9777C205.751 84.0875 205.608 84.1809 205.429 84.258C205.249 84.335 205.031 84.3735 204.773 84.3735ZM204.877 83.761C205.146 83.761 205.374 83.7081 205.559 83.6021C205.745 83.4962 205.886 83.3594 205.98 83.1918C206.077 83.0243 206.125 82.848 206.125 82.6631V82.039C206.096 82.0737 206.032 82.1055 205.934 82.1344C205.838 82.1613 205.726 82.1854 205.599 82.2066C205.474 82.2259 205.351 82.2432 205.232 82.2586C205.115 82.2721 205.019 82.2837 204.946 82.2933C204.769 82.3164 204.603 82.354 204.449 82.406C204.297 82.456 204.174 82.5321 204.079 82.6342C203.987 82.7344 203.941 82.8711 203.941 83.0445C203.941 83.2814 204.028 83.4605 204.203 83.5819C204.381 83.7013 204.605 83.761 204.877 83.761ZM210.848 82.4551V79.8316H211.53V84.2695H210.848V83.5183H210.802C210.698 83.7437 210.536 83.9353 210.316 84.0933C210.097 84.2493 209.819 84.3273 209.484 84.3273C209.207 84.3273 208.96 84.2666 208.745 84.1453C208.529 84.022 208.359 83.8371 208.236 83.5906C208.113 83.3421 208.051 83.0291 208.051 82.6516V79.8316H208.733V82.6053C208.733 82.9289 208.824 83.187 209.005 83.3796C209.188 83.5723 209.421 83.6686 209.704 83.6686C209.873 83.6686 210.046 83.6252 210.221 83.5386C210.398 83.4519 210.547 83.319 210.666 83.1398C210.787 82.9607 210.848 82.7325 210.848 82.4551ZM213.461 81.5999V84.2695H212.779V79.8316H213.438V80.5251H213.495C213.599 80.2997 213.757 80.1186 213.969 79.9819C214.181 79.8432 214.455 79.7739 214.79 79.7739C215.09 79.7739 215.353 79.8355 215.578 79.9588C215.804 80.0801 215.979 80.265 216.104 80.5135C216.229 80.7601 216.292 81.0721 216.292 81.4496V84.2695H215.61V81.4959C215.61 81.1472 215.52 80.8756 215.339 80.6811C215.158 80.4846 214.909 80.3864 214.593 80.3864C214.376 80.3864 214.181 80.4336 214.01 80.528C213.84 80.6223 213.706 80.7601 213.608 80.9411C213.51 81.1222 213.461 81.3418 213.461 81.5999ZM219.341 84.362C218.925 84.362 218.567 84.2638 218.266 84.0673C217.966 83.8708 217.735 83.6002 217.573 83.2554C217.411 82.9106 217.33 82.5167 217.33 82.0737C217.33 81.623 217.413 81.2252 217.579 80.8804C217.746 80.5337 217.979 80.2631 218.278 80.0686C218.578 79.8721 218.929 79.7739 219.329 79.7739C219.641 79.7739 219.923 79.8316 220.173 79.9472C220.423 80.0628 220.629 80.2246 220.788 80.4326C220.948 80.6406 221.048 80.8833 221.086 81.1607H220.404C220.352 80.9585 220.237 80.7793 220.058 80.6233C219.88 80.4654 219.641 80.3864 219.341 80.3864C219.075 80.3864 218.842 80.4557 218.642 80.5944C218.443 80.7312 218.288 80.9247 218.177 81.1751C218.067 81.4236 218.012 81.7154 218.012 82.0506C218.012 82.3934 218.066 82.692 218.174 82.9463C218.284 83.2005 218.438 83.3979 218.636 83.5386C218.836 83.6792 219.071 83.7495 219.341 83.7495C219.518 83.7495 219.679 83.7186 219.823 83.657C219.968 83.5954 220.09 83.5068 220.19 83.3912C220.291 83.2756 220.362 83.1369 220.404 82.9751H221.086C221.048 83.2371 220.952 83.4731 220.8 83.683C220.65 83.891 220.45 84.0567 220.202 84.18C219.955 84.3013 219.668 84.362 219.341 84.362ZM222.765 81.5999V84.2695H222.083V78.3523H222.765V80.5251H222.823C222.927 80.2959 223.083 80.1138 223.291 79.979C223.501 79.8422 223.78 79.7739 224.128 79.7739C224.431 79.7739 224.696 79.8345 224.923 79.9559C225.15 80.0753 225.327 80.2593 225.452 80.5077C225.579 80.7543 225.642 81.0682 225.642 81.4496V84.2695H224.961V81.4959C224.961 81.1434 224.869 80.8708 224.686 80.6782C224.505 80.4837 224.254 80.3864 223.932 80.3864C223.709 80.3864 223.508 80.4336 223.331 80.528C223.156 80.6223 223.017 80.7601 222.915 80.9411C222.815 81.1222 222.765 81.3418 222.765 81.5999ZM227.907 83.4605L227.861 83.7726C227.828 83.9922 227.778 84.2272 227.71 84.4776C227.645 84.728 227.577 84.9639 227.505 85.1854C227.434 85.4069 227.375 85.5832 227.329 85.7142H226.809C226.834 85.5909 226.867 85.4281 226.907 85.2259C226.948 85.0236 226.988 84.7973 227.029 84.5469C227.071 84.2984 227.106 84.0442 227.133 83.7841L227.167 83.4605H227.907ZM231.458 84.2695V79.8316H232.14V84.2695H231.458ZM231.805 79.092C231.672 79.092 231.558 79.0467 231.461 78.9562C231.367 78.8657 231.32 78.7568 231.32 78.6297C231.32 78.5026 231.367 78.3938 231.461 78.3032C231.558 78.2127 231.672 78.1674 231.805 78.1674C231.938 78.1674 232.052 78.2127 232.146 78.3032C232.242 78.3938 232.291 78.5026 232.291 78.6297C232.291 78.7568 232.242 78.8657 232.146 78.9562C232.052 79.0467 231.938 79.092 231.805 79.092ZM234.071 81.5999V84.2695H233.389V79.8316H234.048V80.5251H234.106C234.21 80.2997 234.368 80.1186 234.58 79.9819C234.791 79.8432 235.065 79.7739 235.4 79.7739C235.701 79.7739 235.964 79.8355 236.189 79.9588C236.414 80.0801 236.59 80.265 236.715 80.5135C236.84 80.7601 236.903 81.0721 236.903 81.4496V84.2695H236.221V81.4959C236.221 81.1472 236.13 80.8756 235.949 80.6811C235.768 80.4846 235.52 80.3864 235.204 80.3864C234.986 80.3864 234.791 80.4336 234.62 80.528C234.451 80.6223 234.317 80.7601 234.218 80.9411C234.12 81.1222 234.071 81.3418 234.071 81.5999ZM241.619 79.8316L239.977 84.2695H239.284L237.643 79.8316H238.383L239.608 83.3681H239.654L240.879 79.8316H241.619ZM244.22 84.362C243.793 84.362 243.424 84.2676 243.114 84.0788C242.806 83.8882 242.568 83.6223 242.4 83.2814C242.234 82.9386 242.152 82.5398 242.152 82.0853C242.152 81.6307 242.234 81.23 242.4 80.8833C242.568 80.5347 242.801 80.2631 243.099 80.0686C243.4 79.8721 243.75 79.7739 244.151 79.7739C244.382 79.7739 244.61 79.8124 244.836 79.8894C245.061 79.9665 245.266 80.0917 245.451 80.265C245.636 80.4365 245.783 80.6637 245.893 80.9469C246.003 81.23 246.058 81.5787 246.058 81.9928V82.2817H242.637V81.6923H245.364C245.364 81.4419 245.314 81.2185 245.214 81.022C245.116 80.8255 244.975 80.6705 244.792 80.5568C244.611 80.4432 244.398 80.3864 244.151 80.3864C243.879 80.3864 243.644 80.4538 243.446 80.5886C243.25 80.7215 243.098 80.8949 242.992 81.1087C242.886 81.3225 242.833 81.5517 242.833 81.7963V82.1893C242.833 82.5244 242.891 82.8085 243.007 83.0416C243.124 83.2727 243.287 83.449 243.495 83.5703C243.703 83.6898 243.945 83.7495 244.22 83.7495C244.399 83.7495 244.561 83.7244 244.706 83.6743C244.852 83.6223 244.978 83.5453 245.084 83.4432C245.19 83.3392 245.272 83.2101 245.33 83.056L245.989 83.241C245.919 83.4644 245.803 83.6609 245.639 83.8304C245.475 83.9979 245.273 84.1289 245.032 84.2233C244.791 84.3158 244.521 84.362 244.22 84.362ZM250.239 80.8255L249.626 80.9989C249.588 80.8968 249.531 80.7976 249.456 80.7013C249.382 80.6031 249.282 80.5222 249.155 80.4586C249.028 80.395 248.865 80.3633 248.667 80.3633C248.395 80.3633 248.169 80.4259 247.988 80.5511C247.809 80.6743 247.719 80.8313 247.719 81.022C247.719 81.1915 247.781 81.3254 247.904 81.4236C248.027 81.5219 248.22 81.6037 248.482 81.6692L249.141 81.831C249.537 81.9273 249.833 82.0747 250.028 82.2731C250.222 82.4695 250.32 82.7228 250.32 83.0329C250.32 83.2872 250.246 83.5145 250.1 83.7148C249.955 83.9151 249.753 84.0731 249.493 84.1886C249.233 84.3042 248.931 84.362 248.586 84.362C248.133 84.362 247.759 84.2638 247.462 84.0673C247.165 83.8708 246.978 83.5838 246.899 83.2063L247.546 83.0445C247.607 83.2833 247.724 83.4625 247.895 83.5819C248.069 83.7013 248.295 83.761 248.574 83.761C248.892 83.761 249.145 83.6936 249.331 83.5588C249.52 83.422 249.615 83.2583 249.615 83.0676C249.615 82.9135 249.561 82.7845 249.453 82.6804C249.345 82.5745 249.179 82.4955 248.956 82.4435L248.216 82.2702C247.81 82.1739 247.511 82.0246 247.32 81.8223C247.132 81.6182 247.037 81.3629 247.037 81.0567C247.037 80.8063 247.108 80.5848 247.248 80.3922C247.391 80.1995 247.584 80.0483 247.829 79.9385C248.076 79.8288 248.355 79.7739 248.667 79.7739C249.106 79.7739 249.451 79.8702 249.701 80.0628C249.954 80.2554 250.133 80.5097 250.239 80.8255ZM253.276 79.8316V80.4095H250.976V79.8316H253.276ZM251.646 78.7684H252.328V82.9983C252.328 83.1909 252.356 83.3353 252.412 83.4316C252.47 83.526 252.543 83.5896 252.632 83.6223C252.722 83.6532 252.818 83.6686 252.918 83.6686C252.993 83.6686 253.054 83.6647 253.103 83.657C253.151 83.6474 253.189 83.6397 253.218 83.6339L253.357 84.2464C253.311 84.2638 253.246 84.2811 253.163 84.2984C253.08 84.3177 252.975 84.3273 252.848 84.3273C252.656 84.3273 252.467 84.2859 252.282 84.2031C252.099 84.1203 251.947 83.9941 251.826 83.8246C251.706 83.6551 251.646 83.4413 251.646 83.1832V78.7684ZM256.057 84.362C255.656 84.362 255.305 84.2666 255.002 84.076C254.702 83.8853 254.467 83.6185 254.297 83.2756C254.13 82.9328 254.046 82.5321 254.046 82.0737C254.046 81.6114 254.13 81.2079 254.297 80.8631C254.467 80.5183 254.702 80.2506 255.002 80.0599C255.305 79.8692 255.656 79.7739 256.057 79.7739C256.457 79.7739 256.808 79.8692 257.109 80.0599C257.411 80.2506 257.646 80.5183 257.814 80.8631C257.983 81.2079 258.068 81.6114 258.068 82.0737C258.068 82.5321 257.983 82.9328 257.814 83.2756C257.646 83.6185 257.411 83.8853 257.109 84.076C256.808 84.2666 256.457 84.362 256.057 84.362ZM256.057 83.7495C256.361 83.7495 256.612 83.6715 256.808 83.5154C257.005 83.3594 257.15 83.1543 257.244 82.9C257.339 82.6458 257.386 82.3703 257.386 82.0737C257.386 81.7771 257.339 81.5007 257.244 81.2445C257.15 80.9883 257.005 80.7812 256.808 80.6233C256.612 80.4654 256.361 80.3864 256.057 80.3864C255.753 80.3864 255.502 80.4654 255.306 80.6233C255.109 80.7812 254.964 80.9883 254.869 81.2445C254.775 81.5007 254.728 81.7771 254.728 82.0737C254.728 82.3703 254.775 82.6458 254.869 82.9C254.964 83.1543 255.109 83.3594 255.306 83.5154C255.502 83.6715 255.753 83.7495 256.057 83.7495ZM259.109 84.2695V79.8316H259.767V80.5019H259.814C259.894 80.2824 260.041 80.1042 260.253 79.9674C260.465 79.8307 260.703 79.7623 260.969 79.7623C261.019 79.7623 261.082 79.7633 261.157 79.7652C261.232 79.7671 261.289 79.77 261.328 79.7739V80.4673C261.304 80.4615 261.251 80.4528 261.169 80.4413C261.088 80.4278 261.002 80.4211 260.911 80.4211C260.696 80.4211 260.503 80.4663 260.334 80.5568C260.166 80.6454 260.033 80.7687 259.935 80.9267C259.839 81.0827 259.79 81.2609 259.79 81.4612V84.2695H259.109ZM42.087 97.9337V91.8316H42.7457V92.5366H42.8266C42.8767 92.4596 42.946 92.3613 43.0346 92.2419C43.1252 92.1206 43.2542 92.0127 43.4218 91.9183C43.5913 91.822 43.8205 91.7739 44.1094 91.7739C44.4831 91.7739 44.8125 91.8673 45.0976 92.0541C45.3826 92.241 45.6051 92.5058 45.765 92.8487C45.9249 93.1915 46.0048 93.596 46.0048 94.0621C46.0048 94.5321 45.9249 94.9395 45.765 95.2843C45.6051 95.6272 45.3836 95.893 45.1005 96.0817C44.8173 96.2686 44.4908 96.362 44.121 96.362C43.8359 96.362 43.6077 96.3148 43.4362 96.2204C43.2648 96.1241 43.1329 96.0153 43.0404 95.8939C42.948 95.7707 42.8767 95.6686 42.8266 95.5877H42.7688V97.9337H42.087ZM42.7573 94.0506C42.7573 94.3857 42.8064 94.6814 42.9046 94.9376C43.0029 95.1918 43.1464 95.3912 43.3351 95.5357C43.5239 95.6782 43.755 95.7495 44.0285 95.7495C44.3136 95.7495 44.5515 95.6743 44.7422 95.5241C44.9348 95.3719 45.0793 95.1678 45.1756 94.9116C45.2738 94.6535 45.3229 94.3665 45.3229 94.0506C45.3229 93.7385 45.2748 93.4573 45.1785 93.2069C45.0841 92.9546 44.9406 92.7552 44.748 92.6089C44.5573 92.4605 44.3175 92.3864 44.0285 92.3864C43.7512 92.3864 43.5181 92.4567 43.3293 92.5973C43.1406 92.736 42.998 92.9305 42.9017 93.1809C42.8054 93.4294 42.7573 93.7193 42.7573 94.0506ZM47.0449 96.2695V91.8316H47.7268V96.2695H47.0449ZM47.3916 91.092C47.2587 91.092 47.1441 91.0467 47.0478 90.9562C46.9534 90.8657 46.9062 90.7568 46.9062 90.6297C46.9062 90.5026 46.9534 90.3938 47.0478 90.3032C47.1441 90.2127 47.2587 90.1674 47.3916 90.1674C47.5245 90.1674 47.6382 90.2127 47.7326 90.3032C47.8289 90.3938 47.877 90.5026 47.877 90.6297C47.877 90.7568 47.8289 90.8657 47.7326 90.9562C47.6382 91.0467 47.5245 91.092 47.3916 91.092ZM50.9057 91.8316V92.4095H48.6058V91.8316H50.9057ZM49.2761 90.7684H49.958V94.9983C49.958 95.1909 49.9859 95.3353 50.0418 95.4316C50.0996 95.526 50.1728 95.5896 50.2614 95.6223C50.3519 95.6532 50.4473 95.6686 50.5474 95.6686C50.6225 95.6686 50.6842 95.6647 50.7323 95.657C50.7805 95.6474 50.819 95.6397 50.8479 95.6339L50.9866 96.2464C50.9404 96.2638 50.8758 96.2811 50.793 96.2984C50.7102 96.3177 50.6052 96.3273 50.4781 96.3273C50.2855 96.3273 50.0967 96.2859 49.9118 96.2031C49.7288 96.1203 49.5766 95.9941 49.4553 95.8246C49.3359 95.6551 49.2761 95.4413 49.2761 95.1832V90.7684ZM53.6866 96.362C53.2705 96.362 52.9123 96.2638 52.6118 96.0673C52.3113 95.8708 52.0802 95.6002 51.9184 95.2554C51.7566 94.9106 51.6757 94.5167 51.6757 94.0737C51.6757 93.623 51.7585 93.2252 51.9241 92.8804C52.0917 92.5337 52.3248 92.2631 52.6233 92.0686C52.9238 91.8721 53.2744 91.7739 53.675 91.7739C53.9871 91.7739 54.2683 91.8316 54.5187 91.9472C54.7691 92.0628 54.9742 92.2246 55.1341 92.4326C55.294 92.6406 55.3932 92.8833 55.4317 93.1607H54.7498C54.6978 92.9585 54.5823 92.7793 54.4031 92.6233C54.2259 92.4654 53.9871 92.3864 53.6866 92.3864C53.4208 92.3864 53.1877 92.4557 52.9874 92.5944C52.789 92.7312 52.6339 92.9247 52.5222 93.1751C52.4124 93.4236 52.3575 93.7154 52.3575 94.0506C52.3575 94.3934 52.4115 94.692 52.5193 94.9463C52.6291 95.2005 52.7832 95.3979 52.9816 95.5386C53.1819 95.6792 53.4169 95.7495 53.6866 95.7495C53.8638 95.7495 54.0246 95.7186 54.1691 95.657C54.3135 95.5954 54.4359 95.5068 54.536 95.3912C54.6362 95.2756 54.7075 95.1369 54.7498 94.9751H55.4317C55.3932 95.2371 55.2978 95.4731 55.1457 95.683C54.9954 95.891 54.7961 96.0567 54.5476 96.18C54.301 96.3013 54.014 96.362 53.6866 96.362ZM57.1103 93.5999V96.2695H56.4285V90.3523H57.1103V92.5251H57.1681C57.2721 92.2959 57.4282 92.1138 57.6362 91.979C57.8461 91.8422 58.1254 91.7739 58.4741 91.7739C58.7765 91.7739 59.0413 91.8345 59.2686 91.9559C59.4959 92.0753 59.6721 92.2593 59.7973 92.5077C59.9245 92.7543 59.988 93.0682 59.988 93.4496V96.2695H59.3062V93.4959C59.3062 93.1434 59.2147 92.8708 59.0317 92.6782C58.8506 92.4837 58.5993 92.3864 58.2776 92.3864C58.0542 92.3864 57.8538 92.4336 57.6766 92.528C57.5014 92.6223 57.3627 92.7601 57.2606 92.9411C57.1604 93.1222 57.1103 93.3418 57.1103 93.5999ZM65.5 91.8316V92.4095H63.1077V91.8316H65.5ZM63.8242 96.2695V91.2191C63.8242 90.9649 63.8839 90.753 64.0034 90.5835C64.1228 90.414 64.2778 90.2869 64.4685 90.2021C64.6592 90.1174 64.8605 90.075 65.0724 90.075C65.24 90.075 65.3767 90.0885 65.4827 90.1154C65.5886 90.1424 65.6676 90.1674 65.7196 90.1906L65.5231 90.78C65.4884 90.7684 65.4403 90.754 65.3787 90.7366C65.3189 90.7193 65.24 90.7106 65.1417 90.7106C64.9164 90.7106 64.7536 90.7674 64.6535 90.8811C64.5552 90.9947 64.5061 91.1613 64.5061 91.3809V96.2695H63.8242ZM68.0758 96.362C67.6751 96.362 67.3236 96.2666 67.0212 96.076C66.7207 95.8853 66.4857 95.6185 66.3162 95.2756C66.1486 94.9328 66.0648 94.5321 66.0648 94.0737C66.0648 93.6114 66.1486 93.2079 66.3162 92.8631C66.4857 92.5183 66.7207 92.2506 67.0212 92.0599C67.3236 91.8692 67.6751 91.7739 68.0758 91.7739C68.4764 91.7739 68.827 91.8692 69.1275 92.0599C69.4299 92.2506 69.6649 92.5183 69.8324 92.8631C70.0019 93.2079 70.0867 93.6114 70.0867 94.0737C70.0867 94.5321 70.0019 94.9328 69.8324 95.2756C69.6649 95.6185 69.4299 95.8853 69.1275 96.076C68.827 96.2666 68.4764 96.362 68.0758 96.362ZM68.0758 95.7495C68.3801 95.7495 68.6305 95.6715 68.827 95.5154C69.0234 95.3594 69.1689 95.1543 69.2632 94.9C69.3576 94.6458 69.4048 94.3703 69.4048 94.0737C69.4048 93.7771 69.3576 93.5007 69.2632 93.2445C69.1689 92.9883 69.0234 92.7812 68.827 92.6233C68.6305 92.4654 68.3801 92.3864 68.0758 92.3864C67.7714 92.3864 67.521 92.4654 67.3246 92.6233C67.1281 92.7812 66.9827 92.9883 66.8883 93.2445C66.7939 93.5007 66.7467 93.7771 66.7467 94.0737C66.7467 94.3703 66.7939 94.6458 66.8883 94.9C66.9827 95.1543 67.1281 95.3594 67.3246 95.5154C67.521 95.6715 67.7714 95.7495 68.0758 95.7495ZM71.1275 96.2695V91.8316H71.7863V92.5019H71.8325C71.9134 92.2824 72.0598 92.1042 72.2717 91.9674C72.4836 91.8307 72.7224 91.7623 72.9882 91.7623C73.0383 91.7623 73.1009 91.7633 73.176 91.7652C73.2511 91.7671 73.308 91.77 73.3465 91.7739V92.4673C73.3234 92.4615 73.2704 92.4528 73.1876 92.4413C73.1067 92.4278 73.021 92.4211 72.9304 92.4211C72.7147 92.4211 72.5221 92.4663 72.3526 92.5568C72.185 92.6454 72.0521 92.7687 71.9539 92.9267C71.8576 93.0827 71.8094 93.2609 71.8094 93.4612V96.2695H71.1275ZM77.749 96.3735C77.4678 96.3735 77.2125 96.3206 76.9833 96.2146C76.7541 96.1068 76.5721 95.9517 76.4373 95.7495C76.3024 95.5453 76.235 95.2987 76.235 95.0098C76.235 94.7556 76.2851 94.5495 76.3852 94.3915C76.4854 94.2316 76.6193 94.1064 76.7869 94.0159C76.9544 93.9254 77.1393 93.858 77.3416 93.8137C77.5458 93.7674 77.7509 93.7308 77.957 93.7039C78.2267 93.6692 78.4453 93.6432 78.6129 93.6259C78.7824 93.6066 78.9056 93.5748 78.9827 93.5305C79.0617 93.4862 79.1011 93.4092 79.1011 93.2994V93.2763C79.1011 92.9912 79.0231 92.7697 78.8671 92.6117C78.713 92.4538 78.479 92.3748 78.165 92.3748C77.8395 92.3748 77.5843 92.4461 77.3994 92.5886C77.2145 92.7312 77.0844 92.8833 77.0093 93.0451L76.3621 92.814C76.4777 92.5443 76.6318 92.3344 76.8244 92.1841C77.019 92.032 77.2308 91.926 77.46 91.8663C77.6912 91.8047 77.9185 91.7739 78.1419 91.7739C78.2844 91.7739 78.4482 91.7912 78.6331 91.8259C78.8199 91.8586 79 91.927 79.1734 92.031C79.3487 92.135 79.4941 92.292 79.6096 92.5019C79.7252 92.7119 79.783 92.9931 79.783 93.3456V96.2695H79.1011V95.6686H79.0665C79.0202 95.7649 78.9432 95.8679 78.8353 95.9777C78.7275 96.0875 78.584 96.1809 78.4048 96.258C78.2257 96.335 78.0071 96.3735 77.749 96.3735ZM77.853 95.761C78.1226 95.761 78.3499 95.7081 78.5348 95.6021C78.7217 95.4962 78.8623 95.3594 78.9567 95.1918C79.053 95.0243 79.1011 94.848 79.1011 94.6631V94.039C79.0722 94.0737 79.0087 94.1055 78.9105 94.1344C78.8141 94.1613 78.7024 94.1854 78.5753 94.2066C78.4501 94.2259 78.3278 94.2432 78.2084 94.2586C78.0909 94.2721 77.9955 94.2837 77.9223 94.2933C77.7451 94.3164 77.5795 94.354 77.4254 94.406C77.2732 94.456 77.1499 94.5321 77.0556 94.6342C76.9631 94.7344 76.9169 94.8711 76.9169 95.0445C76.9169 95.2814 77.0045 95.4605 77.1798 95.5819C77.357 95.7013 77.5814 95.761 77.853 95.761ZM86.4593 92.8255L85.8468 92.9989C85.8083 92.8968 85.7515 92.7976 85.6764 92.7013C85.6032 92.6031 85.503 92.5222 85.3759 92.4586C85.2487 92.395 85.086 92.3633 84.8876 92.3633C84.616 92.3633 84.3897 92.4259 84.2086 92.5511C84.0295 92.6743 83.9399 92.8313 83.9399 93.022C83.9399 93.1915 84.0016 93.3254 84.1248 93.4236C84.2481 93.5219 84.4407 93.6037 84.7027 93.6692L85.3614 93.831C85.7582 93.9273 86.0539 94.0747 86.2484 94.2731C86.443 94.4695 86.5402 94.7228 86.5402 95.0329C86.5402 95.2872 86.467 95.5145 86.3207 95.7148C86.1762 95.9151 85.9739 96.0731 85.7139 96.1886C85.4539 96.3042 85.1515 96.362 84.8067 96.362C84.354 96.362 83.9794 96.2638 83.6828 96.0673C83.3861 95.8708 83.1983 95.5838 83.1194 95.2063L83.7666 95.0445C83.8282 95.2833 83.9447 95.4625 84.1162 95.5819C84.2895 95.7013 84.5158 95.761 84.7951 95.761C85.1129 95.761 85.3653 95.6936 85.5521 95.5588C85.7409 95.422 85.8353 95.2583 85.8353 95.0676C85.8353 94.9135 85.7813 94.7845 85.6735 94.6804C85.5656 94.5745 85.3999 94.4955 85.1765 94.4435L84.4369 94.2702C84.0304 94.1739 83.7319 94.0246 83.5412 93.8223C83.3524 93.6182 83.2581 93.3629 83.2581 93.0567C83.2581 92.8063 83.3284 92.5848 83.469 92.3922C83.6115 92.1995 83.8051 92.0483 84.0497 91.9385C84.2963 91.8288 84.5755 91.7739 84.8876 91.7739C85.3268 91.7739 85.6715 91.8702 85.9219 92.0628C86.1743 92.2554 86.3534 92.5097 86.4593 92.8255ZM89.4967 91.8316V92.4095H87.1968V91.8316H89.4967ZM87.8671 90.7684H88.549V94.9983C88.549 95.1909 88.5769 95.3353 88.6328 95.4316C88.6906 95.526 88.7638 95.5896 88.8524 95.6223C88.9429 95.6532 89.0382 95.6686 89.1384 95.6686C89.2135 95.6686 89.2752 95.6647 89.3233 95.657C89.3715 95.6474 89.41 95.6397 89.4389 95.6339L89.5776 96.2464C89.5313 96.2638 89.4668 96.2811 89.384 96.2984C89.3012 96.3177 89.1962 96.3273 89.0691 96.3273C88.8764 96.3273 88.6877 96.2859 88.5028 96.2031C88.3198 96.1203 88.1676 95.9941 88.0463 95.8246C87.9268 95.6551 87.8671 95.4413 87.8671 95.1832V90.7684ZM91.8283 96.3735C91.5471 96.3735 91.2919 96.3206 91.0626 96.2146C90.8334 96.1068 90.6514 95.9517 90.5166 95.7495C90.3817 95.5453 90.3143 95.2987 90.3143 95.0098C90.3143 94.7556 90.3644 94.5495 90.4646 94.3915C90.5647 94.2316 90.6986 94.1064 90.8662 94.0159C91.0337 93.9254 91.2187 93.858 91.4209 93.8137C91.6251 93.7674 91.8302 93.7308 92.0363 93.7039C92.306 93.6692 92.5246 93.6432 92.6922 93.6259C92.8617 93.6066 92.985 93.5748 93.062 93.5305C93.141 93.4862 93.1805 93.4092 93.1805 93.2994V93.2763C93.1805 92.9912 93.1024 92.7697 92.9464 92.6117C92.7923 92.4538 92.5583 92.3748 92.2443 92.3748C91.9188 92.3748 91.6636 92.4461 91.4787 92.5886C91.2938 92.7312 91.1638 92.8833 91.0886 93.0451L90.4414 92.814C90.557 92.5443 90.7111 92.3344 90.9037 92.1841C91.0983 92.032 91.3101 91.926 91.5394 91.8663C91.7705 91.8047 91.9978 91.7739 92.2212 91.7739C92.3638 91.7739 92.5275 91.7912 92.7124 91.8259C92.8992 91.8586 93.0793 91.927 93.2527 92.031C93.428 92.135 93.5734 92.292 93.689 92.5019C93.8045 92.7119 93.8623 92.9931 93.8623 93.3456V96.2695H93.1805V95.6686H93.1458C93.0996 95.7649 93.0225 95.8679 92.9146 95.9777C92.8068 96.0875 92.6633 96.1809 92.4841 96.258C92.305 96.335 92.0864 96.3735 91.8283 96.3735ZM91.9323 95.761C92.202 95.761 92.4293 95.7081 92.6142 95.6021C92.801 95.4962 92.9416 95.3594 93.036 95.1918C93.1323 95.0243 93.1805 94.848 93.1805 94.6631V94.039C93.1516 94.0737 93.088 94.1055 92.9898 94.1344C92.8935 94.1613 92.7817 94.1854 92.6546 94.2066C92.5294 94.2259 92.4071 94.2432 92.2877 94.2586C92.1702 94.2721 92.0748 94.2837 92.0016 94.2933C91.8244 94.3164 91.6588 94.354 91.5047 94.406C91.3525 94.456 91.2293 94.5321 91.1349 94.6342C91.0424 94.7344 90.9962 94.8711 90.9962 95.0445C90.9962 95.2814 91.0838 95.4605 91.2591 95.5819C91.4363 95.7013 91.6607 95.761 91.9323 95.761ZM95.1069 96.2695V91.8316H95.7656V92.5019H95.8118C95.8927 92.2824 96.0391 92.1042 96.251 91.9674C96.4629 91.8307 96.7017 91.7623 96.9675 91.7623C97.0176 91.7623 97.0802 91.7633 97.1553 91.7652C97.2305 91.7671 97.2873 91.77 97.3258 91.7739V92.4673C97.3027 92.4615 97.2497 92.4528 97.1669 92.4413C97.086 92.4278 97.0003 92.4211 96.9098 92.4211C96.694 92.4211 96.5014 92.4663 96.3319 92.5568C96.1643 92.6454 96.0314 92.7687 95.9332 92.9267C95.8369 93.0827 95.7887 93.2609 95.7887 93.4612V96.2695H95.1069ZM100.342 91.8316V92.4095H98.0423V91.8316H100.342ZM98.7126 90.7684H99.3945V94.9983C99.3945 95.1909 99.4224 95.3353 99.4783 95.4316C99.5361 95.526 99.6093 95.5896 99.6979 95.6223C99.7884 95.6532 99.8838 95.6686 99.9839 95.6686C100.059 95.6686 100.121 95.6647 100.169 95.657C100.217 95.6474 100.256 95.6397 100.284 95.6339L100.423 96.2464C100.377 96.2638 100.312 96.2811 100.23 96.2984C100.147 96.3177 100.042 96.3273 99.9146 96.3273C99.722 96.3273 99.5332 96.2859 99.3483 96.2031C99.1653 96.1203 99.0131 95.9941 98.8918 95.8246C98.7724 95.6551 98.7126 95.4413 98.7126 95.1832V90.7684ZM104.165 94.4551V91.8316H104.847V96.2695H104.165V95.5183H104.118C104.014 95.7437 103.853 95.9353 103.633 96.0933C103.413 96.2493 103.136 96.3273 102.801 96.3273C102.524 96.3273 102.277 96.2666 102.061 96.1453C101.846 96.022 101.676 95.8371 101.553 95.5906C101.43 95.3421 101.368 95.0291 101.368 94.6516V91.8316H102.05V94.6053C102.05 94.9289 102.14 95.187 102.321 95.3796C102.504 95.5723 102.737 95.6686 103.021 95.6686C103.19 95.6686 103.362 95.6252 103.538 95.5386C103.715 95.4519 103.863 95.319 103.983 95.1398C104.104 94.9607 104.165 94.7325 104.165 94.4551ZM106.095 97.9337V91.8316H106.754V92.5366H106.835C106.885 92.4596 106.954 92.3613 107.043 92.2419C107.134 92.1206 107.263 92.0127 107.43 91.9183C107.6 91.822 107.829 91.7739 108.118 91.7739C108.492 91.7739 108.821 91.8673 109.106 92.0541C109.391 92.241 109.614 92.5058 109.773 92.8487C109.933 93.1915 110.013 93.596 110.013 94.0621C110.013 94.5321 109.933 94.9395 109.773 95.2843C109.614 95.6272 109.392 95.893 109.109 96.0817C108.826 96.2686 108.499 96.362 108.129 96.362C107.844 96.362 107.616 96.3148 107.445 96.2204C107.273 96.1241 107.141 96.0153 107.049 95.8939C106.956 95.7707 106.885 95.6686 106.835 95.5877H106.777V97.9337H106.095ZM106.766 94.0506C106.766 94.3857 106.815 94.6814 106.913 94.9376C107.011 95.1918 107.155 95.3912 107.344 95.5357C107.532 95.6782 107.763 95.7495 108.037 95.7495C108.322 95.7495 108.56 95.6743 108.751 95.5241C108.943 95.3719 109.088 95.1678 109.184 94.9116C109.282 94.6535 109.331 94.3665 109.331 94.0506C109.331 93.7385 109.283 93.4573 109.187 93.2069C109.093 92.9546 108.949 92.7552 108.756 92.6089C108.566 92.4605 108.326 92.3864 108.037 92.3864C107.76 92.3864 107.527 92.4567 107.338 92.5973C107.149 92.736 107.006 92.9305 106.91 93.1809C106.814 93.4294 106.766 93.7193 106.766 94.0506ZM111.55 96.3158C111.408 96.3158 111.285 96.2647 111.183 96.1626C111.081 96.0605 111.03 95.9382 111.03 95.7957C111.03 95.6532 111.081 95.5308 111.183 95.4288C111.285 95.3267 111.408 95.2756 111.55 95.2756C111.693 95.2756 111.815 95.3267 111.917 95.4288C112.019 95.5308 112.07 95.6532 112.07 95.7957C112.07 95.8901 112.046 95.9768 111.998 96.0557C111.952 96.1347 111.889 96.1983 111.81 96.2464C111.733 96.2926 111.647 96.3158 111.55 96.3158ZM113.791 96.3158C113.648 96.3158 113.526 96.2647 113.424 96.1626C113.322 96.0605 113.271 95.9382 113.271 95.7957C113.271 95.6532 113.322 95.5308 113.424 95.4288C113.526 95.3267 113.648 95.2756 113.791 95.2756C113.933 95.2756 114.056 95.3267 114.158 95.4288C114.26 95.5308 114.311 95.6532 114.311 95.7957C114.311 95.8901 114.287 95.9768 114.239 96.0557C114.193 96.1347 114.13 96.1983 114.051 96.2464C113.974 96.2926 113.887 96.3158 113.791 96.3158ZM116.032 96.3158C115.889 96.3158 115.767 96.2647 115.665 96.1626C115.563 96.0605 115.511 95.9382 115.511 95.7957C115.511 95.6532 115.563 95.5308 115.665 95.4288C115.767 95.3267 115.889 95.2756 116.032 95.2756C116.174 95.2756 116.296 95.3267 116.398 95.4288C116.501 95.5308 116.552 95.6532 116.552 95.7957C116.552 95.8901 116.528 95.9768 116.479 96.0557C116.433 96.1347 116.371 96.1983 116.292 96.2464C116.215 96.2926 116.128 96.3158 116.032 96.3158Z" fill="#686868"/>
<rect x="41.4629" y="210.104" width="14.0249" height="14.0249" rx="2.5972" fill="#EFEFEF"/>
<path d="M48.4725 218.089C49.0103 218.089 49.4464 217.653 49.4464 217.116C49.4464 216.578 49.0103 216.142 48.4725 216.142C47.9346 216.142 47.4985 216.578 47.4985 217.116C47.4985 217.653 47.9346 218.089 48.4725 218.089Z" stroke="#0D111A" stroke-width="0.623328" stroke-miterlimit="10" stroke-linecap="round" stroke-linejoin="round"/>
<path d="M44.6367 217.439V216.795C44.6367 216.415 44.9627 216.1 45.3653 216.1C46.0594 216.1 46.3432 215.632 45.9942 215.057C45.7948 214.728 45.9137 214.3 46.2626 214.11L46.9261 213.748C47.229 213.576 47.6201 213.678 47.8004 213.967L47.8426 214.037C48.1877 214.611 48.7552 214.611 49.1042 214.037L49.1464 213.967C49.3266 213.678 49.7178 213.576 50.0207 213.748L50.6841 214.11C51.0331 214.3 51.1519 214.728 50.9525 215.057C50.6036 215.632 50.8873 216.1 51.5814 216.1C51.9803 216.1 52.31 216.411 52.31 216.795V217.439C52.31 217.819 51.9841 218.134 51.5814 218.134C50.8873 218.134 50.6036 218.602 50.9525 219.177C51.1519 219.51 51.0331 219.934 50.6841 220.124L50.0207 220.486C49.7178 220.658 49.3266 220.556 49.1464 220.267L49.1042 220.197C48.7591 219.623 48.1915 219.623 47.8426 220.197L47.8004 220.267C47.6201 220.556 47.229 220.658 46.9261 220.486L46.2626 220.124C45.9137 219.934 45.7948 219.506 45.9942 219.177C46.3432 218.602 46.0594 218.134 45.3653 218.134C44.9627 218.134 44.6367 217.819 44.6367 217.439Z" stroke="#0D111A" stroke-width="0.623328" stroke-miterlimit="10" stroke-linecap="round" stroke-linejoin="round"/>
<rect x="59.6431" y="210" width="33.7387" height="14.2333" rx="3.11664" fill="#EEEEEE"/>
<path d="M70.8435 215.432H70.4018V214.514C70.4018 214.375 70.2882 214.262 70.1494 214.262H66.455C66.3162 214.262 66.2026 214.375 66.2026 214.514V219.029C66.2026 219.168 66.3162 219.281 66.455 219.281H67.3729V219.723C67.3729 219.862 67.4864 219.975 67.6253 219.975H69.7707C69.9095 219.975 70.1059 219.897 70.2069 219.802L70.912 219.139C71.0131 219.044 71.0958 218.852 71.0958 218.713L71.0959 215.684C71.0959 215.546 70.9823 215.432 70.8435 215.432ZM67.3729 215.684V219.092H66.455C66.4208 219.092 66.3919 219.063 66.3919 219.029V214.514C66.3919 214.48 66.4208 214.451 66.455 214.451H70.1494C70.1836 214.451 70.2125 214.48 70.2125 214.514V215.432H67.6253C67.4864 215.432 67.3729 215.546 67.3729 215.684ZM70.7822 219.001L70.0771 219.665C70.0627 219.678 70.0439 219.691 70.0231 219.704V219.123C70.0231 219.08 70.0406 219.041 70.0694 219.012C70.0985 218.983 70.1375 218.966 70.1809 218.966H70.8122C70.8024 218.979 70.7924 218.991 70.7822 219.001ZM70.9065 218.713C70.9065 218.732 70.9031 218.754 70.8979 218.776H70.1809C69.9894 218.777 69.8342 218.932 69.8338 219.123V219.778C69.8113 219.783 69.7896 219.786 69.7707 219.786H67.6253C67.591 219.786 67.5622 219.757 67.5622 219.723V215.684C67.5622 215.65 67.591 215.621 67.6253 215.621H70.8435C70.8777 215.621 70.9066 215.65 70.9066 215.684L70.9065 218.713Z" fill="#0D111A" stroke="#0D111A" stroke-width="0.233748"/>
<path d="M70.1512 216.314H68.3212C68.3088 216.314 68.2965 216.317 68.285 216.322C68.2735 216.326 68.2631 216.333 68.2543 216.342C68.2455 216.351 68.2385 216.361 68.2338 216.373C68.229 216.384 68.2266 216.397 68.2266 216.409C68.2266 216.422 68.229 216.434 68.2338 216.445C68.2385 216.457 68.2455 216.467 68.2543 216.476C68.2631 216.485 68.2735 216.492 68.285 216.497C68.2965 216.501 68.3088 216.504 68.3212 216.504H70.1512C70.2034 216.504 70.2458 216.461 70.2458 216.409C70.2458 216.357 70.2034 216.314 70.1512 216.314ZM70.1512 217.577H68.3212C68.3088 217.577 68.2965 217.579 68.285 217.584C68.2735 217.588 68.2631 217.595 68.2543 217.604C68.2455 217.613 68.2385 217.623 68.2338 217.635C68.229 217.646 68.2266 217.659 68.2266 217.671C68.2266 217.684 68.229 217.696 68.2338 217.707C68.2385 217.719 68.2455 217.729 68.2543 217.738C68.2631 217.747 68.2735 217.754 68.285 217.759C68.2965 217.763 68.3088 217.766 68.3212 217.766H70.1512C70.1636 217.766 70.1759 217.763 70.1874 217.759C70.1989 217.754 70.2093 217.747 70.2181 217.738C70.2269 217.729 70.2339 217.719 70.2386 217.707C70.2434 217.696 70.2458 217.684 70.2458 217.671C70.2458 217.659 70.2434 217.646 70.2386 217.635C70.2339 217.623 70.2269 217.613 70.2181 217.604C70.2093 217.595 70.1989 217.588 70.1874 217.584C70.1759 217.579 70.1636 217.577 70.1512 217.577ZM70.1512 216.945H68.3212C68.2689 216.945 68.2266 216.988 68.2266 217.04C68.2266 217.092 68.2689 217.135 68.3212 217.135H70.1512C70.2034 217.135 70.2458 217.092 70.2458 217.04C70.2458 216.988 70.2034 216.945 70.1512 216.945Z" fill="#0D111A" stroke="#0D111A" stroke-width="0.155832"/>
<path d="M74.7365 219.116V214.583H77.4547V215.07H75.2854V216.602H77.251V217.089H75.2854V219.116H74.7365ZM78.324 219.116V215.716H78.8464V219.116H78.324ZM78.5896 215.15C78.4878 215.15 78.4 215.115 78.3262 215.046C78.2539 214.976 78.2178 214.893 78.2178 214.795C78.2178 214.698 78.2539 214.615 78.3262 214.545C78.4 214.476 78.4878 214.441 78.5896 214.441C78.6915 214.441 78.7785 214.476 78.8508 214.545C78.9246 214.615 78.9615 214.698 78.9615 214.795C78.9615 214.893 78.9246 214.976 78.8508 215.046C78.7785 215.115 78.6915 215.15 78.5896 215.15ZM80.3256 214.583V219.116H79.8032V214.583H80.3256ZM82.7079 219.187C82.3803 219.187 82.0977 219.115 81.8601 218.97C81.624 218.824 81.4418 218.62 81.3134 218.359C81.1865 218.097 81.123 217.791 81.123 217.443C81.123 217.095 81.1865 216.788 81.3134 216.522C81.4418 216.255 81.6203 216.047 81.8491 215.898C82.0793 215.747 82.3478 215.672 82.6548 215.672C82.8319 215.672 83.0067 215.701 83.1794 215.761C83.352 215.82 83.5092 215.915 83.6509 216.048C83.7925 216.18 83.9054 216.354 83.9895 216.571C84.0737 216.788 84.1157 217.055 84.1157 217.372V217.593H81.4949V217.142H83.5845C83.5845 216.95 83.5461 216.779 83.4694 216.628C83.3941 216.478 83.2864 216.359 83.1462 216.272C83.0075 216.185 82.8437 216.141 82.6548 216.141C82.4467 216.141 82.2667 216.193 82.1147 216.296C81.9642 216.398 81.8483 216.531 81.7672 216.695C81.686 216.858 81.6454 217.034 81.6454 217.221V217.522C81.6454 217.779 81.6897 217.997 81.7782 218.175C81.8682 218.353 81.9929 218.488 82.1523 218.581C82.3117 218.672 82.4969 218.718 82.7079 218.718C82.8451 218.718 82.9691 218.699 83.0798 218.66C83.1919 218.62 83.2886 218.561 83.3698 218.483C83.4509 218.403 83.5136 218.305 83.5579 218.187L84.0626 218.328C84.0095 218.499 83.9202 218.65 83.7947 218.78C83.6693 218.908 83.5144 219.008 83.3299 219.081C83.1454 219.152 82.9381 219.187 82.7079 219.187ZM87.3187 216.478L86.8494 216.611C86.8199 216.532 86.7764 216.456 86.7188 216.383C86.6627 216.307 86.586 216.245 86.4886 216.197C86.3912 216.148 86.2665 216.124 86.1145 216.124C85.9065 216.124 85.7331 216.171 85.5943 216.267C85.4571 216.362 85.3885 216.482 85.3885 216.628C85.3885 216.758 85.4357 216.861 85.5302 216.936C85.6246 217.011 85.7722 217.074 85.9729 217.124L86.4775 217.248C86.7815 217.322 87.008 217.435 87.1571 217.587C87.3061 217.737 87.3807 217.931 87.3807 218.169C87.3807 218.364 87.3246 218.538 87.2124 218.691C87.1018 218.845 86.9468 218.966 86.7476 219.054C86.5484 219.143 86.3167 219.187 86.0525 219.187C85.7058 219.187 85.4187 219.112 85.1915 218.961C84.9642 218.811 84.8203 218.591 84.7598 218.302L85.2557 218.178C85.3029 218.361 85.3922 218.498 85.5235 218.589C85.6563 218.681 85.8297 218.727 86.0437 218.727C86.2872 218.727 86.4805 218.675 86.6236 218.572C86.7682 218.467 86.8406 218.341 86.8406 218.195C86.8406 218.077 86.7992 217.978 86.7166 217.899C86.634 217.818 86.5071 217.757 86.3359 217.717L85.7692 217.584C85.4578 217.511 85.2291 217.396 85.083 217.241C84.9384 217.085 84.8661 216.889 84.8661 216.655C84.8661 216.463 84.92 216.293 85.0277 216.146C85.1369 215.998 85.2852 215.882 85.4726 215.798C85.6615 215.714 85.8755 215.672 86.1145 215.672C86.451 215.672 86.7151 215.746 86.907 215.893C87.1003 216.041 87.2375 216.236 87.3187 216.478Z" fill="#0D111A"/>
<rect x="97.5376" y="210" width="37.7387" height="14.2333" rx="3.11664" fill="#EFEFEF"/>
<g clip-path="url(#clip1_342_3651)">
<path fill-rule="evenodd" clip-rule="evenodd" d="M107.731 214.485L107.75 214.49C108.075 214.576 108.333 214.644 108.535 214.715C108.743 214.789 108.912 214.873 109.051 215C109.254 215.187 109.395 215.428 109.458 215.693C109.502 215.875 109.492 216.061 109.453 216.273C109.415 216.482 109.346 216.734 109.259 217.053L109.1 217.632C109.013 217.951 108.944 218.204 108.871 218.402C108.796 218.605 108.711 218.771 108.58 218.908C108.397 219.1 108.16 219.237 107.9 219.302C107.823 219.473 107.712 219.628 107.573 219.756C107.434 219.884 107.264 219.968 107.057 220.041C106.855 220.113 106.597 220.181 106.272 220.266L106.252 220.271C105.927 220.357 105.67 220.424 105.458 220.462C105.241 220.5 105.052 220.51 104.866 220.467C104.595 220.406 104.35 220.266 104.16 220.067C104.03 219.931 103.944 219.765 103.869 219.562C103.796 219.363 103.727 219.111 103.64 218.792L103.481 218.213C103.394 217.894 103.325 217.641 103.287 217.433C103.249 217.221 103.238 217.035 103.281 216.853C103.345 216.587 103.487 216.346 103.689 216.16C103.828 216.033 103.998 215.949 104.205 215.875C104.407 215.803 104.665 215.736 104.99 215.65L105 215.647L105.222 215.589C105.338 215.184 105.439 214.897 105.638 214.689C105.828 214.49 106.074 214.351 106.344 214.289C106.53 214.247 106.719 214.257 106.936 214.295C107.148 214.332 107.405 214.4 107.731 214.485ZM105.088 216.075C104.765 216.16 104.533 216.221 104.355 216.284C104.175 216.348 104.069 216.407 103.993 216.478C103.854 216.605 103.757 216.77 103.713 216.952C103.69 217.052 103.69 217.172 103.724 217.357C103.758 217.544 103.822 217.779 103.912 218.11L104.066 218.67C104.156 219 104.22 219.235 104.286 219.414C104.351 219.591 104.411 219.695 104.484 219.77C104.613 219.906 104.782 220.002 104.967 220.044C105.069 220.067 105.191 220.066 105.38 220.033C105.571 220 105.81 219.937 106.147 219.849C106.485 219.76 106.724 219.697 106.907 219.632C107.087 219.568 107.193 219.509 107.269 219.439C107.31 219.401 107.347 219.361 107.381 219.317C107.326 219.31 107.271 219.3 107.217 219.29C107.018 219.251 106.779 219.188 106.485 219.111L106.468 219.106C106.143 219.021 105.886 218.953 105.683 218.881C105.476 218.808 105.307 218.724 105.167 218.596C104.965 218.41 104.823 218.169 104.76 217.904C104.717 217.722 104.727 217.536 104.766 217.324C104.803 217.115 104.873 216.863 104.96 216.544L105.088 216.075ZM106.858 214.723C106.669 214.69 106.547 214.689 106.445 214.713C106.26 214.755 106.092 214.85 105.962 214.987C105.833 215.121 105.753 215.33 105.616 215.825L105.544 216.087L105.391 216.647C105.3 216.978 105.236 217.213 105.202 217.4C105.168 217.585 105.168 217.705 105.192 217.805C105.235 217.987 105.332 218.152 105.471 218.279C105.548 218.35 105.653 218.409 105.833 218.473C106.016 218.537 106.256 218.6 106.593 218.689C106.896 218.769 107.12 218.828 107.303 218.863C107.485 218.899 107.609 218.907 107.71 218.895C107.732 218.892 107.753 218.889 107.774 218.884C107.959 218.842 108.127 218.746 108.257 218.61C108.329 218.535 108.389 218.431 108.454 218.255C108.52 218.075 108.584 217.841 108.675 217.51L108.828 216.95C108.918 216.619 108.982 216.384 109.016 216.197C109.05 216.012 109.051 215.892 109.027 215.792C108.984 215.61 108.886 215.445 108.748 215.318C108.671 215.247 108.565 215.188 108.385 215.124C108.202 215.06 107.963 214.997 107.626 214.908C107.289 214.82 107.049 214.757 106.858 214.723ZM106.151 216.742C106.159 216.715 106.172 216.689 106.19 216.666C106.207 216.644 106.229 216.625 106.255 216.61C106.28 216.596 106.308 216.587 106.337 216.583C106.366 216.58 106.395 216.581 106.423 216.589L107.851 216.964C107.906 216.98 107.953 217.017 107.981 217.066C108.009 217.116 108.016 217.174 108.001 217.229C107.986 217.283 107.95 217.33 107.901 217.359C107.851 217.388 107.792 217.397 107.736 217.384L106.308 217.009C106.251 216.994 106.203 216.957 106.174 216.907C106.144 216.857 106.136 216.798 106.151 216.742ZM105.922 217.583C105.929 217.555 105.942 217.529 105.96 217.507C105.978 217.484 106 217.465 106.025 217.451C106.05 217.436 106.078 217.427 106.107 217.423C106.136 217.42 106.165 217.422 106.194 217.429L107.05 217.654C107.107 217.669 107.155 217.705 107.185 217.755C107.214 217.805 107.222 217.865 107.207 217.92C107.192 217.976 107.155 218.024 107.104 218.052C107.053 218.081 106.992 218.089 106.935 218.074L106.079 217.849C106.022 217.834 105.973 217.798 105.944 217.748C105.915 217.698 105.906 217.638 105.922 217.583Z" fill="#0D111A" stroke="#0D111A" stroke-width="0.0675272"/>
</g>
<path d="M116.226 214.583V219.116H115.695L113.224 215.557H113.18V219.116H112.631V214.583H113.162L115.641 218.151H115.686V214.583H116.226ZM118.635 219.187C118.328 219.187 118.058 219.114 117.827 218.968C117.596 218.822 117.416 218.617 117.287 218.355C117.158 218.092 117.094 217.785 117.094 217.434C117.094 217.08 117.158 216.771 117.287 216.506C117.416 216.242 117.596 216.037 117.827 215.891C118.058 215.745 118.328 215.672 118.635 215.672C118.942 215.672 119.21 215.745 119.44 215.891C119.672 216.037 119.852 216.242 119.98 216.506C120.11 216.771 120.175 217.08 120.175 217.434C120.175 217.785 120.11 218.092 119.98 218.355C119.852 218.617 119.672 218.822 119.44 218.968C119.21 219.114 118.942 219.187 118.635 219.187ZM118.635 218.718C118.868 218.718 119.06 218.658 119.21 218.538C119.361 218.419 119.472 218.262 119.544 218.067C119.617 217.872 119.653 217.661 119.653 217.434C119.653 217.207 119.617 216.995 119.544 216.799C119.472 216.602 119.361 216.444 119.21 216.323C119.06 216.202 118.868 216.141 118.635 216.141C118.401 216.141 118.21 216.202 118.059 216.323C117.909 216.444 117.797 216.602 117.725 216.799C117.653 216.995 117.616 217.207 117.616 217.434C117.616 217.661 117.653 217.872 117.725 218.067C117.797 218.262 117.909 218.419 118.059 218.538C118.21 218.658 118.401 218.718 118.635 218.718ZM122.451 215.716V216.159H120.689V215.716H122.451ZM121.203 214.902H121.725V218.142C121.725 218.29 121.747 218.401 121.789 218.474C121.834 218.547 121.89 218.595 121.958 218.62C122.027 218.644 122.1 218.656 122.177 218.656C122.234 218.656 122.282 218.653 122.318 218.647C122.355 218.64 122.385 218.634 122.407 218.629L122.513 219.099C122.478 219.112 122.428 219.125 122.365 219.138C122.302 219.153 122.221 219.16 122.124 219.16C121.976 219.16 121.831 219.129 121.69 219.065C121.55 219.002 121.433 218.905 121.34 218.775C121.249 218.645 121.203 218.482 121.203 218.284V214.902ZM124.626 219.187C124.298 219.187 124.016 219.115 123.778 218.97C123.542 218.824 123.36 218.62 123.232 218.359C123.105 218.097 123.041 217.791 123.041 217.443C123.041 217.095 123.105 216.788 123.232 216.522C123.36 216.255 123.538 216.047 123.767 215.898C123.997 215.747 124.266 215.672 124.573 215.672C124.75 215.672 124.925 215.701 125.098 215.761C125.27 215.82 125.427 215.915 125.569 216.048C125.711 216.18 125.824 216.354 125.908 216.571C125.992 216.788 126.034 217.055 126.034 217.372V217.593H123.413V217.142H125.503C125.503 216.95 125.464 216.779 125.388 216.628C125.312 216.478 125.205 216.359 125.064 216.272C124.926 216.185 124.762 216.141 124.573 216.141C124.365 216.141 124.185 216.193 124.033 216.296C123.882 216.398 123.766 216.531 123.685 216.695C123.604 216.858 123.564 217.034 123.564 217.221V217.522C123.564 217.779 123.608 217.997 123.696 218.175C123.786 218.353 123.911 218.488 124.07 218.581C124.23 218.672 124.415 218.718 124.626 218.718C124.763 218.718 124.887 218.699 124.998 218.66C125.11 218.62 125.207 218.561 125.288 218.483C125.369 218.403 125.432 218.305 125.476 218.187L125.981 218.328C125.928 218.499 125.838 218.65 125.713 218.78C125.587 218.908 125.433 219.008 125.248 219.081C125.064 219.152 124.856 219.187 124.626 219.187ZM129.237 216.478L128.768 216.611C128.738 216.532 128.695 216.456 128.637 216.383C128.581 216.307 128.504 216.245 128.407 216.197C128.309 216.148 128.185 216.124 128.033 216.124C127.825 216.124 127.651 216.171 127.513 216.267C127.375 216.362 127.307 216.482 127.307 216.628C127.307 216.758 127.354 216.861 127.448 216.936C127.543 217.011 127.69 217.074 127.891 217.124L128.396 217.248C128.7 217.322 128.926 217.435 129.075 217.587C129.224 217.737 129.299 217.931 129.299 218.169C129.299 218.364 129.243 218.538 129.131 218.691C129.02 218.845 128.865 218.966 128.666 219.054C128.467 219.143 128.235 219.187 127.971 219.187C127.624 219.187 127.337 219.112 127.11 218.961C126.882 218.811 126.739 218.591 126.678 218.302L127.174 218.178C127.221 218.361 127.31 218.498 127.442 218.589C127.574 218.681 127.748 218.727 127.962 218.727C128.205 218.727 128.399 218.675 128.542 218.572C128.686 218.467 128.759 218.341 128.759 218.195C128.759 218.077 128.717 217.978 128.635 217.899C128.552 217.818 128.425 217.757 128.254 217.717L127.687 217.584C127.376 217.511 127.147 217.396 127.001 217.241C126.857 217.085 126.784 216.889 126.784 216.655C126.784 216.463 126.838 216.293 126.946 216.146C127.055 215.998 127.203 215.882 127.391 215.798C127.58 215.714 127.794 215.672 128.033 215.672C128.369 215.672 128.633 215.746 128.825 215.893C129.018 216.041 129.156 216.236 129.237 216.478Z" fill="#0D111A"/>
<rect x="219.111" y="209.5" width="55.8554" height="15.2333" rx="7.61664" fill="#074ED6"/>
<path d="M229.505 215.998C229.455 215.842 229.387 215.701 229.303 215.577C229.22 215.452 229.121 215.345 229.006 215.257C228.891 215.168 228.759 215.1 228.611 215.053C228.465 215.007 228.304 214.983 228.128 214.983C227.83 214.983 227.562 215.06 227.322 215.213C227.083 215.366 226.894 215.591 226.754 215.887C226.617 216.182 226.548 216.542 226.548 216.969C226.548 217.398 226.617 217.76 226.757 218.056C226.896 218.353 227.087 218.577 227.33 218.73C227.573 218.884 227.849 218.96 228.159 218.96C228.447 218.96 228.697 218.902 228.911 218.785C229.126 218.668 229.292 218.502 229.409 218.289C229.528 218.074 229.587 217.821 229.587 217.53L229.794 217.568H228.28V216.91H230.359V217.512C230.359 217.956 230.265 218.341 230.075 218.668C229.888 218.994 229.628 219.245 229.295 219.423C228.965 219.6 228.586 219.689 228.159 219.689C227.68 219.689 227.26 219.578 226.899 219.358C226.539 219.138 226.258 218.825 226.057 218.421C225.856 218.014 225.755 217.532 225.755 216.974C225.755 216.553 225.813 216.174 225.93 215.838C226.048 215.502 226.212 215.217 226.424 214.983C226.637 214.747 226.888 214.568 227.175 214.444C227.464 214.318 227.78 214.255 228.123 214.255C228.409 214.255 228.675 214.297 228.921 214.382C229.169 214.466 229.389 214.586 229.582 214.741C229.777 214.896 229.938 215.08 230.065 215.293C230.192 215.505 230.278 215.74 230.323 215.998H229.505ZM233.02 219.696C232.629 219.696 232.293 219.613 232.01 219.446C231.73 219.277 231.513 219.04 231.359 218.736C231.208 218.429 231.132 218.07 231.132 217.659C231.132 217.252 231.208 216.894 231.359 216.584C231.513 216.275 231.726 216.033 232 215.859C232.275 215.685 232.597 215.598 232.966 215.598C233.189 215.598 233.406 215.635 233.616 215.709C233.826 215.783 234.015 215.899 234.182 216.058C234.349 216.216 234.481 216.422 234.577 216.675C234.674 216.926 234.722 217.232 234.722 217.592V217.865H231.569V217.287H233.965C233.965 217.084 233.924 216.904 233.841 216.747C233.758 216.589 233.642 216.464 233.492 216.373C233.344 216.281 233.171 216.236 232.971 216.236C232.754 216.236 232.565 216.289 232.403 216.396C232.243 216.501 232.119 216.639 232.031 216.809C231.945 216.978 231.902 217.161 231.902 217.359V217.811C231.902 218.076 231.948 218.302 232.041 218.488C232.136 218.674 232.268 218.816 232.436 218.914C232.605 219.01 232.802 219.058 233.028 219.058C233.174 219.058 233.307 219.038 233.428 218.996C233.548 218.953 233.653 218.89 233.74 218.805C233.828 218.721 233.895 218.617 233.942 218.493L234.673 218.625C234.614 218.84 234.509 219.028 234.358 219.19C234.208 219.35 234.019 219.475 233.792 219.565C233.567 219.652 233.309 219.696 233.02 219.696ZM236.351 217.261V219.616H235.578V215.65H236.32V216.295H236.369C236.46 216.085 236.603 215.916 236.797 215.789C236.994 215.662 237.241 215.598 237.539 215.598C237.809 215.598 238.046 215.655 238.249 215.768C238.452 215.88 238.609 216.047 238.721 216.269C238.833 216.491 238.889 216.766 238.889 217.093V219.616H238.117V217.186C238.117 216.899 238.042 216.674 237.892 216.512C237.743 216.349 237.537 216.267 237.275 216.267C237.096 216.267 236.937 216.306 236.797 216.383C236.66 216.46 236.55 216.574 236.469 216.724C236.39 216.872 236.351 217.051 236.351 217.261ZM241.634 219.696C241.243 219.696 240.907 219.613 240.625 219.446C240.344 219.277 240.127 219.04 239.974 218.736C239.822 218.429 239.747 218.07 239.747 217.659C239.747 217.252 239.822 216.894 239.974 216.584C240.127 216.275 240.34 216.033 240.614 215.859C240.89 215.685 241.212 215.598 241.58 215.598C241.804 215.598 242.021 215.635 242.231 215.709C242.441 215.783 242.629 215.899 242.796 216.058C242.963 216.216 243.095 216.422 243.192 216.675C243.288 216.926 243.336 217.232 243.336 217.592V217.865H240.183V217.287H242.579C242.579 217.084 242.538 216.904 242.456 216.747C242.373 216.589 242.257 216.464 242.107 216.373C241.959 216.281 241.785 216.236 241.585 216.236C241.368 216.236 241.179 216.289 241.017 216.396C240.857 216.501 240.733 216.639 240.645 216.809C240.559 216.978 240.516 217.161 240.516 217.359V217.811C240.516 218.076 240.563 218.302 240.656 218.488C240.75 218.674 240.882 218.816 241.051 218.914C241.219 219.01 241.417 219.058 241.642 219.058C241.788 219.058 241.922 219.038 242.042 218.996C242.163 218.953 242.267 218.89 242.355 218.805C242.443 218.721 242.51 218.617 242.556 218.493L243.287 218.625C243.229 218.84 243.124 219.028 242.972 219.19C242.822 219.35 242.634 219.475 242.406 219.565C242.181 219.652 241.924 219.696 241.634 219.696ZM244.193 219.616V215.65H244.939V216.28H244.981C245.053 216.066 245.18 215.898 245.363 215.776C245.547 215.652 245.755 215.59 245.988 215.59C246.036 215.59 246.093 215.592 246.158 215.595C246.225 215.599 246.278 215.603 246.316 215.608V216.347C246.285 216.338 246.23 216.329 246.15 216.318C246.071 216.306 245.992 216.3 245.913 216.3C245.73 216.3 245.568 216.339 245.425 216.417C245.284 216.492 245.172 216.598 245.089 216.734C245.006 216.868 244.965 217.022 244.965 217.194V219.616H244.193ZM248.103 219.704C247.851 219.704 247.624 219.658 247.421 219.565C247.218 219.47 247.057 219.333 246.938 219.154C246.821 218.975 246.762 218.755 246.762 218.495C246.762 218.272 246.805 218.087 246.892 217.943C246.978 217.798 247.094 217.684 247.24 217.599C247.386 217.515 247.55 217.451 247.731 217.408C247.912 217.365 248.096 217.332 248.283 217.31C248.521 217.283 248.714 217.26 248.862 217.243C249.01 217.224 249.118 217.194 249.185 217.153C249.252 217.111 249.285 217.044 249.285 216.951V216.933C249.285 216.708 249.222 216.533 249.094 216.409C248.969 216.285 248.781 216.223 248.531 216.223C248.271 216.223 248.067 216.281 247.917 216.396C247.769 216.51 247.666 216.636 247.609 216.776L246.884 216.61C246.97 216.369 247.096 216.175 247.261 216.027C247.428 215.877 247.62 215.768 247.837 215.701C248.054 215.632 248.282 215.598 248.521 215.598C248.679 215.598 248.847 215.617 249.025 215.655C249.204 215.691 249.371 215.758 249.526 215.856C249.682 215.954 249.811 216.095 249.91 216.277C250.01 216.458 250.06 216.693 250.06 216.982V219.616H249.306V219.074H249.275C249.225 219.174 249.15 219.272 249.05 219.368C248.951 219.465 248.822 219.545 248.666 219.608C248.509 219.672 248.321 219.704 248.103 219.704ZM248.271 219.084C248.484 219.084 248.667 219.042 248.818 218.958C248.971 218.873 249.087 218.763 249.167 218.627C249.248 218.489 249.288 218.342 249.288 218.186V217.674C249.26 217.702 249.207 217.728 249.128 217.752C249.05 217.774 248.962 217.794 248.862 217.811C248.762 217.827 248.665 217.841 248.57 217.855C248.475 217.867 248.396 217.877 248.333 217.886C248.183 217.905 248.046 217.937 247.922 217.982C247.8 218.026 247.702 218.091 247.628 218.175C247.555 218.258 247.519 218.368 247.519 218.506C247.519 218.697 247.59 218.841 247.731 218.94C247.872 219.036 248.052 219.084 248.271 219.084ZM252.94 215.65V216.269H250.774V215.65H252.94ZM251.355 214.699H252.127V218.452C252.127 218.601 252.149 218.714 252.194 218.79C252.239 218.864 252.296 218.915 252.367 218.942C252.439 218.968 252.518 218.981 252.602 218.981C252.664 218.981 252.718 218.977 252.765 218.968C252.811 218.959 252.847 218.953 252.873 218.947L253.013 219.585C252.968 219.602 252.904 219.62 252.821 219.637C252.739 219.656 252.636 219.666 252.512 219.668C252.308 219.671 252.119 219.635 251.943 219.559C251.768 219.484 251.626 219.367 251.517 219.208C251.409 219.05 251.355 218.851 251.355 218.612V214.699ZM255.461 219.696C255.071 219.696 254.734 219.613 254.452 219.446C254.171 219.277 253.954 219.04 253.801 218.736C253.649 218.429 253.574 218.07 253.574 217.659C253.574 217.252 253.649 216.894 253.801 216.584C253.954 216.275 254.168 216.033 254.441 215.859C254.717 215.685 255.039 215.598 255.407 215.598C255.631 215.598 255.848 215.635 256.058 215.709C256.268 215.783 256.456 215.899 256.623 216.058C256.79 216.216 256.922 216.422 257.019 216.675C257.115 216.926 257.163 217.232 257.163 217.592V217.865H254.01V217.287H256.407C256.407 217.084 256.365 216.904 256.283 216.747C256.2 216.589 256.084 216.464 255.934 216.373C255.786 216.281 255.612 216.236 255.412 216.236C255.195 216.236 255.006 216.289 254.844 216.396C254.684 216.501 254.56 216.639 254.472 216.809C254.386 216.978 254.343 217.161 254.343 217.359V217.811C254.343 218.076 254.39 218.302 254.483 218.488C254.577 218.674 254.709 218.816 254.878 218.914C255.046 219.01 255.244 219.058 255.469 219.058C255.615 219.058 255.749 219.038 255.869 218.996C255.99 218.953 256.094 218.89 256.182 218.805C256.27 218.721 256.337 218.617 256.383 218.493L257.114 218.625C257.056 218.84 256.951 219.028 256.799 219.19C256.649 219.35 256.461 219.475 256.234 219.565C256.008 219.652 255.751 219.696 255.461 219.696Z" fill="white"/>
<g clip-path="url(#clip2_342_3651)">
<path d="M265.648 213.555L265.84 214.407C266.002 215.129 266.567 215.693 267.289 215.856L268.141 216.048L267.289 216.24C266.567 216.403 266.002 216.967 265.84 217.69L265.648 218.541L265.456 217.69C265.293 216.967 264.729 216.403 264.006 216.24L263.154 216.048L264.006 215.856C264.729 215.693 265.293 215.129 265.456 214.407L265.648 213.555Z" fill="white"/>
<path d="M262.798 217.115L262.935 217.724C263.051 218.24 263.454 218.643 263.97 218.759L264.579 218.896L263.97 219.033C263.454 219.15 263.051 219.553 262.935 220.069L262.798 220.677L262.661 220.069C262.544 219.553 262.141 219.15 261.625 219.033L261.017 218.896L261.625 218.759C262.141 218.643 262.544 218.24 262.661 217.724L262.798 217.115Z" fill="white"/>
</g>
</g>
</g>
<defs>
<filter id="filter0_d_342_3651" x="-6.10352e-05" y="31.859" width="316.43" height="235.041" filterUnits="userSpaceOnUse" color-interpolation-filters="sRGB">
<feFlood flood-opacity="0" result="BackgroundImageFix"/>
<feColorMatrix in="SourceAlpha" type="matrix" values="0 0 0 0 0 0 0 0 0 0 0 0 0 0 0 0 0 0 127 0" result="hardAlpha"/>
<feOffset dy="2.07776"/>
<feGaussianBlur stdDeviation="15.5371"/>
<feComposite in2="hardAlpha" operator="out"/>
<feColorMatrix type="matrix" values="0 0 0 0 0 0 0 0 0 0 0 0 0 0 0 0 0 0 0.08 0"/>
<feBlend mode="normal" in2="BackgroundImageFix" result="effect1_dropShadow_342_3651"/>
<feBlend mode="normal" in="SourceGraphic" in2="effect1_dropShadow_342_3651" result="shape"/>
</filter>
<clipPath id="clip0_342_3651">
<rect x="31.0742" y="60.8555" width="254.281" height="172.893" rx="6.23328" fill="white"/>
</clipPath>
<clipPath id="clip1_342_3651">
<rect x="102.732" y="213.48" width="7.27217" height="7.27217" rx="1.55832" fill="white"/>
</clipPath>
<clipPath id="clip2_342_3651">
<rect width="8.31105" height="8.31105" fill="white" transform="translate(260.422 212.961)"/>
</clipPath>
</defs>
</svg>
