<svg width="24" height="24" viewBox="0 0 24 24" fill="none" xmlns="http://www.w3.org/2000/svg">
<rect y="2.45632" width="21.295" height="21.295" rx="3.99281" transform="rotate(-6.62365 0 2.45632)" fill="url(#paint0_linear_342_3150)"/>
<path d="M6.38483 6.67274L7.70491 18.0407C7.75676 18.4872 8.16451 18.8101 8.61105 18.7583L16.5058 17.8415C16.9525 17.7897 17.2755 17.3818 17.2236 16.9351L16.1566 7.74584C16.1276 7.49652 16.0008 7.26892 15.8041 7.11308L13.5154 5.30068C13.3187 5.14487 13.068 5.0736 12.8187 5.10255L7.10265 5.76631C6.65598 5.81818 6.33296 6.22607 6.38483 6.67274Z" fill="#EEEEEE"/>
<path d="M9.18215 11.8771L14.3733 11.2743C14.4354 11.2671 14.4921 11.2355 14.531 11.1865C14.5698 11.1374 14.5876 11.075 14.5803 11.0128L14.514 10.4416C14.5068 10.3794 14.4752 10.3227 14.4262 10.2839C14.3771 10.2451 14.3147 10.2273 14.2525 10.2345L9.06141 10.8373C8.99928 10.8445 8.94256 10.8761 8.90373 10.9252C8.8649 10.9742 8.84714 11.0367 8.85435 11.0988L8.92069 11.67C8.9279 11.7322 8.9595 11.7889 9.00854 11.8277C9.05757 11.8666 9.12002 11.8843 9.18215 11.8771ZM9.37063 13.5002L14.5618 12.8974C14.6239 12.8902 14.6806 12.8586 14.7194 12.8096C14.7583 12.7605 14.776 12.6981 14.7688 12.6359L14.7025 12.0647C14.6953 12.0025 14.6637 11.9458 14.6146 11.907C14.5656 11.8682 14.5031 11.8504 14.441 11.8576L9.24989 12.4604C9.18776 12.4676 9.13104 12.4992 9.09221 12.5483C9.05338 12.5973 9.03562 12.6598 9.04283 12.7219L9.10917 13.2931C9.11638 13.3553 9.14798 13.412 9.19702 13.4508C9.24605 13.4897 9.3085 13.5074 9.37063 13.5002ZM9.55911 15.1233L14.7502 14.5205C14.8124 14.5133 14.8691 14.4817 14.9079 14.4326C14.9467 14.3836 14.9645 14.3211 14.9573 14.259L14.891 13.6878C14.8837 13.6256 14.8521 13.5689 14.8031 13.5301C14.7541 13.4913 14.6916 13.4735 14.6295 13.4807L9.43837 14.0835C9.37624 14.0907 9.31952 14.1223 9.28069 14.1714C9.24186 14.2204 9.22409 14.2829 9.23131 14.345L9.29764 14.9163C9.30487 14.9784 9.33647 15.0351 9.3855 15.0739C9.43453 15.1127 9.49698 15.1305 9.55911 15.1233ZM9.68293 16.7539L12.3107 16.4487C12.3557 16.4435 12.3968 16.4206 12.4249 16.3851C12.453 16.3496 12.4659 16.3044 12.4607 16.2594L12.3793 15.5589C12.3741 15.5139 12.3512 15.4728 12.3157 15.4447C12.2802 15.4166 12.235 15.4038 12.19 15.409L9.56219 15.7141C9.51721 15.7194 9.47614 15.7422 9.44803 15.7777C9.41992 15.8132 9.40706 15.8585 9.41228 15.9034L9.49363 16.604C9.49885 16.649 9.52173 16.69 9.55723 16.7181C9.59273 16.7463 9.63795 16.7591 9.68293 16.7539Z" fill="#BDBDBD"/>
<path d="M13.5156 5.30087C13.382 5.19505 13.2222 5.12729 13.0532 5.10476L13.3606 7.75211L16.4407 10.1913L16.1568 7.74601C16.1278 7.49669 16.001 7.26908 15.8043 7.11325L13.5156 5.30087Z" fill="#E8E8E8"/>
<path d="M16.1021 7.52169C16.1066 7.53438 16.1109 7.54677 16.1148 7.55873L13.6273 7.84759C13.4512 7.86804 13.2918 7.74184 13.2713 7.56569L12.9849 5.0989C13.0057 5.10017 13.0265 5.10187 13.0472 5.104C13.2374 5.12348 13.4175 5.1992 13.5674 5.31788L15.7754 7.06638C15.9248 7.18454 16.038 7.3423 16.1021 7.52169Z" fill="#B6B6B6"/>
<path d="M17.1321 16.1479L17.2235 16.9355C17.2754 17.3822 16.9524 17.7901 16.5057 17.8419L8.61092 18.7587C8.16438 18.8105 7.75662 18.4876 7.70477 18.0411L7.61328 17.2532L17.1321 16.1479Z" fill="#E8E8E8"/>
<defs>
<linearGradient id="paint0_linear_342_3150" x1="7.41421" y1="-4.78957" x2="10.6475" y2="23.7513" gradientUnits="userSpaceOnUse">
<stop stop-color="#074ED6"/>
<stop offset="1" stop-color="#6A9DFF"/>
</linearGradient>
</defs>
</svg>
