<svg width="34" height="34" viewBox="0 0 34 34" fill="none" xmlns="http://www.w3.org/2000/svg">
<g clip-path="url(#clip0_342_4071)">
<path d="M0 25.5003V7.08366C0 3.95849 2.5415 1.41699 5.66667 1.41699H8.5C9.15733 1.41699 9.81467 1.57141 10.4012 1.86466L14.8708 4.10016C15.0663 4.19791 15.2858 4.24891 15.504 4.24891H22.6667C26.5724 4.24891 29.75 7.42649 29.75 11.3322H14.2007C12.368 11.3405 10.5865 11.9374 9.11889 13.0349C7.65124 14.1325 6.57511 15.6726 6.04917 17.4282L2.26242 30.6584C1.55056 30.0004 0.982203 29.2025 0.592908 28.3147C0.203613 27.4269 0.00176579 26.4697 0 25.5003ZM33.2818 15.6077C32.9521 15.1623 32.5237 14.7993 32.0301 14.5473C31.5365 14.2954 30.9912 14.1613 30.4371 14.1557C30.4158 14.1557 30.3988 14.167 30.3776 14.167H14.2007C12.9805 14.1722 11.7943 14.5689 10.8165 15.2988C9.83871 16.0287 9.12107 17.0532 8.76917 18.2215L4.777 32.1657C5.51685 32.4336 6.29654 32.5749 7.08333 32.5837H24.8738C28.0273 32.5837 30.753 30.555 31.6767 27.4737L33.847 18.8094C34.0114 18.269 34.0461 17.6974 33.9481 17.1411C33.8501 16.5848 33.6209 16.0595 33.2818 15.6077Z" fill="#074ED6"/>
</g>
<defs>
<clipPath id="clip0_342_4071">
<rect width="34" height="34" fill="white"/>
</clipPath>
</defs>
</svg>
