<svg width="34" height="34" viewBox="0 0 34 34" fill="none" xmlns="http://www.w3.org/2000/svg">
<g clip-path="url(#clip0_342_3874)">
<path d="M18.2509 21.5563L7.0096 32.7975C6.63171 33.1943 6.17826 33.5115 5.67595 33.7304C5.17363 33.9493 4.6326 34.0655 4.08469 34.0722C3.53679 34.0789 2.99308 33.9759 2.48558 33.7693C1.97808 33.5627 1.51703 33.2567 1.12957 32.8692C0.742117 32.4818 0.436083 32.0207 0.229484 31.5132C0.0228844 31.0057 -0.0801058 30.462 -0.0734251 29.9141C-0.0667443 29.3662 0.0494725 28.8252 0.268385 28.3228C0.487297 27.8205 0.804482 27.3671 1.20127 26.9892L12.4425 15.7479L18.2509 21.5563ZM24.2249 9.77528C23.4428 9.02778 22.4026 8.61063 21.3208 8.61063C20.2389 8.61063 19.1987 9.02778 18.4166 9.77528L14.4499 13.7419L20.2583 19.5503L24.2249 15.5836C24.9949 14.8132 25.4274 13.7686 25.4274 12.6794C25.4274 11.5903 24.9949 10.5457 24.2249 9.77528ZM6.88919 7.28903L9.08502 7.91519L9.71119 10.111C9.81206 10.4634 10.0249 10.7733 10.3176 10.9939C10.6102 11.2145 10.9668 11.3339 11.3333 11.3339C11.6998 11.3339 12.0563 11.2145 12.349 10.9939C12.6416 10.7733 12.8545 10.4634 12.9554 10.111L13.5815 7.91519L15.7774 7.28903C16.1297 7.18815 16.4396 6.97529 16.6602 6.68264C16.8809 6.38998 17.0002 6.03344 17.0002 5.66694C17.0002 5.30044 16.8809 4.9439 16.6602 4.65125C16.4396 4.35859 16.1297 4.14573 15.7774 4.04486L13.5815 3.41869L12.9554 1.22286C12.8545 0.870513 12.6416 0.560593 12.349 0.339965C12.0563 0.119337 11.6998 0 11.3333 0C10.9668 0 10.6102 0.119337 10.3176 0.339965C10.0249 0.560593 9.81206 0.870513 9.71119 1.22286L9.08502 3.41869L6.88919 4.04486C6.53684 4.14573 6.22692 4.35859 6.00629 4.65125C5.78566 4.9439 5.66633 5.30044 5.66633 5.66694C5.66633 6.03344 5.78566 6.38998 6.00629 6.68264C6.22692 6.97529 6.53684 7.18815 6.88919 7.28903ZM23.8892 24.289L26.085 24.9152L26.7112 27.111C26.8121 27.4634 27.0249 27.7733 27.3176 27.9939C27.6102 28.2145 27.9668 28.3339 28.3333 28.3339C28.6998 28.3339 29.0563 28.2145 29.349 27.9939C29.6416 27.7733 29.8545 27.4634 29.9554 27.111L30.5815 24.9152L32.7774 24.289C33.1297 24.1882 33.4396 23.9753 33.6602 23.6826C33.8809 23.39 34.0002 23.0334 34.0002 22.6669C34.0002 22.3004 33.8809 21.9439 33.6602 21.6512C33.4396 21.3586 33.1297 21.1457 32.7774 21.0449L30.5815 20.4187L29.9554 18.2229C29.8545 17.8705 29.6416 17.5606 29.349 17.34C29.0563 17.1193 28.6998 17 28.3333 17C27.9668 17 27.6102 17.1193 27.3176 17.34C27.0249 17.5606 26.8121 17.8705 26.7112 18.2229L26.085 20.4187L23.8892 21.0449C23.5368 21.1457 23.2269 21.3586 23.0063 21.6512C22.7857 21.9439 22.6663 22.3004 22.6663 22.6669C22.6663 23.0334 22.7857 23.39 23.0063 23.6826C23.2269 23.9753 23.5368 24.1882 23.8892 24.289ZM25.1543 6.37528L27.0739 6.92353L27.6249 8.84594C27.7146 9.1522 27.9011 9.42115 28.1565 9.61248C28.412 9.80382 28.7225 9.90723 29.0416 9.90723C29.3607 9.90723 29.6713 9.80382 29.9267 9.61248C30.1821 9.42115 30.3686 9.1522 30.4583 8.84594L31.0065 6.92636L32.9289 6.37528C33.2352 6.28559 33.5041 6.09907 33.6955 5.84366C33.8868 5.58826 33.9902 5.27773 33.9902 4.95861C33.9902 4.63949 33.8868 4.32896 33.6955 4.07356C33.5041 3.81815 33.2352 3.63163 32.9289 3.54194L31.0094 2.99369L30.4583 1.07128C30.3686 0.765017 30.1821 0.49607 29.9267 0.304736C29.6713 0.113403 29.3607 0.00998763 29.0416 0.00998763C28.7225 0.00998763 28.412 0.113403 28.1565 0.304736C27.9011 0.49607 27.7146 0.765017 27.6249 1.07128L27.0767 2.99086L25.1543 3.54194C24.848 3.63163 24.5791 3.81815 24.3877 4.07356C24.1964 4.32896 24.093 4.63949 24.093 4.95861C24.093 5.27773 24.1964 5.58826 24.3877 5.84366C24.5791 6.09907 24.848 6.28559 25.1543 6.37528Z" fill="#074ED6"/>
</g>
<defs>
<clipPath id="clip0_342_3874">
<rect width="34" height="34" fill="white"/>
</clipPath>
</defs>
</svg>
