<svg width="34" height="34" viewBox="0 0 34 34" fill="none" xmlns="http://www.w3.org/2000/svg">
<g clip-path="url(#clip0_342_3917)">
<path d="M28.3333 0H5.66667C4.16377 0 2.72243 0.597022 1.65973 1.65973C0.597022 2.72243 0 4.16377 0 5.66667L0 22.6667C0 24.1696 0.597022 25.6109 1.65973 26.6736C2.72243 27.7363 4.16377 28.3333 5.66667 28.3333H9.775L16.0806 33.6643C16.3364 33.8807 16.6606 33.9995 16.9957 33.9995C17.3309 33.9995 17.6551 33.8807 17.9109 33.6643L24.225 28.3333H28.3333C29.8362 28.3333 31.2776 27.7363 32.3403 26.6736C33.403 25.6109 34 24.1696 34 22.6667V5.66667C34 4.16377 33.403 2.72243 32.3403 1.65973C31.2776 0.597022 29.8362 0 28.3333 0ZM9.91667 7.08333H17C17.3757 7.08333 17.7361 7.23259 18.0017 7.49827C18.2674 7.76394 18.4167 8.12428 18.4167 8.5C18.4167 8.87572 18.2674 9.23606 18.0017 9.50173C17.7361 9.76741 17.3757 9.91667 17 9.91667H9.91667C9.54094 9.91667 9.18061 9.76741 8.91493 9.50173C8.64926 9.23606 8.5 8.87572 8.5 8.5C8.5 8.12428 8.64926 7.76394 8.91493 7.49827C9.18061 7.23259 9.54094 7.08333 9.91667 7.08333ZM24.0833 21.25H9.91667C9.54094 21.25 9.18061 21.1007 8.91493 20.8351C8.64926 20.5694 8.5 20.2091 8.5 19.8333C8.5 19.4576 8.64926 19.0973 8.91493 18.8316C9.18061 18.5659 9.54094 18.4167 9.91667 18.4167H24.0833C24.4591 18.4167 24.8194 18.5659 25.0851 18.8316C25.3507 19.0973 25.5 19.4576 25.5 19.8333C25.5 20.2091 25.3507 20.5694 25.0851 20.8351C24.8194 21.1007 24.4591 21.25 24.0833 21.25ZM24.0833 15.5833H9.91667C9.54094 15.5833 9.18061 15.4341 8.91493 15.1684C8.64926 14.9027 8.5 14.5424 8.5 14.1667C8.5 13.7909 8.64926 13.4306 8.91493 13.1649C9.18061 12.8993 9.54094 12.75 9.91667 12.75H24.0833C24.4591 12.75 24.8194 12.8993 25.0851 13.1649C25.3507 13.4306 25.5 13.7909 25.5 14.1667C25.5 14.5424 25.3507 14.9027 25.0851 15.1684C24.8194 15.4341 24.4591 15.5833 24.0833 15.5833Z" fill="#074ED6"/>
</g>
<defs>
<clipPath id="clip0_342_3917">
<rect width="34" height="34" fill="white"/>
</clipPath>
</defs>
</svg>
