<svg width="24" height="24" viewBox="0 0 24 24" fill="none" xmlns="http://www.w3.org/2000/svg">
<rect y="2.45632" width="21.295" height="21.295" rx="3.99281" transform="rotate(-6.62365 0 2.45632)" fill="url(#paint0_linear_342_3161)"/>
<path d="M14.8386 5.46433C14.8251 5.34826 14.7661 5.2423 14.6745 5.16975C14.5829 5.09721 14.4662 5.06402 14.3501 5.0775L5.15934 6.14475C5.04326 6.15823 4.9373 6.21727 4.86475 6.30888C4.79221 6.40048 4.75902 6.51716 4.7725 6.63323L4.88068 7.56478L14.9468 6.39589L14.8386 5.46433Z" fill="#FCB64D"/>
<path d="M5.26098 7.02007C5.2475 6.90399 5.28068 6.78732 5.35323 6.69571C5.42577 6.6041 5.53174 6.54507 5.64781 6.53159L14.8386 5.46433C14.8251 5.34826 14.7661 5.2423 14.6745 5.16975C14.5829 5.09721 14.4662 5.06402 14.3501 5.0775L5.15934 6.14475C5.04326 6.15823 4.9373 6.21727 4.86475 6.30888C4.79221 6.40048 4.75902 6.51716 4.7725 6.63323L4.88068 7.56478L5.31833 7.51396L5.26098 7.02007Z" fill="#F78C1E"/>
<path d="M4.88037 7.56472L6.14438 18.4499C6.15786 18.5659 6.2169 18.6719 6.3085 18.7445C6.40011 18.817 6.51678 18.8502 6.63286 18.8367L15.8236 17.7695C15.9397 17.756 16.0457 17.6969 16.1182 17.6053C16.1908 17.5137 16.2239 17.397 16.2105 17.281L14.9465 6.39582L4.88037 7.56472Z" fill="#EEEEEE"/>
<path d="M14.9973 6.83348L14.9465 6.39582L4.88037 7.56472L6.14438 18.4499C6.15786 18.5659 6.2169 18.6719 6.3085 18.7445C6.40011 18.817 6.51678 18.8502 6.63286 18.8367L6.48692 17.58C5.86944 12.2625 9.67976 7.45096 14.9973 6.83348Z" fill="#E0E0E0"/>
<path d="M12.8932 8.00081L6.37215 8.75806C6.31411 8.76479 6.26113 8.79431 6.22486 8.84012C6.18858 8.88592 6.17199 8.94426 6.17873 9.00229C6.18547 9.06033 6.21499 9.11331 6.26079 9.14959C6.3066 9.18586 6.36493 9.20245 6.42297 9.19571L12.944 8.43847C13.0021 8.43173 13.0551 8.40221 13.0913 8.35641C13.1276 8.3106 13.1442 8.25227 13.1375 8.19423C13.1307 8.13619 13.1012 8.08321 13.0554 8.04694C13.0096 8.01067 12.9513 7.99407 12.8932 8.00081ZM11.7272 9.41832L6.51905 10.0231C6.46101 10.0298 6.40803 10.0594 6.37176 10.1052C6.33548 10.151 6.31889 10.2093 6.32563 10.2673C6.33237 10.3254 6.36189 10.3784 6.40769 10.4146C6.4535 10.4509 6.51183 10.4675 6.56987 10.4608L11.778 9.85598C11.836 9.84924 11.889 9.81972 11.9253 9.77392C11.9615 9.72811 11.9781 9.66978 11.9714 9.61174C11.9647 9.5537 11.9351 9.50072 11.8893 9.46445C11.8435 9.42818 11.7852 9.41158 11.7272 9.41832ZM10.5611 10.8361L6.66597 11.2884C6.60794 11.2951 6.55495 11.3246 6.51868 11.3704C6.48241 11.4162 6.46582 11.4746 6.47256 11.5326C6.4793 11.5906 6.50881 11.6436 6.55462 11.6799C6.60042 11.7162 6.65876 11.7328 6.71679 11.726L10.6119 11.2737C10.67 11.267 10.723 11.2374 10.7592 11.1916C10.7955 11.1458 10.8121 11.0875 10.8053 11.0295C10.7986 10.9714 10.7691 10.9184 10.7233 10.8822C10.6775 10.8459 10.6191 10.8293 10.5611 10.8361ZM9.61387 12.2281L6.81287 12.5534C6.75484 12.5601 6.70185 12.5897 6.66558 12.6355C6.62931 12.6813 6.61272 12.7396 6.61946 12.7976C6.6262 12.8557 6.65571 12.9087 6.70152 12.9449C6.74732 12.9812 6.80566 12.9978 6.86369 12.9911L9.66469 12.6658C9.72273 12.6591 9.77571 12.6295 9.81198 12.5837C9.84826 12.5379 9.86485 12.4796 9.85811 12.4216C9.85137 12.3635 9.82185 12.3105 9.77605 12.2743C9.73024 12.238 9.67191 12.2214 9.61387 12.2281ZM8.66661 13.62L6.95975 13.8182C6.90171 13.825 6.84873 13.8545 6.81246 13.9003C6.77618 13.9461 6.75959 14.0044 6.76633 14.0625C6.77307 14.1205 6.80259 14.1735 6.84839 14.2098C6.8942 14.246 6.95253 14.2626 7.01057 14.2559L8.71743 14.0577C8.77546 14.0509 8.82845 14.0214 8.86472 13.9756C8.90099 13.9298 8.91758 13.8715 8.91084 13.8134C8.9041 13.7554 8.87459 13.7024 8.82878 13.6662C8.78298 13.6299 8.72464 13.6133 8.66661 13.62Z" fill="#434343"/>
<path d="M14.852 8.0164L16.5788 9.38386L15.7502 10.4302L14.0234 9.06272L14.852 8.0164Z" fill="#FAA629"/>
<path d="M15.7056 9.09019L16.3861 9.62905L16.5795 9.38481L14.8527 8.01735L14.0239 9.0637L14.2681 9.25712C14.4366 9.04436 14.6827 8.90725 14.9523 8.87594C15.2219 8.84464 15.4929 8.92171 15.7056 9.09019Z" fill="#F78C1E"/>
<path d="M14.0242 9.06414L9.37408 14.9359L10.2377 15.6198L14.8876 9.74787L14.0242 9.06414Z" fill="#F47C20"/>
<path d="M10.2363 15.6191L14.8859 9.74781L15.7493 10.4315L11.0999 16.3026L10.2363 15.6191Z" fill="#F78C1E"/>
<path d="M17.5941 7.39577L16.558 6.57508C16.5126 6.53914 16.4606 6.51249 16.405 6.49665C16.3493 6.48081 16.2911 6.4761 16.2336 6.48277C16.1761 6.48945 16.1205 6.50738 16.0699 6.53556C16.0194 6.56373 15.9748 6.60159 15.9389 6.64696L14.8529 8.01836L16.5801 9.38599L17.6662 8.01459C17.7387 7.92299 17.7718 7.80634 17.7584 7.69029C17.7449 7.57424 17.6857 7.46832 17.5941 7.39577Z" fill="#EC417A"/>
<path d="M15.1691 8.12092C15.3128 7.93948 15.4908 7.78811 15.693 7.67546C15.8951 7.56281 16.1175 7.49109 16.3474 7.4644C16.5773 7.4377 16.8103 7.45655 17.0329 7.51987C17.2555 7.58319 17.4635 7.68973 17.6449 7.83343C17.6757 7.8578 17.7007 7.88616 17.7233 7.91614C17.7621 7.82731 17.7706 7.7281 17.7472 7.63398C17.7238 7.53985 17.67 7.4561 17.5941 7.39577L16.558 6.57508C16.5126 6.53914 16.4606 6.51249 16.405 6.49665C16.3493 6.48081 16.2911 6.4761 16.2336 6.48277C16.1761 6.48945 16.1205 6.50738 16.0699 6.53556C16.0194 6.56373 15.9748 6.60159 15.9389 6.64696L14.8529 8.01836L15.0971 8.21178L15.1691 8.12092Z" fill="#D7195F"/>
<path d="M9.14324 17.002L11.101 16.3042L9.37424 14.9366L9.14324 17.002Z" fill="#434343"/>
<path d="M10.68 16.3678L10.7552 16.4276L11.1013 16.3043L9.37451 14.9366L9.14373 17.002L9.24743 16.9649C9.3247 16.2724 10.1336 15.9354 10.68 16.3678Z" fill="#212121"/>
<defs>
<linearGradient id="paint0_linear_342_3161" x1="4.40903" y1="-1.52359" x2="15.8132" y2="25.9754" gradientUnits="userSpaceOnUse">
<stop stop-color="#074ED6"/>
<stop offset="1" stop-color="#689BFE"/>
</linearGradient>
</defs>
</svg>
