<svg preserveAspectRatio="none" width="100%" height="100%" overflow="visible" style="display: block;" viewBox="0 0 20 20" fill="none" xmlns="http://www.w3.org/2000/svg">
<g id="Group">
<path id="Vector" d="M15.8333 20H10C9.77899 20 9.56702 19.9122 9.41074 19.7559C9.25446 19.5996 9.16667 19.3877 9.16667 19.1667V11.6667C9.16667 11.4457 9.25446 11.2337 9.41074 11.0774C9.56702 10.9211 9.77899 10.8333 10 10.8333H19.1667C19.3877 10.8333 19.5996 10.9211 19.7559 11.0774C19.9122 11.2337 20 11.4457 20 11.6667V15.8333C20 18.1308 18.1308 20 15.8333 20ZM6.66667 20H4.16667C1.86917 20 0 18.1308 0 15.8333V11.6667C0 11.4457 0.0877974 11.2337 0.244078 11.0774C0.400358 10.9211 0.61232 10.8333 0.833333 10.8333H6.66667C6.88768 10.8333 7.09964 10.9211 7.25592 11.0774C7.4122 11.2337 7.5 11.4457 7.5 11.6667V19.1667C7.5 19.3877 7.4122 19.5996 7.25592 19.7559C7.09964 19.9122 6.88768 20 6.66667 20ZM19.1667 9.16667H0.833333C0.61232 9.16667 0.400358 9.07887 0.244078 8.92259C0.0877974 8.76631 0 8.55435 0 8.33333V4.16667C0 1.86917 1.86917 0 4.16667 0H15.8333C18.1308 0 20 1.86917 20 4.16667V8.33333C20 8.55435 19.9122 8.76631 19.7559 8.92259C19.5996 9.07887 19.3877 9.16667 19.1667 9.16667Z" fill="var(--fill-0, #1A1A1C)"/>
</g>
</svg>
