<svg preserveAspectRatio="none" width="100%" height="100%" overflow="visible" style="display: block;" viewBox="0 0 24 24" fill="none" xmlns="http://www.w3.org/2000/svg">
<g id="Group">
<path id="Vector" d="M10.9426 8.45679H14.1193V24H10.9426V8.45679ZM4.76505 7.66263C2.13762 7.66263 0 9.80024 0 12.4277V24H3.17671V19.1214H6.35342V24H9.53014V12.4277C9.53009 9.80024 7.39252 7.66263 4.76505 7.66263ZM6.35342 15.9447H3.17671V12.4277C3.17671 11.5519 3.88924 10.8393 4.76505 10.8393C5.64086 10.8393 6.35338 11.5519 6.35338 12.4277V15.9447H6.35342ZM20.2258 3.7742L18.1616 0L16.0974 3.7742L12.3232 5.83841L16.0974 7.90262L18.1616 11.6768L20.2258 7.90262L24 5.83841L20.2258 3.7742Z" fill="var(--fill-0, #1A1A1C)"/>
</g>
</svg>
