<svg preserveAspectRatio="none" width="100%" height="100%" overflow="visible" style="display: block;" viewBox="0 0 20 20" fill="none" xmlns="http://www.w3.org/2000/svg">
<g id="Group">
<path id="Vector" d="M19.9975 10.0009C19.9975 15.5171 15.5148 20 9.99877 20C4.48278 20 0 15.5171 0 10.0009C0 4.48479 4.48278 0.0018721 9.99877 0.0018721C10.1571 0.0018721 10.3154 0.0018721 10.4737 0.0102047C10.6379 0.0176879 10.799 0.0574836 10.9478 0.127313C11.0966 0.197143 11.2301 0.295635 11.3408 0.417151C11.4515 0.538667 11.5371 0.68082 11.5928 0.835472C11.6485 0.990123 11.6731 1.15424 11.6652 1.31842C11.6319 2.01002 11.0653 2.52664 10.3571 2.50997C10.2404 2.50997 10.1154 2.50164 9.99877 2.50164C5.86594 2.50164 2.49969 5.86799 2.49969 10.0009C2.49969 14.1339 5.86594 17.5002 9.99877 17.5002C14.1316 17.5002 17.4978 14.1339 17.4978 10.0009C17.4978 9.88428 17.4978 9.75929 17.4895 9.64264C17.4817 9.47846 17.5063 9.31434 17.562 9.15969C17.6176 9.00504 17.7032 8.86289 17.8139 8.74137C17.9246 8.61986 18.0582 8.52136 18.2069 8.45153C18.3557 8.3817 18.5168 8.34191 18.681 8.33443C19.3893 8.30943 19.9559 8.83438 19.9892 9.52598C19.9892 9.6843 19.9975 9.84262 19.9975 10.0009ZM9.09055 6.7929C9.75713 6.60125 10.1404 5.91799 9.95711 5.25138C9.7738 4.58478 9.07388 4.20148 8.41563 4.3848C5.91594 5.09306 4.17449 7.40118 4.17449 10.0009C4.17449 13.2173 6.79083 15.8337 10.0071 15.8337C12.6068 15.8337 14.9148 14.0922 15.6231 11.5925C15.8147 10.9258 15.4231 10.2342 14.7565 10.0509C14.0899 9.85928 13.3983 10.2509 13.215 10.9175C13.0152 11.6147 12.5943 12.2281 12.0158 12.6654C11.4372 13.1027 10.7323 13.3402 10.0071 13.3423C8.16566 13.3423 6.67418 11.8508 6.67418 10.0093C6.67418 8.52607 7.67406 7.2012 9.09888 6.80124L9.09055 6.7929ZM9.11554 9.11769C8.99865 9.23316 8.90584 9.3707 8.8425 9.52232C8.77916 9.67393 8.74654 9.83662 8.74654 10.0009C8.74654 10.1653 8.77916 10.3279 8.8425 10.4796C8.90584 10.6312 8.99865 10.7687 9.11554 10.8842C9.35718 11.1258 9.68214 11.2508 9.99877 11.2508C10.3154 11.2508 10.6404 11.1258 10.882 10.8842L15.0981 6.66792H17.0812C17.4145 6.66792 17.7311 6.53459 17.9645 6.30128L19.6309 4.63477C19.8067 4.46045 19.9267 4.23775 19.9755 3.99503C20.0243 3.75231 19.9998 3.50055 19.9051 3.27181C19.8104 3.04306 19.6498 2.84767 19.4436 2.71052C19.2375 2.57337 18.9953 2.50065 18.7477 2.50164H17.4978V1.25176C17.4978 0.743469 17.1895 0.293511 16.7229 0.0935302C16.2563 -0.0981185 15.7147 0.0102047 15.3648 0.368504L13.6983 2.03502C13.465 2.26833 13.3317 2.58496 13.3317 2.91827V4.90141L9.11554 9.11769Z" fill="var(--fill-0, #1A1A1C)"/>
</g>
</svg>
