<svg preserveAspectRatio="none" width="100%" height="100%" overflow="visible" style="display: block;" viewBox="0 0 20 20" fill="none" xmlns="http://www.w3.org/2000/svg">
<g id="Group">
<path id="Vector" d="M16.1115 12.2221C15.4811 12.2223 14.8602 12.3758 14.3024 12.6695C13.7445 12.9632 13.2665 13.3882 12.9096 13.9079L7.49382 11.4622C7.87362 10.5294 7.8766 9.48562 7.50215 8.55069L12.9129 6.09334C13.4405 6.85891 14.225 7.40999 15.1241 7.64658C16.0232 7.88318 16.9774 7.78963 17.8134 7.3829C18.6494 6.97617 19.312 6.28321 19.6809 5.42973C20.0498 4.57626 20.1006 3.6188 19.8241 2.73108C19.5476 1.84335 18.962 1.08415 18.1737 0.591223C17.3854 0.0982937 16.4466 -0.0957144 15.5275 0.0443954C14.6084 0.184505 13.77 0.649451 13.1643 1.35488C12.5586 2.06031 12.2259 2.9595 12.2263 3.88931C12.2263 4.11047 12.245 4.33125 12.2822 4.54927L6.54065 7.15578C5.98715 6.6395 5.29504 6.29599 4.54918 6.16738C3.80332 6.03877 3.03615 6.13065 2.34174 6.43175C1.64733 6.73284 1.05588 7.23007 0.639916 7.86245C0.223951 8.49482 0.00155751 9.23486 8.15092e-06 9.99181C-0.00154121 10.7488 0.217821 11.4897 0.631194 12.1238C1.04457 12.7579 1.63398 13.2575 2.32715 13.5614C3.02032 13.8654 3.78711 13.9604 4.53349 13.8348C5.27986 13.7093 5.97338 13.3686 6.52899 12.8546L12.278 15.4519C12.1429 16.2378 12.2525 17.0462 12.5921 17.7676C12.9317 18.489 13.4849 19.0886 14.1766 19.4851C14.8683 19.8816 15.6651 20.0559 16.4592 19.9843C17.2533 19.9127 18.0061 19.5988 18.6158 19.085C19.2255 18.5712 19.6626 17.8824 19.8678 17.1119C20.0729 16.3414 20.0363 15.5264 19.7629 14.7774C19.4895 14.0284 18.9925 13.3816 18.3392 12.9245C17.6859 12.4674 16.9088 12.2222 16.1115 12.2221Z" fill="var(--fill-0, #1A1A1C)"/>
</g>
</svg>
