<svg preserveAspectRatio="none" width="100%" height="100%" overflow="visible" style="display: block;" viewBox="0 0 20 20" fill="none" xmlns="http://www.w3.org/2000/svg">
<g id="Group">
<path id="Vector" d="M19.2892 15.075L17.9465 16.4167C17.7797 16.5833 17.5713 16.6583 17.3544 16.6583C17.1376 16.6583 16.9291 16.575 16.7623 16.4167C16.685 16.3396 16.6237 16.248 16.5818 16.1472C16.54 16.0464 16.5185 15.9383 16.5185 15.8292C16.5185 15.72 16.54 15.612 16.5818 15.5111C16.6237 15.4103 16.685 15.3188 16.7623 15.2417L17.8381 14.1667H11.6669C11.2082 14.1667 10.833 13.7917 10.833 13.3333C10.833 12.875 11.2082 12.5 11.6669 12.5H17.8381L16.7623 11.425C16.6851 11.3478 16.6239 11.2563 16.5821 11.1555C16.5403 11.0546 16.5188 10.9466 16.5188 10.8375C16.5188 10.7284 16.5403 10.6204 16.5821 10.5195C16.6239 10.4187 16.6851 10.3272 16.7623 10.25C16.8395 10.1728 16.9312 10.1116 17.0321 10.0699C17.133 10.0281 17.2411 10.0066 17.3503 10.0066C17.4595 10.0066 17.5676 10.0281 17.6685 10.0699C17.7693 10.1116 17.861 10.1728 17.9382 10.25L19.2809 11.5917C19.7415 12.0561 20 12.6836 20 13.3375C20 13.9914 19.7415 14.6189 19.2809 15.0833L19.2892 15.075ZM10.8413 6.66667H16.2953C16.0034 5.90833 15.5615 5.20833 14.9693 4.61667L12.0672 1.70833C11.484 1.12776 10.785 0.67632 10.0157 0.383333V5.83333C10.0157 6.29167 10.391 6.66667 10.8496 6.66667H10.8413ZM14.8526 15.8333H11.6753C10.2992 15.8333 9.17342 14.7083 9.17342 13.3333C9.17342 11.9583 10.2992 10.8333 11.6753 10.8333H14.8526C14.8526 10.1917 15.0944 9.55 15.5865 9.06667C15.895 8.75833 16.2703 8.54167 16.6623 8.43333V8.33333H10.8413C9.4653 8.33333 8.33947 7.20833 8.33947 5.83333V0.0166667C8.20604 0.00833333 8.07261 0 7.93084 0H4.16973C1.86804 0 0 1.86667 0 4.16667V15.8333C0 18.1333 1.86804 20 4.16973 20H12.5092C14.0186 20 15.3446 19.1917 16.0785 17.9833C15.705 17.7621 15.3956 17.4475 15.1807 17.0705C14.9657 16.6936 14.8527 16.2672 14.8526 15.8333Z" fill="var(--fill-0, #1A1A1C)"/>
</g>
</svg>
