<svg preserveAspectRatio="none" width="100%" height="100%" overflow="visible" style="display: block;" viewBox="0 0 20 20" fill="none" xmlns="http://www.w3.org/2000/svg">
<g id="Group">
<path id="Vector" d="M10 0C4.48583 0 0 4.48583 0 10V15.8333C0 18.1308 1.86917 20 4.16667 20H10C15.5142 20 20 15.5142 20 10C20 4.48583 15.5142 0 10 0ZM15 7.91667C15 8.60583 14.4392 9.16667 13.75 9.16667H11.6667C11.4457 9.16667 11.2337 9.07887 11.0774 8.92259C10.9211 8.76631 10.8333 8.55435 10.8333 8.33333C10.8333 8.11232 10.9211 7.90036 11.0774 7.74408C11.2337 7.5878 11.4457 7.5 11.6667 7.5H12.2033C11.5958 6.96157 10.8118 6.66502 10 6.66667C8.16167 6.66667 6.66667 8.16167 6.66667 10C6.66667 11.8383 8.16167 13.3333 10 13.3333C10.6487 13.3335 11.2834 13.1443 11.8262 12.7891C12.369 12.4338 12.7963 11.9279 13.0558 11.3333C13.1443 11.1308 13.3097 10.9717 13.5155 10.891C13.7213 10.8104 13.9508 10.8148 14.1533 10.9033C14.3559 10.9918 14.515 11.1572 14.5956 11.363C14.6763 11.5688 14.6718 11.7983 14.5833 12.0008C14.194 12.8925 13.553 13.6512 12.7389 14.1841C11.9248 14.7169 10.973 15.0008 10 15.0008C7.2425 15.0008 5 12.7583 5 10.0008C5 7.24333 7.2425 5.00083 10 5.00083C11.2467 5.00083 12.4283 5.4825 13.3333 6.29083V5.83417C13.3333 5.61315 13.4211 5.40119 13.5774 5.24491C13.7337 5.08863 13.9457 5.00083 14.1667 5.00083C14.3877 5.00083 14.5996 5.08863 14.7559 5.24491C14.9122 5.40119 15 5.61315 15 5.83417V7.9175V7.91667Z" fill="var(--fill-0, #1A1A1C)"/>
</g>
</svg>
