<svg preserveAspectRatio="none" width="100%" height="100%" overflow="visible" style="display: block;" viewBox="0 0 16 20" fill="none" xmlns="http://www.w3.org/2000/svg">
<g id="Group">
<path id="Vector" d="M11.5556 0H4.44444C1.99378 0 0 1.86917 0 4.16667V15.8333C0 18.1308 1.99378 20 4.44444 20H11.5556C14.0062 20 16 18.1308 16 15.8333V4.16667C16 1.86917 14.0062 0 11.5556 0ZM8 14.1667H4.44444C4.2087 14.1667 3.9826 14.0789 3.81591 13.9226C3.64921 13.7663 3.55556 13.5543 3.55556 13.3333C3.55556 13.1123 3.64921 12.9004 3.81591 12.7441C3.9826 12.5878 4.2087 12.5 4.44444 12.5H8C8.23575 12.5 8.46184 12.5878 8.62854 12.7441C8.79524 12.9004 8.88889 13.1123 8.88889 13.3333C8.88889 13.5543 8.79524 13.7663 8.62854 13.9226C8.46184 14.0789 8.23575 14.1667 8 14.1667ZM11.5556 10H4.44444C4.2087 10 3.9826 9.9122 3.81591 9.75592C3.64921 9.59964 3.55556 9.38768 3.55556 9.16667C3.55556 8.94565 3.64921 8.73369 3.81591 8.57741C3.9826 8.42113 4.2087 8.33333 4.44444 8.33333H11.5556C11.7913 8.33333 12.0174 8.42113 12.1841 8.57741C12.3508 8.73369 12.4444 8.94565 12.4444 9.16667C12.4444 9.38768 12.3508 9.59964 12.1841 9.75592C12.0174 9.9122 11.7913 10 11.5556 10ZM11.5556 5.83333H4.44444C4.2087 5.83333 3.9826 5.74554 3.81591 5.58926C3.64921 5.43298 3.55556 5.22101 3.55556 5C3.55556 4.77899 3.64921 4.56702 3.81591 4.41074C3.9826 4.25446 4.2087 4.16667 4.44444 4.16667H11.5556C11.7913 4.16667 12.0174 4.25446 12.1841 4.41074C12.3508 4.56702 12.4444 4.77899 12.4444 5C12.4444 5.22101 12.3508 5.43298 12.1841 5.58926C12.0174 5.74554 11.7913 5.83333 11.5556 5.83333Z" fill="var(--fill-0, #1A1A1C)"/>
</g>
</svg>
