<svg preserveAspectRatio="none" width="100%" height="100%" overflow="visible" style="display: block;" viewBox="0 0 19.1766 19.0523" fill="none" xmlns="http://www.w3.org/2000/svg">
<g id="Group">
<path id="Vector" d="M19.1658 3.81853C19.1414 3.66425 18.8938 2.27833 17.8897 1.26634C16.8812 0.279636 15.49 0.0355741 15.3349 0.011168C15.1288 -0.0223265 14.9176 0.0201054 14.7404 0.130584C14.6785 0.168936 13.7694 0.738123 11.9747 2.25566C12.8978 2.58166 14.091 3.14736 15.0586 4.09397C16.0296 5.04407 16.6101 6.21295 16.9431 7.11947C18.4423 5.36745 19.0063 4.48011 19.0438 4.4191C19.1553 4.24041 19.1989 4.02686 19.1658 3.81853ZM10.417 3.61892C9.30233 4.62825 8.21187 5.66407 7.14662 6.72548C1.86181 11.9728 0.475891 14.0709 0.419234 14.1572C0.339914 14.2792 0.291973 14.4195 0.280641 14.5642L0.00258533 18.1127C-0.00666346 18.2326 0.00896374 18.3531 0.0484864 18.4666C0.088009 18.5802 0.150574 18.6843 0.232256 18.7726C0.313937 18.8608 0.412972 18.9312 0.523147 18.9793C0.633321 19.0275 0.752257 19.0523 0.872491 19.0523C0.894282 19.0523 0.916945 19.0523 0.939608 19.0497L4.51424 18.7743C4.65806 18.763 4.79666 18.7168 4.91781 18.6392C5.00498 18.5834 7.11699 17.2071 12.4009 11.9606C13.4896 10.8834 14.5519 9.77986 15.5868 8.65095C15.4552 8.08525 14.9958 6.47096 13.8391 5.34043C12.6659 4.19247 10.9784 3.7427 10.417 3.61892Z" fill="var(--fill-0, #1A1A1C)"/>
</g>
</svg>
