<svg width="14" height="14" viewBox="0 0 14 14" fill="none" xmlns="http://www.w3.org/2000/svg">
<g clip-path="url(#clip0_342_3229)">
<path d="M11.1729 2.95351C10.7304 1.54298 9.70197 1.08571 8.09005 1.00098H4.33333C2.11333 1.12415 1 1.941 1 4.98799V8.35885C1 10.5493 1.32498 12.2608 3.44823 12.2608" stroke="black" stroke-width="0.942856" stroke-miterlimit="10" stroke-linecap="round" stroke-linejoin="round"/>
<path d="M5.16113 8.2334H10.6046" stroke="black" stroke-width="0.942856" stroke-miterlimit="10" stroke-linecap="round" stroke-linejoin="round"/>
<path d="M5.16113 6.18945H10.6046" stroke="black" stroke-width="0.942856" stroke-miterlimit="10" stroke-linecap="round" stroke-linejoin="round"/>
<path d="M5.16113 10.2764H8.56333" stroke="black" stroke-width="0.942856" stroke-miterlimit="10" stroke-linecap="round" stroke-linejoin="round"/>
<path d="M10.2081 2.9541C12.0674 3.05181 12.9998 3.74117 12.9998 6.29238V9.64694C12.9998 11.8833 12.4415 13.0015 9.64976 13.0015H6.29974C3.50805 13.0015 2.94971 11.8833 2.94971 9.64694V6.29238C2.94971 3.74117 3.88213 3.05724 5.7414 2.9541H10.2081Z" stroke="black" stroke-width="0.942856" stroke-miterlimit="10" stroke-linecap="round" stroke-linejoin="round"/>
</g>
<defs>
<clipPath id="clip0_342_3229">
<rect width="14" height="14" fill="white"/>
</clipPath>
</defs>
</svg>
