<svg width="15" height="17" viewBox="0 0 15 17" fill="none" xmlns="http://www.w3.org/2000/svg">
<path d="M7.83643 3.5625H9.26127V4.98734H7.83643V3.5625Z" fill="white"/>
<path d="M3.56201 3.5625H4.98685V4.98734H3.56201V3.5625Z" fill="white"/>
<path d="M9.97412 5.7002H11.399V7.12504H9.97412V5.7002Z" fill="white"/>
<path d="M5.69922 5.7002H7.12406V7.12504H5.69922V5.7002Z" fill="white"/>
<path d="M12.1113 7.83691H13.5362V9.26175H12.1113V7.83691Z" fill="white"/>
<path d="M7.83643 7.83691H9.26127V9.26175H7.83643V7.83691Z" fill="white"/>
<path d="M9.97412 9.97461H11.399V11.3994H9.97412V9.97461Z" fill="white"/>
<path d="M5.69922 9.97461H7.12406V11.3994H5.69922V9.97461Z" fill="white"/>
<path d="M7.83643 12.1113H9.26127V13.5362H7.83643V12.1113Z" fill="white"/>
<path d="M3.56201 12.1113H4.98685V13.5362H3.56201V12.1113Z" fill="white"/>
</svg>
