<svg width="97" height="18" viewBox="0 0 97 18" fill="none" xmlns="http://www.w3.org/2000/svg">
<path d="M90.4849 17.1894C89.3449 17.1894 88.3249 16.9494 87.4249 16.4694C86.5249 15.9894 85.8049 15.2894 85.2649 14.3694C84.7449 13.4494 84.4849 12.3394 84.4849 11.0394C84.5249 9.73941 84.8049 8.60941 85.3249 7.64941C85.8449 6.68941 86.5549 5.94941 87.4549 5.42941C88.3549 4.90941 89.3849 4.64941 90.5449 4.64941C91.6449 4.64941 92.5949 4.85941 93.3949 5.27941C94.1949 5.67941 94.8349 6.21941 95.3149 6.89941C95.8149 7.57941 96.1149 8.32941 96.2149 9.14941H94.3249C94.1649 8.28941 93.7549 7.62941 93.0949 7.16941C92.4349 6.68941 91.6049 6.44941 90.6049 6.44941C89.7649 6.44941 89.0349 6.63941 88.4149 7.01941C87.8149 7.39941 87.3449 7.92941 87.0049 8.60941C86.6849 9.26941 86.5149 10.0394 86.4949 10.9194C86.4949 12.2794 86.8549 13.3594 87.5749 14.1594C88.2949 14.9594 89.2949 15.3594 90.5749 15.3594C91.5149 15.3594 92.3349 15.1294 93.0349 14.6694C93.7349 14.1894 94.1649 13.4994 94.3249 12.5994H96.2149C96.1149 13.4394 95.8149 14.2094 95.3149 14.9094C94.8149 15.5894 94.1549 16.1394 93.3349 16.5594C92.5349 16.9794 91.5849 17.1894 90.4849 17.1894Z" fill="#A2A2A2"/>
<path d="M76.325 17.1894C75.025 17.1894 73.935 16.9194 73.055 16.3794C72.175 15.8394 71.515 15.0994 71.075 14.1594C70.635 13.2194 70.415 12.1494 70.415 10.9494C70.415 9.70941 70.635 8.61941 71.075 7.67941C71.515 6.73941 72.175 5.99941 73.055 5.45941C73.935 4.91941 75.025 4.64941 76.325 4.64941C78.245 4.64941 79.705 5.22941 80.705 6.38941C81.705 7.52941 82.205 9.04941 82.205 10.9494C82.205 12.1294 81.995 13.1894 81.575 14.1294C81.155 15.0694 80.505 15.8194 79.625 16.3794C78.765 16.9194 77.665 17.1894 76.325 17.1894ZM76.325 15.4194C77.365 15.4194 78.155 15.1994 78.695 14.7594C79.255 14.2994 79.645 13.7194 79.865 13.0194C80.085 12.3194 80.195 11.6094 80.195 10.8894C80.195 10.1494 80.085 9.42941 79.865 8.72941C79.645 8.02941 79.255 7.44941 78.695 6.98941C78.155 6.52941 77.365 6.29941 76.325 6.29941C75.305 6.29941 74.505 6.52941 73.925 6.98941C73.365 7.44941 72.975 8.02941 72.755 8.72941C72.535 9.42941 72.425 10.1494 72.425 10.8894C72.425 11.6094 72.535 12.3194 72.755 13.0194C72.975 13.7194 73.365 14.2994 73.925 14.7594C74.505 15.1994 75.305 15.4194 76.325 15.4194Z" fill="#A2A2A2"/>
<path d="M55.6596 15.15C56.4996 15.15 57.1396 15.15 57.5796 15.15C58.0396 15.15 58.3796 15.15 58.5996 15.15C59.7396 15.15 60.7696 15.06 61.6896 14.88C62.6296 14.7 63.4296 14.37 64.0896 13.89C64.7496 13.39 65.2496 12.7 65.5896 11.82C65.9496 10.94 66.1296 9.81 66.1296 8.43C66.1296 6.91 65.8196 5.67 65.1996 4.71C64.5996 3.73 63.7296 3 62.5896 2.52C61.4696 2.04 60.1396 1.8 58.5996 1.8H55.6596V15.15ZM68.3196 8.43C68.3196 10.65 67.8896 12.38 67.0296 13.62C66.1896 14.84 65.0096 15.69 63.4896 16.17C61.9696 16.65 60.1796 16.89 58.1196 16.89C57.7996 16.89 57.2896 16.89 56.5896 16.89C55.9096 16.89 54.9196 16.89 53.6196 16.89V0C54.9996 0 56.0196 0 56.6796 0C57.3596 0 57.8396 0 58.1196 0C60.1796 0 61.9696 0.32 63.4896 0.96C65.0096 1.58 66.1896 2.51 67.0296 3.75C67.8896 4.99 68.3196 6.55 68.3196 8.43Z" fill="#A2A2A2"/>
<path d="M47.2507 16.89C46.5107 16.89 45.9807 16.69 45.6607 16.29C45.3407 15.87 45.1807 15.3 45.1807 14.58V5.91H47.1307V15.24H49.9807V16.89H47.2507ZM43.2607 6.18V4.65C43.7407 4.65 44.1207 4.63 44.4007 4.59C44.7007 4.53 44.9207 4.41 45.0607 4.23C45.2007 4.03 45.2907 3.72 45.3307 3.3C45.3907 2.86 45.4207 2.26 45.4207 1.5H47.1307V4.65H49.9507V6.18H43.2607Z" fill="#1A1A1C"/>
<path d="M30.3042 16.8894L34.7742 10.5894L30.5142 4.64941H32.8242L36.0642 9.29941L39.3342 4.64941H41.6442L37.3842 10.5894L41.9142 16.8894H39.5742L36.0642 11.9094L32.5842 16.8894H30.3042Z" fill="#1A1A1C"/>
<path d="M22.8895 17.1901C21.5295 17.1901 20.4095 16.8901 19.5295 16.2901C18.6695 15.6701 18.0295 14.8801 17.6095 13.9201C17.2095 12.9401 16.9995 11.9301 16.9795 10.8901C16.9795 9.75012 17.2095 8.70012 17.6695 7.74012C18.1295 6.78012 18.7895 6.02012 19.6495 5.46012C20.5295 4.90012 21.5895 4.62012 22.8295 4.62012C23.8695 4.62012 24.7995 4.85012 25.6195 5.31012C26.4595 5.77012 27.1195 6.42012 27.5995 7.26012C28.0995 8.10012 28.3695 9.09012 28.4095 10.2301C28.4295 10.3101 28.4395 10.4301 28.4395 10.5901C28.4395 10.7501 28.4395 10.8801 28.4395 10.9801H18.9595C18.9595 12.3801 19.2995 13.4801 19.9795 14.2801C20.6595 15.0601 21.6195 15.4501 22.8595 15.4501C23.7795 15.4501 24.5595 15.2201 25.1995 14.7601C25.8595 14.2801 26.2595 13.6401 26.3995 12.8401H28.4095C28.2895 13.6601 27.9795 14.4001 27.4795 15.0601C26.9995 15.7201 26.3695 16.2401 25.5895 16.6201C24.8095 17.0001 23.9095 17.1901 22.8895 17.1901ZM19.0495 9.90012H26.3695C26.3495 9.60012 26.2795 9.25012 26.1595 8.85012C26.0595 8.45012 25.8695 8.06012 25.5895 7.68012C25.3095 7.30012 24.9395 6.98012 24.4795 6.72012C24.0395 6.46012 23.4795 6.33012 22.7995 6.33012C22.1595 6.33012 21.6095 6.44012 21.1495 6.66012C20.7095 6.86012 20.3395 7.14012 20.0395 7.50012C19.7595 7.84012 19.5295 8.22012 19.3495 8.64012C19.1895 9.06012 19.0895 9.48012 19.0495 9.90012Z" fill="#1A1A1C"/>
<path d="M12.03 0H14.13V16.89H10.29L2.13 0.929999H2.07V16.89H0V0H3.57L11.97 15.96H12.03V0Z" fill="#1A1A1C"/>
</svg>
