<svg width="34" height="34" viewBox="0 0 34 34" fill="none" xmlns="http://www.w3.org/2000/svg">
<path d="M34 17C34 7.61116 26.3888 0 17 0C7.61116 0 0 7.61116 0 17C0 26.3888 7.61116 34 17 34C26.3888 34 34 26.3888 34 17Z" fill="#1A1A1C"/>
<path d="M17.0002 25.114H11.0593C10.0738 25.114 9.27246 24.3127 9.27246 23.3272V17.3867C12.8738 18.6577 15.7199 21.5128 17.0002 25.114Z" fill="#FCFCFC"/>
<path d="M9.28125 17.3864V11.4459C9.28125 10.4605 10.0826 9.65918 11.0681 9.65918H17.0089C15.7379 13.2511 12.8826 16.1062 9.28125 17.3864Z" fill="#FCFCFC"/>
<path d="M24.7277 17.3864H18.7869C17.8013 17.3864 17 16.5852 17 15.5997V9.65918L24.7277 17.3864Z" fill="#CACACA"/>
<path d="M24.7277 17.3867V23.3272C24.7277 24.3127 23.9264 25.114 22.9408 25.114H17C18.2711 21.5128 21.1264 18.6669 24.7277 17.3867Z" fill="#FCFCFC"/>
</svg>
