<svg width="28" height="28" viewBox="0 0 28 28" fill="none" xmlns="http://www.w3.org/2000/svg">
<rect width="28" height="28" rx="14" fill="#F9FAFB"/>
<rect x="0.5" y="0.5" width="27" height="27" rx="13.5" stroke="#7A7E80" stroke-opacity="0.3"/>
<path d="M20.522 10.4766L15.93 15.0686C15.4179 15.5793 14.7243 15.8661 14.0011 15.8661C13.2779 15.8661 12.5842 15.5793 12.0722 15.0686L7.48017 10.4766C7.47253 10.5628 7.45508 10.6408 7.45508 10.7264V17.2724C7.45594 17.9955 7.74358 18.6887 8.2549 19.2001C8.76622 19.7114 9.45946 19.999 10.1826 19.9999H17.8196C18.5427 19.999 19.2359 19.7114 19.7472 19.2001C20.2586 18.6887 20.5462 17.9955 20.5471 17.2724V10.7264C20.5471 10.6408 20.5296 10.5628 20.522 10.4766Z" fill="black"/>
<path d="M15.158 14.2993L20.1406 9.31617C19.8993 8.91595 19.5588 8.58468 19.1522 8.35431C18.7455 8.12394 18.2864 8.00225 17.819 8.00098H10.182C9.71462 8.00225 9.25547 8.12394 8.84881 8.35431C8.44215 8.58468 8.10172 8.91595 7.86035 9.31617L12.8429 14.2993C13.1504 14.6055 13.5666 14.7774 14.0005 14.7774C14.4344 14.7774 14.8506 14.6055 15.158 14.2993Z" fill="black"/>
</svg>
