<svg width="14" height="14" viewBox="0 0 14 14" fill="none" xmlns="http://www.w3.org/2000/svg">
<path fill-rule="evenodd" clip-rule="evenodd" d="M9.61937 1.93031L9.65693 1.94036C10.283 2.10502 10.7788 2.23508 11.1686 2.37352C11.5676 2.51474 11.8932 2.67606 12.1613 2.92222C12.5514 3.28088 12.8244 3.74496 12.9456 4.25576C13.0292 4.60631 13.0093 4.96355 12.9342 5.37271C12.8619 5.7735 12.7293 6.25969 12.5614 6.87314L12.2563 7.98898C12.089 8.60244 11.9558 9.08863 11.8152 9.47155C11.6706 9.86229 11.5062 10.1816 11.2551 10.4445C10.9014 10.8149 10.4466 11.078 9.94493 11.2025C9.79793 11.533 9.58373 11.8307 9.31544 12.0772C9.04736 12.3234 8.7218 12.4847 8.32281 12.6265C7.93293 12.7649 7.43719 12.895 6.81168 13.0596L6.77354 13.0697C6.14746 13.2338 5.65229 13.3639 5.24363 13.4359C4.82643 13.509 4.46217 13.5285 4.10416 13.447C3.58339 13.3278 3.1104 13.0597 2.745 12.6767C2.49456 12.4144 2.32951 12.0951 2.18494 11.7038C2.04435 11.3214 1.91174 10.8352 1.74384 10.2212L1.43876 9.10593C1.27143 8.49192 1.13824 8.00628 1.06539 7.6055C0.99083 7.19634 0.970909 6.83909 1.05401 6.48799C1.17563 5.97726 1.44897 5.51337 1.83945 5.15501C2.10696 4.90941 2.43252 4.74753 2.83151 4.60575C3.22139 4.46787 3.71713 4.33781 4.34264 4.17314L4.36199 4.16756L4.78944 4.05592C5.01255 3.275 5.20834 2.72295 5.59082 2.32272C5.95629 1.93997 6.42929 1.67209 6.94999 1.55297C7.30799 1.47147 7.67169 1.49101 8.08945 1.56413C8.49755 1.63558 8.99329 1.7662 9.61937 1.93031ZM4.5316 4.99034C3.90951 5.1539 3.46385 5.27223 3.12121 5.39336C2.77402 5.51617 2.57083 5.63004 2.42285 5.76624C2.15571 6.01146 1.96873 6.32888 1.88556 6.67833C1.84002 6.87259 1.84059 7.10256 1.90605 7.45813C1.9715 7.81929 2.09501 8.27143 2.26861 8.90777L2.56343 9.98621C2.73703 10.6226 2.86111 11.0747 2.98803 11.4191C3.11325 11.7596 3.22936 11.9594 3.36823 12.1046C3.61827 12.3666 3.94192 12.5499 4.29825 12.6315C4.49575 12.6762 4.73081 12.675 5.09337 12.6114C5.46162 12.5472 5.92264 12.4261 6.57149 12.2558C7.22034 12.085 7.68136 11.9639 8.03311 11.8389C8.37973 11.7161 8.58349 11.6022 8.73147 11.4665C8.81002 11.394 8.88135 11.316 8.94548 11.2327C8.83989 11.2179 8.73474 11.2002 8.63016 11.1796C8.24768 11.1048 7.7878 10.9843 7.22148 10.8352L7.18847 10.8269C6.56295 10.6622 6.06721 10.5321 5.67733 10.3937C5.27835 10.2525 4.95279 10.0912 4.68471 9.84499C4.29434 9.4864 4.0212 9.02232 3.89983 8.51145C3.81673 8.16091 3.83665 7.80366 3.91121 7.3945C3.98407 6.99372 4.11725 6.50752 4.28459 5.89407L4.5316 4.99034ZM7.93919 2.38859C7.57607 2.3244 7.34157 2.32328 7.14407 2.36849C6.78775 2.45006 6.4641 2.63344 6.21406 2.89543C5.9659 3.15499 5.81279 3.55689 5.54756 4.5103L5.40926 5.01379L5.11443 6.09223C4.94083 6.72857 4.81733 7.18071 4.75187 7.54186C4.68642 7.89744 4.68528 8.12797 4.73138 8.32167C4.81455 8.67112 5.00154 8.98854 5.26867 9.23376C5.41666 9.36996 5.62042 9.48327 5.96704 9.60664C6.31878 9.73111 6.77981 9.85224 7.42865 10.0231C8.01205 10.1766 8.44461 10.2899 8.79636 10.358C9.14639 10.4266 9.3843 10.4434 9.57896 10.4199C9.62146 10.4143 9.66244 10.4073 9.7019 10.3987C10.0582 10.3171 10.3819 10.1338 10.6319 9.87178C10.7708 9.72665 10.8869 9.52681 11.0121 9.18687C11.139 8.84191 11.2625 8.38977 11.4367 7.75342L11.7315 6.67498C11.9051 6.03864 12.0286 5.5865 12.0941 5.22535C12.159 4.86977 12.1607 4.63924 12.1146 4.44554C12.0314 4.09609 11.8444 3.77867 11.5773 3.53345C11.4293 3.39725 11.2256 3.28394 10.8789 3.16057C10.5266 3.0361 10.0662 2.91497 9.41732 2.74416C8.76847 2.57391 8.30744 2.45278 7.93919 2.38859ZM6.57889 6.27587C6.59342 6.22276 6.61847 6.17297 6.65262 6.12936C6.68678 6.08574 6.72936 6.04915 6.77793 6.02168C6.8265 5.9942 6.88012 5.97639 6.93572 5.96924C6.99131 5.96209 7.0478 5.96576 7.10195 5.98003L9.85102 6.70234C9.95734 6.73369 10.047 6.80443 10.101 6.89956C10.1551 6.99469 10.1692 7.10671 10.1404 7.21187C10.1116 7.31703 10.0421 7.40704 9.94676 7.46281C9.8514 7.51858 9.73764 7.53573 9.62961 7.51061L6.88055 6.7883C6.7713 6.75952 6.67816 6.68938 6.6216 6.5933C6.56504 6.49722 6.54968 6.38305 6.57889 6.27587ZM6.13665 7.89353C6.15117 7.84035 6.17625 7.79051 6.21044 7.74685C6.24463 7.70319 6.28726 7.66657 6.3359 7.63909C6.38454 7.61162 6.43822 7.59381 6.49389 7.58671C6.54955 7.5796 6.60609 7.58333 6.66028 7.59768L8.30915 8.03085C8.41852 8.05957 8.51177 8.12972 8.56839 8.22587C8.62502 8.32202 8.64038 8.43629 8.61109 8.54355C8.58181 8.65081 8.51028 8.74226 8.41224 8.7978C8.3142 8.85333 8.19768 8.86839 8.08832 8.83967L6.43888 8.40595C6.32963 8.37717 6.23649 8.30704 6.17993 8.21096C6.12337 8.11488 6.10744 8.00071 6.13665 7.89353Z" fill="#0D111A" stroke="#0D111A" stroke-width="0.13"/>
</svg>
