<svg width="11" height="11" viewBox="0 0 11 11" fill="none" xmlns="http://www.w3.org/2000/svg">
<g clip-path="url(#clip0_342_3192)">
<path d="M1.99793 6.90625C1.93909 6.90937 1.88065 6.89499 1.82999 6.8649C1.77933 6.83482 1.73873 6.7904 1.71331 6.73724C1.6879 6.68408 1.67882 6.62459 1.68721 6.56627C1.69561 6.50795 1.7211 6.45343 1.76048 6.40961L6.16171 1.51215C6.18764 1.48227 6.21926 1.45785 6.25472 1.44032C6.29019 1.42279 6.32879 1.4125 6.36828 1.41005C6.40777 1.4076 6.44734 1.41304 6.48471 1.42605C6.52207 1.43905 6.55647 1.45937 6.58589 1.48582C6.61532 1.51226 6.63918 1.5443 6.65609 1.58007C6.673 1.61583 6.68262 1.65461 6.68439 1.69413C6.68615 1.73365 6.68003 1.77313 6.66637 1.81026C6.65272 1.84739 6.6318 1.88143 6.60485 1.91039L2.20362 6.80785C2.1487 6.86896 2.07409 6.90218 1.99793 6.90625Z" fill="#0D111A" stroke="#0D111A" stroke-width="0.0817215"/>
<path d="M1.65312 9.07376C1.60873 9.07616 1.56436 9.0686 1.52327 9.05163C1.48218 9.03466 1.44541 9.00871 1.41565 8.97568C1.38589 8.94265 1.3639 8.90338 1.3513 8.86074C1.33869 8.81811 1.33578 8.7732 1.34279 8.72929L1.68812 6.56218C1.69416 6.52344 1.7078 6.48628 1.72823 6.45282C1.74867 6.41936 1.77551 6.39027 1.80721 6.3672C1.83891 6.34414 1.87486 6.32756 1.91298 6.31841C1.9511 6.30926 1.99066 6.30773 2.02938 6.3139C2.06809 6.32007 2.10521 6.33382 2.1386 6.35436C2.172 6.3749 2.20101 6.40183 2.22397 6.43361C2.24694 6.46538 2.2634 6.50138 2.27243 6.53953C2.28146 6.57768 2.28287 6.61724 2.27658 6.65594L1.93125 8.82306C1.92054 8.89035 1.8871 8.95194 1.83649 8.99756C1.78588 9.04318 1.72116 9.07007 1.65312 9.07376ZM3.77088 8.49977C3.71205 8.50289 3.65361 8.48851 3.60295 8.45842C3.55229 8.42834 3.51168 8.38391 3.48627 8.33076C3.46085 8.2776 3.45177 8.21811 3.46017 8.15979C3.46856 8.10147 3.49406 8.04695 3.53343 8.00313L7.93467 3.10582C7.9606 3.07594 7.99222 3.05152 8.02769 3.03399C8.06315 3.01646 8.10176 3.00617 8.14124 3.00372C8.18073 3.00127 8.22031 3.00671 8.25767 3.01971C8.29503 3.03272 8.32943 3.05304 8.35886 3.07949C8.38828 3.10593 8.41215 3.13797 8.42906 3.17374C8.44597 3.2095 8.45559 3.24828 8.45735 3.2878C8.45912 3.32732 8.45299 3.3668 8.43934 3.40393C8.42568 3.44106 8.40477 3.4751 8.37781 3.50406L3.97673 8.40136C3.95059 8.43052 3.91896 8.45423 3.88363 8.47111C3.8483 8.488 3.80999 8.49774 3.77088 8.49977Z" fill="#0D111A" stroke="#0D111A" stroke-width="0.0817215"/>
<path d="M1.65232 9.07178C1.57899 9.07539 1.50691 9.0518 1.4499 9.00554C1.39289 8.95929 1.35495 8.89362 1.34335 8.82113C1.33176 8.74863 1.34732 8.67441 1.38707 8.61268C1.42681 8.55095 1.48794 8.50606 1.55874 8.48661L3.67679 7.9126C3.75297 7.89222 3.83412 7.90286 3.90246 7.9422C3.97081 7.98154 4.02076 8.04638 4.04139 8.12249C4.06202 8.1986 4.05163 8.27978 4.0125 8.34825C3.97337 8.41672 3.9087 8.46688 3.83265 8.48774L1.71459 9.06175C1.69426 9.06734 1.67338 9.0707 1.65232 9.07178ZM7.37528 4.48675C7.3362 4.48891 7.29709 4.48331 7.26019 4.47028C7.22329 4.45724 7.18933 4.43703 7.16028 4.4108L5.38755 2.81769C5.35767 2.79176 5.33326 2.76014 5.31573 2.72468C5.2982 2.68921 5.2879 2.65061 5.28545 2.61112C5.283 2.57164 5.28844 2.53206 5.30145 2.49469C5.31446 2.45733 5.33477 2.42293 5.36122 2.39351C5.38766 2.36408 5.4197 2.34022 5.45547 2.32331C5.49123 2.3064 5.53001 2.29678 5.56953 2.29501C5.60906 2.29325 5.64853 2.29937 5.68566 2.31303C5.7228 2.32668 5.75683 2.3476 5.7858 2.37455L7.55853 3.96766C7.60234 4.00705 7.6335 4.05855 7.64805 4.11564C7.6626 4.17273 7.6599 4.23286 7.64029 4.28841C7.62068 4.34397 7.58503 4.39247 7.53786 4.42777C7.49069 4.46307 7.43411 4.4836 7.37528 4.48675ZM8.17192 3.60046C8.11304 3.60365 8.05454 3.58929 8.00383 3.55922C7.95311 3.52914 7.91246 3.4847 7.88702 3.43151C7.86158 3.37832 7.8525 3.31877 7.86091 3.26041C7.86933 3.20206 7.89487 3.14751 7.93431 3.10368C8.09104 2.92927 8.17027 2.70022 8.15739 2.45893C8.14452 2.21765 8.04136 1.99833 7.86696 1.8416C7.6924 1.68472 7.46335 1.6055 7.22206 1.61837C6.98077 1.63125 6.76146 1.7344 6.60473 1.90896C6.57857 1.93806 6.54694 1.96173 6.51163 1.97861C6.47633 1.9955 6.43804 2.00526 6.39896 2.00734C6.35988 2.00943 6.32078 2.0038 6.28387 1.99077C6.24697 1.97774 6.213 1.95757 6.18389 1.93141C6.15478 1.90526 6.13111 1.87362 6.11423 1.83831C6.09735 1.80301 6.08759 1.76472 6.0855 1.72564C6.08342 1.68657 6.08905 1.64746 6.10208 1.61056C6.1151 1.57365 6.13527 1.53968 6.16143 1.51057C6.42448 1.21771 6.78985 1.0447 7.19031 1.02333C7.59062 1.00197 7.97247 1.1351 8.26519 1.39831C8.55805 1.66135 8.73106 2.02672 8.75243 2.42718C8.7738 2.82764 8.64066 3.20935 8.37746 3.50207C8.35138 3.53122 8.3198 3.55492 8.28452 3.5718C8.24924 3.58869 8.21097 3.59843 8.17192 3.60046Z" fill="#0D111A" stroke="#0D111A" stroke-width="0.0817215"/>
</g>
<defs>
<clipPath id="clip0_342_3192">
<rect width="9.53418" height="9.53418" fill="white" transform="translate(0 0.508067) rotate(-3.05469)"/>
</clipPath>
</defs>
</svg>
