<svg width="28" height="28" viewBox="0 0 28 28" fill="none" xmlns="http://www.w3.org/2000/svg">
<rect width="28" height="28" rx="14" fill="#F9FAFB"/>
<rect x="0.5" y="0.5" width="27" height="27" rx="13.5" stroke="#7A7E80" stroke-opacity="0.3"/>
<path d="M19.3577 13.5145C19.2289 13.5145 19.1052 13.4633 19.0141 13.3722C18.923 13.2811 18.8718 13.1575 18.8718 13.0286C18.8707 11.9978 18.4608 11.0095 17.7319 10.2806C17.003 9.55174 16.0148 9.1418 14.984 9.14077C14.8551 9.14077 14.7315 9.08957 14.6403 8.99843C14.5492 8.9073 14.498 8.78369 14.498 8.6548C14.498 8.52591 14.5492 8.4023 14.6403 8.31116C14.7315 8.22002 14.8551 8.16882 14.984 8.16882C16.2724 8.17024 17.5077 8.6827 18.4188 9.59377C19.3298 10.5048 19.8423 11.7401 19.8437 13.0286C19.8437 13.1575 19.7925 13.2811 19.7014 13.3722C19.6102 13.4633 19.4866 13.5145 19.3577 13.5145ZM17.8998 13.0286C17.8998 12.2552 17.5926 11.5136 17.0458 10.9668C16.499 10.4199 15.7573 10.1127 14.984 10.1127C14.8551 10.1127 14.7315 10.1639 14.6403 10.2551C14.5492 10.3462 14.498 10.4698 14.498 10.5987C14.498 10.7276 14.5492 10.8512 14.6403 10.9423C14.7315 11.0335 14.8551 11.0847 14.984 11.0847C15.4995 11.0847 15.994 11.2895 16.3585 11.654C16.7231 12.0186 16.9279 12.513 16.9279 13.0286C16.9279 13.1575 16.9791 13.2811 17.0702 13.3722C17.1613 13.4633 17.285 13.5145 17.4138 13.5145C17.5427 13.5145 17.6663 13.4633 17.7575 13.3722C17.8486 13.2811 17.8998 13.1575 17.8998 13.0286ZM18.9607 18.94L19.4029 18.4302C19.6844 18.1478 19.8425 17.7653 19.8425 17.3666C19.8425 16.9679 19.6844 16.5855 19.4029 16.3031C19.3879 16.288 18.2186 15.3885 18.2186 15.3885C17.938 15.1213 17.5652 14.9726 17.1778 14.9731C16.7904 14.9737 16.418 15.1235 16.1382 15.3914L15.2119 16.1719C14.4558 15.8589 13.769 15.3997 13.1909 14.8206C12.6127 14.2415 12.1547 13.5539 11.8431 12.7972L12.6207 11.8739C12.8888 11.5941 13.0388 11.2217 13.0394 10.8341C13.04 10.4466 12.8913 10.0737 12.6241 9.79295C12.6241 9.79295 11.7236 8.62515 11.7085 8.61009C11.4312 8.33102 11.0553 8.17224 10.6619 8.16805C10.2685 8.16387 9.88932 8.31462 9.60617 8.58773L9.0473 9.07371C5.74559 12.9042 12.8554 19.9591 16.8122 19.8322C17.2118 19.8345 17.6077 19.7568 17.9768 19.6035C18.3458 19.4503 18.6803 19.2247 18.9607 18.94Z" fill="black"/>
</svg>
