<svg width="11" height="11" viewBox="0 0 11 11" fill="none" xmlns="http://www.w3.org/2000/svg">
<path fill-rule="evenodd" clip-rule="evenodd" d="M3.82141 1.29835C3.37312 1.32225 2.93729 1.45433 2.55115 1.6833C2.16501 1.91227 1.84005 2.23132 1.60402 2.61318C1.368 2.99505 1.22794 3.42839 1.1958 3.87615C1.16367 4.32392 1.24042 4.77282 1.41949 5.18447C1.59857 5.59613 1.87464 5.95832 2.22413 6.24008C2.57362 6.52184 2.98612 6.7148 3.4264 6.80247C3.86668 6.89014 4.32164 6.86991 4.7524 6.74352C5.18316 6.61713 5.57692 6.38833 5.90002 6.07667L6.23726 6.38011C6.19017 6.49398 6.17953 6.61964 6.20682 6.7398C6.23411 6.85996 6.29797 6.96871 6.38963 7.05106L7.69336 8.2227C7.75131 8.27657 7.8194 8.31837 7.89368 8.34564C7.96795 8.37292 8.04691 8.38513 8.12596 8.38156C8.205 8.378 8.28254 8.35872 8.35406 8.32487C8.42557 8.29101 8.48963 8.24325 8.54249 8.18438C8.59535 8.1255 8.63596 8.05669 8.66194 7.98195C8.68792 7.90721 8.69876 7.82805 8.69382 7.74908C8.68888 7.67011 8.66826 7.59292 8.63317 7.522C8.59807 7.45108 8.54921 7.38787 8.48942 7.33604L7.18609 6.16438C7.09445 6.08202 6.97952 6.03009 6.85714 6.01574C6.73476 6.0014 6.61094 6.02535 6.50273 6.08429L6.16554 5.78164C6.49269 5.3607 6.69194 4.8546 6.73957 4.32361C6.78719 3.79263 6.68119 3.25915 6.43417 2.78671C6.18715 2.31428 5.80954 1.9228 5.34631 1.65893C4.88308 1.39505 4.35376 1.26989 3.82141 1.29835ZM1.58944 4.20222C1.57276 3.88965 1.6178 3.57686 1.72201 3.2817C1.82621 2.98655 1.98753 2.7148 2.19675 2.48199C2.40598 2.24918 2.65901 2.05985 2.9414 1.92483C3.22379 1.78981 3.53001 1.71172 3.84258 1.69504C4.15514 1.67836 4.46794 1.72341 4.76309 1.82762C5.05825 1.93182 5.32999 2.09314 5.56281 2.30236C5.79562 2.51159 5.98494 2.76462 6.11997 3.04701C6.25499 3.3294 6.33307 3.63562 6.34975 3.94819C6.38344 4.57944 6.16498 5.19823 5.74243 5.66841C5.31989 6.1386 4.72787 6.42167 4.09661 6.45536C3.46535 6.48905 2.84657 6.27059 2.37638 5.84804C1.9062 5.4255 1.62312 4.83348 1.58944 4.20222ZM8.22433 7.63144L6.92059 6.45981C6.90117 6.44238 6.8785 6.42894 6.85389 6.42027C6.82927 6.4116 6.80319 6.40786 6.77713 6.40927C6.75107 6.41068 6.72554 6.41721 6.702 6.42849C6.67846 6.43976 6.65738 6.45556 6.63994 6.47499C6.62251 6.49441 6.60908 6.51708 6.60041 6.54169C6.59174 6.56631 6.588 6.59239 6.58941 6.61845C6.59082 6.64452 6.59735 6.67004 6.60862 6.69358C6.6199 6.71712 6.6357 6.7382 6.65512 6.75564L7.95885 7.92727C7.97828 7.9447 8.00094 7.95814 8.02556 7.96681C8.05018 7.97548 8.07626 7.97922 8.10232 7.97781C8.12838 7.9764 8.15391 7.96987 8.17745 7.95859C8.20098 7.94732 8.22207 7.93152 8.2395 7.91209C8.25693 7.89267 8.27037 7.87 8.27904 7.84539C8.28771 7.82077 8.29145 7.79469 8.29004 7.76863C8.28863 7.74256 8.2821 7.71704 8.27082 7.6935C8.25955 7.66996 8.24375 7.64888 8.22433 7.63144Z" fill="#0D111A" stroke="#0D111A" stroke-width="0.231544"/>
</svg>
