<svg width="27" height="27" viewBox="0 0 27 27" fill="none" xmlns="http://www.w3.org/2000/svg">
<rect width="27" height="27" rx="5" fill="#EFEFEF"/>
<path d="M13.4996 15.2511C14.4661 15.2511 15.2496 14.4676 15.2496 13.501C15.2496 12.5345 14.4661 11.751 13.4996 11.751C12.533 11.751 11.7495 12.5345 11.7495 13.501C11.7495 14.4676 12.533 15.2511 13.4996 15.2511Z" stroke="#0D111A" stroke-width="1.12007" stroke-miterlimit="10" stroke-linecap="round" stroke-linejoin="round"/>
<path d="M6.60596 14.0791V12.9222C6.60596 12.2385 7.19167 11.6732 7.91519 11.6732C9.16241 11.6732 9.67233 10.8318 9.04527 9.79971C8.68695 9.20809 8.90057 8.43898 9.52762 8.09715L10.7197 7.44637C11.2641 7.13741 11.9669 7.32147 12.2908 7.84078L12.3666 7.96568C12.9868 8.99774 14.0066 8.99774 14.6336 7.96568L14.7094 7.84078C15.0333 7.32147 15.7362 7.13741 16.2805 7.44637L17.4726 8.09715C18.0997 8.43898 18.3133 9.20809 17.955 9.79971C17.3279 10.8318 17.8378 11.6732 19.085 11.6732C19.8017 11.6732 20.3943 12.2319 20.3943 12.9222V14.0791C20.3943 14.7628 19.8086 15.3281 19.085 15.3281C17.8378 15.3281 17.3279 16.1695 17.955 17.2016C18.3133 17.7998 18.0997 18.5623 17.4726 18.9041L16.2805 19.5549C15.7362 19.8639 15.0333 19.6798 14.7094 19.1605L14.6336 19.0356C14.0135 18.0036 12.9937 18.0036 12.3666 19.0356L12.2908 19.1605C11.9669 19.6798 11.2641 19.8639 10.7197 19.5549L9.52762 18.9041C8.90057 18.5623 8.68695 17.7932 9.04527 17.2016C9.67233 16.1695 9.16241 15.3281 7.91519 15.3281C7.19167 15.3281 6.60596 14.7628 6.60596 14.0791Z" stroke="#0D111A" stroke-width="1.12007" stroke-miterlimit="10" stroke-linecap="round" stroke-linejoin="round"/>
</svg>
