<svg width="16" height="16" viewBox="0 0 16 16" fill="none" xmlns="http://www.w3.org/2000/svg">
<path d="M10.0569 1.14258L10.4263 2.78255C10.7397 4.1736 11.826 5.25991 13.2171 5.57326L14.857 5.94268L13.2171 6.31211C11.826 6.62546 10.7397 7.71173 10.4263 9.1028L10.0569 10.7428L9.68754 9.1028C9.37416 7.71173 8.2879 6.62546 6.89683 6.31211L5.25684 5.94268L6.89683 5.57326C8.28783 5.25991 9.37416 4.1736 9.68754 2.78255L10.0569 1.14258Z" fill="white"/>
<path d="M4.57122 8L4.8351 9.17143C5.05892 10.165 5.83485 10.941 6.82844 11.1648L7.99987 11.4286L6.82844 11.6925C5.83485 11.9163 5.05892 12.6922 4.8351 13.6859L4.57122 14.8573L4.30735 13.6859C4.08353 12.6922 3.3076 11.9163 2.31399 11.6925L1.14258 11.4286L2.31399 11.1648C3.3076 10.941 4.08353 10.1651 4.30735 9.17143L4.57122 8Z" fill="white"/>
</svg>
