<svg preserveAspectRatio="none" width="100%" height="100%" overflow="visible" style="display: block;" viewBox="0 0 23.9877 24" fill="none" xmlns="http://www.w3.org/2000/svg">
<g id="Group">
<path id="Vector" d="M12 7V0.46C12.9251 0.809335 13.7653 1.35131 14.465 2.05L17.949 5.536C18.6485 6.23488 19.1909 7.0749 19.54 8H13C12.448 8 12 7.551 12 7ZM8.584 19H5C4.73478 19 4.48043 18.8946 4.29289 18.7071C4.10536 18.5196 4 18.2652 4 18C4 17.7348 4.10536 17.4804 4.29289 17.2929C4.48043 17.1054 4.73478 17 5 17H8.07C8.029 16.672 8 16.34 8 16C8 15.66 8.022 15.328 8.063 15H5C4.73478 15 4.48043 14.8946 4.29289 14.7071C4.10536 14.5196 4 14.2652 4 14C4 13.7348 4.10536 13.4804 4.29289 13.2929C4.48043 13.1054 4.73478 13 5 13H8.593C8.88792 12.2789 9.28718 11.605 9.778 11H5C4.73478 11 4.48043 10.8946 4.29289 10.7071C4.10536 10.5196 4 10.2652 4 10C4 9.73478 4.10536 9.48043 4.29289 9.29289C4.48043 9.10536 4.73478 9 5 9H10.774C10.2763 8.45274 10.0004 7.73971 10 7V0.024C9.839 0.013 9.678 0 9.515 0H5C2.243 0 0 2.243 0 5V19C0 21.757 2.243 24 5 24H15C15.114 24 15.221 23.974 15.333 23.966C13.8591 23.8424 12.4483 23.313 11.257 22.4364C10.0656 21.5599 9.14045 20.3704 8.584 19ZM20.911 19.497C21.85 18.178 22.276 16.469 21.871 14.654C21.377 12.443 19.594 10.658 17.381 10.173C16.3878 9.94481 15.353 9.97272 14.3736 10.2541C13.3942 10.5355 12.5023 11.0612 11.7817 11.7817C11.0612 12.5023 10.5355 13.3942 10.2541 14.3736C9.97272 15.353 9.94481 16.3878 10.173 17.381C10.658 19.594 12.443 21.377 14.654 21.871C16.47 22.277 18.179 21.85 19.497 20.911L22.293 23.707C22.4816 23.8892 22.7342 23.99 22.9964 23.9877C23.2586 23.9854 23.5094 23.8802 23.6948 23.6948C23.8802 23.5094 23.9854 23.2586 23.9877 22.9964C23.99 22.7342 23.8892 22.4816 23.707 22.293L20.911 19.497ZM16.776 18.464L16.772 18.468C16.028 19.212 14.714 19.214 13.949 18.449L12.434 16.874C12.2502 16.683 12.1498 16.4269 12.1549 16.1619C12.1599 15.8969 12.27 15.6448 12.461 15.461C12.652 15.2772 12.9081 15.1768 13.1731 15.1819C13.4381 15.1869 13.6902 15.297 13.874 15.488L15.369 17.041L18.269 14.07C18.3607 13.9761 18.4701 13.9012 18.5907 13.8496C18.7114 13.7979 18.8411 13.7705 18.9723 13.769C19.1036 13.7675 19.2339 13.7918 19.3557 13.8406C19.4776 13.8894 19.5886 13.9618 19.6825 14.0535C19.7764 14.1452 19.8513 14.2546 19.9029 14.3752C19.9546 14.4959 19.982 14.6256 19.9835 14.7568C19.985 14.8881 19.9607 15.0184 19.9119 15.1402C19.8631 15.2621 19.7907 15.3731 19.699 15.467L16.774 18.464H16.776Z" fill="var(--fill-0, #1A1A1C)"/>
</g>
</svg>
