<svg preserveAspectRatio="none" width="100%" height="100%" overflow="visible" style="display: block;" viewBox="0 0 23.9741 24.0003" fill="none" xmlns="http://www.w3.org/2000/svg">
<g id="Group">
<path id="Vector" d="M13.27 7.4803C12.8674 7.88275 12.548 8.36057 12.3301 8.88647C12.1122 9.41237 12 9.97604 12 10.5453V11.5003C12 11.6329 12.0527 11.7601 12.1464 11.8539C12.2402 11.9476 12.3674 12.0003 12.5 12.0003H13.455C14.6042 12.0001 15.7062 11.5437 16.519 10.7313L23.234 4.0163C24.084 3.1663 24.247 1.7803 23.486 0.849301C23.2831 0.599506 23.0301 0.395103 22.7432 0.249326C22.4563 0.103549 22.142 0.0196481 21.8206 0.00305666C21.4993 -0.0135348 21.178 0.0375528 20.8776 0.153012C20.5773 0.26847 20.3045 0.445726 20.077 0.673301L13.27 7.4803ZM17.934 12.1443C17.3473 12.7344 16.6492 13.2022 15.8804 13.5207C15.1116 13.8391 14.2872 14.0018 13.455 13.9993H12C11.4696 13.9993 10.9609 13.7886 10.5858 13.4135C10.2107 13.0384 10 12.5297 10 11.9993V10.5443C10 8.8523 10.659 7.2623 11.855 6.0653L17.323 0.599301C16.6098 0.211523 15.8118 0.00577239 15 0.000300637H5C2.243 0.000300637 0 2.2433 0 5.0003V19.0003C0 21.7573 2.243 24.0003 5 24.0003H15C17.757 24.0003 20 21.7573 20 19.0003V10.0793L17.934 12.1453V12.1443ZM8.167 16.6663L6.48 18.3533C6.07866 18.757 5.53645 18.9895 4.96731 19.0018C4.39817 19.0141 3.84642 18.8053 3.428 18.4193L2.759 17.8403C2.56989 17.6635 2.45665 17.4202 2.44306 17.1617C2.42947 16.9031 2.5166 16.6494 2.68614 16.4537C2.85568 16.258 3.09444 16.1356 3.3523 16.1122C3.61015 16.0889 3.86703 16.1663 4.069 16.3283L4.758 16.9263C4.861 17.0193 4.986 17.0183 5.065 16.9393L6.752 15.2523C6.93951 15.0648 7.19382 14.9595 7.459 14.9595C7.72418 14.9595 7.97849 15.0648 8.166 15.2523C8.35351 15.4398 8.45885 15.6941 8.45885 15.9593C8.45885 16.2245 8.35451 16.4788 8.167 16.6663ZM8.167 11.6663L6.48 13.3533C6.07866 13.757 5.53645 13.9895 4.96731 14.0018C4.39817 14.0141 3.84642 13.8053 3.428 13.4193L2.759 12.8403C2.56989 12.6635 2.45665 12.4202 2.44306 12.1617C2.42947 11.9031 2.5166 11.6494 2.68614 11.4537C2.85568 11.258 3.09444 11.1356 3.3523 11.1122C3.61015 11.0889 3.86703 11.1663 4.069 11.3283L4.758 11.9263C4.861 12.0193 4.986 12.0183 5.065 11.9393L6.752 10.2523C6.84484 10.1595 6.95507 10.0858 7.07637 10.0356C7.19768 9.98531 7.3277 9.95945 7.459 9.95945C7.5903 9.95945 7.72032 9.98531 7.84163 10.0356C7.96293 10.0858 8.07316 10.1595 8.166 10.2523C8.25884 10.3451 8.33249 10.4554 8.38274 10.5767C8.43299 10.698 8.45885 10.828 8.45885 10.9593C8.45885 11.0906 8.43299 11.2206 8.38274 11.3419C8.33249 11.4632 8.25984 11.5735 8.167 11.6663ZM8.167 6.7063L6.48 8.3933C6.07866 8.79703 5.53645 9.02948 4.96731 9.04179C4.39817 9.05409 3.84642 8.84531 3.428 8.4593L2.759 7.8803C2.56989 7.70347 2.45665 7.46023 2.44306 7.20168C2.42947 6.94312 2.5166 6.68936 2.68614 6.49368C2.85568 6.298 3.09444 6.17562 3.3523 6.15224C3.61015 6.12886 3.86703 6.2063 4.069 6.3683L4.758 6.9663C4.861 7.0603 4.986 7.0583 5.065 6.9793L6.752 5.2923C6.93951 5.10479 7.19382 4.99945 7.459 4.99945C7.72418 4.99945 7.97849 5.10479 8.166 5.2923C8.35351 5.47981 8.45885 5.73412 8.45885 5.9993C8.45885 6.26448 8.35451 6.51879 8.167 6.7063ZM16 17.9993H12C11.7348 17.9993 11.4804 17.8939 11.2929 17.7064C11.1054 17.5189 11 17.2645 11 16.9993C11 16.7341 11.1054 16.4797 11.2929 16.2922C11.4804 16.1047 11.7348 15.9993 12 15.9993H16C16.2652 15.9993 16.5196 16.1047 16.7071 16.2922C16.8946 16.4797 17 16.7341 17 16.9993C17 17.2645 16.8946 17.5189 16.7071 17.7064C16.5196 17.8939 16.2652 17.9993 16 17.9993Z" fill="var(--fill-0, #1A1A1C)"/>
</g>
</svg>
