<svg preserveAspectRatio="none" width="100%" height="100%" overflow="visible" style="display: block;" viewBox="0 0 17.998 21.999" fill="none" xmlns="http://www.w3.org/2000/svg">
<g id="Group">
<path id="Vector" d="M16.862 3.532C16.8083 3.39651 16.7258 3.27434 16.6201 3.17401C16.5144 3.07367 16.3881 2.99757 16.25 2.951C16.195 2.932 14.99 2.534 12.939 2.259C12.395 0.74 11.098 0 8.999 0C6.9 0 5.603 0.741 5.059 2.259C3.009 2.534 1.803 2.933 1.748 2.951C1.60981 2.99739 1.48343 3.07342 1.37771 3.17378C1.272 3.27414 1.1895 3.3964 1.136 3.532C1.09 3.649 0 6.472 0 11.999C0 17.526 1.09 20.349 1.136 20.466C1.18746 20.5969 1.266 20.7154 1.36647 20.8138C1.46694 20.9122 1.58708 20.9883 1.719 21.037C1.825 21.076 4.373 21.999 8.999 21.999C13.625 21.999 16.173 21.076 16.279 21.037C16.4109 20.9883 16.5311 20.9122 16.6315 20.8138C16.732 20.7154 16.8105 20.5969 16.862 20.466C16.908 20.349 17.998 17.526 17.998 11.999C17.998 6.472 16.908 3.649 16.862 3.532ZM13.841 9.204C12.668 11.039 10.998 13.34 8.47 14.856C8.31099 14.9514 8.12858 15.0007 7.94316 14.9984C7.75773 14.9961 7.5766 14.9423 7.42 14.843C6.059 13.981 5.034 13.055 4.196 11.929C4.11451 11.8239 4.05481 11.7036 4.02037 11.5752C3.98593 11.4467 3.97746 11.3127 3.99544 11.181C4.01343 11.0492 4.05751 10.9224 4.12511 10.8079C4.19271 10.6933 4.28247 10.5935 4.38914 10.5141C4.49581 10.4347 4.61724 10.3773 4.74633 10.3454C4.87543 10.3135 5.00959 10.3077 5.14096 10.3283C5.27234 10.3488 5.39829 10.3954 5.51146 10.4652C5.62462 10.5351 5.72271 10.6268 5.8 10.735C6.379 11.511 7.075 12.179 7.966 12.804C9.836 11.52 11.129 9.734 12.155 8.127C12.2248 8.01429 12.3162 7.91658 12.4241 7.83953C12.5319 7.76249 12.654 7.70765 12.7833 7.67822C12.9125 7.64878 13.0463 7.64533 13.1769 7.66807C13.3074 7.6908 13.4322 7.73927 13.5439 7.81066C13.6556 7.88204 13.7519 7.97491 13.8274 8.08388C13.9029 8.19284 13.9559 8.31572 13.9835 8.44537C14.011 8.57502 14.0125 8.70885 13.9879 8.83909C13.9633 8.96933 13.913 9.09337 13.84 9.204H13.841Z" fill="var(--fill-0, #1A1A1C)"/>
</g>
</svg>
