<svg preserveAspectRatio="none" width="100%" height="100%" overflow="visible" style="display: block;" viewBox="0 0 23.9554 24" fill="none" xmlns="http://www.w3.org/2000/svg">
<g id="Group">
<path id="Vector" d="M12 7V0.46C12.9251 0.809335 13.7653 1.35131 14.465 2.05L17.949 5.536C18.6485 6.23488 19.1909 7.0749 19.54 8H13C12.448 8 12 7.551 12 7ZM13.27 19.48C12.8674 19.8824 12.548 20.3603 12.3301 20.8862C12.1122 21.4121 12 21.9757 12 22.545V24H13.455C14.605 24 15.707 23.543 16.52 22.73L23.327 15.923C23.7382 15.488 23.9636 14.9099 23.9552 14.3113C23.9468 13.7128 23.7053 13.1412 23.2821 12.7179C22.8588 12.2947 22.2872 12.0532 21.6887 12.0448C21.0901 12.0364 20.512 12.2618 20.077 12.673L13.27 19.48ZM10 22.545C10 20.853 10.659 19.262 11.855 18.066L18.662 11.259C19.0452 10.8778 19.4967 10.5721 19.993 10.358C19.989 10.238 19.984 10.119 19.976 9.999H13C11.346 9.999 10 8.653 10 6.999V0.024C9.839 0.013 9.678 0 9.515 0H5C2.243 0 0 2.243 0 5V19C0 21.757 2.243 24 5 24H10V22.545Z" fill="var(--fill-0, #1A1A1C)"/>
</g>
</svg>
