<svg preserveAspectRatio="none" width="100%" height="100%" overflow="visible" style="display: block;" viewBox="0 0 24 24" fill="none" xmlns="http://www.w3.org/2000/svg">
<g id="Group">
<path id="Vector" d="M16 2.172V1C16 0.734784 15.8946 0.48043 15.7071 0.292893C15.5196 0.105357 15.2652 0 15 0C14.7348 0 14.4804 0.105357 14.2929 0.292893C14.1054 0.48043 14 0.734784 14 1V2H12V1C12 0.734784 11.8946 0.48043 11.7071 0.292893C11.5196 0.105357 11.2652 0 11 0C10.7348 0 10.4804 0.105357 10.2929 0.292893C10.1054 0.48043 10 0.734784 10 1V2H8V1C8 0.734784 7.89464 0.48043 7.70711 0.292893C7.51957 0.105357 7.26522 0 7 0C6.73478 0 6.48043 0.105357 6.29289 0.292893C6.10536 0.48043 6 0.734784 6 1V2H4V1C4 0.734784 3.89464 0.48043 3.70711 0.292893C3.51957 0.105357 3.26522 0 3 0C2.73478 0 2.48043 0.105357 2.29289 0.292893C2.10536 0.48043 2 0.734784 2 1V2.172C1.41549 2.37927 0.909459 2.76238 0.551366 3.26872C0.193273 3.77506 0.000671943 4.37983 0 5L0 19C0 21.757 2.243 24 5 24H13C15.757 24 18 21.757 18 19V5C17.9993 4.37983 17.8067 3.77506 17.4486 3.26872C17.0905 2.76238 16.5845 2.37927 16 2.172ZM10 17H5C4.73478 17 4.48043 16.8946 4.29289 16.7071C4.10536 16.5196 4 16.2652 4 16C4 15.7348 4.10536 15.4804 4.29289 15.2929C4.48043 15.1054 4.73478 15 5 15H10C10.2652 15 10.5196 15.1054 10.7071 15.2929C10.8946 15.4804 11 15.7348 11 16C11 16.2652 10.8946 16.5196 10.7071 16.7071C10.5196 16.8946 10.2652 17 10 17ZM13 13H5C4.73478 13 4.48043 12.8946 4.29289 12.7071C4.10536 12.5196 4 12.2652 4 12C4 11.7348 4.10536 11.4804 4.29289 11.2929C4.48043 11.1054 4.73478 11 5 11H13C13.2652 11 13.5196 11.1054 13.7071 11.2929C13.8946 11.4804 14 11.7348 14 12C14 12.2652 13.8946 12.5196 13.7071 12.7071C13.5196 12.8946 13.2652 13 13 13ZM13 9H5C4.73478 9 4.48043 8.89464 4.29289 8.70711C4.10536 8.51957 4 8.26522 4 8C4 7.73478 4.10536 7.48043 4.29289 7.29289C4.48043 7.10536 4.73478 7 5 7H13C13.2652 7 13.5196 7.10536 13.7071 7.29289C13.8946 7.48043 14 7.73478 14 8C14 8.26522 13.8946 8.51957 13.7071 8.70711C13.5196 8.89464 13.2652 9 13 9ZM22 24L20.879 22.879C20.3164 22.3165 20.0002 21.5536 20 20.758V2C20 1.46957 20.2107 0.960859 20.5858 0.585786C20.9609 0.210714 21.4696 0 22 0C22.5304 0 23.0391 0.210714 23.4142 0.585786C23.7893 0.960859 24 1.46957 24 2V20.757C24 21.553 23.684 22.316 23.121 22.878L22 24Z" fill="var(--fill-0, #1A1A1C)"/>
</g>
</svg>
