<svg width="34" height="34" viewBox="0 0 34 34" fill="none" xmlns="http://www.w3.org/2000/svg">
<g clip-path="url(#clip0_342_3967)">
<path d="M27.625 12.75C26.9733 12.75 26.3868 12.3533 26.1446 11.747L24.9362 9.03975L22.2247 7.769C21.9309 7.64557 21.681 7.43686 21.5071 7.16986C21.3333 6.90285 21.2435 6.58983 21.2495 6.27127C21.2554 5.95271 21.3568 5.64326 21.5405 5.38294C21.7242 5.12261 21.9818 4.92338 22.2799 4.811L25.0396 3.7655L26.1446 1.00159C26.2632 0.705992 26.4676 0.452676 26.7314 0.274258C26.9953 0.095841 27.3065 0.000492987 27.625 0.000492987C27.9435 0.000492987 28.2547 0.095841 28.5186 0.274258C28.7824 0.452676 28.9868 0.705992 29.1054 1.00159L30.2175 3.7825L32.9984 4.89459C33.294 5.01321 33.5473 5.2176 33.7257 5.48144C33.9042 5.74528 33.9995 6.0565 33.9995 6.375C33.9995 6.69351 33.9042 7.00472 33.7257 7.26857C33.5473 7.53241 33.294 7.7368 32.9984 7.85542L30.2175 8.9675L29.1054 11.7484C28.9871 12.0444 28.7828 12.2981 28.519 12.4769C28.2551 12.6556 27.9437 12.7513 27.625 12.7514V12.75ZM32.1045 14.8368C30.2767 15.5882 28.2669 15.7795 26.3302 15.3864C22.4768 14.6271 19.3729 11.5232 18.6136 7.66984C18.2198 5.73316 18.4112 3.72311 19.1633 1.8955C19.2498 1.68712 19.2836 1.46059 19.2615 1.23602C19.2395 1.01145 19.1623 0.795812 19.0368 0.608257C18.9114 0.420702 18.7415 0.267041 18.5424 0.160928C18.3432 0.0548148 18.121 -0.000464091 17.8953 2.93484e-06H7.08333C5.20472 2.93484e-06 3.40304 0.74628 2.07466 2.07466C0.746278 3.40305 0 5.20472 0 7.08334L0 26.9167C0 27.8469 0.183216 28.768 0.539187 29.6273C0.895158 30.4867 1.41691 31.2676 2.07466 31.9253C3.40304 33.2537 5.20472 34 7.08333 34H26.9167C27.8469 34 28.768 33.8168 29.6273 33.4608C30.4867 33.1048 31.2676 32.5831 31.9253 31.9253C32.5831 31.2676 33.1048 30.4867 33.4608 29.6273C33.8168 28.768 34 27.8469 34 26.9167V16.1047C34.0005 15.879 33.9452 15.6568 33.8391 15.4576C33.733 15.2585 33.5793 15.0886 33.3917 14.9632C33.2042 14.8377 32.9886 14.7605 32.764 14.7385C32.5394 14.7164 32.3129 14.7502 32.1045 14.8368ZM19.4055 26.9167C19.1003 26.9165 18.8036 26.8169 18.5602 26.6328C18.3168 26.4487 18.1401 26.1903 18.0568 25.8967L17.1459 22.6667H9.77075L8.85983 25.8967C8.74823 26.2413 8.50758 26.5295 8.18828 26.7007C7.86899 26.8719 7.49583 26.9129 7.14699 26.8151C6.79814 26.7173 6.50066 26.4883 6.31688 26.1761C6.1331 25.8639 6.07727 25.4926 6.16108 25.1402L10.54 9.40384C10.6384 8.97867 10.8286 8.58018 11.0973 8.23633C11.366 7.89248 11.7067 7.6116 12.0955 7.41342C12.9002 6.99975 13.8238 6.97425 14.7008 7.34259C15.5323 7.69109 16.1698 8.5 16.4064 9.51717L20.757 25.1416C20.8149 25.3497 20.8239 25.5685 20.7832 25.7806C20.7426 25.9928 20.6534 26.1927 20.5227 26.3648C20.3919 26.5368 20.2232 26.6762 20.0296 26.7722C19.8361 26.8682 19.623 26.9181 19.4069 26.9181L19.4055 26.9167ZM26.9167 25.5C26.9167 25.8757 26.7674 26.2361 26.5017 26.5017C26.2361 26.7674 25.8757 26.9167 25.5 26.9167C25.1243 26.9167 24.7639 26.7674 24.4983 26.5017C24.2326 26.2361 24.0833 25.8757 24.0833 25.5V18.5413C24.0833 18.1656 24.2326 17.8053 24.4983 17.5396C24.7639 17.2739 25.1243 17.1247 25.5 17.1247C25.8757 17.1247 26.2361 17.2739 26.5017 17.5396C26.7674 17.8053 26.9167 18.1656 26.9167 18.5413V25.5ZM13.3025 10.1504L10.5698 19.8333H16.3455L13.6128 10.1504C13.5717 9.98892 13.3422 9.98892 13.3025 10.1504Z" fill="white"/>
</g>
<defs>
<clipPath id="clip0_342_3967">
<rect width="34" height="34" fill="white"/>
</clipPath>
</defs>
</svg>
