<svg width="52" height="52" viewBox="0 0 52 52" fill="none" xmlns="http://www.w3.org/2000/svg">
<path d="M45.8403 36.6575L43.0207 39.475C42.6705 39.825 42.2327 39.9825 41.7773 39.9825C41.322 39.9825 40.8842 39.8075 40.5339 39.475C40.3716 39.3131 40.2428 39.1208 40.1549 38.9091C40.067 38.6974 40.0218 38.4704 40.0218 38.2413C40.0218 38.0121 40.067 37.7851 40.1549 37.5734C40.2428 37.3617 40.3716 37.1694 40.5339 37.0075L42.7931 34.75H29.8335C28.8703 34.75 28.0822 33.9625 28.0822 33C28.0822 32.0375 28.8703 31.25 29.8335 31.25H42.7931L40.5339 28.9925C40.3718 28.8305 40.2432 28.6381 40.1554 28.4265C40.0677 28.2148 40.0225 27.9879 40.0225 27.7588C40.0225 27.5296 40.0677 27.3027 40.1554 27.091C40.2432 26.8794 40.3718 26.687 40.5339 26.525C40.696 26.363 40.8885 26.2345 41.1004 26.1468C41.3122 26.0591 41.5393 26.014 41.7686 26.014C41.9979 26.014 42.2249 26.0591 42.4368 26.1468C42.6486 26.2345 42.8411 26.363 43.0032 26.525L45.8228 29.3425C46.7902 30.3178 47.333 31.6355 47.333 33.0087C47.333 34.382 46.7902 35.6997 45.8228 36.675L45.8403 36.6575ZM28.0998 19H39.5532C38.9402 17.4075 38.0121 15.9375 36.7686 14.695L30.6742 8.5875C29.4493 7.36831 27.9815 6.42027 26.366 5.805V17.25C26.366 18.2125 27.1541 19 28.1173 19H28.0998ZM36.5235 38.25H29.851C26.9614 38.25 24.5972 35.8875 24.5972 33C24.5972 30.1125 26.9614 27.75 29.851 27.75H36.5235C36.5235 26.4025 37.0313 25.055 38.0646 24.04C38.7126 23.3925 39.5006 22.9375 40.3238 22.71V22.5H28.0998C25.2101 22.5 22.8459 20.1375 22.8459 17.25V5.035C22.5657 5.0175 22.2855 5 21.9878 5H14.0895C9.25589 5 5.33301 8.92 5.33301 13.75V38.25C5.33301 43.08 9.25589 47 14.0895 47H31.6023C34.7722 47 37.5567 45.3025 39.0979 42.765C38.3136 42.3003 37.6638 41.6397 37.2124 40.8481C36.7611 40.0565 36.5236 39.1611 36.5235 38.25Z" fill="#1A1A1C"/>
</svg>
