<svg width="52" height="52" viewBox="0 0 52 52" fill="none" xmlns="http://www.w3.org/2000/svg">
<path d="M38.583 47H26.333C25.8689 47 25.4238 46.8156 25.0956 46.4874C24.7674 46.1592 24.583 45.7141 24.583 45.25V29.5C24.583 29.0359 24.7674 28.5908 25.0956 28.2626C25.4238 27.9344 25.8689 27.75 26.333 27.75H45.583C46.0471 27.75 46.4923 27.9344 46.8204 28.2626C47.1486 28.5908 47.333 29.0359 47.333 29.5V38.25C47.333 43.0747 43.4078 47 38.583 47ZM19.333 47H14.083C9.25826 47 5.33301 43.0747 5.33301 38.25V29.5C5.33301 29.0359 5.51738 28.5908 5.84557 28.2626C6.17376 27.9344 6.61888 27.75 7.08301 27.75H19.333C19.7971 27.75 20.2423 27.9344 20.5704 28.2626C20.8986 28.5908 21.083 29.0359 21.083 29.5V45.25C21.083 45.7141 20.8986 46.1592 20.5704 46.4874C20.2423 46.8156 19.7971 47 19.333 47ZM45.583 24.25H7.08301C6.61888 24.25 6.17376 24.0656 5.84557 23.7374C5.51738 23.4092 5.33301 22.9641 5.33301 22.5V13.75C5.33301 8.92525 9.25826 5 14.083 5H38.583C43.4078 5 47.333 8.92525 47.333 13.75V22.5C47.333 22.9641 47.1486 23.4092 46.8204 23.7374C46.4923 24.0656 46.0471 24.25 45.583 24.25Z" fill="#1A1A1C"/>
</svg>
