<svg width="52" height="52" viewBox="0 0 52 52" fill="none" xmlns="http://www.w3.org/2000/svg">
<path d="M25.383 38.3809C25.3836 36.2762 25.9514 34.2106 27.0268 32.4014C28.1021 30.5922 29.6452 29.1063 31.4937 28.0999C33.3421 27.0935 35.4277 26.604 37.5308 26.6827C39.634 26.7614 41.6771 27.4055 43.4452 28.5472C43.4577 27.6798 43.4643 26.7541 43.4643 25.7553C43.4643 20.6197 43.2897 17.4144 42.9445 14.0944H42.9936C42.8028 12.2444 42.0962 10.4851 40.9545 9.01696C39.8128 7.54881 38.2817 6.43077 36.5357 5.79016C36.4434 5.75523 36.351 5.72196 36.2579 5.69036C35.5679 5.45841 34.8545 5.30307 34.1305 5.22712L34.0615 5.21963C31.2995 4.93603 30.8562 4.70898 25.032 4.70898C19.2078 4.70898 18.2655 4.93603 15.506 5.22379L15.437 5.23127C14.677 5.31109 13.9288 5.47853 13.2073 5.73028V5.69285C11.4082 6.30453 9.82229 7.41921 8.63745 8.90475C7.45261 10.3903 6.71855 12.1844 6.52229 14.0744C6.17631 17.4011 6 20.6097 6 25.7553C6 30.9008 6.17631 34.1094 6.52229 37.4361C6.75854 39.7062 7.76835 41.826 9.3823 43.4398C10.9963 45.0536 13.1161 46.0632 15.3863 46.2992L15.4553 46.3067C18.2173 46.5945 18.6597 46.8215 24.4839 46.8215C26.4134 46.8215 27.8106 46.7966 28.9076 46.7525C27.7905 45.6634 26.903 44.3615 26.2976 42.9236C25.6922 41.4857 25.3812 39.941 25.383 38.3809ZM15.6524 15.7827H33.8086C34.334 15.7827 34.8379 15.9914 35.2094 16.3629C35.581 16.7345 35.7897 17.2383 35.7897 17.7637C35.7897 18.2891 35.581 18.793 35.2094 19.1646C34.8379 19.5361 34.334 19.7448 33.8086 19.7448H15.6565C15.1311 19.7448 14.6273 19.5361 14.2557 19.1646C13.8842 18.793 13.6755 18.2891 13.6755 17.7637C13.6755 17.2383 13.8842 16.7345 14.2557 16.3629C14.6273 15.9914 15.1311 15.7827 15.6565 15.7827H15.6524ZM15.6524 28.222C15.1339 28.2114 14.6402 27.998 14.2773 27.6275C13.9144 27.2571 13.7111 26.7592 13.7111 26.2406C13.7111 25.722 13.9144 25.224 14.2773 24.8536C14.6402 24.4832 15.1339 24.2697 15.6524 24.2591H26.0075C26.2712 24.2537 26.5332 24.301 26.7783 24.3981C27.0235 24.4953 27.2468 24.6404 27.4351 24.8249C27.6235 25.0094 27.7731 25.2297 27.8752 25.4728C27.9774 25.7159 28.03 25.9769 28.03 26.2406C28.03 26.5042 27.9774 26.7653 27.8752 27.0084C27.7731 27.2514 27.6235 27.4717 27.4351 27.6562C27.2468 27.8408 27.0235 27.9859 26.7783 28.083C26.5332 28.1802 26.2712 28.2274 26.0075 28.222H15.6524Z" fill="#1A1A1C"/>
<path d="M37.0904 29.4717C35.3282 29.4717 33.6056 29.9942 32.1404 30.9732C30.6752 31.9522 29.5332 33.3438 28.8589 34.9718C28.1845 36.5998 28.0081 38.3913 28.3519 40.1196C28.6956 41.8479 29.5442 43.4355 30.7903 44.6815C32.0363 45.9275 33.6239 46.7761 35.3522 47.1199C37.0805 47.4637 38.8719 47.2872 40.5 46.6129C42.128 45.9385 43.5195 44.7965 44.4985 43.3314C45.4775 41.8662 46.0001 40.1436 46.0001 38.3814C46.0001 36.0184 45.0614 33.7522 43.3905 32.0813C41.7196 30.4104 39.4534 29.4717 37.0904 29.4717ZM40.6217 39.6854H36.9132C36.632 39.6854 36.3623 39.5737 36.1634 39.3749C35.9646 39.176 35.8528 38.9063 35.8528 38.6251V32.9281C35.8528 32.6469 35.9646 32.3772 36.1634 32.1783C36.3623 31.9794 36.632 31.8677 36.9132 31.8677C37.1945 31.8677 37.4642 31.9794 37.663 32.1783C37.8619 32.3772 37.9736 32.6469 37.9736 32.9281V37.5647H40.6217C40.9029 37.5647 41.1726 37.6764 41.3715 37.8753C41.5703 38.0741 41.682 38.3438 41.682 38.6251C41.682 38.9063 41.5703 39.176 41.3715 39.3749C41.1726 39.5737 40.9029 39.6854 40.6217 39.6854Z" fill="#1A1A1C"/>
</svg>
