<svg width="52" height="52" viewBox="0 0 52 52" fill="none" xmlns="http://www.w3.org/2000/svg">
<path d="M24.1202 20.8417H29.7676V48.4735H24.1202V20.8417ZM13.1381 19.4299C8.46714 19.4299 4.66699 23.23 4.66699 27.9009V48.4735H10.3144V39.8008H15.9618V48.4736H21.6092V27.901C21.6091 23.23 17.8091 19.4299 13.1381 19.4299ZM15.9618 34.1534H10.3144V27.9009C10.3144 26.3439 11.5811 25.0772 13.1381 25.0772C14.695 25.0772 15.9617 26.3439 15.9617 27.9009V34.1534H15.9618ZM40.6234 12.5172L36.9538 5.80762L33.2842 12.5172L26.5745 16.1869L33.2842 19.8565L36.9538 26.5661L40.6234 19.8565L47.333 16.1869L40.6234 12.5172Z" fill="#1A1A1C"/>
</svg>
