<svg width="52" height="52" viewBox="0 0 52 52" fill="none" xmlns="http://www.w3.org/2000/svg">
<path d="M33.4762 3.94629H18.5239C13.371 3.94629 9.17871 7.87653 9.17871 12.7074V37.2386C9.17871 42.0694 13.371 45.9997 18.5239 45.9997H33.4762C38.6292 45.9997 42.8214 42.0694 42.8214 37.2386V12.7074C42.8214 7.87653 38.6292 3.94629 33.4762 3.94629ZM26.0001 33.7341H18.5239C18.0282 33.7341 17.5528 33.5495 17.2023 33.2209C16.8518 32.8923 16.6549 32.4466 16.6549 31.9819C16.6549 31.5172 16.8518 31.0715 17.2023 30.7429C17.5528 30.4143 18.0282 30.2297 18.5239 30.2297H26.0001C26.4958 30.2297 26.9712 30.4143 27.3217 30.7429C27.6722 31.0715 27.8691 31.5172 27.8691 31.9819C27.8691 32.4466 27.6722 32.8923 27.3217 33.2209C26.9712 33.5495 26.4958 33.7341 26.0001 33.7341ZM33.4762 24.973H18.5239C18.0282 24.973 17.5528 24.7884 17.2023 24.4598C16.8518 24.1312 16.6549 23.6855 16.6549 23.2208C16.6549 22.756 16.8518 22.3104 17.2023 21.9817C17.5528 21.6531 18.0282 21.4685 18.5239 21.4685H33.4762C33.9719 21.4685 34.4473 21.6531 34.7978 21.9817C35.1483 22.3104 35.3453 22.756 35.3453 23.2208C35.3453 23.6855 35.1483 24.1312 34.7978 24.4598C34.4473 24.7884 33.9719 24.973 33.4762 24.973ZM33.4762 16.2119H18.5239C18.0282 16.2119 17.5528 16.0273 17.2023 15.6986C16.8518 15.37 16.6549 14.9244 16.6549 14.4596C16.6549 13.9949 16.8518 13.5492 17.2023 13.2206C17.5528 12.892 18.0282 12.7074 18.5239 12.7074H33.4762C33.9719 12.7074 34.4473 12.892 34.7978 13.2206C35.1483 13.5492 35.3453 13.9949 35.3453 14.4596C35.3453 14.9244 35.1483 15.37 34.7978 15.6986C34.4473 16.0273 33.9719 16.2119 33.4762 16.2119Z" fill="#1A1A1C"/>
</svg>
