<svg width="52" height="52" viewBox="0 0 52 52" fill="none" xmlns="http://www.w3.org/2000/svg">
<path d="M26 5C14.4202 5 5 14.4202 5 26V38.25C5 43.0747 8.92525 47 13.75 47H26C37.5798 47 47 37.5798 47 26C47 14.4202 37.5798 5 26 5ZM36.5 21.625C36.5 23.0723 35.3223 24.25 33.875 24.25H29.5C29.0359 24.25 28.5908 24.0656 28.2626 23.7374C27.9344 23.4092 27.75 22.9641 27.75 22.5C27.75 22.0359 27.9344 21.5908 28.2626 21.2626C28.5908 20.9344 29.0359 20.75 29.5 20.75H30.627C29.3513 19.6193 27.7047 18.9965 26 19C22.1395 19 19 22.1395 19 26C19 29.8605 22.1395 33 26 33C27.3623 33.0003 28.6951 32.6031 29.835 31.8571C30.9749 31.111 31.8723 30.0486 32.4172 28.8C32.6031 28.3746 32.9504 28.0405 33.3826 27.8712C33.8148 27.7018 34.2966 27.7111 34.722 27.897C35.1474 28.0829 35.4815 28.4301 35.6508 28.8624C35.8202 29.2946 35.8109 29.7764 35.625 30.2017C34.8073 32.0742 33.4612 33.6675 31.7516 34.7865C30.0421 35.9055 28.0432 36.5016 26 36.5017C20.2092 36.5017 15.5 31.7925 15.5 26.0018C15.5 20.211 20.2092 15.5017 26 15.5017C28.618 15.5017 31.0995 16.5132 33 18.2107V17.2517C33 16.7876 33.1844 16.3425 33.5126 16.0143C33.8407 15.6861 34.2859 15.5017 34.75 15.5017C35.2141 15.5017 35.6593 15.6861 35.9874 16.0143C36.3156 16.3425 36.5 16.7876 36.5 17.2517V21.6268V21.625Z" fill="#1A1A1C"/>
</svg>
